<?xml version="1.0" encoding="UTF-8"?><svg id="Layer_2" xmlns="http://www.w3.org/2000/svg" viewBox="0 0 1093.27 133.04"><defs><style>.cls-1{fill:#6ee956;stroke-width:0px;}</style></defs><g id="Layer_1-2"><path class="cls-1" d="M502.92,85.46c.33.11.71.15.98.35.39.28.64.2.96-.1.58-.55,1.01-.57,1.69-.1-.18.09-.31.15-.44.22-.59.29-.85.89-.62,1.46.24.61.72.88,1.26.7.56-.18.87-.73.75-1.32-.05-.25-.22-.53.27-.68.02.2.05.36.05.53-.02.7.37,1.22.95,1.25.55.03,1.09-.48,1.15-1.13.11-1.07-.6-1.93-1.66-1.5-.04.02-.1,0-.14,0-.28-.82.35-1.6,1.19-1.46.35.06.52,0,.54-.41.03-.48.16-.96.26-1.55.6.41.56.93.58,1.36.03.52.1.7.7.56.72-.16,1.22.62,1.05,1.52-.06,0-.12,0-.18-.01-.8-.27-1.38.04-1.6.88-.21.8.18,1.55.9,1.71.62.14,1.27-.45,1.19-1.07-.01-.1-.08-.21-.06-.29.04-.12.14-.23.22-.34.07.13.2.25.2.38,0,.23-.1.46-.08.69.06.5.51.89.99.94.43.04.85-.25,1.04-.72.17-.43.04-1-.32-1.28-.2-.15-.43-.25-.67-.39.18-.34.48-.39.8-.36.15.01.34.04.42.14.6.69,1.23.55,1.91.15.11-.07.3,0,.45,0-.05.13-.07.29-.16.38-1.78,2-2.46,4.39-2.49,7.01,0,.47-.11.64-.62.64-2.68-.02-5.35-.01-8.03,0-.81,0-.79,0-.8-.79-.05-2.22-.59-4.29-1.9-6.12-.26-.36-.56-.69-.85-1.03.04-.07.07-.14.11-.21Z"/><path class="cls-1" d="M470,108.97c-1.53,0-2.69-.38-3.35-1.61-.66-1.22-.62-2.51.05-3.71.49-.89,1.35-1.31,2.34-1.5,1.84-.34,3.68.52,4.15,2.03.77,2.48-.39,4.82-3.18,4.79ZM467.29,105.53c-.02,1.61.96,2.61,2.54,2.61,1.51,0,2.51-1.01,2.51-2.55,0-1.61-.94-2.61-2.48-2.62-1.61-.02-2.56.93-2.58,2.56Z"/><path class="cls-1" d="M495.19,102.55c-.18.41-.38.87-.62,1.41-.35-.73-.96-.94-1.59-.97-.61-.03-1.22.11-1.83.19-.09.01-.21.07-.26.15-.18.3-.47.62-.46.92,0,.41.44.56.83.58.6.04,1.21.01,1.81.07.46.04.93.13,1.37.28,1.24.43,1.35,2.22.46,2.91-.48.38-1.09.69-1.69.8-1.07.2-2.14.07-3.14-.44-.25-.13-.54-.16-.88-.26.17-.39.37-.85.63-1.46.22.88.85,1.09,1.44,1.26.82.23,1.67.27,2.46-.11.25-.12.49-.37.64-.61.27-.44.06-1-.44-1.13-.5-.12-1.02-.15-1.54-.2-.6-.06-1.21-.05-1.79-.17-.56-.12-1.01-.46-1.13-1.08-.13-.7-.06-1.34.54-1.83.97-.79,2.1-.91,3.28-.73.31.05.61.19.92.26.3.07.61.1.99.16Z"/><path class="cls-1" d="M513.05,102.19h1.32c-.35.88-.12,1.76-.17,2.61,0,.07.17.22.26.22,1.29.01,2.58,0,3.86,0v-2.82h1.21c-.04.33-.11.68-.11,1.03,0,1.65,0,3.3.01,4.95,0,.23.1.45.16.71h-1.39c.38-.88.13-1.81.18-2.73,0-.08-.18-.25-.28-.25-1.21-.02-2.42-.01-3.63,0-.1,0-.27.17-.27.26-.02.76,0,1.51.01,2.27,0,.13.12.26.2.44h-1.36c.04-.3.12-.6.12-.9.01-1.65.01-3.3,0-4.95,0-.27-.07-.54-.12-.86Z"/><path class="cls-1" d="M560.63,104.8v1.3c-.29-.06-.57-.16-.84-.17-.6-.02-1.21,0-1.82,0-.28,0-.4.1-.39.39.01.45.02.91,0,1.36-.01.32.14.41.43.41,1.16,0,2.32,0,3.48-.02.22,0,.44-.15.69-.24v1.18h-5.71c.04-.47.11-.87.11-1.27.01-1.57.01-3.13,0-4.7,0-.26-.08-.51-.14-.87h5.43v.98c-.39-.05-.77-.12-1.15-.13-.89-.02-1.78,0-2.68-.01-.36,0-.48.13-.47.47.02.39.02.77,0,1.16-.01.3.1.43.4.42.66-.01,1.31.01,1.97-.02.21,0,.42-.14.67-.23Z"/><path class="cls-1" d="M480.98,102.18h1.14c0,.7-.02,1.35-.03,2.01,0,.86.02,1.72,0,2.57-.04,1.34-.81,2.13-2.15,2.16-.8.02-1.61-.02-2.4-.15-.87-.14-1.35-.78-1.4-1.62-.09-1.34-.08-2.69-.11-4.03,0-.29-.05-.59-.08-.92h1.23c-.03.43-.08.87-.08,1.3-.01,1.04,0,2.09,0,3.13,0,.78.29,1.22,1.07,1.34.62.09,1.28.08,1.9-.02.76-.13,1.02-.52,1.03-1.33.02-1.13.01-2.25,0-3.38,0-.34-.06-.68-.1-1.06Z"/><path class="cls-1" d="M505.68,108.92h-1.32c.04-.46.11-.92.12-1.38.02-1.53.02-3.06,0-4.59,0-.25-.1-.5-.16-.78,1.19,0,2.37-.01,3.55,0,.5,0,1.02,0,1.49.15.83.26,1.2,1.07,1.04,2.1-.14.92-.71,1.5-1.6,1.53-.92.04-1.85.03-2.77.01-.4-.01-.54.11-.52.51.03.6,0,1.21.02,1.81,0,.19.08.38.14.63ZM507.04,105.15h0c.25,0,.5.01.76,0,.25-.01.5-.02.75-.06.67-.11.98-.49.94-1.14-.04-.62-.35-.88-1.09-.89-.81,0-1.61.02-2.42-.01-.39-.02-.47.14-.45.47.02.37.02.74,0,1.11-.03.39.1.56.51.53.33-.03.67,0,1.01,0Z"/><path class="cls-1" d="M540.54,108.93h-1.34c.05-.34.14-.67.15-.99.01-1.68.01-3.36,0-5.04,0-.22-.08-.44-.14-.73.37,0,.74,0,1.12,0,1.14.01,2.29-.02,3.42.05,1.01.06,1.56.74,1.54,1.75-.02,1.22-.56,1.93-1.61,1.98-.96.05-1.92.03-2.87.01-.36,0-.47.11-.45.46.02.57,0,1.14.01,1.71,0,.24.1.49.16.79ZM542.03,103.02s0,.02,0,.03c-.44,0-.88-.02-1.31.01-.12.01-.33.18-.33.29-.04.5-.03,1.01,0,1.51,0,.09.14.26.21.26,1.04-.02,2.08-.03,3.12-.12.46-.04.68-.5.66-1.1-.02-.47-.26-.76-.73-.81-.53-.05-1.07-.06-1.61-.09Z"/><path class="cls-1" d="M549.11,105.97v2.94h-1.27c.05-.35.14-.71.14-1.06.02-1.61.01-3.23,0-4.84,0-.25-.08-.5-.13-.81-.04.03,0-.02.03-.02,1.49,0,2.99-.03,4.48.04,1.11.06,1.57.71,1.54,1.94-.03,1.09-.63,1.77-1.67,1.81-1.04.03-2.08,0-3.12,0ZM550.7,103.06h0c-.35-.01-.71.02-1.06-.02-.48-.05-.67.11-.62.61.05.48-.11,1.11.14,1.39.22.24.88.1,1.35.1.55,0,1.11,0,1.65-.08.58-.08.89-.53.86-1.11-.03-.54-.33-.83-.97-.87-.45-.03-.91,0-1.36,0Z"/><path class="cls-1" d="M515.04,95v1.2h-9.4v-1.2h9.4Z"/><path class="cls-1" d="M464.19,107.82v1.14c-1.95-.04-3.88,0-5.72-.02.05-.41.15-.8.15-1.19.02-1.55.02-3.09,0-4.64,0-.29-.11-.59-.17-.92h1.27c-.03.4-.08.78-.08,1.17,0,1.4,0,2.79,0,4.19,0,.38.07.54.5.53,1.07-.03,2.15,0,3.23-.02.26,0,.52-.15.83-.24Z"/><path class="cls-1" d="M526.82,108.94c.06-.35.16-.65.16-.95.02-1.68.02-3.36,0-5.04,0-.24-.09-.47-.15-.76h1.24c-.03.42-.08.84-.08,1.25-.01,1.38,0,2.76-.02,4.13,0,.33.05.49.43.49,1.16-.02,2.32,0,3.48-.02.21,0,.41-.18.65-.3v1.22c-1.47-.01-2.93-.02-4.39-.03-.46,0-.92,0-1.33,0Z"/><path class="cls-1" d="M523.98,108.92h-1.4c.04-.38.11-.74.11-1.11.01-1.62.01-3.23,0-4.85,0-.24-.08-.48-.13-.77h1.31c-.24.77-.19,6.26.1,6.73Z"/><path class="cls-1" d="M486.45,108.92h-1.32c.06-.34.16-.68.17-1.02.02-1.61.02-3.23,0-4.84,0-.27-.09-.53-.15-.84h1.19c-.01,1.11-.05,2.24-.03,3.36.02,1.1-.15,2.22.13,3.34Z"/><path class="cls-1" d="M534.97,102.18h1.29c-.28,1.14-.13,2.28-.13,3.4,0,1.1-.15,2.21.13,3.33h-1.29c.05-.37.14-.72.15-1.07.02-1.58.02-3.16,0-4.74,0-.28-.09-.57-.15-.93Z"/><path class="cls-1" d="M330.52,122.41v-10.83c.24,0,.46,0,.68,0,7.77,0,15.54,0,23.3,0,.66,0,.67,0,.67-.66,0-4.95,0-9.9.01-14.85,0-.47-.14-.56-.58-.56-7.78.01-15.57,0-23.35,0-.23,0-.45,0-.72,0v-10.6h49.94v37.49h-49.96ZM355.2,90.02c-.4-.47-.75-.89-1.13-1.29-.09-.1-.28-.15-.42-.13-.05,0-.13.23-.13.36-.01.88-.02,1.76,0,2.63,0,.14.15.28.23.43.08-.14.22-.29.22-.43.02-.7.01-1.41.01-2.12.04-.01.07-.02.11-.04.36.4.72.81,1.1,1.25.39-.45.76-.86,1.12-1.27.1.76.09,1.47.11,2.18,0,.14.15.28.24.42.07-.13.2-.27.2-.4.02-.86.02-1.72,0-2.58,0-.15-.1-.3-.15-.46-.15.07-.34.11-.45.22-.36.37-.69.78-1.08,1.23ZM363.48,89.46s.08-.02.12-.03c.36.41.72.81,1.11,1.25.4-.45.75-.85,1.11-1.25.11.76.11,1.49.1,2.21,0,.32.09.46.48.32,0-.94,0-1.9,0-2.85,0-.17-.08-.35-.13-.52-.18.08-.39.13-.52.26-.36.36-.68.76-1.04,1.18-.41-.47-.76-.89-1.13-1.29-.08-.09-.27-.17-.37-.13-.08.02-.16.22-.16.35-.01.88-.02,1.76,0,2.63,0,.15.14.3.21.45.08-.14.22-.29.23-.43.02-.71.01-1.42.01-2.12ZM345.67,92.07c1.06.03,1.87-.71,1.89-1.73.02-1-.74-1.79-1.75-1.83-1.03-.04-1.88.72-1.92,1.72-.04,1.01.74,1.81,1.79,1.84ZM363.61,116.37c.12-.28,0-.45-.29-.52-.25-.06-.51-.13-.76-.15-.95-.07-1.75.52-1.95,1.41-.19.85.24,1.69,1.05,2.02.64.26,1.32.25,1.87-.13.2-.14.11-.71.15-1.09.03-.27-.09-.39-.37-.37-.15.01-.3-.02-.44,0-.12.03-.23.11-.35.17.11.08.23.15.33.24.12.1.32.22.31.31-.02.17-.13.44-.26.48-.54.16-1.07.1-1.48-.34-.38-.4-.5-.87-.29-1.39.23-.55.65-.87,1.24-.86.4,0,.79.13,1.23.2ZM335.3,117.48c0,.45-.02.91.01,1.36,0,.12.14.24.22.36.08-.11.2-.22.22-.34.05-.36-.07-.9.13-1.06.25-.19.74-.08,1.13-.09.15,0,.29,0,.44,0,.27-.02.39.09.38.37-.01.29-.02.59.01.88,0,.09.14.17.21.25.07-.08.21-.17.21-.25.01-.97.01-1.95,0-2.92,0-.08-.14-.17-.22-.25-.07.09-.2.17-.21.26-.03.29,0,.58-.02.88,0,.11-.09.31-.14.31-.6.02-1.2.05-1.79-.05-.09-.01-.08-.64-.12-.99,0-.03.01-.07,0-.1-.06-.11-.14-.21-.21-.31-.08.11-.23.22-.24.33-.03.45-.01.91-.01,1.36ZM374.27,117.57c.1-.07.17-.13.25-.19.33-.26.4-.64.25-.97-.12-.26-.41-.52-.68-.6-.34-.11-.74-.05-1.11-.03-.08,0-.22.15-.22.24-.02.98-.02,1.95,0,2.93,0,.08.14.17.21.25.07-.09.2-.17.21-.26.03-.26,0-.52.02-.78.01-.16.09-.32.13-.48.18.06.41.07.52.2.28.31.52.67.74,1.02.17.27.36.4.72.23-.34-.51-.67-1.01-1.03-1.55ZM367.15,119.2c.68,0,1.28,0,1.88,0,.08,0,.16-.11.23-.18-.08-.07-.16-.2-.25-.2-.31-.03-.62-.04-.93,0-.45.05-.48-.2-.46-.53.02-.3-.09-.66.43-.6.27.03.55.02.83,0,.1,0,.18-.13.27-.2-.09-.07-.17-.19-.27-.2-.31-.03-.62.02-.93-.02-.12-.02-.3-.17-.32-.29-.05-.24-.01-.5-.01-.79.47,0,.86.01,1.25,0,.12,0,.23-.11.34-.17-.1-.07-.2-.2-.31-.21-.49-.02-.98-.03-1.46,0-.1,0-.28.18-.29.27-.02,1.02-.01,2.05-.01,3.14ZM351.28,117.47h0c0,.49-.01.97.01,1.46,0,.09.16.18.25.27.07-.08.17-.16.21-.26.04-.08,0-.19,0-.29q0-.98.96-.99c.08,0,.17.02.24,0,.09-.04.16-.12.24-.18-.08-.08-.15-.22-.24-.23-.27-.03-.55-.03-.83-.01-.46.03-.37-.29-.37-.56,0-.25-.07-.55.36-.52.27.02.55.02.83,0,.1,0,.19-.11.28-.17-.1-.07-.2-.21-.3-.21-.44-.02-.88,0-1.31-.01-.25,0-.35.09-.35.34.01.45,0,.91,0,1.36ZM336.5,91.96c.39.13.5,0,.49-.33-.02-.54,0-1.07,0-1.61,0-.96,0-.95.96-1.04.11-.01.2-.14.3-.21-.1-.07-.21-.2-.31-.2-.8-.02-1.59,0-2.39-.01-.31,0-.37.13-.26.43.21,0,.44.03.66,0,.47-.07.58.14.56.57-.03.79,0,1.59,0,2.4ZM372.1,88.65c.19.24.35.5.56.72.56.57.81,1.22.72,2.02-.02.19-.21.61.23.6.42,0,.24-.42.21-.61-.09-.79.17-1.42.72-1.97.23-.23.42-.52.69-.87-.99-.01-1.05.93-1.62,1.25-.56-.31-.61-1.23-1.51-1.15ZM345.93,117.5c0,.45-.02.91.01,1.36,0,.12.17.32.28.33.52.03,1.04.02,1.56,0,.09,0,.17-.13.25-.21-.08-.06-.16-.17-.24-.17-.27-.02-.55-.04-.83,0-.43.05-.61-.08-.58-.55.04-.7.02-1.4,0-2.09,0-.13-.15-.26-.22-.38-.07.13-.21.27-.21.4-.03.44-.01.88-.01,1.31ZM341.86,117.47h0c0,.47-.02.94.01,1.41,0,.11.15.22.24.32.08-.1.21-.2.22-.3.02-.94.02-1.88,0-2.82,0-.1-.14-.2-.22-.3-.08.11-.22.22-.23.33-.03.45-.01.91-.01,1.36ZM357.14,117.53c0-.47.01-.95-.01-1.42,0-.12-.14-.23-.22-.34-.08.1-.22.2-.22.3-.02.94-.02,1.89,0,2.83,0,.1.15.19.23.29.07-.1.2-.2.21-.3.02-.45,0-.91.01-1.37ZM347.07,90.32c.02-.7-.65-1.39-1.36-1.39-.7,0-1.33.64-1.33,1.35,0,.75.57,1.33,1.32,1.34.74,0,1.35-.57,1.37-1.3ZM373.57,117.29c.47-.02.75-.21.76-.57,0-.37-.23-.53-.73-.57-.47-.04-.43.25-.41.55.01.27-.11.61.39.58Z"/><path class="cls-1" d="M646.96,108.4v-15.16c.15-.02.29-.06.43-.06,3.62,0,7.25-.04,10.87.04,2.29.05,4.44.7,6.3,2.12,3.44,2.63,4.01,8.3-.5,11.2-1.72,1.11-3.64,1.62-5.63,1.7-3.43.14-6.88.11-10.32.14-.36,0-.72,0-1.15,0ZM649.56,105.92c2.68,0,5.3,0,7.92,0,1.34,0,2.65-.21,3.9-.69,1.99-.77,3.32-2.08,3.45-4.32.1-1.82-1.16-3.61-3.15-4.51-1.18-.53-2.43-.76-3.71-.77-2.66-.03-5.31,0-7.97.01-.14,0-.28.02-.43.03v10.25Z"/><path class="cls-1" d="M681.11,108.68c-2.5.04-4.9-.39-7.06-1.72-2.48-1.53-3.96-3.71-3.73-6.73.19-2.51,1.59-4.32,3.68-5.61,2.34-1.45,4.95-1.87,7.64-1.78,2.44.08,4.79.55,6.91,1.9,4.6,2.92,4.67,9.05.1,12.02-2.06,1.34-4.36,1.85-6.78,1.92-.25,0-.51,0-.76,0ZM681.5,106.31c.51-.03,1.02-.05,1.52-.11,1.74-.21,3.38-.7,4.76-1.84,2.4-1.96,2.46-5.07.1-7.06-.61-.52-1.34-.97-2.08-1.26-2.24-.87-4.57-.95-6.93-.61-1.6.23-3.08.73-4.34,1.76-1.68,1.38-2.66,3.91-.85,6.24.6.77,1.33,1.34,2.19,1.76,1.77.87,3.66,1.14,5.62,1.1Z"/><path class="cls-1" d="M626.15,108.38c-.84,0-1.59.03-2.33-.02-.21-.01-.48-.18-.61-.36-.69-.96-1.35-1.94-1.99-2.93-.19-.29-.41-.4-.76-.4-2.84.01-5.68.01-8.51,0-.36,0-.55.11-.74.41-.59.96-1.23,1.89-1.83,2.84-.19.3-.41.47-.79.46-.72-.02-1.44,0-2.26,0,3.32-5.16,6.59-10.24,9.92-15.41,3.32,5.16,6.59,10.25,9.91,15.4ZM616.24,97.25c-1.11,1.68-2.15,3.27-3.27,4.96h6.47c-1.07-1.66-2.09-3.25-3.2-4.96Z"/><path class="cls-1" d="M631.21,93.21v12.74c.45,0,.84,0,1.24,0,3.62,0,7.24,0,10.87,0,.33,0,.46.09.44.44-.02.53-.02,1.06,0,1.58,0,.31-.07.45-.43.45-4.73-.02-9.47-.02-14.2-.03-.16,0-.32-.02-.51-.03-.01-.21-.03-.39-.03-.56,0-4.66,0-9.32-.01-13.98,0-.53.17-.65.65-.62.63.04,1.27,0,1.99,0Z"/><path class="cls-1" d="M676.35,111.66c1.13,0,2.2-.05,3.26.01.85.05,1.37.95.94,1.54-.18.25-.51.39-.88.66.49.38.96.75,1.44,1.11l-.21.32c-.25-.06-.51-.11-.74-.2-.13-.05-.25-.17-.32-.29-.56-.99-1.48-1.01-2.45-.96-.34.02-.45.14-.43.46.02.2.05.41,0,.6-.03.14-.18.25-.27.38-.11-.13-.32-.25-.32-.39-.03-.8-.02-1.6-.02-2.39,0-.25,0-.5,0-.85ZM678.38,112.17s0,0,0,.01c-.36,0-.73-.04-1.08.02-.14.02-.35.27-.34.41,0,.25.14.69.25.7.74.07,1.48.09,2.22,0,.22-.02.4-.42.6-.64-.21-.17-.39-.42-.62-.48-.32-.08-.68-.02-1.02-.02Z"/><path class="cls-1" d="M657.03,113.61c-.12,1.08-.08,1.12.88,1.12.62,0,1.24-.02,1.85.02.23.01.44.16.67.25-.01.06-.03.13-.04.19-.15.03-.3.09-.45.09-1.05.01-2.11.02-3.16,0-.14,0-.4-.23-.4-.35-.03-1.05-.02-2.1-.02-3.27,1.18,0,2.35,0,3.52.01.1,0,.2.17.3.25-.11.09-.22.25-.34.25-.78.03-1.56.03-2.34.02-.35,0-.53.08-.52.49,0,.4.17.48.53.46.71-.03,1.42-.04,2.13-.01.16,0,.31.2.47.3-.15.06-.29.17-.44.18-.87.02-1.74,0-2.63,0Z"/><path class="cls-1" d="M621.91,111.64c1.2,0,2.32,0,3.44.01.13,0,.26.18.39.28-.13.09-.26.24-.4.25-.64.02-1.27-.01-1.91-.01-.28,0-.57.02-.84.04-.12.92-.1.93.7.92.62-.01,1.24-.03,1.85,0,.17,0,.33.17.5.26-.17.08-.34.22-.52.23-.82.02-1.63.01-2.52.01-.02.18-.04.37-.06.56-.05.4.12.56.52.55.8-.01,1.6-.02,2.4.01.16,0,.32.18.48.27-.15.09-.31.24-.46.25-1.05.02-2.11.03-3.16,0-.14,0-.39-.22-.39-.35-.03-1.05-.02-2.1-.02-3.28Z"/><path class="cls-1" d="M684.14,113.61c-.17,1.07-.13,1.12.84,1.11.64,0,1.27-.02,1.91.02.21.01.4.17.6.26-.01.06-.03.12-.04.18-.19.03-.37.09-.56.09-.98.01-1.96,0-2.95.01-.38,0-.5-.11-.48-.51.03-1.01.01-2.02.01-3.15,1.15,0,2.29,0,3.43.01.13,0,.25.19.37.29-.13.08-.25.22-.38.22-.76.02-1.53.02-2.29.02-.32,0-.55.02-.55.46,0,.45.22.5.58.49.69-.02,1.38-.04,2.07-.01.16,0,.32.19.48.3-.16.07-.31.19-.47.19-.85.02-1.7,0-2.58,0Z"/><path class="cls-1" d="M664.79,112.28c-.73-.1-1.45-.21-2.18-.29-.19-.02-.41.03-.58.12-.13.07-.27.27-.26.4.01.13.19.33.32.35.41.08.83.07,1.25.13.3.04.61.09.9.19.43.15.88.43.78.91-.08.37-.42.84-.75.96-1.1.41-2.21.31-3.23-.34-.1-.07-.16-.21-.24-.32.03-.05.05-.09.08-.14.21.05.42.11.63.15.71.11,1.42.22,2.13.3.15.02.35-.04.45-.15.14-.14.29-.36.29-.54,0-.13-.23-.35-.38-.38-.64-.1-1.3-.14-1.95-.22-.71-.08-1.15-.61-.93-1.17.08-.21.28-.46.48-.54.91-.37,1.85-.35,2.76.03.21.09.37.31.55.47-.04.02-.08.04-.13.07Z"/><path class="cls-1" d="M665.57,114.21c.35.09.59.13.8.22.72.33,1.48.4,2.24.22.23-.05.51-.34.58-.58.11-.39-.29-.47-.56-.5-.56-.08-1.12-.08-1.68-.14-.6-.06-1.02-.41-1.05-.85-.04-.47.29-.82.91-.99.8-.21,1.59-.16,2.36.13.22.09.39.32.58.49-.04.06-.09.12-.13.18-.23-.08-.46-.2-.69-.22-.68-.05-1.36-.08-2.03-.06-.13,0-.26.24-.4.36.15.13.28.35.46.39.39.09.79.08,1.19.13.3.04.61.08.9.17.45.14.8.41.81.91.01.49-.31.85-.73.99-1.14.38-2.25.31-3.29-.36-.06-.04-.1-.1-.14-.16-.03-.04-.04-.1-.12-.34Z"/><path class="cls-1" d="M626.44,114.23c.27.08.54.13.79.24.71.32,1.45.36,2.18.16.24-.07.41-.38.61-.59-.21-.16-.4-.41-.63-.46-.57-.1-1.16-.1-1.74-.15-.52-.05-.97-.41-1.04-.82-.06-.39.25-.8.79-.98.9-.29,1.8-.22,2.66.17.16.07.24.3.35.46-.18,0-.36,0-.53-.02-.62-.08-1.24-.19-1.87-.25-.17-.02-.37.06-.51.15-.11.08-.24.25-.23.37.01.12.18.3.3.32.41.08.83.07,1.24.15.44.08.9.16,1.3.34.56.26.66.86.24,1.32-.21.23-.51.43-.81.51-.95.23-1.88.15-2.75-.33-.17-.1-.31-.25-.47-.38l.1-.21Z"/><path class="cls-1" d="M687.95,114.25c.21.06.43.14.64.17.69.11,1.38.23,2.08.28.4.03.81-.15.79-.63-.02-.46-.48-.49-.82-.53-.47-.06-.94-.06-1.41-.1-.69-.06-1.13-.41-1.13-.88,0-.49.41-.94,1.06-.97.71-.03,1.44.02,2.15.12.25.03.46.31.69.48-.04.07-.07.13-.11.2-.25-.07-.49-.17-.74-.19-.67-.06-1.35-.11-2.03-.09-.16,0-.31.28-.47.43.17.11.33.29.51.33.41.08.83.08,1.24.13.3.04.61.09.9.19.41.14.76.35.77.87,0,.54-.31.89-.75,1.03-1.1.34-2.18.28-3.19-.35-.11-.07-.17-.2-.26-.31.03-.06.06-.11.09-.17Z"/><path class="cls-1" d="M618.73,115.3c-.42-.06-.76-.09-1.1-.17-.85-.22-1.42-.94-1.41-1.77,0-.83.62-1.63,1.49-1.77.63-.1,1.3-.09,1.94,0,.82.12,1.49.94,1.52,1.7.04.78-.48,1.49-1.34,1.76-.37.12-.77.17-1.1.24ZM618.78,111.91c-.43.08-.8.11-1.13.23-.54.18-.81.64-.8,1.23.01.56.22,1.07.79,1.16.68.11,1.4.12,2.09.04.61-.07.81-.62.85-1.18.04-.54-.19-.97-.71-1.17-.36-.14-.76-.21-1.09-.3Z"/><path class="cls-1" d="M672.92,115.31c-.37-.1-.89-.19-1.36-.4-1.21-.55-1.32-2.25-.2-2.98,1.02-.66,2.1-.63,3.16-.1.76.38,1.08,1.06.97,1.84-.09.65-.77,1.34-1.49,1.49-.3.06-.61.08-1.07.15ZM673,114.84s.03-.05.04-.07c.3-.04.61-.06.91-.14.53-.13.82-.5.91-1.03.09-.51-.04-.92-.47-1.25-.63-.48-1.9-.53-2.63-.07-.83.52-.89,1.58-.06,2.11.38.24.86.31,1.3.45Z"/><path class="cls-1" d="M610.32,112.31c-.76-.11-1.46-.22-2.16-.32-.12-.02-.28-.03-.37.03-.22.13-.41.3-.61.46.2.14.38.35.6.41.33.09.69.04,1.03.11.42.08.86.16,1.24.35.64.32.67.83.23,1.39-.62.79-3.42.74-3.99-.49.34.08.62.09.85.2.74.36,1.52.39,2.28.17.24-.07.41-.39.61-.6-.21-.15-.4-.39-.63-.43-.59-.1-1.19-.11-1.79-.16-.55-.05-.98-.39-1.01-.82-.04-.55.34-.82.79-.98.86-.3,1.72-.2,2.56.12.27.1.54.26.38.56Z"/><path class="cls-1" d="M615.48,115.15h-.66c0-.32.03-.63-.01-.93-.02-.14-.2-.35-.32-.36-.54-.04-1.09-.03-1.63-.03-.23,0-.46,0-.76,0,0,.36.03.66-.01.96-.02.14-.16.26-.24.38-.12-.1-.34-.2-.34-.31-.03-1-.03-2-.01-3,0-.11.22-.22.33-.32.09.13.24.25.26.38.06.44-.08,1.03.16,1.29.21.22.82.06,1.25.07,1.3.03,1.29.03,1.32-1.3,0-.15.19-.3.3-.45.12.12.35.23.35.35.03,1.07.02,2.14.02,3.26Z"/><path class="cls-1" d="M635.62,113.59c.38.25.72.48,1.03.68.34-.24.1-.92.85-.8-.15.37-.28.69-.42,1.03.23.16.47.34.72.52-.02.04-.03.08-.05.12-.13.01-.31.08-.4.02-.65-.46-1.27,0-1.9.05-.34.02-.69.02-1.02-.05-.46-.1-.79-.37-.83-.88-.04-.49.29-.71.68-.87.1-.04.2-.07.34-.13-.32-.41-.63-.81-.09-1.21.57-.43,1.4-.38,1.79.08.24.29.16.47-.7,1.43ZM635.96,114.73c.04-.06.08-.13.11-.19-.29-.26-.57-.55-.89-.77-.15-.1-.44-.15-.59-.08-.19.09-.46.4-.41.51.08.21.33.45.55.5.4.08.82.02,1.23.02ZM635.36,113.25c.26-.34.49-.5.53-.7.06-.33-.22-.52-.51-.44-.21.05-.47.26-.53.45-.04.13.25.35.51.69Z"/><path class="cls-1" d="M650.15,114.13c-.16.22-.27.52-.49.65-.9.54-1.89.64-2.89.35-.78-.22-1.36-1-1.39-1.78-.03-.82.35-1.37,1.27-1.69,1.07-.37,2.12-.29,3.06.4.15.11.24.3.36.45-.04.05-.08.1-.12.15-.24-.1-.49-.17-.7-.32-.71-.49-1.48-.45-2.25-.26-.71.18-.93.53-.93,1.33,0,.63.3,1.08.93,1.22.85.2,1.69.23,2.45-.35.16-.13.36-.2.54-.3.06.05.11.1.17.15Z"/><path class="cls-1" d="M655.5,113.93c-.12.31-.15.56-.29.69-.82.8-3.22,1.04-4.2-.3-.58-.79-.26-1.99.69-2.53.95-.54,2.58-.42,3.41.27.12.1.21.24.32.35l-.07.18c-.21-.07-.45-.09-.63-.21-.78-.51-1.6-.55-2.46-.28-.5.16-.87.47-.89,1.04-.03.59.14,1.12.73,1.34.94.36,1.88.42,2.74-.25.1-.08.2-.15.31-.22.04-.03.1-.03.33-.1Z"/><path class="cls-1" d="M640.24,115.18c.81-1.15,1.63-2.29,2.49-3.49.83,1.2,1.62,2.33,2.44,3.5-.5.18-.72-.04-.86-.36-.16-.37-.43-.51-.82-.48-.36.02-.73.04-1.09.01-.61-.04-1.14.02-1.49.63-.09.16-.36.23-.54.34-.04-.05-.08-.11-.13-.16ZM642.7,112.48c-.34.53-.59.91-.85,1.31h1.69c-.3-.48-.53-.84-.83-1.31Z"/><path class="cls-1" d="M682.51,111.71c0,1.11,0,2.19-.01,3.28,0,.1-.19.19-.3.29-.1-.12-.29-.24-.3-.36-.02-1.05-.01-2.11-.01-3.2h.62Z"/><path class="cls-1" d="M74.18,98.26c-.39,2.4,1.38,4.8,3.76,5.14,1.59.22,3.08-.06,4.36-1.09.16-.13.24-.11.33.05.29.5.6,1,.87,1.52.04.08-.04.31-.13.36-.56.32-1.11.67-1.71.89-1.75.62-3.56.85-5.35.29-2.75-.86-4.36-2.78-4.82-5.61-.29-1.76-.18-3.5.52-5.16,1.01-2.43,3.51-4.62,7.02-4.28,1.27.12,2.48.42,3.52,1.18,1.8,1.31,2.46,3.15,2.42,5.3,0,.36-.08.71-.11,1.06-.02.28-.15.36-.44.36-3.3-.01-6.61,0-9.91,0-.11,0-.21,0-.34,0ZM74.15,96.34c.23.02.35.04.48.04,2.39,0,4.79,0,7.18,0,.12,0,.25.03.35-.01.09-.04.21-.16.2-.24-.06-1.05-.45-1.97-1.25-2.67-1.96-1.71-5.41-.91-6.5,1.51-.19.42-.3.89-.46,1.38Z"/><path class="cls-1" d="M22.08,98.26c-.12,2.74,1.5,5.53,5.17,5.18,1.4-.14,1.92-.37,3.16-1.24.07.1.15.2.21.31.25.42.49.85.76,1.25.14.22.13.35-.08.5-.73.55-1.55.89-2.43,1.11-1.3.33-2.63.48-3.95.21-2.26-.46-3.99-1.71-4.92-3.83-1.11-2.56-1.04-5.17.21-7.67,1.07-2.15,3.6-4.04,6.74-3.72,1.35.14,2.62.46,3.7,1.31,1.78,1.39,2.36,3.29,2.23,5.45-.07,1.14-.11,1.14-1.26,1.14-3.04,0-6.08,0-9.12,0-.14,0-.28,0-.42,0ZM26.14,96.46h0c1.21,0,2.42,0,3.62,0,.48,0,.48,0,.43-.46-.03-.21-.06-.43-.12-.63-.59-1.99-2.22-2.99-4.53-2.65-1.8.26-3.18,1.69-3.48,3.47-.05.31.13.27.31.27,1.26,0,2.51,0,3.77,0Z"/><path class="cls-1" d="M59.59,102c.56-1.62,1.1-3.18,1.63-4.74.75-2.18,1.5-4.36,2.24-6.55.08-.24.19-.37.48-.36.76.02,1.53,0,2.36,0-.15.41-.27.75-.4,1.09-1.96,5.4-3.94,10.79-5.88,16.2-.55,1.53-1.65,2.43-3.07,3.05-.82.36-1.69.49-2.58.56-.18.01-.27-.02-.27-.22,0-.7,0-1.4,0-2.12.39-.05.76-.07,1.13-.14.87-.15,1.64-.51,2.27-1.13.39-.39.57-.85.58-1.41.02-1.21-.4-2.31-.83-3.41-1.51-3.89-3.02-7.79-4.53-11.68-.08-.22-.18-.43-.29-.67.12-.03.19-.05.25-.05.69,0,1.39,0,2.08,0,.26,0,.41.09.51.34,1.36,3.62,2.74,7.23,4.11,10.84.05.13.12.24.21.4Z"/><path class="cls-1" d="M13.66,105.7v-12.82c-.61,0-1.19-.01-1.77,0-.28,0-.37-.07-.36-.37.03-.58.02-1.17,0-1.75,0-.28.06-.41.38-.39.5.03,1.01,0,1.51,0,.22,0,.27-.07.3-.28.08-.66.11-1.34.3-1.97.71-2.36,2.88-3.77,5.35-3.49.54.06,1.08.2,1.62.29.22.04.29.12.2.34-.2.48-.39.97-.57,1.46-.07.19-.18.22-.36.16-.18-.06-.37-.11-.55-.15-2.11-.42-3.34,1.2-3.44,2.8-.02.26,0,.52,0,.83.27,0,.53,0,.79,0,.63,0,1.27.02,1.9,0,.27,0,.39.07.38.37-.02.6-.02,1.19,0,1.79,0,.27-.09.35-.36.34-.73-.02-1.46-.03-2.19-.03-.5,0-.5,0-.5.49,0,3.43,0,6.86,0,10.29,0,.57,0,1.14.03,1.72,0,.25-.05.36-.33.36-.75-.02-1.51,0-2.31,0Z"/><path class="cls-1" d="M33.64,104.5c.31-.83.62-1.65.93-2.48.9.6,1.75,1.16,2.77,1.35.5.09,1.02.1,1.52.05,1.88-.2,2-2.35,1.14-3.2-.45-.45-.99-.83-1.54-1.15-.79-.46-1.65-.82-2.45-1.26-1.02-.57-1.81-1.36-2.15-2.52-.59-2.02.42-3.91,2.44-4.6,1.59-.54,3.16-.4,4.72.11.44.14.88.3,1.31.48.09.04.21.22.19.29-.21.73-.45,1.45-.7,2.23-.15-.11-.28-.2-.41-.29-1.08-.76-2.27-1.13-3.59-.81-1.35.32-1.8,1.54-.94,2.63.33.41.81.74,1.28,1,.73.4,1.54.66,2.27,1.06.57.31,1.15.66,1.62,1.11,2.19,2.04,1.42,5.79-1.41,6.79-2.13.75-4.23.55-6.28-.38-.21-.09-.41-.19-.62-.29-.03-.02-.06-.04-.12-.09Z"/><path class="cls-1" d="M47.78,86.29c0,.45,0,.82,0,1.19,0,.87,0,1.74,0,2.61,0,.25.07.33.32.33,1.11-.01,2.23,0,3.34,0,.33,0,.48.07.46.44-.03.6,0,1.21,0,1.86-.23,0-.42,0-.61,0-1.05,0-2.11,0-3.16,0-.27,0-.35.07-.34.34.01,2.22,0,4.43.02,6.65,0,.58.05,1.17.14,1.74.24,1.61,1.24,2.2,2.92,2.02.56-.06,1.11-.26,1.7-.4.08.46.18.97.26,1.48.13.78.14.8-.63.93-1.16.19-2.32.37-3.5.18-1.83-.3-3.29-1.88-3.48-3.74-.05-.52-.06-1.05-.07-1.57,0-2.45,0-4.91.02-7.36,0-.21-.08-.27-.27-.27-.39,0-.79,0-1.18,0-.22,0-.29-.08-.29-.3.01-.57,0-1.14,0-1.71,0-.22.08-.3.3-.29.37.01.74-.01,1.11,0,.28.02.34-.1.33-.35-.02-.8-.02-1.6,0-2.39,0-.13.07-.34.17-.38.79-.34,1.59-.64,2.46-.99Z"/><path class="cls-1" d="M67.05,84.62c.81,0,1.58,0,2.36,0,.23,0,.26.13.26.33-.01,5.22-.02,10.43-.02,15.65,0,.23.02.45.05.68.16,1.15.9,1.9,2.06,2.05.3.04.38.14.37.42-.02.54,0,1.07,0,1.61,0,.25-.06.37-.34.36-.92-.04-1.81-.2-2.64-.58-1.35-.61-1.95-1.73-2.09-3.14-.06-.63-.04-1.26-.04-1.89,0-5.03,0-10.05,0-15.08,0-.13.03-.25.04-.4Z"/><path class="cls-1" d="M5.09,105.7c-1.27-.02-2.44-.16-3.48-.84-1-.66-1.43-1.65-1.52-2.78-.07-.86-.08-1.74-.08-2.6C0,94.63,0,89.79,0,84.96c0-.26.08-.35.35-.35.63.02,1.27.02,1.9,0,.33-.01.4.12.4.42-.01,2.42-.02,4.84-.02,7.25,0,2.66,0,5.31,0,7.97,0,.39,0,.79.06,1.18.18,1.06.97,1.79,2.08,1.9.29.03.35.13.33.4-.03.47-.01.95-.01,1.43,0,.17,0,.35,0,.55Z"/><path class="cls-1" d="M7.69,92.56c-.58,0-1.12,0-1.65,0-.24,0-.34-.06-.34-.32,0-.54-.03-1.07-.02-1.61,0-.09.15-.25.24-.25,1.4-.01,2.8-.01,4.2,0,.08,0,.21.17.22.27.03.28,0,.57,0,.86,0,4.61,0,9.22.02,13.82,0,.33-.09.4-.41.39-.61-.02-1.22,0-1.83,0-.13,0-.26-.01-.43-.02v-13.15Z"/><path class="cls-1" d="M10.87,86.22c-.04.2-.03.59-.18.89-.17.35-.46.65-.74.93-.88.88-1.94,1.18-3.12.8-1.15-.37-1.83-1.21-2.05-2.4-.2-1.03.2-1.86.87-2.6.06-.07.14-.15.22-.17.54-.16,1.08-.29,1.62-.44.24-.07.48-.18.72-.21.82-.11,1.38.4,1.87.93.55.59.78,1.32.79,2.28Z"/><path class="cls-1" d="M76.32,114.83c0,.96-.72,1.68-1.67,1.69-.9,0-1.62-.71-1.62-1.62,0-1,.7-1.71,1.68-1.71.94,0,1.61.68,1.61,1.64ZM73.53,114.87c0,.75.47,1.28,1.14,1.29.66.01,1.14-.55,1.13-1.33,0-.7-.51-1.26-1.14-1.27-.64,0-1.13.57-1.13,1.31Z"/><path class="cls-1" d="M52.55,114.85c.01.94-.68,1.64-1.63,1.66-.95.02-1.61-.64-1.63-1.6-.01-1,.65-1.69,1.61-1.71,1.01-.01,1.63.62,1.64,1.65ZM52.03,114.86c0-.61-.27-1.06-.74-1.22-.62-.22-1.21.09-1.43.76-.25.76.09,1.53.75,1.73.79.23,1.43-.33,1.42-1.27Z"/><path class="cls-1" d="M7.29,114.82c0,1-.67,1.69-1.64,1.7-.92,0-1.62-.71-1.61-1.65,0-1,.7-1.69,1.7-1.68.95.01,1.55.65,1.55,1.63ZM4.54,114.86c0,.75.45,1.28,1.13,1.3.66.02,1.13-.52,1.16-1.32.02-.66-.53-1.27-1.15-1.27-.65,0-1.13.54-1.14,1.3Z"/><path class="cls-1" d="M78.61,115.14v1.25c-.46.09-.49.07-.49-.32,0-.83-.02-1.66,0-2.5,0-.1.14-.27.23-.27.4-.03.81-.04,1.21-.01.4.03.66.27.77.65.1.36-.09.61-.35.83-.07.06-.11.22-.08.31.14.37.31.73.45,1.1.03.08-.04.2-.06.3-.12-.05-.28-.07-.33-.15-.1-.17-.14-.37-.2-.57-.16-.58-.48-.77-1.14-.62ZM78.61,114.17q0,.61.61.55s.02,0,.04,0c.34-.01.54-.19.58-.52.04-.34-.2-.49-.48-.57-.58-.17-.74-.05-.74.54Z"/><path class="cls-1" d="M14.25,115.15c0,.36.01.71,0,1.05,0,.09-.14.17-.21.25-.08-.08-.22-.16-.22-.25-.03-.89-.04-1.79-.04-2.68,0-.08.13-.22.21-.23.4-.03.81-.05,1.21-.01.41.04.72.27.81.7.08.38-.12.63-.42.83-.04.02-.06.07-.05.05.17.45.33.87.46,1.29.03.09-.04.22-.07.33-.12-.06-.28-.1-.35-.2-.09-.13-.11-.31-.15-.47-.17-.65-.45-.81-1.17-.66ZM14.64,114.73c.6-.03.9-.25.88-.61-.02-.34-.41-.57-.92-.54-.38.02-.39.06-.37.87,0,.32.19.3.41.28Z"/><path class="cls-1" d="M60.84,114.83c.19.48.36.89.49,1.3.03.09-.04.22-.06.34-.12-.06-.29-.09-.35-.19-.11-.19-.13-.43-.22-.64-.08-.16-.18-.35-.33-.44-.47-.3-.78-.11-.8.43,0,.19.02.39-.01.57-.02.1-.14.18-.21.26-.08-.08-.22-.16-.23-.25-.03-.89-.05-1.78-.05-2.68,0-.08.12-.22.19-.23.42-.03.85-.06,1.28-.03.37.03.65.24.75.62.09.37-.03.68-.38.88-.04.02-.08.05-.08.05ZM59.58,114.2c.08.2-.16.56.32.55.62-.02.95-.21.96-.57,0-.36-.37-.6-.91-.6-.48,0-.34.35-.37.62Z"/><path class="cls-1" d="M82.07,113.23c.59,0,1.14,0,1.69,0,.1,0,.2.12.3.18-.11.07-.21.19-.33.2-.27.03-.55.02-.82,0-.25-.01-.36.08-.34.33,0,.07.01.14,0,.21-.06.36.11.46.44.43.24-.02.48,0,.72.03.09.01.17.12.26.19-.09.06-.17.17-.27.17-.3.02-.6.01-.9,0-.18,0-.26.07-.26.25,0,1.03-.08.82.75.83.17,0,.34-.02.5.01.1.02.19.12.29.18-.09.07-.18.2-.27.2-.53,0-1.05,0-1.58-.03-.07,0-.19-.14-.19-.22-.01-.96,0-1.93,0-2.99Z"/><path class="cls-1" d="M11.28,114.4c0-.3-.02-.6,0-.89,0-.09.13-.17.21-.26.09.08.27.16.27.25,0,.65.04,1.31-.04,1.96-.11.82-.63,1.04-1.38,1.07-.68.02-1.17-.51-1.2-1.21-.02-.57-.02-1.14-.03-1.71,0-.19.05-.37.26-.33.11.02.25.22.26.34.03.57,0,1.14.01,1.71.01.62.42.94,1.02.81.39-.08.59-.33.62-.81.01-.15,0-.31,0-.46,0-.15,0-.31,0-.46Z"/><path class="cls-1" d="M54.48,114.42c0-.27,0-.55,0-.82,0-.17,0-.38.24-.34.09.02.2.21.21.33.03.44.02.88.02,1.32,0,.2,0,.41.03.61.06.38.36.63.75.65.44.02.78-.17.83-.57.07-.52.05-1.04.06-1.56,0-.19-.02-.39,0-.57.02-.09.15-.22.21-.21.1.01.27.13.27.2,0,.72.02,1.46-.08,2.17-.09.6-.75.96-1.41.89-.68-.07-1.1-.48-1.14-1.15-.02-.31,0-.62,0-.93h0Z"/><path class="cls-1" d="M35.82,113.23c.59,0,1.15,0,1.7,0,.09,0,.18.12.27.18-.09.07-.17.19-.26.19-.3.03-.6.02-.89.01-.26-.01-.33.11-.34.34-.03.6-.02.62.58.63.17,0,.34-.01.5.02.12.03.23.12.34.18-.11.06-.22.17-.33.18-.27.03-.55-.01-.82.02-.09.01-.24.15-.25.24-.1.83-.09.84.74.83.19,0,.39-.02.57.01.09.02.16.13.24.2-.08.07-.17.18-.25.19-.53,0-1.05,0-1.58-.03-.07,0-.2-.14-.2-.22-.01-.96,0-1.92,0-2.99Z"/><path class="cls-1" d="M20.22,115.99c.16.03.31.09.47.1.27.01.55.05.8-.02.4-.11.46-.5.15-.77-.16-.14-.37-.21-.56-.31-.08-.04-.18-.07-.26-.11-.48-.23-.68-.52-.62-.89.06-.39.45-.73.93-.76.26-.02.52.01.78.06.08.01.14.15.21.24-.1.04-.2.12-.3.12-.26.02-.53-.04-.77.02-.14.03-.31.21-.34.34-.03.12.09.33.21.4.21.15.47.23.71.33.45.19.72.54.7.9-.02.35-.34.72-.81.8-.35.06-.73.02-1.09-.02-.11-.01-.21-.19-.31-.28.03-.04.06-.09.1-.13Z"/><path class="cls-1" d="M65.36,116.01c.08,0,.16,0,.24.02.12.02.23.07.35.09.47.1.9-.06.99-.35.1-.3-.12-.57-.64-.77-.18-.07-.36-.14-.52-.23-.6-.35-.62-1.11.02-1.39.36-.16.81-.11,1.21-.12.08,0,.16.16.24.25-.11.04-.22.11-.33.12-.26.02-.53-.04-.77.02-.39.1-.45.48-.13.73.15.11.34.17.51.26.19.09.41.16.57.29.51.4.46,1.08-.11,1.39-.46.25-.96.28-1.46.09-.11-.04-.18-.19-.26-.29.03-.03.06-.06.09-.1Z"/><path class="cls-1" d="M26.46,113.37c-.13.33-.38.25-.58.25-.58.01-.58,0-.58.59,0,.63.01,1.26,0,1.89,0,.12-.12.24-.19.37-.09-.12-.26-.23-.26-.35-.02-.69-.04-1.38,0-2.07.02-.35-.09-.45-.41-.43-.17.01-.34.02-.5,0-.08-.01-.14-.12-.21-.18.06-.06.12-.17.18-.17.76-.02,1.53-.02,2.29-.02.08,0,.16.08.26.13Z"/><path class="cls-1" d="M71.69,113.54c-.26.03-.52.09-.77.08-.28,0-.37.09-.36.37.02.7,0,1.4,0,2.1,0,.19-.01.4-.26.35-.1-.02-.22-.23-.22-.35-.02-.68-.02-1.35,0-2.03,0-.32-.09-.47-.43-.44-.17.02-.34.02-.5,0-.08-.02-.15-.12-.22-.19.06-.06.13-.18.19-.18.81,0,1.62.02,2.43.05.05,0,.09.07.13.1,0,.05,0,.1,0,.15Z"/><path class="cls-1" d="M29.18,114.78c.24-.41.43-.78.66-1.12.1-.15.24-.28.39-.4.05-.04.15,0,.23,0,0,.08.01.19-.02.25-.16.26-.32.53-.51.77-.42.53-.61,1.11-.52,1.79.03.19.04.41-.25.4-.26,0-.27-.21-.24-.39.17-.91-.35-1.58-.79-2.29-.1-.16-.36-.33-.13-.54.04-.03.38.17.5.33.25.35.44.75.7,1.2Z"/><path class="cls-1" d="M.13,113.15c.65.36.76,1.06,1.19,1.61.22-.39.42-.75.64-1.1.1-.15.24-.29.38-.4.05-.04.17,0,.25,0-.01.08,0,.16-.04.22-.26.41-.51.84-.8,1.22-.32.42-.21.88-.23,1.34,0,.11,0,.27-.07.33-.14.14-.31.12-.41-.07-.02-.04-.03-.1-.02-.14.18-.93-.29-1.65-.77-2.37-.11-.17-.3-.35-.13-.66Z"/><path class="cls-1" d="M45.21,113.28c.28-.1.46,0,.59.21.24.4.47.79.74,1.26.12-.2.22-.36.32-.52.17-.27.31-.56.51-.81.08-.1.28-.12.42-.17-.03.12-.02.26-.08.37-.17.3-.35.6-.57.86-.32.4-.44.83-.38,1.33.02.14.02.29-.02.42-.03.09-.14.2-.21.21-.08,0-.16-.12-.24-.19-.01-.01,0-.05,0-.07.19-.97-.36-1.68-.83-2.41-.07-.11-.14-.22-.21-.33-.02-.03-.02-.07-.03-.14Z"/><path class="cls-1" d="M32.32,114.85c0-.44-.01-.88,0-1.32,0-.09.12-.18.18-.28.09.1.25.19.26.29.02.71.02,1.43,0,2.14,0,.3.09.41.39.39.3-.02.6-.02.9,0,.09,0,.17.11.26.17-.08.07-.16.2-.24.21-.54,0-1.07,0-1.61-.03-.06,0-.16-.16-.16-.26-.02-.44,0-.88,0-1.32,0,0,.01,0,.02,0Z"/><path class="cls-1" d="M39.53,115.79c.15.2.3.32.3.43,0,.09-.21.27-.28.25-.12-.03-.24-.18-.28-.31-.02-.07.13-.18.27-.37Z"/><path class="cls-1" d="M85.64,115.83c.16.17.26.29.36.4-.11.09-.23.24-.34.24-.08,0-.21-.18-.25-.3-.02-.07.11-.18.22-.34Z"/><path class="cls-1" d="M908.53,94.64v15.77h-2.28v-11.97s-.1-.02-.15-.02c-.8,3.99-1.6,7.98-2.41,11.99h-1.31c-.79-4.01-1.59-8.01-2.38-12.01-.03,0-.06,0-.09,0v11.99h-2.35v-15.72h3.53c.62,2.99,1.25,6.01,1.88,9.02.04,0,.09,0,.13,0,.26-1.22.51-2.43.77-3.65.35-1.65.69-3.31,1.05-4.96.04-.17.22-.43.34-.43,1.07-.03,2.14-.02,3.26-.02Z"/><path class="cls-1" d="M958.7,110.44c-.68,0-1.34.04-1.99-.03-.19-.02-.43-.32-.51-.54-1.01-2.81-1.99-5.63-2.98-8.45-.07-.2-.16-.39-.35-.57v9.54h-2.38v-15.77c.73,0,1.45-.03,2.16.02.17.01.38.31.45.52.93,2.49,1.84,4.98,2.76,7.48.1.26.2.51.4.75v-8.72h2.42v15.76Z"/><path class="cls-1" d="M920.84,94.76c1.76,0,3.5-.14,5.21.04,1.63.17,2.76,1.34,2.84,2.95.16,3.17.2,6.37.02,9.54-.11,1.97-1.61,3.09-3.61,3.15-1.47.04-2.94,0-4.46,0v-15.69ZM923.56,96.84v11.38c.33,0,.61,0,.9,0,1.36,0,1.92-.47,1.94-1.84.05-2.53.02-5.06,0-7.59,0-.34-.04-.74-.22-1.01-.21-.32-.55-.66-.9-.77-.53-.16-1.11-.12-1.72-.16Z"/><path class="cls-1" d="M931.1,110.45v-15.76c.17-.02.33-.06.5-.06,1.27,0,2.55-.05,3.82.03,2.39.15,3.69,1.24,3.83,3.61.17,2.91.16,5.84-.02,8.75-.13,2.19-1.59,3.35-3.79,3.42-1.42.04-2.85,0-4.34,0ZM933.83,108.21c.31,0,.55,0,.79,0,1.5,0,1.96-.37,2.03-1.86.07-1.56.05-3.12.05-4.68,0-1.1-.03-2.2-.08-3.29-.03-.66-.32-1.23-1.01-1.38-.56-.13-1.16-.11-1.78-.16v11.38Z"/><path class="cls-1" d="M919.18,110.41h-2.58c-.16-1.15-.32-2.28-.49-3.44h-2.98c-.17,1.14-.34,2.28-.52,3.44h-2.57c.15-.81.28-1.6.43-2.38.79-4.28,1.58-8.55,2.35-12.83.08-.43.21-.6.66-.58.79.03,1.59-.02,2.37.03.18.01.47.24.5.41.91,4.86,1.8,9.72,2.68,14.58.04.24.08.47.14.77ZM915.71,104.55c-.35-2.21-.69-4.36-1.03-6.52-.04,0-.08,0-.12,0-.35,2.15-.69,4.31-1.05,6.52h2.2Z"/><path class="cls-1" d="M863.68,94.67h7.18v2.32h-4.46v4.08h3.41v2.36h-3.41v4.63h4.78v2.33h-7.5v-15.72Z"/><path class="cls-1" d="M941.4,110.41v-15.73h7.19v2.32h-4.44v4.06h3.38v2.39h-3.38v4.65h4.76v2.33h-7.51Z"/><path class="cls-1" d="M878.26,110.45c-.81,0-1.58.03-2.35-.02-.16-.01-.4-.29-.44-.48-.76-3.52-1.5-7.04-2.24-10.56-.29-1.35-.57-2.71-.85-4.06-.04-.19-.06-.38-.1-.64h2.63c.64,3.56,1.29,7.14,1.93,10.71.04,0,.08,0,.12.01.64-3.57,1.29-7.14,1.94-10.74h2.66c-1.1,5.27-2.19,10.51-3.3,15.78Z"/><path class="cls-1" d="M885.82,103.43v4.63h4.79v2.36h-7.44v-15.73h7.16v2.29h-4.48v4.09h3.41v2.36h-3.44Z"/><path class="cls-1" d="M847.38,105.96c.16.53.27,1.02.47,1.48.34.77.97,1.03,1.79.79.76-.22,1.11-.77,1.01-1.62-.12-1-.74-1.71-1.45-2.36-.89-.81-1.84-1.58-2.67-2.45-1.09-1.14-1.51-2.55-1.33-4.12.18-1.56,1.05-2.56,2.55-3.02,2.77-.86,5.25.82,5.28,3.61-.8.08-1.6.16-2.43.24-.08-.29-.13-.57-.24-.82-.28-.7-.85-1-1.58-.86-.64.12-1.01.59-1.04,1.33-.04.81.32,1.46.87,2,.69.68,1.43,1.3,2.14,1.96,1.04.96,2,1.97,2.35,3.42.61,2.5-.68,4.68-2.99,5.05-2.8.45-4.89-1.08-5.15-3.73-.04-.43.08-.59.51-.63.65-.06,1.3-.17,1.93-.26Z"/><path class="cls-1" d="M854.1,94.67h7.86v2.32h-2.55v13.41h-2.73v-13.39h-2.58v-2.34Z"/><path class="cls-1" d="M884.59,116.26c1.12,0,2.06.86,2.08,1.94.02,1.14-.85,2.02-2.03,2.04-1.18.01-2.07-.85-2.07-2,0-1.11.88-1.97,2.02-1.98ZM886.17,118.25c0-.91-.67-1.59-1.56-1.6-.87,0-1.61.72-1.59,1.58.01.87.73,1.59,1.59,1.6.87.01,1.57-.69,1.57-1.59Z"/><path class="cls-1" d="M897.39,120.18c-.25-.12-.5-.25-.77-.38-.97.55-1.67.55-2.08-.05-.38-.56-.21-1.1.61-1.82-.22-.51-.61-1.09.12-1.51.42-.24.89-.2,1.17.23.42.63-.02,1.05-.51,1.43.27.34.51.64.79.99.19-.18.36-.34.52-.49.06.03.13.05.19.08-.1.25-.2.5-.33.8.11.15.25.34.39.53-.03.06-.07.12-.1.18ZM895.53,118.34c-.09-.01-.18-.02-.27-.03-.13.33-.34.66-.36,1-.01.16.31.5.48.5.34,0,.68-.17,1.13-.31-.42-.5-.7-.83-.98-1.16ZM895.71,117.94c.22-.34.43-.54.44-.75,0-.14-.27-.29-.43-.44-.15.16-.4.3-.41.47-.01.18.2.38.4.71Z"/><path class="cls-1" d="M924.72,118.67c-.38-.05-.72-.1-1.07-.15l.04-.25h1.44c.15.8-.28,1.59-1.03,1.87-.97.36-2.01.03-2.48-.8-.48-.83-.28-2.09.42-2.65.75-.6,1.97-.61,2.61.01.11.11.14.31.21.49-.62-.21-1.08-.44-1.57-.51-.26-.04-.61.11-.84.27-.57.4-.75,1.32-.45,2.04.26.62.81.93,1.55.86.63-.06,1.01-.43,1.16-1.18Z"/><path class="cls-1" d="M911.3,120.13v-3.77c1.01.05,2.1-.32,2.8.71.48.71.49,1.53.05,2.25-.67,1.1-1.8.76-2.85.8ZM911.8,119.78c.71-.09,1.47.17,1.92-.58.38-.63.41-1.32-.01-1.92-.48-.69-1.21-.52-1.91-.48v2.98Z"/><path class="cls-1" d="M879.27,117.79h1.95c.07-.49.14-.94.23-1.4,0-.02.19,0,.32,0v3.69q-.24-.03-.54-1.82h-1.96c0,.49.02.97,0,1.44,0,.14-.13.27-.21.4-.08-.12-.24-.24-.24-.36-.02-1.01-.02-2.02,0-3.03,0-.12.13-.23.2-.35.09.12.24.23.25.35.04.34.01.69.01,1.07Z"/><path class="cls-1" d="M907.45,117.46v2.65c-.08,0-.17,0-.25,0v-3.79c.9.96,1.76,1.89,2.75,2.95v-2.91c.43.22.56,2.23.32,3.86-.9-.97-1.75-1.88-2.6-2.8-.07.01-.14.03-.21.04Z"/><path class="cls-1" d="M902.33,117.79c.03-.5.05-.95.09-1.61.2.26.33.34.35.45.17.95,0,3.23-.36,3.6v-1.96h-2.1v1.8c-.63.15-.5-.26-.51-.53q-.05-3.07.49-3.14v1.4h2.04Z"/><path class="cls-1" d="M916.89,118.13c.64.35.69.87.52,1.4-.17.51-.63.62-1.13.6-.33-.01-.65,0-1.03,0v-3.77c.67.05,1.42-.3,1.92.42.31.45.19.92-.28,1.34ZM915.66,119.92c.51-.19.94-.28,1.29-.5.12-.07.12-.52.02-.7-.3-.53-.81-.32-1.3-.33v1.53ZM915.67,118.14c.46-.17.83-.25,1.13-.45.11-.07.11-.56,0-.63-.31-.2-.69-.29-1.13-.46v1.54Z"/><path class="cls-1" d="M903.26,120.1c.54-1.25,1.07-2.5,1.67-3.9.61,1.39,1.16,2.63,1.71,3.87-.06.05-.12.09-.18.14-.15-.17-.37-.31-.45-.51-.17-.44-.33-.76-.91-.7-.52.05-1.06-.08-1.2.67-.04.22-.26.4-.4.6-.08-.06-.17-.11-.25-.17ZM905.57,118.59c-.23-.48-.41-.87-.66-1.39-.23.55-.39.95-.57,1.39h1.23Z"/><path class="cls-1" d="M919.45,116.18c.62,1.41,1.16,2.65,1.7,3.89-.05.05-.1.1-.14.15-.15-.14-.35-.26-.43-.43-.36-.72-.95-1.03-1.71-.74-.2.08-.3.43-.45.65-.13.19-.27.37-.41.56-.08-.05-.15-.1-.23-.15.53-1.25,1.07-2.5,1.68-3.93ZM919.45,117.17c-.24.57-.4.96-.59,1.41h1.2c-.2-.45-.37-.84-.61-1.41Z"/><path class="cls-1" d="M927.92,116.91c-.31-.07-.49-.07-.62-.15-.34-.23-.69-.29-.92.06-.26.4-.04.7.35.89.29.15.58.31.86.48.46.28.61.77.4,1.2-.17.34-.56.66-.92.8-.44.17-.93.02-1.2-.43-.08-.14-.04-.34-.06-.52.07-.01.14-.03.21-.04.05.06.1.12.14.19.19.41.53.57.91.42.22-.09.54-.41.51-.57-.05-.3-.3-.59-.52-.83-.12-.13-.35-.17-.53-.25-.46-.2-.84-.53-.72-1.04.07-.32.39-.71.69-.82.47-.18,1-.11,1.4.63Z"/><path class="cls-1" d="M892.08,116.87c-.16-.03-.35-.03-.47-.11-.34-.24-.69-.28-.92.07-.27.4-.01.7.36.9.27.14.54.29.81.44.47.26.6.68.5,1.18-.1.51-.44.8-.94.87-.51.07-.98-.02-1.26-.5-.07-.12-.01-.32-.01-.49.06,0,.13-.02.19-.03.08.12.13.29.24.34.26.13.55.29.81.27.2-.02.5-.3.51-.49.02-.26-.14-.57-.32-.78-.16-.18-.46-.24-.69-.36-.46-.23-.87-.55-.73-1.11.08-.3.37-.66.66-.78.48-.19.99-.09,1.26.58Z"/><path class="cls-1" d="M875.98,119.14c.38.3.61.62.87.65.26.03.72-.16.79-.36.08-.25-.08-.64-.25-.91-.11-.17-.41-.24-.63-.33-.5-.22-.92-.55-.8-1.13.07-.3.37-.67.65-.78.48-.19,1-.1,1.27.6-.17-.05-.37-.06-.5-.16-.36-.25-.73-.25-.89.13-.08.2.09.61.28.8.24.24.61.33.91.51.42.25.59.63.49,1.12-.1.51-.41.82-.91.91-.51.09-.98,0-1.28-.46-.08-.13-.01-.35-.01-.6Z"/><path class="cls-1" d="M887.49,116.43h1.95c0,.07,0,.13.01.2h-1.52v1.23h1.51c0,.07.02.14.03.21-.41.44-1.03.03-1.54.27v1.41c.52.03,1.02.07,1.52.1,0,.07,0,.13,0,.2h-1.96v-3.61Z"/><path class="cls-1" d="M771.86,30.23c.24-.45.51-.88.73-1.34,1.75-3.72,3.72-7.32,5.95-10.77.88-1.35,1.78-2.69,3.03-3.75.35-.3.73-.49,1.21-.45.7.05,1.1.46,1.12,1.16.02.73-.2,1.41-.51,2.06-1.18,2.46-2.18,5-3.05,7.59-.65,1.95-1.2,3.93-1.47,5.97-.21,1.55-.33,3.11.03,4.66.19.8.4.93,1.04.4.85-.71,1.63-1.49,2.4-2.29,1.64-1.7,3.16-3.51,4.46-5.5.07-.11.17-.2.26-.3.41.31.55.66.36,1.15-.22.56-.48,1.1-.78,1.62-.46.8-.97,1.57-1.44,2.36-.15.25-.27.53-.36.8-.04.1,0,.28.08.36.04.05.24.03.32-.02.86-.61,1.72-1.23,2.55-1.88.18-.14.27-.44.34-.68,1-3.37,3.32-5.55,6.38-7.06.44-.22.85-.24,1.26,0,.26.15.48.1.73,0,.91-.36,1.06-.24,1.01.73-.06,1.05-.46,1.96-1.02,2.84-.57.9-1.08,1.84-1.57,2.79-.1.2-.04.48-.05.72.22-.09.45-.16.64-.28.25-.17.48-.39.71-.59.19-.17.31-.08.33.12.02.18,0,.43-.1.55-.7.77-1.54,1.34-2.54,1.63-.65.19-.98-.12-.94-.81,0-.03-.01-.07-.03-.15-.4.27-.77.55-1.16.79-.82.52-1.67.99-2.67,1.09-.13.01-.27.02-.4,0-.44-.04-.79-.19-.86-.75-.12.09-.19.14-.26.2-.91.75-1.81,1.52-2.75,2.23-.32.25-.74.38-1.14.51-.7.25-.91.14-1.31-.62-.13.11-.26.22-.38.33-.76.73-1.56,1.4-2.61,1.67-.77.2-1.38-.09-1.66-.83-.43-1.13-.55-2.31-.48-3.52.28-4.48,1.65-8.7,3.24-12.85.42-1.09.88-2.16,1.32-3.24.06-.14.12-.27.15-.41.02-.08,0-.22-.05-.26-.06-.05-.2-.05-.27,0-.24.17-.51.33-.68.56-.71.94-1.44,1.88-2.06,2.87-2.55,4.1-4.7,8.41-6.89,12.7-.48.94-1.01,1.86-1.54,2.77-.14.24-.29.63-.63.48-.17-.07-.25-.47-.27-.73-.08-1.15.26-2.24.57-3.33.95-3.36,2.22-6.61,3.54-9.84,1.12-2.74,2.31-5.45,3.44-8.19.23-.54.35-1.13.52-1.7-.04-.02-.09-.05-.13-.07-.18.21-.39.39-.52.62-1.08,1.83-2.21,3.64-3.2,5.51-1.71,3.24-3.36,6.51-4.99,9.79-1.7,3.42-3.33,6.88-5.02,10.3-.39.8-1.07,1.37-1.8,1.87-.09.06-.28.1-.33.05-.08-.08-.13-.25-.1-.36.17-.65.32-1.32.56-1.94,1.1-2.87,2.48-5.62,3.9-8.34,1.89-3.62,3.75-7.25,5.77-10.8,1.47-2.57,2.94-5.15,4.75-7.51.44-.57.93-1.11,1.44-1.63.24-.25.56-.45.88-.58.5-.21.81,0,.93.55.15.66.06,1.29-.12,1.93-.52,1.93-1.3,3.76-2.14,5.56-1.13,2.42-2.34,4.79-3.44,7.22-.66,1.45-1.18,2.96-1.76,4.45-.22.57-.41,1.15-.62,1.72.05.02.11.05.16.07ZM790.17,32.1c.09-.04.29-.1.48-.18,2.54-1.19,4.02-3.26,4.83-5.88.04-.13,0-.28,0-.42-.14,0-.3-.02-.42.04-.75.41-1.53.79-2.23,1.28-1.6,1.13-2.76,2.6-3.18,4.58-.08.4.04.59.53.58Z"/><path class="cls-1" d="M797.82,48.13c.63.6,1.3,1.21,1.15,2.25-.05.36-.16.68-.5.95.06-1.35-.81-2.13-1.59-2.98-.41-.44-.82-.89-1.15-1.38-1.1-1.66-.84-3.43.65-4.76.66-.59.67-.6,1.33.02.39.36.78.72,1.13,1.11.96,1.07,1.01,2.36.14,3.49-.34.44-.75.84-1.16,1.3ZM796.87,42.21c-.59.5-1.07,1.07-1.16,1.88-.16,1.48.57,2.56,1.6,3.5.06.05.28.01.36-.06,1.82-1.74,1.35-3.92-.8-5.33Z"/><path class="cls-1" d="M770.14,51.31c-.94-.17-1.49-.79-1.89-1.56-.32-.6-.46-1.25-.42-1.92.08-1.45.18-2.89.31-4.34.03-.34.2-.67.31-1.03h-3.32c.11-.36.36-.51.72-.52.71,0,1.43,0,2.14-.02.64-.01,1.29-.05,1.94-.08,0-.05,0-.02,0-.01-.83.7-.8,1.69-.92,2.64-.12.93-.25,1.85-.35,2.78-.15,1.43.25,2.7,1.22,3.77.09.1.18.19.27.29Z"/><path class="cls-1" d="M792.87,46.28h-2.17c0,.35,0,.69,0,1.03q0,.52-.53.5s-.1-.01-.19-.02c0-.12-.02-.23-.02-.35,0-1.59,0-3.17,0-4.76,0-.23,0-.41.32-.39.28.02.43.07.42.4-.03.95-.01,1.89-.03,2.84,0,.26.08.34.34.33.59-.02,1.18,0,1.8,0,.01-.12.03-.22.03-.31,0-.98,0-1.97,0-2.95,0-.22.07-.33.3-.3.19.03.48-.13.47.27,0,1.74,0,3.47-.02,5.21,0,.03-.02.07-.04.09-.03.01-.05.03-.07.03-.64.03-.63.03-.62-.61,0-.33,0-.65,0-.99Z"/><path class="cls-1" d="M770.96,47.96c-.19,0-.38,0-.56,0-.22.01-.3-.09-.32-.3-.05-.63.12-1.2.53-1.68.45-.52.92-1.03,1.43-1.48.72-.64,1.41-1.3,1.92-2.12.04-.07.11-.12.2-.21.03.11.06.17.06.23,0,1.73,0,3.47,0,5.2,0,.22,0,.46-.33.37-.1-.03-.21-.16-.23-.26-.03-.23-.03-.47,0-.7.03-.26-.05-.36-.31-.35-.63,0-1.25,0-1.88,0-.29,0-.45.12-.48.39-.03.29-.03.58-.05.91ZM771.37,46.16s.05.07.08.11c.66,0,1.33,0,1.99-.01.08,0,.23-.17.23-.27.02-.59.02-1.18,0-1.77,0-.12-.04-.25-.07-.44-.14.19-.22.34-.33.44-.46.44-.95.86-1.4,1.3-.19.19-.34.42-.51.64Z"/><path class="cls-1" d="M779.72,47.91c-.53-.68-1-1.37-1.56-1.99-.55-.61-1.18-1.16-1.78-1.73,0,.06,0,.19,0,.32.02,1.01.04,2.02.06,3.03,0,.11,0,.23-.05.32-.04.07-.16.13-.23.13-.07,0-.16-.09-.2-.16-.04-.07-.02-.17-.02-.25,0-1.67,0-3.35,0-5.02,0-.09.03-.18.13-.3.08.12.17.24.24.37.4.85.95,1.56,1.68,2.17.41.34.74.78,1.11,1.18.05.06.1.12.23.26,0-.36,0-.63,0-.89,0-.92,0-1.85,0-2.77,0-.09.13-.18.2-.28.09.09.25.18.25.27.01,1.76,0,3.52,0,5.28,0,.02-.02.04-.05.09Z"/><path class="cls-1" d="M784,46.17c.16.12.34.22.48.36.19.19.34.42.54.61.54.5,1.47.64,2.11.34.67-.31.82-1,.27-1.49-.39-.35-.86-.6-1.31-.88-.42-.27-.89-.49-1.27-.81-.8-.68-.6-1.61.38-1.97,1.06-.39,2.27.21,2.51,1.33-.15-.06-.28-.08-.36-.16-.23-.2-.44-.44-.67-.64-.34-.29-.75-.41-1.17-.25-.19.07-.44.27-.47.44-.04.21.06.54.21.68.33.28.74.48,1.12.69.4.22.85.37,1.2.64.34.26.63.61.86.98.28.44.13.89-.21,1.25-1.03,1.06-3.52.93-4.23-.64-.05-.12-.08-.24-.12-.36.04-.03.07-.07.11-.1Z"/><path class="cls-1" d="M790.93,21.78c-.53.7-1.05,1.42-1.6,2.1-.28.35-.51.32-.71-.06-.33-.62-.19-1.25.14-1.83.23-.4.85-.6,1.37-.49.24.05.48.1.71.15.03.04.06.08.08.13Z"/><path class="cls-1" d="M781.78,47.95v-5.61c.61-.12.66-.08.66.5,0,1.52,0,3.05,0,4.57,0,.59-.01.61-.66.54Z"/><path class="cls-1" d="M759.75,42.74h.94c-.2.69-.39,1.37-.59,2.06.03.02.06.04.09.07.13-.09.27-.17.39-.27.41-.31.8-.41,1-.22.32.3.19.67.07.99-.23.63-.66,1.13-1.28,1.41-.21.1-.53.08-.76,0-.28-.1-.29-.42-.23-.67.17-.73.35-1.45.54-2.18.18-.64.19-.64-.18-1.19ZM760.22,46.56s.12,0,.2-.05c.39-.19.93-1.21.87-1.63-.03-.28-.18-.36-.42-.22-.56.34-.94.82-1.1,1.46-.08.33.02.45.44.44Z"/><path class="cls-1" d="M762.16,45.17c.03-.45.25-.7.59-.86.25-.12.41.05.46.23.12.44.18.9.26,1.36.02.09,0,.19,0,.39.47-.67.5-1.42.82-2.04h.13c0,.16.05.34,0,.46-.46,1-.92,2-1.44,2.98-.21.39-.57.7-1.07.64-.11-.01-.25-.14-.3-.25-.04-.08.03-.22.05-.34.11.02.27,0,.33.07.3.36.52.18.67-.1.16-.3.33-.62.36-.94.05-.53.05-1.08-.04-1.6-.08-.47-.31-.49-.63-.14-.04.04-.09.07-.18.14Z"/><path class="cls-1" d="M782.14,41.3c-.38.01-.73-.33-.73-.73,0-.38.32-.69.71-.69.36,0,.69.3.71.66.02.39-.31.75-.69.76Z"/><path class="cls-1" d="M152.41,108.61v-18.08h.96c41.05,0,82.1,0,123.15,0q1.14,0,1.15,1.13c0,5.2,0,10.41,0,15.61q0,1.34-1.31,1.34c-17.97,0-35.93,0-53.9,0-22.97,0-45.93,0-68.9,0-.35,0-.69,0-1.15,0ZM203.31,96.44c-.56.13-1.14.2-1.67.4-1.1.42-1.88,1.2-2,2.4-.13,1.24.42,2.19,1.53,2.79,1.2.65,2.46.67,3.71.23,1.42-.5,2.25-1.97,1.94-3.29-.33-1.39-1.8-2.43-3.51-2.54ZM177.41,99.92h3.06c.17-.61.09-.95-.55-.93-.46,0-.93,0-1.4,0-1.28,0-1.34-.09-.99-1.44,1.28,0,2.58.02,3.88-.02.25,0,.49-.27.74-.42-.24-.11-.47-.32-.71-.33-1.45-.03-2.91,0-4.36-.02-.58,0-.74.25-.73.79.03,1.34.03,2.67,0,4.01-.02.62.24.82.82.81,1.45-.02,2.91.02,4.36-.02.25,0,.49-.24.73-.36-.26-.15-.51-.41-.77-.42-1.04-.05-2.1-.07-3.14,0-.84.05-1.09-.29-.98-1.06.02-.17.02-.34.03-.6ZM226.69,99.91c.88,0,1.74.03,2.59-.02.21-.01.41-.27.61-.41-.2-.17-.38-.44-.6-.47-.48-.07-.98-.02-1.48-.02-1.24,0-1.34-.14-.93-1.43,1.25,0,2.52.02,3.79-.02.23,0,.45-.23.68-.36-.21-.14-.41-.38-.62-.39-1.45-.03-2.9,0-4.35-.02-.51,0-.72.18-.71.71.03,1.39.03,2.79,0,4.18-.01.53.19.73.7.72,1.51-.01,3.02.01,4.53-.02.22,0,.44-.23.66-.36-.23-.15-.45-.41-.69-.42-1.1-.05-2.21-.06-3.31-.01-.68.03-.97-.2-.89-.89.03-.2,0-.4,0-.77ZM266.6,96.78c0,1.76-.02,3.39.02,5.01,0,.2.28.55.44.56,1.63.04,3.25.04,4.88,0,.17,0,.33-.23.5-.35-.18-.14-.34-.33-.54-.42-.18-.07-.4-.02-.6-.02-1.02,0-2.03-.01-3.05,0-.68,0-.71-.44-.73-.94-.02-.51.17-.75.71-.73.67.03,1.34.03,2-.01.19-.01.36-.24.55-.37-.18-.18-.33-.48-.53-.51-.48-.08-.99,0-1.48-.04-.49-.04-1.19.29-1.23-.64-.05-.95.63-.78,1.19-.78.99,0,1.98.01,2.96-.02.16,0,.32-.23.48-.35-.14-.13-.29-.38-.43-.38-1.68-.03-3.36-.02-5.14-.02ZM171.88,99.91c0,.63,0,1.12,0,1.61,0,.58.16.98.92.78v-5.44c-.86-.25-.95.22-.94.87.01,1.26,0,1.26-1.27,1.26-.7,0-1.4-.04-2.09.01-.76.06-1.09-.22-.99-.98.02-.17-.01-.35,0-.52.04-.66-.26-.83-.95-.6,0,1.65-.01,3.33.02,5.01,0,.16.28.46.36.44.21-.05.51-.23.54-.4.08-.45-.04-.94.05-1.38.05-.24.36-.61.57-.62,1.21-.06,2.43-.03,3.79-.03ZM240.8,98.24c.04-.1.08-.2.12-.3-.09-.14-.17-.3-.28-.41-1.44-1.37-4.13-1.35-5.55.04-.94.91-1.08,2.52-.33,3.59,1.14,1.62,4.5,1.89,5.87.46.12-.12.24-.41.18-.5-.08-.13-.35-.23-.51-.2-.21.03-.41.19-.61.3-1.01.51-2.03.63-3.1.18-.79-.33-1.26-.88-1.28-1.78-.02-.88.36-1.5,1.16-1.86,1.13-.51,2.24-.39,3.33.17.31.16.67.2,1.01.3ZM196.61,98.21c.03-.08.07-.17.1-.25-.23-.25-.41-.56-.68-.73-1.41-.85-2.88-.99-4.38-.23-1.08.54-1.7,1.45-1.66,2.64.04,1.19.7,2.08,1.81,2.54,1.36.56,2.73.53,4.03-.18.32-.18.57-.5.85-.76l-.14-.3c-.33.05-.72,0-.97.17-.78.52-1.62.61-2.5.52-1.15-.11-2.04-.96-2.1-1.98-.05-.92.72-1.94,1.72-2.11.98-.16,1.96-.16,2.86.42.28.18.69.17,1.04.24ZM263.95,96.91c-.65-.25-1-.16-1.29.41-.65,1.3-1.37,2.57-2.1,3.91-.2-.24-.38-.38-.48-.57-.6-1.1-1.22-2.19-1.76-3.32-.28-.59-.64-.65-1.21-.47.08.25.11.49.22.69.77,1.42,1.55,2.84,2.32,4.26.42.76,1.24.79,1.68.04.23-.39.42-.81.64-1.22.65-1.23,1.3-2.47,1.97-3.73ZM210.03,96.86v5.45h5.13l.14-.29c-.23-.15-.46-.42-.7-.43-.96-.05-1.92-.04-2.88-.02-.56.01-.79-.2-.77-.77.02-1.07-.02-2.15.01-3.22.02-.67-.22-.93-.94-.72ZM160.65,96.77c-.9,0-1.8-.01-2.7.01-.15,0-.29.2-.44.3.14.15.26.4.42.43.43.06.87.06,1.3.02.66-.06.88.23.86.86-.03,1.13-.03,2.26.02,3.39,0,.2.31.38.48.57.16-.18.44-.36.45-.55.05-.78.02-1.57.02-2.35q0-1.86,1.87-1.91c.09,0,.19.03.26-.01.19-.12.37-.26.56-.39-.19-.12-.38-.34-.58-.35-.84-.04-1.68-.02-2.52-.01ZM218.73,96.87c-.9-.27-.94.33-.96.8-.04,1.3-.03,2.61-.02,3.92,0,.5.2.81.79.79,1.31-.03,2.61.02,3.92-.02.24,0,.47-.27.71-.42-.23-.12-.45-.34-.69-.36-.87-.04-1.74-.02-2.61-.02-1.12,0-1.14-.02-1.14-1.11,0-1.19,0-2.37,0-3.59ZM247.05,102.26c.03-.09.07-.15.07-.2,0-1.02,0-2.03.01-3.05.01-1.69-.13-1.44,1.42-1.46.23,0,.48.05.69-.02.17-.06.29-.27.43-.41-.14-.11-.27-.33-.41-.33-1.77-.02-3.54-.02-5.31,0-.15,0-.3.25-.45.38.17.12.32.32.51.35.34.06.7.06,1.04.01.81-.1,1.15.16,1.08,1.04-.08,1.01,0,2.03-.03,3.05-.03.81.35.85.94.64ZM253.82,99.61c0-.78.02-1.57-.02-2.35,0-.16-.22-.31-.35-.47-.15.16-.41.32-.42.48-.03,1.54-.03,3.08,0,4.61,0,.16.22.32.34.48.15-.16.41-.32.42-.49.05-.75.02-1.51.02-2.26Z"/><path class="cls-1" d="M246.28,116.62c-.16-.14-.43-.25-.48-.43-.47-1.53-.46-1.53-2.09-1.26v1.52c-.08.06-.15.12-.23.17-.16-.17-.45-.33-.46-.5-.04-1.33-.02-2.65-.02-4.07.88,0,1.66-.06,2.42.02.79.07,1.33,1.01.97,1.78-.25.53-.29.9-.03,1.42.17.33.08.79.11,1.19-.07.06-.13.11-.2.17ZM243.72,114.29c.73-.14,1.37-.22,1.96-.42.1-.03.08-.91-.02-.94-.6-.18-1.25-.22-1.94-.32v1.68Z"/><path class="cls-1" d="M199.04,113.64c-.59-.87-1.35-1.34-2.27-.73-.69.46-.77,1.28-.56,2.05.19.7.69,1,1.44.95.65-.04,1.11-.22,1.2-1.04-.45-.04-.86-.07-1.28-.1.16-.56.67-.76,1.41-.58.62.15.76.88.45,2.2-.43.04-.86,0-1.24.12-.88.26-1.92-.11-2.4-.91-.59-.99-.38-2.41.46-3.11.7-.59,1.88-.64,2.56-.04.26.23.37.63.55.95-.11.08-.21.16-.32.25Z"/><path class="cls-1" d="M272.35,116.61c-.17-.13-.42-.24-.48-.41-.51-1.46-.5-1.47-2.06-1.32-.02.4-.01.83-.07,1.25-.02.15-.2.27-.31.41-.12-.13-.33-.26-.33-.39-.02-1.33-.02-2.66-.02-4.1.87,0,1.65-.06,2.41.02.72.07,1.27.85.98,1.55-.29.7-.19,1.3-.02,1.96.07.27.05.57.08.85-.06.06-.12.12-.18.18ZM269.64,113.97c.09.11.18.21.26.32.61-.14,1.23-.23,1.81-.45.09-.03.05-.88-.06-.92-.5-.16-1.11-.31-1.57-.16-.25.08-.3.79-.44,1.21Z"/><path class="cls-1" d="M194.53,116.61c-.16-.15-.45-.28-.46-.45-.13-1.33-.24-1.5-1.99-1.27-.4.45.29,1.4-.76,1.77v-4.63c.78,0,1.53-.05,2.26.01.74.06,1.4.85,1.1,1.45-.46.92-.1,1.71.03,2.56.02.11.02.23.03.34l-.2.2ZM191.89,114.02c.09.1.18.19.27.29.6-.17,1.22-.31,1.78-.55.08-.03,0-.85-.14-.89-.51-.15-1.12-.28-1.58-.11-.23.08-.23.82-.33,1.26Z"/><path class="cls-1" d="M164.21,116.57v-4.52c1.15.04,2.36-.38,3.09.84.54.9.5,1.87-.02,2.79-.73,1.28-1.95.76-3.08.88ZM164.85,115.85c.73.03,1.4.3,1.86-.43.36-.57.37-2-.12-2.36-.37-.27-.93-.28-1.42-.35-.09-.01-.3.27-.31.41-.03.89-.01,1.78-.01,2.72Z"/><path class="cls-1" d="M201.42,114.13h1.94c-.04.29-.46.44-1.97.76v.88c.73.47,1.75-.32,2.47.72h-3.14v-4.39h2.89c.03.06.07.12.1.19-.16.13-.31.31-.49.36-.21.07-.46.03-.69.03q-1.29,0-1.1,1.46Z"/><path class="cls-1" d="M247.55,116.48v-4.36h2.99c.02.1.05.2.07.3-.36.08-.71.2-1.07.24-.4.04-.8,0-1.27,0v1.43h1.97c.12.79-.39.64-.76.65-.37.01-.75,0-1.2,0v1.03c.72.44,1.73-.3,2.51.69h-3.24Z"/><path class="cls-1" d="M161.93,115.17c.54-1.07-.22-2.25.51-3.13.09.01.17.02.26.03v4.37q-.6.08-1.35-1.17c-.36-.59-.72-1.18-1.26-1.75v2.95c-.09.04-.19.09-.28.13-.14-.16-.41-.31-.41-.48-.03-1.16-.03-2.32,0-3.49,0-.19.17-.38.26-.57.23.14.54.23.67.43.55.84,1.04,1.72,1.61,2.67Z"/><path class="cls-1" d="M232.59,112.03c.7,0,1.25-.01,1.8,0,.89.02,1.58.72,1.27,1.53-.32.81-.11,1.48.02,2.22.04.22.03.45.05.67-.08.05-.15.1-.23.16-.16-.2-.42-.38-.46-.61-.24-1.28-.24-1.3-1.76-1.08,0,.38.04.78-.02,1.17-.02.16-.23.3-.35.46-.1-.14-.29-.28-.3-.42-.02-1.33-.01-2.65-.01-4.09ZM233.32,114.32c.63-.17,1.15-.25,1.6-.48.12-.06.1-.79-.03-.86-.45-.22-.98-.27-1.57-.41v1.75Z"/><path class="cls-1" d="M265.28,112.09h2.86q-.16.42-2.14.65v1.34h1.94q-.09.52-1.94.75v.96c.69.42,1.67-.31,2.38.69h-3.1v-4.39Z"/><path class="cls-1" d="M207.8,113.45c-.19-.07-.5-.1-.54-.22-.24-.72-.81-.55-1.3-.5-.17.02-.44.27-.44.4,0,.21.17.51.35.59.41.18.92.18,1.3.4.41.24.91.61,1,1,.07.32-.32.88-.65,1.13-.85.64-2.4.3-2.79-.55-.07-.15-.03-.36-.04-.54.17.08.39.11.49.24.56.69,1.29.53,1.99.4.15-.03.32-.32.35-.51.02-.14-.14-.38-.28-.45-.33-.16-.73-.2-1.04-.38-.49-.28-1.02-.56-1.35-.99-.12-.15.19-.92.46-1.04.53-.24,1.21-.37,1.76-.26.37.08.64.65.96,1.01-.07.09-.15.18-.22.26Z"/><path class="cls-1" d="M179.65,113.48c-.18-.11-.36-.23-.54-.33-.27-.16-.54-.44-.81-.43-.31.01-.61.28-.91.44.24.22.46.5.74.64.52.27,1.15.38,1.62.72.61.43.5,1.04.03,1.56-.71.78-2.26.65-2.87-.25-.11-.17-.08-.44-.12-.66.2.1.44.15.58.3.37.41,1.4.65,1.81.31.37-.3.43-.69-.07-.94-.33-.16-.73-.19-1.05-.36-.48-.26-1.03-.51-1.31-.92-.13-.19.18-.98.46-1.12.52-.24,1.21-.33,1.77-.22.36.07.61.63.91.98-.09.1-.17.2-.26.29Z"/><path class="cls-1" d="M219.4,112.13c0,.89.01,1.79,0,2.68-.01.76.34,1.1,1.09,1.1.74,0,1.02-.38,1.01-1.09-.02-.75-.02-1.51.01-2.26,0-.17.19-.34.29-.51.13.17.36.34.36.52.04.84.04,1.68,0,2.52-.04.86-.7,1.45-1.59,1.47-1.04.03-1.78-.49-1.85-1.38-.06-.89-.04-1.8,0-2.69,0-.18.28-.34.43-.51l.25.15Z"/><path class="cls-1" d="M174.04,116.63c-.17-.18-.33-.38-.52-.54-.28-.23-.57-.57-.89-.6-.44-.04-1.05-.3-1.3.46-.09.27-.45.45-.68.68-.07-.06-.13-.12-.2-.19.46-1.29.91-2.58,1.4-3.85.09-.22.36-.42.6-.52.07-.03.36.28.44.48.51,1.26.99,2.54,1.48,3.81-.11.09-.22.17-.34.26ZM173.02,114.76c-.22-.58-.4-1.07-.58-1.56-.06.03-.13.05-.19.08-.15.47-.3.94-.47,1.48h1.24Z"/><path class="cls-1" d="M190.35,116.62c-.22-.15-.51-.25-.64-.46-.67-1.02-1.71-1.02-2.3.02-.1.18-.35.28-.52.42-.08-.05-.16-.1-.23-.15.31-.91.61-1.81.93-2.72.14-.4.31-.8.52-1.18.1-.2.37-.51.44-.48.23.1.51.3.59.52.42,1.07.78,2.17,1.17,3.25.07.19.16.36.24.54-.06.08-.12.16-.18.23ZM187.99,114.74h1.2c-.19-.57-.35-1.07-.51-1.57-.07,0-.14-.02-.21-.02-.15.5-.3,1-.48,1.6Z"/><path class="cls-1" d="M228.04,111.98c.13.22.35.44.36.67.05.75.02,1.51.02,2.26,0,.68.33.98,1.02.99.7.02,1.03-.32,1.05-.97.03-.95,0-1.9,0-2.85.11-.04.22-.08.32-.12.12.2.34.4.35.61.04.81.05,1.63,0,2.44-.06.98-.79,1.56-1.83,1.53-1.04-.02-1.59-.56-1.61-1.6-.02-.95,0-1.9,0-2.85.1-.04.21-.08.31-.12Z"/><path class="cls-1" d="M258.46,116.61c-.25-.17-.67-.3-.72-.51-.2-.87-.83-.6-1.37-.63-.51-.03-.82.14-.91.7-.03.17-.31.31-.47.46-.08-.05-.17-.09-.25-.14.14-.46.25-.93.42-1.38.31-.85.64-1.7.99-2.53.08-.2.29-.35.44-.52.21.2.51.37.61.62.49,1.24.93,2.51,1.38,3.76-.04.06-.09.12-.13.19ZM256.79,113.24c-.09-.03-.17-.06-.26-.08-.15.52-.3,1.04-.48,1.66.51-.02.82-.04,1.18-.06-.17-.56-.31-1.04-.45-1.52Z"/><path class="cls-1" d="M223.56,112.07c1.02-.08.79,1.19,1.55,1.38.39-.47.77-.94,1.18-1.39.05-.05.25.04.6.11-1.64,1.43-1.45,2.83-.02,4.17q-.73.21-1.75-1.37c-.77.3-.69,1.6-1.89,1.58.15-.26.22-.44.33-.57.91-1.08,1.33-2.17.07-3.3-.07-.07-.08-.21-.1-.33-.01-.08.02-.16.03-.28Z"/><path class="cls-1" d="M252.71,112.9c-.49-.47-1.32.19-1.37-.81h3.44c-.12.94-.91.37-1.38.75,0,.97-.01,2.03,0,3.1,0,.45-.07.75-.7.51v-3.55Z"/><path class="cls-1" d="M236.31,111.89c.39.19.6.25.74.39.16.16.26.38.37.58.73,1.24.72,1.23,1.46.03.21-.34.52-.62.94-.83-.39,1.52-1.86,2.64-1.26,4.44-.08.04-.17.07-.25.11-.16-.14-.49-.3-.47-.42.23-1.51-.69-2.56-1.41-3.7-.05-.09-.04-.21-.11-.59Z"/><path class="cls-1" d="M210.39,116.63c-.13-.22-.35-.44-.36-.67-.04-1.06-.02-2.13-.02-3.14-.54-.15-.97-.27-1.4-.39.02-.1.04-.2.07-.31h3.31q-.01.46-1.28.65v3.75c-.1.04-.21.07-.31.11Z"/><path class="cls-1" d="M218.12,116.51h-2.84v-4.38c.59-.23.64.1.64.54-.01,1.04,0,2.08,0,3.06.66.52,1.67-.29,2.21.78Z"/><path class="cls-1" d="M183.31,116.5v-4.37c.09-.05.17-.1.26-.14.13.23.37.45.38.68.04,1.03.02,2.07.02,3.05.66.52,1.65-.23,2.27.79h-2.92Z"/><path class="cls-1" d="M261.45,116.5v-4.38c.09-.04.17-.09.26-.13.13.24.36.47.37.71.04,1.04.02,2.07.02,3.05.71.42,1.64-.24,2.24.74h-2.89Z"/><path class="cls-1" d="M259.8,116.61c-.15-.17-.43-.33-.44-.5-.04-1.21-.03-2.43,0-3.64,0-.15.24-.29.37-.43.1.14.28.29.28.43.02,1.32.01,2.65.01,3.97-.08.05-.15.11-.23.16Z"/><path class="cls-1" d="M169.33,112.11v4.32c-.05.06-.11.12-.16.18-.16-.16-.45-.32-.46-.49-.04-1.22-.03-2.44,0-3.66,0-.17.26-.32.39-.48.07.05.15.09.22.14Z"/><path class="cls-1" d="M157.59,114.28c0-.61-.02-1.22.02-1.82,0-.14.2-.27.31-.4.11.14.32.27.33.41.03,1.22.03,2.43,0,3.65,0,.15-.24.29-.38.44-.1-.15-.27-.29-.27-.44-.03-.61-.01-1.22-.01-1.82,0,0,0,0,0,0Z"/><path class="cls-1" d="M174.84,113.75c-.1-.46-.24-.83-.23-1.19,0-.2.25-.4.5-.53.14.68.43,1.37-.27,1.72Z"/><path class="cls-1" d="M203.13,97.48c1.65,0,2.66.8,2.7,1.99.02.87-.35,1.49-1.13,1.87-.94.45-1.89.47-2.83.03-.93-.44-1.37-1.22-1.21-2.16.13-.81.96-1.58,1.86-1.7.26-.04.52-.03.63-.03Z"/><path class="cls-1" d="M1030.28,103.22c0-1.74.01-3.48,0-5.22,0-.83-.16-.96-.97-1.08-.14-.02-.31-.01-.42-.09-.11-.08-.21-.24-.22-.38,0-.08.16-.25.26-.26,2.28-.15,4.57-.36,6.85-.07.89.11,1.77.31,2.51.88,1.87,1.45,1.89,4.15.03,5.6-.33.26-.71.47-1.08.68-.17.1-.2.19-.1.35.91,1.48,1.8,2.97,2.73,4.44.37.59.85,1.1,1.47,1.46.35.2.7.33,1.11.17.18-.07.4-.07.59-.1.49-.08.7-.25.79-.73.05-.27.09-.56.09-.83,0-3.23,0-6.46,0-9.69,0-.08,0-.16-.01-.24-.08-.89-.22-1.04-1.11-1.17-.14-.02-.31-.02-.42-.09-.11-.08-.2-.24-.2-.36,0-.09.16-.26.26-.26,2.43-.14,4.86-.4,7.28,0,.76.12,1.48.35,2.12.81,1.65,1.21,1.88,3.74.44,5.19-.42.42-.96.72-1.46,1.06-.18.12-.27.19-.13.41.84,1.38,1.66,2.77,2.53,4.13.32.5.75.95,1.17,1.38.36.37.83.58,1.34.64.19.02.32.07.31.3,0,.24-.15.27-.34.27-.67,0-1.34.06-2.01,0-.97-.07-1.8-.51-2.43-1.24-.51-.58-.97-1.21-1.37-1.86-.51-.82-.93-1.69-1.41-2.53-.44-.77-.94-.98-1.81-.8-.1.02-.26.18-.26.27,0,1.47,0,2.94.06,4.4.03.68.26.85.94.96.17.03.33.07.49.1.25.05.28.23.25.44-.03.21-.19.2-.36.19-2.02-.12-4.03-.15-6.05.09-1.92.23-3.53-.36-4.65-1.99-.43-.63-.81-1.29-1.19-1.95-.36-.62-.69-1.26-1.07-1.87-.38-.6-1.08-.84-1.76-.64-.09.03-.2.16-.2.25,0,1.48,0,2.96.07,4.44.03.67.26.83.93.93.18.03.35.07.53.11.23.06.25.23.23.42-.03.21-.17.2-.35.2-1.79,0-3.58.01-5.38.02-.19,0-.38-.04-.57-.04-1.83,0-3.65.02-5.48.03-.16,0-.31.01-.47.02-.22.01-.43.02-.47-.29-.04-.34.07-.53.38-.59.24-.05.49-.07.73-.12.41-.08.52-.23.45-.63-.05-.27-.13-.54-.22-.81-.38-1.14-.76-2.28-1.14-3.41-.06-.17-.13-.33-.21-.49-.12-.24-.31-.37-.59-.37-1.42,0-2.85-.01-4.27.01-.16,0-.34.17-.47.29-.1.1-.14.26-.18.39-.42,1.23-.84,2.46-1.25,3.69-.08.23-.13.48-.15.72-.04.39.08.54.46.6.35.06.71.1,1.07.14.29.03.31.23.28.44-.03.21-.06.4-.38.4-1.71-.02-3.43-.02-5.14,0-.28,0-.37-.12-.39-.34-.02-.22-.05-.47.29-.5.21-.02.42-.06.63-.08.63-.06,1.1-.38,1.36-.96.28-.62.53-1.26.78-1.9,1.46-3.72,2.92-7.45,4.37-11.18.25-.64.39-1.33.59-1.99.02-.07.08-.16.14-.19.61-.22,1.08-.63,1.52-1.09.28-.3.62-.22.76.18.36,1.07.69,2.16,1.05,3.23,1.39,4.07,2.78,8.14,4.18,12.21.06.17.13.33.2.5.25.67.73,1.01,1.42,1.13.28.05.55.15.82.25.4.15,1.12-.19,1.2-.61.08-.42.11-.85.11-1.27.01-1.51,0-3.03,0-4.54,0,0-.01,0-.02,0ZM1046.41,100.07c0,.86,0,1.72,0,2.59,0,.31.14.47.44.46.5-.01,1.01,0,1.51-.08,1.1-.18,1.82-.82,1.99-1.94.09-.6.12-1.24.02-1.83-.2-1.15-.87-1.96-2.04-2.23-.41-.1-.84-.09-1.27-.09-.52,0-.63.12-.64.64,0,.83,0,1.66,0,2.49ZM1032.87,100.06c0,.85,0,1.7,0,2.55,0,.4.09.49.49.5.31.01.63.02.94,0,1.48-.12,2.27-.76,2.52-2.07.07-.38.1-.78.08-1.17-.06-1.48-.86-2.55-2.13-2.84-.4-.09-.82-.09-1.23-.1-.57,0-.67.11-.68.67,0,.82,0,1.64,0,2.45ZM1019.38,96.39s-.06,0-.09,0c-.13.31-.27.61-.39.92-.52,1.38-1.04,2.77-1.55,4.15-.06.17-.11.34-.14.52-.07.35,0,.42.35.43,1.03,0,2.06,0,3.09,0,.72,0,.79-.11.56-.79-.54-1.57-1.07-3.13-1.61-4.7-.06-.18-.14-.35-.21-.52Z"/><path class="cls-1" d="M1077.73,120.96c.91-.69,1.83-1.39,2.74-2.08,0-.02,0-.05-.01-.07h-.32c-16.5,0-33,0-49.5,0-.2,0-.42.06-.6.15-1.28.64-2.56,1.3-3.84,1.95-.14.07-.29.13-.44.13-1.84,0-3.68,0-5.52,0-.05,0-.11-.01-.27-.03.74-.51,1.41-.97,2.09-1.43-.02-.03-.04-.06-.05-.09-.12.06-.25.1-.36.17-.61.41-1.22.83-1.84,1.25-.09.06-.2.12-.3.12-1.03,0-2.06,0-3.13-.07.67-.46,1.34-.92,2.01-1.38-.02-.03-.03-.07-.05-.1-.15.05-.32.08-.45.17-.61.4-1.2.82-1.81,1.22-.14.09-.32.15-.49.16-.85.02-1.7,0-2.58-.07.67-.46,1.35-.92,2.02-1.38l-.05-.1c-.14.05-.31.08-.43.16-.6.41-1.19.84-1.78,1.26-.08.06-.18.12-.26.12-.9,0-1.81,0-2.74-.06.08-.06.17-.12.26-.18,1-.62,2-1.23,3.02-1.84.2-.12.25-.25.28-.48.06-.52-.13-.84-.55-1.14-.9-.65-1.76-1.36-2.68-2.08.14-.02.22-.03.3-.03.57,0,1.15.02,1.72,0,.43-.03.77.1,1.11.35.49.37,1.01.7,1.53,1.05.11.08.24.12.37.18.02-.03.04-.07.06-.1-.65-.46-1.3-.93-1.99-1.42.09-.02.14-.05.18-.05.81,0,1.62,0,2.42,0,.12,0,.26.06.36.13.63.42,1.24.85,1.87,1.26.13.09.29.12.44.18.02-.04.04-.07.06-.11-.68-.46-1.36-.93-2.04-1.39,0-.03.02-.05.02-.08.44,0,.89,0,1.33,0,.59,0,1.23-.12,1.77.05.54.17,1,.63,1.49.96.2.14.4.28.61.41.1.06.21.09.32.14.02-.03.04-.06.06-.09-.65-.47-1.3-.93-2.02-1.45.19-.01.28-.02.38-.02,1.74,0,3.48,0,5.22,0,.19,0,.4.07.56.16,1.21.72,2.41,1.47,3.63,2.19.17.1.39.17.59.17,16.47,0,32.93,0,49.4,0,.1,0,.19,0,.29,0,.01-.02.02-.05.03-.07-.8-.59-1.61-1.18-2.41-1.77,0-.02.02-.05.03-.07,4.28.83,8.55,1.66,12.83,2.49,0,.03,0,.06,0,.08-4.28.86-8.56,1.73-12.84,2.59-.01-.02-.02-.04-.03-.07Z"/><path class="cls-1" d="M1079.88,107.17c.5-1.08.94-2.11,1.46-3.1.3-.57.21-1.05-.05-1.58-.69-1.43-1.37-2.87-2.02-4.32-.38-.84-.9-1.44-1.88-1.51-.25-.02-.24-.2-.22-.37.02-.2.11-.28.33-.28,1.31.03,2.62.04,3.93.05.19,0,.38-.02.57-.05.18-.02.32,0,.35.2.03.21,0,.38-.25.43-.11.02-.22.04-.33.07-.46.11-.59.3-.4.73.48,1.11.99,2.21,1.5,3.31,0,.02.03.03.05.05.02,0,.04,0,.05-.02.54-1.09,1.14-2.16,1.44-3.36.11-.44.06-.5-.36-.61-.15-.04-.3-.1-.45-.14-.26-.07-.24-.27-.21-.46.04-.2.17-.19.36-.19,1.18.01,2.35.01,3.53,0,.21,0,.36-.02.39.23.03.22-.06.38-.3.4-.93.08-1.5.62-1.88,1.42-.47.98-.97,1.95-1.45,2.92-.06.12-.08.27-.17.36-.39.42-.29.82-.06,1.29.68,1.41,1.31,2.85,1.96,4.28.03.06.06.12.11.22.07-.14.12-.24.17-.35,1.19-2.89,2.38-5.78,3.57-8.67.1-.25.17-.51.27-.76.1-.27.04-.45-.27-.51-.22-.05-.43-.14-.65-.18-.26-.06-.32-.22-.28-.45.04-.23.21-.19.39-.19,1.28.01,2.55.01,3.83,0,.21,0,.33.02.36.24.02.2.02.39-.26.41-1,.09-1.59.7-1.98,1.56-1.21,2.64-2.44,5.27-3.61,7.92-.59,1.33-1.07,2.71-1.59,4.06-.16.41-.39.55-.79.39-.11-.05-.21-.18-.26-.3-.84-1.86-1.66-3.72-2.49-5.59,0-.02-.03-.03-.07-.07-.04.06-.09.11-.12.18-.84,1.83-1.68,3.67-2.52,5.5-.09.21-.21.34-.44.33-.25,0-.38-.12-.49-.37-.69-1.55-1.39-3.08-2.11-4.62-1.22-2.61-2.47-5.21-3.69-7.81-.25-.54-.62-.89-1.21-1.01-.19-.04-.36-.12-.55-.17-.25-.06-.27-.24-.23-.44.04-.21.17-.23.37-.23,1.58.01,3.16.01,4.74,0,.22,0,.37.02.4.27.03.22-.03.34-.28.39-.86.18-.96.33-.6,1.13.87,1.93,1.76,3.85,2.66,5.77.5,1.07,1.01,2.13,1.52,3.19.05.11.11.22.21.4Z"/><path class="cls-1" d="M1055.75,103.47c.02-4.6,3.38-7.85,7.85-7.77,1.78.03,3.42.46,4.82,1.6,1.49,1.22,2.28,2.83,2.53,4.72.35,2.62-.34,4.9-2.32,6.71-1.74,1.58-3.84,2.12-6.14,1.9-2.17-.21-3.98-1.11-5.3-2.88-.98-1.31-1.42-2.81-1.43-4.28ZM1068.08,103.69c-.04-.52-.06-1.05-.13-1.57-.19-1.38-.59-2.7-1.46-3.82-1.08-1.39-2.51-1.92-4.23-1.56-1.57.33-2.52,1.39-3.05,2.85-.56,1.53-.6,3.12-.37,4.71.2,1.37.62,2.66,1.49,3.77,1,1.28,2.33,1.83,3.94,1.63,1.62-.2,2.64-1.18,3.23-2.65.44-1.08.55-2.21.59-3.36Z"/><path class="cls-1" d="M895.34,14.6c.59-.57,1.14-1.1,1.68-1.63.08-.08.16-.22.15-.33-.02-.37.17-.54.49-.62.12-.03.24-.08.42-.14-.15-.15-.25-.31-.39-.39-.26-.14-.31-.35-.35-.61-.06-.43-.08-.44-.51-.41-.27.02-.54.05-.82.07-.01-.03-.03-.06-.04-.08.15-.1.32-.19.46-.31.13-.12.23-.27.33-.42.05-.07.07-.16.09-.25.23-1,1.01-1.33,1.88-1.45.52-.07,1.07-.03,1.58.08.72.16,1.06.78.94,1.52-.01.07-.02.13-.04.23.28-.02.53-.03.84-.05-.02.17-.02.3-.07.41-.1.23-.04.29.19.31.61.06,1.21.14,1.81.24.51.08.91.35,1.19.8.33.54.67,1.07,1.19,1.47.07.05.14.16.15.25.03.33.27.53.46.77.37.46.69.96,1.03,1.45.08.11.13.25.22.35.14.15.14.27-.03.39-.19.13-.2.31-.1.5.36.65.7,1.3,1.08,1.94.13.21.35.37.55.53.4.32.81.63,1.23.93.14.1.32.14.48.2.24.09.54.08.64.41.02.05.14.08.21.09.09.02.19.01.29.02.3.01.43.16.36.46-.04.18.03.29.2.38.31.15.62.31.91.49.12.07.2.2.3.31.08.1.16.2.23.31.31.44.64.88.92,1.34.2.32-.14.95-.51,1.03-.06.01-.11.03-.16.04,0,.03,0,.06,0,.07.31.25.31.25-.05.5-.06.04-.14.16-.13.2.14.33-.01.57-.26.84.37.08.4.33.41.63.02.42.26.77.58.99.41.28.47.69.59,1.11.08.32.18.64.33.93.22.42-.07,1-.54,1.03-.17.01-.34.08-.51.1-.08,0-.19-.02-.25-.07-.16-.15-.33-.32-.45-.5-.09-.14-.14-.32-.16-.49-.03-.24-.15-.35-.39-.34-.23,0-.46,0-.7,0,.1.66.42,1.13.86,1.53.18.16.21.29.11.51-.08.18-.11.39-.13.6-.03.29-.28.36-.46.49-.06.04-.27-.04-.35-.13-.22-.21-.39-.47-.6-.69-.09-.09-.22-.22-.32-.21-.45.02-.89.08-1.3.13,0,.52.03.98-.02,1.42-.02.16-.19.33-.33.46-.32.32-.67.61-.99.93-.04.04-.05.19-.02.22.39.36.25.78.15,1.19-.04.15-.19.32-.14.42.08.21.24.41.41.58.25.25.36.57.48.88.08.21.1.43.14.65.01.06-.01.13-.05.19-.03.06-.09.11-.14.15-.36.31-1.75.37-2.13.08-.08-.06-.13-.19-.14-.29,0-.2.03-.39.05-.59.04-.46-.24-.68-.67-.53-.26.09-.53.15-.8.21-.09.02-.2-.01-.35-.03.08-.1.11-.17.16-.2.22-.12.29-.29.26-.54,0-.07.1-.19.17-.21.3-.07.5-.25.6-.52.18-.45.46-.83.86-1.1.06-.04.14-.15.12-.21-.08-.33-.14-.66-.28-.96-.17-.35-.34-.64-.1-1.04.09-.14.03-.46-.08-.61-.17-.23-.19-.47-.17-.72.02-.21-.05-.29-.27-.26-.35.05-.7.08-.95.4-.1.12-.27.2-.42.26-.49.2-.99.39-1.49.57-.2.07-.3.19-.29.39.03.91-.27,1.81-.09,2.72.1.53-.05,1-.27,1.46-.46.97-.74,1.99-.54,3.07.06.36.24.73.46,1.03.26.35.32.42.11.81-.24.45-.22.51.26.72.37.16.68.99.49,1.34-.05.09-.15.16-.24.2-.79.34-1.6.26-2.41.05-.05-.01-.11-.13-.12-.2-.01-.17.01-.34,0-.5-.01-.29-.04-.55.27-.75.12-.08.16-.31.19-.47.01-.06-.09-.21-.16-.22-.37-.07-.45-.3-.42-.63.01-.15,0-.29,0-.44-.35.05-.68.59-.65,1.04.02.22.05.43.05.65,0,.57-.03,1.15-.05,1.72-.02.33-.02.65.23.92.05.05.08.15.07.22-.06.46.17.8.41,1.14.04.06.08.12.11.18.15.28.08.41-.24.42-.55,0-1.11,0-1.66-.03-.25-.01-.39-.18-.4-.43,0-.19.02-.38,0-.56-.03-.21-.08-.42-.18-.6-.09-.18-.12-.34-.03-.53.27-.58.24-1.21.26-1.84,0-.07-.08-.14-.14-.2-.07-.07-.21-.11-.22-.18-.1-.52-.52-.88-.67-1.37-.06-.2-.13-.19-.29-.11-.52.24-1.03.18-1.53-.05-.16-.07-.14-.18-.08-.31.18-.41.35-.83.52-1.25.02-.05,0-.11,0-.17-.08-.35-.2-.7-.23-1.06-.02-.28-.1-.52-.26-.74-.03-.04-.09-.08-.09-.11.03-.51-.47-.8-.53-1.27,0-.08-.03-.17-.08-.22-.39-.38-.78-.76-1.17-1.13-.02-.02-.05-.02-.16-.05,0,.19-.02.36,0,.53.05.38.09.77.2,1.14.09.3.22.64.44.84.35.32.38.66.3,1.07-.16.76-.09,1.5.16,2.24.07.19.07.45,0,.64-.15.45.02.82.18,1.21.04.1.14.19.14.29.01.12-.02.25-.08.36-.07.14-.19.25-.29.37-.16.21-.13.38,0,.61.17.3.25.66.34,1,.02.05-.1.21-.16.21-.59.03-1.18.05-1.77.04-.24,0-.3-.24-.13-.5.17-.27.35-.53.55-.77.14-.17.18-.34.07-.52-.25-.41-.25-.87-.27-1.32,0-.09,0-.18,0-.27,0-.59-.04-1.15-.41-1.66-.26-.37-.42-.82-.16-1.28.02-.04.02-.11,0-.14-.21-.35-.42-.7-.64-1.03-.31-.45-.64-.87-.95-1.32-.1-.16-.21-.22-.39-.25-.75-.1-1.46.05-2.16.28-.65.21-1.3.21-1.95.03-.13-.04-.27-.16-.32-.29-.02-.06.14-.22.24-.3.1-.08.23-.12.35-.16.77-.23,1.38-.72,1.95-1.25.06-.06.07-.18.08-.28.04-.19.05-.38.1-.57.05-.23.14-.45.19-.68.04-.22.02-.42-.19-.58-.15-.11-.29-.28-.38-.45-.37-.68-.88-1.22-1.55-1.63-.48-.3-.83-.77-1.45-.87-.22-.03-.43-.24-.63-.38-.31-.22-.48-.49-.39-.91.03-.17-.15-.38-.23-.55.24-.67.49-1.37.75-2.06.05-.12.16-.22.24-.33.04-.05.1-.1.12-.16.32-1.02,1.01-1.8,1.67-2.6.2-.24.37-.51.58-.75.3-.35.63-.68.94-1.02.2-.22.37-.46.57-.68.18-.21.13-.37-.07-.52-.1-.07-.19-.15-.29-.21-.56-.33-1-.77-1.33-1.32-.38-.64-.83-1.22-1.48-1.62-.4-.25-.7-.63-1.07-.93-.41-.33-.59-.29-.82.18-.2.39-.46.76-.39,1.25.01.07-.11.2-.2.25-1.47.88-2.98,1.67-4.59,2.26-.29.1-.55.26-.83.39-.38.18-.77.3-1.2.27-.17-.01-.27-.07-.26-.24.02-.32.06-.65.09-.97,0-.04.04-.1.07-.12.56-.28.66-.81.75-1.36.07-.43.22-.85.33-1.28.15-.56.34-1.11.47-1.68.24-1.07.46-2.14.69-3.21.33-1.55.67-3.09,1-4.64.26-1.18.51-2.37.77-3.55.17-.75.34-1.5.54-2.25.06-.23,0-.35-.16-.48-.39-.32-.77-.65-1.15-.98-.04-.03-.07-.07-.11-.11.27-.26.58-.29.88-.14.4.21.81.42,1.16.7.57.45,1.1.96,1.64,1.46.08.07.15.24.11.31-.08.17-.26.28-.45.17-.47-.25-.92-.52-1.38-.79-.04-.02-.07-.06-.14-.11-.04.1-.08.18-.09.26-.18.92-.34,1.84-.54,2.76-.39,1.78-.82,3.56-1.22,5.34-.17.77-.31,1.55-.48,2.32-.23,1.09-.48,2.18-.71,3.27-.21.97-.42,1.95-.64,2.92-.06.28.07.46.28.6.19.13.38.13.57-.04.16-.14.36-.24.53-.38.28-.23.54-.48.81-.72.31-.27.63-.53.94-.81.29-.25.57-.51.83-.79.06-.06.07-.24.02-.31-.11-.16-.08-.29-.03-.47.16-.52.28-1.05.43-1.59-.31-.13-.6-.3-.92-.38-.33-.09-.41-.3-.38-.57.03-.33.11-.66.18-.99.01-.07.06-.15.03-.19-.24-.47-.13-.93.14-1.31.28-.39.63-.73.99-1.05.13-.12.36-.13.55-.17.57-.13,1.16-.22,1.71.04.28.13.55.3.8.49.35.27.69.47,1.16.4.32-.05.53.27.41.56-.04.11-.1.22-.13.33-.13.4,0,.63.42.7.26.04.54.07.8.04,1.1-.14,2.09.17,3.05.67.56.29,1.12.58,1.63.94.28.19.45.54.74.89ZM899.92,36.71c-.33-.02-.64-.04-.94-.05-.19,0-.23.1-.2.27.05.25.1.51.1.76,0,.53.04,1.04.23,1.54.04.12.01.27,0,.4-.03.19-.1.39-.1.58,0,.08.13.17.21.23.02.01.14-.06.16-.11.16-.5.36-1,.43-1.52.09-.68.08-1.37.11-2.11Z"/><path class="cls-1" d="M879.42,50.94s-.03-.01-.04-.02c-.73-.12-.75-.15-.61-.95h3.02v.9c-.29-.02-.57-.05-.87-.07v6.71h2.9v-6.68h-.83c-.02-.27-.02-.5-.04-.72-.02-.19.1-.18.23-.18.65,0,1.3.02,1.96.02.26,0,.53,0,.83,0,0,.24,0,.5,0,.77,0,.05-.11.13-.18.13-.2.02-.41,0-.58,0,0,.91,0,1.8,0,2.7,0,1.27,0,2.53.02,3.8,0,.19-.05.3-.22.4-.25.15-.47.36-.72.51-.16.09-.36.16-.55.16-.91.02-1.82,0-2.73.02-.42.01-.75-.11-1.08-.38-.37-.3-.53-.56-.52-1.09.06-1.99.03-3.98.04-5.97,0-.03-.01-.06-.02-.1Z"/><path class="cls-1" d="M910.93,50.8c-.17,0-.29,0-.42,0-.07,0-.17.03-.2,0-.24-.23-.06-.52-.08-.78,0-.05.15-.17.23-.17.7-.01,1.4,0,2.1,0,.32,0,.65,0,.99,0v.93h-.62c.12.46.24.89.35,1.31.45,1.64.9,3.27,1.34,4.91.11.41.1.41.53.4.4-.01.44.02.42.44-.02.55-.02.52-.57.51-.6,0-1.2.03-1.8.05-.49.02-.76-.32-.6-.78.02-.07.14-.13.22-.15.18-.03.37-.03.6-.04-.13-.34-.25-.64-.36-.96-.04-.13-.03-.28-.08-.4-.04-.08-.13-.2-.21-.2-.57-.04-1.14-.06-1.72-.07-.06,0-.16.07-.18.13-.14.42-.26.84-.39,1.27-.02.07-.04.15-.06.25h.78v.94h-2.92v-.93c.16,0,.32-.02.49,0,.3.04.43-.11.49-.38.15-.66.3-1.33.47-1.99.32-1.23.65-2.46.98-3.69.05-.2.14-.38.22-.61ZM911.92,52.11c-.04.05-.07.07-.08.1-.25.86-.5,1.72-.74,2.58-.01.05.11.19.16.19.49-.01.97-.04,1.4-.07-.25-.92-.49-1.84-.75-2.8Z"/><path class="cls-1" d="M901.98,55.08c0,.76,0,1.47,0,2.18,0,.16.06.24.21.25.18,0,.35,0,.56,0,0,.27,0,.52,0,.77,0,.05-.1.13-.16.13-.91,0-1.82,0-2.72,0-.02,0-.03-.02-.06-.03,0-.06,0-.13,0-.2,0-.65,0-.65.64-.68.17,0,.25-.04.23-.24-.05-.71-.1-1.42-.11-2.13-.02-1.43,0-2.86,0-4.31-.15,0-.36.04-.56.02-.07,0-.18-.11-.19-.18-.01-.24.02-.49.03-.82.47,0,.93,0,1.39,0,.7,0,1.4.01,2.1-.01.55-.02.94.22,1.26.64.09.12.25.18.36.28.07.06.14.17.14.25,0,.93-.03,1.86-.03,2.79,0,.24-.07.42-.25.57-.16.13-.29.31-.47.41-.23.13-.49.26-.75.28-.53.04-1.06.01-1.63.01ZM902.07,50.81c0,1.06,0,2.09,0,3.11,0,.05.09.14.14.14.45,0,.91,0,1.36,0,.2,0,.2-.13.18-.29-.05-.34-.09-.68-.11-1.03-.03-.57-.04-1.15-.07-1.72,0-.07-.1-.2-.16-.2-.42-.02-.84,0-1.34,0Z"/><path class="cls-1" d="M890.31,56.29h1.45c-.03.32-.05.63-.07.93-.02.21.06.31.28.31.62,0,1.24.01,1.87,0,.06,0,.18-.1.18-.16.01-.93,0-1.85,0-2.8-.87-.14-1.71-.29-2.56-.41-.65-.09-1.12-.59-1.12-1.25,0-.59,0-1.19,0-1.78,0-.19.04-.33.22-.44.17-.11.33-.26.46-.41.24-.28.54-.36.9-.36.79,0,1.58,0,2.37,0,.14,0,.3.11.42.21.22.17.42.37.62.57.04.04.07.11.08.17.02.35.05.69.04,1.04,0,.08-.09.22-.15.23-.47.02-.94.01-1.37.01.04-.47.08-.88.11-1.33h-2.27c0,.64,0,1.27,0,1.9,0,.45,0,.46.44.53.72.11,1.45.19,2.16.35.85.19,1.08.56,1.06,1.29-.03.8,0,1.6,0,2.4,0,.09,0,.22-.06.28-.47.44-.86,1-1.67.88-.57-.08-1.16-.04-1.75,0-.45.03-.79-.16-1.13-.42-.35-.27-.57-.57-.5-1.04.03-.22-.02-.45-.03-.7Z"/><path class="cls-1" d="M888,31.39c.14.11.24.19.36.28-.25.36-.48.71-.72,1.06-.92,1.32-1.84,2.64-2.77,3.96-.53.75-1.08,1.48-1.62,2.23-.23.32-.22.35.15.44.56.13,1.12.24,1.67.36.14.03.28.1.41.17.19.12.19.29-.02.38-.13.06-.29.07-.43.08-1.76.11-3.48-.18-5.21-.43-.09-.01-.24-.16-.23-.23.02-.12.11-.29.22-.33.16-.07.35-.06.53-.06.69,0,1.38.02,2.07.01.09,0,.21-.06.25-.13.45-.66.88-1.33,1.33-1.99.69-1.02,1.4-2.03,2.1-3.05.61-.88,1.21-1.75,1.82-2.63.02-.03.04-.07.09-.13Z"/><path class="cls-1" d="M760.12,122.57v-.94h4.85v-35.32h-4.66v-.86h15.38v.84h-5.26v17.05c.1-.08.17-.14.24-.2,2.72-2.63,5.44-5.25,8.15-7.89,1.74-1.7,3.48-3.39,5.17-5.14.66-.68,1.18-1.5,1.71-2.29.42-.63.11-1.29-.64-1.35-1.27-.1-2.55-.13-3.83-.2-.11,0-.22,0-.35,0v-.84c.12,0,.24,0,.35,0,4.29,0,8.58,0,12.87,0q.4,0,.4.4c0,.14,0,.28,0,.45-.53.04-1.03.06-1.53.12-2.2.25-4.2.95-5.85,2.52-3.15,3-6.33,5.97-9.49,8.96-.86.81-1.7,1.63-2.57,2.47.26.34.51.67.77,1,4.98,6.43,9.96,12.85,14.94,19.28.54.69,1.23,1.03,2.11,1.03.89,0,1.79,0,2.68.01.09,0,.18,0,.28.02v.9h-16.39c0-.27,0-.53,0-.8,0-.22.17-.16.29-.16,1.35,0,2.7,0,4.06,0,.11,0,.22,0,.41,0-4.41-5.77-8.77-11.49-13.14-17.21-.44.29-.73.52-.73,1.09.03,5.26.02,10.51,0,15.77,0,.31.08.39.39.39,1.52-.02,3.05,0,4.57-.01.25,0,.35.07.32.33-.02.19,0,.38,0,.6h-15.54Z"/><path class="cls-1" d="M762.53,106.62h.49v6.58c-.45.11-.48.09-.58-.3-.28-1.08-.85-1.27-1.73-.56-1.07.87-2.27,1.46-3.64,1.66-1.31.19-2.55-.09-3.74-.6-1.98-.84-3.37-2.33-4.39-4.19-2.34-4.29-1.7-9.72,1.61-13.27,1.55-1.67,3.46-2.64,5.79-2.63,1.45,0,2.74.49,3.9,1.35.34.25.73.47,1.14.61.36.12.75.02.98-.31.13-.19.14-.45.21-.71h.5c0,.11.02.21.02.32,0,1.78,0,3.56,0,5.34,0,.15.07.34-.21.35-.23,0-.31-.07-.34-.3-.18-1.48-.72-2.83-1.64-4.01-1.4-1.8-3.88-2.57-6.02-1.84-1.3.45-2.16,1.41-2.81,2.58-.54.98-.72,2.07-.91,3.14-.36,2.05-.48,4.11-.25,6.19.18,1.63.54,3.22,1.21,4.73,1.08,2.47,3.9,3.47,6.44,2.3,1.3-.6,2.27-1.54,2.99-2.77.61-1.04.96-2.14.96-3.35,0-.1.02-.2.03-.3Z"/><path class="cls-1" d="M777.71,132.75c-.36.07-.61.05-.82-.28-.51-.78-1.06-1.54-1.6-2.3-.06-.08-.12-.16-.18-.24-.33.17-.45.41-.43.77.03.68,0,1.36,0,2.06h-.52v-5.82h.51v2.5s.07.05.11.08c.06-.09.11-.19.18-.27.64-.68,1.3-1.35,1.91-2.05.25-.29.51-.3.88-.25-.1.12-.17.21-.25.29-.6.66-1.19,1.33-1.81,1.98-.2.21-.23.36-.04.61.64.87,1.26,1.77,1.89,2.66.06.08.1.16.17.27Z"/><path class="cls-1" d="M757.83,127.5c-.1.12-.19.23-.25.29-.41-.16-.77-.36-1.16-.44-1.08-.25-2.19.3-2.71,1.29-.51.97-.32,2.17.47,2.95.79.78,2.02.94,2.98.39q.37-.21.61.17c-1.08.98-2.96.84-4.05-.31-1.11-1.17-1.06-3.07.12-4.2,1.08-1.05,3-1.12,3.99-.13Z"/><path class="cls-1" d="M761.81,132.77h-.46v-.6c-.47.5-.96.73-1.58.69-.61-.04-1.09-.29-1.47-.76-.6-.76-.52-1.9.17-2.56.79-.76,1.89-.73,2.85.09.01-.19.02-.35.03-.54h.46v3.68ZM761.34,130.94c0-.83-.63-1.51-1.43-1.51-.83,0-1.52.67-1.52,1.5,0,.82.67,1.5,1.48,1.5.8,0,1.45-.66,1.46-1.48Z"/><path class="cls-1" d="M782.82,131.62c.13.09.25.16.36.23-.36.8-1.42,1.21-2.3.91-.95-.33-1.49-1.31-1.27-2.28.24-1.01,1.16-1.62,2.21-1.48.98.14,1.68,1.01,1.62,2.08h-3.33c0,.57.4,1.09.96,1.28.63.21,1.18-.02,1.74-.74ZM782.91,130.64c-.1-.75-.77-1.27-1.54-1.21-.63.05-1.23.65-1.22,1.21h2.76Z"/><path class="cls-1" d="M785.94,132.77h-.46v-3.69h.44c.02.12.03.23.05.38.06-.04.11-.06.14-.09.43-.43.94-.44,1.47-.26.52.18.8.6.83,1.1.05.84.01,1.68.01,2.54h-.44c0-.11,0-.23,0-.34-.01-.69,0-1.38-.05-2.07-.05-.6-.42-.91-.96-.9-.55.01-.97.38-1,.95-.04.65-.03,1.3-.03,1.95,0,.13,0,.26,0,.42Z"/><path class="cls-1" d="M769.52,132.77h-.47v-3.68h.45c0,.12.02.23.03.36.05-.02.1-.03.13-.06.45-.46.98-.47,1.52-.26.55.21.79.67.81,1.22.03.8,0,1.6,0,2.42h-.43c0-.12-.02-.24-.02-.36-.01-.65,0-1.3-.04-1.95-.04-.65-.38-.99-.92-1.01-.57-.02-1,.34-1.05.96-.05.64-.02,1.28-.03,1.92,0,.14,0,.28,0,.44Z"/><path class="cls-1" d="M765.39,133.04c-.62-1.35-1.21-2.64-1.81-3.93q.49-.09.67.31c.33.74.67,1.48,1,2.22.03.07.08.14.14.26.28-.58.54-1.12.8-1.67.13-.27.28-.52.37-.8.12-.34.32-.43.69-.33-.62,1.29-1.23,2.58-1.87,3.94Z"/><path class="cls-1" d="M763.15,132.77h-.44v-5.83h.44v5.83Z"/><path class="cls-1" d="M778.4,126.93h.44v5.82h-.44v-5.82Z"/><path class="cls-1" d="M767.82,129.07h.44v3.69h-.44v-3.69Z"/><path class="cls-1" d="M784.63,132.77h-.44v-3.69h.44v3.69Z"/><path class="cls-1" d="M796.25,85.52v.72s-.04,0-.06,0c-.01-.12-.03-.23-.05-.41-.08.19-.13.32-.21.52-.09-.2-.14-.33-.23-.52-.02.18-.03.3-.04.42-.02,0-.04,0-.06,0v-.74l.1-.03c.07.17.14.34.23.58.09-.22.16-.39.23-.57l.1.03Z"/><path class="cls-1" d="M768.51,127.19c-.2.13-.32.28-.42.26-.11-.01-.25-.16-.28-.27-.04-.18.11-.32.29-.29.12.02.22.15.41.3Z"/><path class="cls-1" d="M784.44,126.76c.15.19.31.31.3.4-.02.12-.18.21-.28.32-.1-.1-.26-.18-.28-.29-.01-.1.13-.23.25-.43Z"/><path class="cls-1" d="M794.86,85.52h.42c-.05.24-.1.48-.16.75-.16-.23.15-.61-.26-.75Z"/></g></svg>