<?xml version="1.0" encoding="UTF-8"?><svg id="Layer_2" xmlns="http://www.w3.org/2000/svg" viewBox="0 0 1018.31 114.26"><defs><style>.cls-1{fill:#6ee956;stroke-width:0px;}</style></defs><g id="Layer_1-2"><path class="cls-1" d="M710.38,75.3c.36.12.77.17,1.06.38.42.3.69.22,1.04-.11.63-.59,1.09-.62,1.83-.11-.19.09-.34.17-.48.24-.64.32-.92.96-.67,1.59.26.66.78.95,1.37.76.6-.19.94-.79.82-1.42-.05-.27-.23-.57.29-.74.02.21.06.39.05.58-.02.76.4,1.32,1.03,1.35.6.03,1.18-.52,1.25-1.23.12-1.16-.65-2.09-1.8-1.62-.04.02-.11,0-.16,0-.31-.89.38-1.74,1.29-1.58.38.06.56,0,.59-.45.03-.52.17-1.04.29-1.68.65.45.61,1.01.63,1.48.03.57.11.75.75.61.78-.17,1.33.67,1.14,1.64-.06,0-.13,0-.19-.01-.87-.29-1.49.04-1.73.95-.23.86.2,1.68.98,1.85.67.15,1.38-.49,1.29-1.16-.01-.11-.09-.23-.06-.32.04-.13.16-.25.24-.37.08.14.21.27.22.41.01.25-.11.5-.08.74.07.54.55.97,1.07,1.02.47.05.92-.27,1.13-.78.19-.46.05-1.09-.35-1.39-.21-.16-.47-.27-.73-.42.19-.37.52-.42.86-.39.16.02.37.05.46.15.65.75,1.33.6,2.07.16.12-.07.32,0,.48,0-.06.14-.08.31-.17.42-1.93,2.17-2.67,4.76-2.7,7.59,0,.51-.12.7-.67.69-2.9-.03-5.8-.01-8.7,0-.87,0-.85,0-.87-.85-.05-2.4-.64-4.65-2.06-6.63-.28-.39-.61-.74-.92-1.11.04-.07.08-.15.12-.22Z"/><path class="cls-1" d="M674.71,100.77c-1.66,0-2.91-.42-3.63-1.75-.72-1.32-.67-2.72.05-4.02.53-.97,1.46-1.42,2.53-1.62,1.99-.37,3.99.57,4.49,2.2.83,2.68-.42,5.22-3.45,5.19ZM671.78,97.05c-.02,1.74,1.04,2.83,2.76,2.82,1.64,0,2.72-1.1,2.72-2.76,0-1.74-1.02-2.82-2.69-2.84-1.74-.02-2.77,1.01-2.79,2.78Z"/><path class="cls-1" d="M702,93.82c-.2.45-.41.94-.67,1.53-.37-.8-1.04-1.02-1.72-1.05-.66-.03-1.33.12-1.99.21-.1.01-.23.08-.28.16-.19.33-.5.67-.5,1,.01.44.48.61.9.63.65.04,1.31.02,1.96.08.5.05,1.01.14,1.48.3,1.34.46,1.47,2.41.5,3.16-.52.41-1.19.74-1.83.87-1.16.22-2.32.07-3.4-.48-.27-.14-.58-.18-.95-.28.18-.42.4-.92.68-1.58.24.95.92,1.18,1.56,1.36.89.25,1.81.3,2.67-.12.28-.13.53-.4.69-.66.29-.48.07-1.09-.48-1.22-.54-.14-1.11-.16-1.67-.21-.65-.07-1.31-.05-1.94-.19-.61-.13-1.1-.5-1.22-1.17-.14-.76-.07-1.45.58-1.98,1.05-.85,2.27-.99,3.56-.8.34.05.66.2.99.28.33.07.66.11,1.07.17Z"/><path class="cls-1" d="M721.36,93.43h1.43c-.38.95-.13,1.9-.19,2.83,0,.08.18.24.28.24,1.4.02,2.8.01,4.19.01v-3.06h1.31c-.04.35-.12.73-.12,1.12,0,1.79,0,3.57.01,5.36,0,.24.11.49.17.77h-1.5c.41-.95.14-1.96.2-2.96,0-.09-.2-.27-.3-.27-1.31-.02-2.63-.01-3.94,0-.11,0-.29.18-.3.29-.02.82-.01,1.64.01,2.46,0,.15.13.29.22.48h-1.48c.05-.33.13-.65.13-.98.01-1.79.01-3.57,0-5.36,0-.29-.08-.58-.13-.93Z"/><path class="cls-1" d="M772.91,96.26v1.4c-.32-.07-.61-.18-.91-.19-.66-.03-1.31,0-1.97,0-.3,0-.43.11-.42.42.01.49.02.99,0,1.48-.01.35.15.44.46.44,1.26,0,2.52,0,3.77-.02.24,0,.47-.16.74-.26v1.27h-6.18c.05-.51.12-.94.12-1.38.01-1.7.01-3.39,0-5.09,0-.28-.08-.55-.15-.94h5.88v1.06c-.42-.05-.83-.13-1.24-.14-.97-.02-1.93,0-2.9-.01-.39,0-.52.14-.51.51.02.42.02.84,0,1.26-.01.33.1.46.44.46.71-.01,1.42.01,2.13-.02.23,0,.45-.15.73-.25Z"/><path class="cls-1" d="M686.61,93.42h1.23c-.01.75-.02,1.47-.03,2.18,0,.93.02,1.86-.01,2.79-.05,1.45-.87,2.31-2.33,2.34-.87.02-1.75-.02-2.6-.16-.94-.15-1.46-.85-1.52-1.76-.1-1.45-.08-2.91-.12-4.37,0-.32-.05-.64-.09-1h1.34c-.03.47-.08.94-.09,1.41-.01,1.13,0,2.26,0,3.39,0,.85.32,1.33,1.16,1.45.67.1,1.39.09,2.06-.03.82-.14,1.1-.56,1.12-1.44.02-1.22.01-2.44,0-3.66,0-.37-.07-.74-.11-1.15Z"/><path class="cls-1" d="M713.37,100.72h-1.43c.04-.5.12-1,.13-1.5.02-1.66.02-3.31,0-4.97,0-.27-.11-.54-.17-.85,1.29,0,2.57-.01,3.85,0,.54,0,1.11,0,1.62.16.9.28,1.3,1.16,1.13,2.27-.15.99-.77,1.62-1.73,1.66-1,.04-2,.04-3,.01-.43-.01-.59.12-.57.55.03.65,0,1.31.02,1.97,0,.21.09.41.15.69ZM714.84,96.63h0c.27,0,.55.01.82,0,.27-.01.55-.03.81-.07.73-.12,1.07-.54,1.02-1.23-.04-.67-.38-.96-1.18-.97-.87,0-1.75.02-2.62-.01-.42-.02-.5.15-.49.51.02.4.02.8,0,1.2-.03.42.11.61.55.58.36-.03.73,0,1.09,0Z"/><path class="cls-1" d="M751.14,100.73h-1.45c.06-.37.15-.72.16-1.08.02-1.82.01-3.64,0-5.46,0-.24-.09-.47-.15-.79.4,0,.81,0,1.21,0,1.24.01,2.48-.02,3.71.06,1.1.07,1.69.8,1.67,1.9-.02,1.33-.61,2.09-1.74,2.15-1.04.05-2.08.04-3.11.01-.39,0-.51.12-.49.5.02.62,0,1.24.02,1.86.01.26.11.53.18.85ZM752.76,94.33s0,.02,0,.03c-.47,0-.95-.02-1.42.02-.13.01-.35.2-.36.32-.04.54-.03,1.09,0,1.64,0,.1.15.28.23.28,1.13-.02,2.26-.03,3.38-.13.5-.04.74-.55.71-1.19-.02-.51-.28-.83-.79-.87-.58-.05-1.16-.07-1.74-.1Z"/><path class="cls-1" d="M760.43,97.53v3.18h-1.38c.05-.38.15-.77.16-1.15.02-1.75.01-3.5,0-5.24,0-.27-.09-.54-.15-.87-.04.03,0-.03.04-.03,1.62,0,3.24-.03,4.86.05,1.2.06,1.7.77,1.67,2.1-.03,1.18-.68,1.92-1.81,1.96-1.12.04-2.25,0-3.38,0ZM762.14,94.38h0c-.38-.01-.77.02-1.15-.02-.52-.06-.73.12-.67.66.06.52-.12,1.2.15,1.51.23.26.95.11,1.46.11.6,0,1.2,0,1.79-.09.63-.09.97-.58.93-1.21-.03-.58-.36-.9-1.05-.95-.49-.03-.98,0-1.47,0Z"/><path class="cls-1" d="M723.51,85.64v1.3h-10.19v-1.3h10.19Z"/><path class="cls-1" d="M668.42,99.52v1.24c-2.11-.04-4.2,0-6.19-.02.06-.45.16-.87.16-1.29.02-1.68.02-3.35,0-5.03,0-.32-.12-.64-.19-.99h1.38c-.03.43-.09.85-.09,1.27-.01,1.51,0,3.02-.01,4.54,0,.41.08.59.54.57,1.16-.03,2.33,0,3.5-.02.28,0,.56-.16.9-.26Z"/><path class="cls-1" d="M736.27,100.74c.07-.38.17-.7.17-1.02.02-1.82.02-3.64,0-5.46,0-.26-.1-.51-.16-.82h1.34c-.03.45-.09.91-.09,1.36-.01,1.49,0,2.99-.02,4.48,0,.36.06.53.47.53,1.26-.02,2.51,0,3.77-.02.23,0,.45-.2.7-.32v1.33c-1.59-.01-3.17-.03-4.76-.04-.5,0-1,0-1.44,0Z"/><path class="cls-1" d="M733.2,100.72h-1.51c.04-.41.12-.8.12-1.2.01-1.75.01-3.5,0-5.25,0-.26-.08-.52-.14-.84h1.42c-.26.83-.2,6.78.11,7.29Z"/><path class="cls-1" d="M692.53,100.72h-1.43c.06-.37.18-.74.18-1.11.02-1.75.02-3.5,0-5.24,0-.29-.1-.57-.16-.91h1.29c-.01,1.2-.06,2.42-.03,3.64.03,1.2-.16,2.41.14,3.62Z"/><path class="cls-1" d="M745.1,93.42h1.4c-.3,1.24-.14,2.47-.14,3.69,0,1.19-.16,2.4.14,3.61h-1.4c.06-.4.15-.78.16-1.16.02-1.71.02-3.42,0-5.13,0-.31-.1-.61-.16-1.01Z"/><path class="cls-1" d="M826.49,12.17v-1.34c.52,1.58.89,3.47,2.98,3.25,1.61-.17,2.08-1.77,2.22-3.31.07.01.15.02.22.04.04.48.07.96.11,1.52,1.64-1.43,3.01-2.99,3.79-4.97.59-1.49.03-3.09-1.31-3.96-.73-.48-1.2-1.08-1.26-1.95,1.02,1.08,2.01,2.12,3,3.17.06,0,.13-.02.19-.03-.15-.79-.24-1.6-.47-2.36-.23-.75-.61-1.45-.81-2.21,1.13,1.17,1.42,2.66,1.63,4.28,1.12-.76,1.08-1.99,1.51-3.04.18.82.14,1.71-.37,2.29-1.46,1.64-1.3,3.88-2.36,5.67,1.06.11,1.7-.21,1.87-1.03.15-.74.12-1.51.17-2.29.92,1.12.29,3.34-1.05,3.86q-1.84.7-3.08,2.42c1.26.38,2.5-.1,3.62-1.29-.11.27-.16.59-.34.81-.66.84-1.64,1.03-2.63,1.16-.81.11-1.7.02-2.36.83,1.02-.08,1.97-.16,2.95-.24-.16,1.15-.7,1.76-1.64,1.97-.34.08-.69.13-1.03.17-.7.09-.96.5-.82,1.16.2.91-.01,1.69-.49,2.48-.28.47-.37,1.08-.44,1.64-.09.65-.33,1.16-1.03,1.17-.71.02-.95-.46-1.08-1.12-.13-.69-.45-1.35-.63-2.04-.16-.6-.36-1.23-.35-1.84.02-1.3.07-1.37-1.26-1.53-1.17-.15-1.93-.69-2.31-2.05,1.03.06,1.98.12,2.93.17.03-.05.05-.1.08-.16-.43-.17-.84-.39-1.28-.5-.9-.22-1.84-.29-2.71-.58-.67-.23-1.27-.69-1.18-1.63.74,1.58,2.18,1.38,3.52,1.47-.88-.94-1.34-2.29-2.93-2.46-.98-.11-1.47-.89-1.53-1.86-.04-.67,0-1.35,0-2.02.1,0,.2,0,.29-.01.05.73.05,1.48.17,2.2.16.95.89,1.18,1.93,1.22-1.1-1.78-.9-3.9-2.24-5.51-.52-.62-.58-1.63-.84-2.46.1-.04.19-.07.29-.11.39,1.03.77,2.07,1.16,3.1.11-.01.22-.02.33-.04.23-1.55.52-3.08,1.65-4.28-.56,1.48-1.27,2.93-1.18,4.69,1.06-1.12,2.05-2.17,2.98-3.15.12.43-.18,1.1-.83,1.62-2.12,1.69-2.45,3.06-1.02,5.38.84,1.36,1.95,2.55,2.94,3.82.12-.06.23-.13.35-.19Z"/><path class="cls-1" d="M841.77,28.32h-1.49c-.88-2.36-2.09-3.06-4.45-2.59-.79.16-1.39.58-1.73,1.32-.51,1.12-.13,2.16,1.03,2.53,1.35.43,2.75.72,4.12,1.09,2.44.65,3.49,2.34,2.84,4.72-.17.63-.58,1.3-1.08,1.72-1.77,1.54-5.45,1.67-7.39.35-1.31-.89-1.86-2.16-1.83-3.77h1.55c.03.08.07.18.1.28.64,2.76,4.05,3.93,6.32,2.15,1.2-.94,1.04-2.86-.35-3.45-.95-.4-1.99-.6-3-.88-.56-.16-1.12-.3-1.68-.46-1.36-.39-2.36-1.16-2.49-2.67-.14-1.6.39-2.93,1.78-3.82,1.82-1.16,5-.91,6.66.5.8.68,1.16,1.62,1.1,2.99Z"/><path class="cls-1" d="M800.62,37.87c-.12.05-.14.07-.17.07-1.68.1-1.68.09-2.24-1.48-.3-.84-.42-1.97-1.02-2.42-.57-.42-1.68-.15-2.54-.14-.89,0-1.99-.23-2.62.19-.59.4-.69,1.53-1.01,2.34-.01.03-.02.05-.03.08q-.55,1.55-2.29,1.37c.53-1.4,1.04-2.77,1.56-4.15,1.08-2.88,2.19-5.75,3.23-8.64.29-.8.85-.62,1.4-.64.5-.02.92-.04,1.15.61,1.47,4.13,2.98,8.24,4.47,12.36.05.13.07.28.11.44ZM794.79,26.61l-.2.03c-.68,1.89-1.37,3.78-2.08,5.75h4.29c-.69-1.98-1.35-3.88-2.01-5.77Z"/><path class="cls-1" d="M817.54,33.57h-7.16c-.09,1.7.61,2.91,1.85,3.27,1.35.4,2.58-.11,3.36-1.47.47-.82,1.11-.27,1.7-.45-.39,1.9-1.71,3.1-3.56,3.35-2.03.27-3.87-.6-4.62-2.36-.84-1.97-.81-3.98.26-5.87.95-1.68,2.75-2.41,4.71-2.03,1.86.36,2.99,1.58,3.28,3.58.09.6.11,1.21.18,1.98ZM810.38,32.2h5.38c-.04-1.81-1.03-2.9-2.61-2.93-1.53-.03-2.72,1.18-2.78,2.93Z"/><path class="cls-1" d="M843.54,33.11c.19-.84.29-1.72.6-2.52.77-1.99,2.56-2.97,4.75-2.72,1.95.22,3.39,1.66,3.75,3.69.24,1.35.13,2.67-.36,3.94-.82,2.13-2.56,3.09-4.95,2.78-1.91-.25-3.37-1.83-3.61-3.92-.05-.4-.05-.81-.08-1.22-.03,0-.07-.02-.1-.03ZM851.15,33.01c-.11-.71-.15-1.32-.32-1.9-.33-1.13-1.22-1.81-2.36-1.88-1.29-.08-2.16.4-2.67,1.53-.65,1.44-.73,2.92-.17,4.41.47,1.26,1.29,1.78,2.6,1.77,1.28-.02,2.02-.52,2.45-1.81.23-.71.33-1.46.46-2.12Z"/><path class="cls-1" d="M869.79,28.23c-1.59,4.11-3.11,8.15-4.72,12.15-.62,1.54-1.69,1.92-3.37,1.46v-1.25c.22,0,.44-.02.65,0,.74.07,1.16-.25,1.5-.91.47-.92.49-1.75.11-2.72-1.1-2.86-2.1-5.77-3.14-8.65,1.36-.46,1.7-.3,2.12.95.74,2.23,1.48,4.45,2.28,6.88.16-.39.26-.6.33-.81.66-1.98,1.31-3.96,1.97-5.94.47-1.4.48-1.39,2.26-1.16Z"/><path class="cls-1" d="M820.49,37.91h-1.52v-9.73h1.45v1.31c.35-.32.53-.5.74-.67,1.21-1,2.57-1.16,4.01-.66.89.31,1.47,1,1.57,1.92.13,1.24.15,2.49.18,3.74.03,1.33,0,2.67,0,4.07h-1.6c-.02-.28-.05-.59-.05-.89,0-1.74.01-3.49,0-5.23-.02-1.59-.54-2.31-1.69-2.41-1.5-.12-2.75.7-2.95,2.1-.16,1.14-.12,2.32-.14,3.48-.02.96,0,1.91,0,2.97Z"/><path class="cls-1" d="M803.46,37.9h-1.55v-13.37h1.55v13.37Z"/><path class="cls-1" d="M805.75,24.52h1.52v13.39h-1.52v-13.39Z"/><path class="cls-1" d="M856.06,37.93h-1.46v-13.39h1.46v13.39Z"/><path class="cls-1" d="M859.53,24.53v13.39h-1.47v-13.39h1.47Z"/><path class="cls-1" d="M431.9,97.85c-.21.18-.39.39-.62.54-.62.42-1.15.31-1.59-.29-.11-.15-.21-.3-.36-.53-.21.23-.4.44-.58.65-.39.46-.91.44-1.44.4-.07,0-.15-.09-.19-.16-.15-.24-.29-.48-.43-.73-.27.19-.51.37-.77.52-.68.39-1.39.5-2.11.09-.08-.05-.22-.03-.33,0-.31.08-.6.21-.91.27-.44.08-.78-.12-1.06-.45-.14-.17-.27-.34-.43-.53-.12.13-.21.26-.32.36-.19.18-.38.37-.61.51-.39.24-.8.16-1.08-.18-.2-.24-.36-.52-.55-.8-.27.21-.52.43-.79.62-.36.25-.74.47-1.2.48-.22,0-.3-.08-.33-.29-.09-.51-.2-1.02-.32-1.52-.03-.14-.12-.28-.21-.48-.34.36-.65.66-.94.99-.22.25-.42.53-.63.79-.1.12-.2.24-.33.33-.12.08-.28.1-.42.15-.02-.13-.06-.25-.07-.38-.02-.44-.02-.88-.04-1.31,0-.14-.08-.27-.15-.47-.28.2-.53.34-.74.53-.37.33-.7.7-1.06,1.04-.19.18-.39.33-.59.49-.19.16-.34.14-.47-.08-.03-.06-.09-.11-.15-.18-.18.1-.36.2-.53.29-.32.16-.58.13-.82-.13-.17-.18-.3-.39-.44-.59-.06-.08-.11-.16-.18-.26-.61.46-1.24.84-1.98.95-.57.09-1.16.08-1.75.09-.28,0-.46-.18-.6-.42-.25-.43-.3-.9-.32-1.38-.05-1.42.02-2.83.37-4.22.09-.37.3-.55.67-.56.39-.02.57.15.52.53-.08.55-.23,1.09-.29,1.64-.12,1.08-.2,2.17.07,3.25.05.22.15.32.38.34.75.08,1.46.03,2.11-.41.28-.19.45-.43.52-.77.08-.41.2-.82.35-1.21.07-.19.24-.33.37-.51.43.37.48.82.45,1.3-.02.3-.04.6-.04.9,0,.29.05.59.37.7.33.11.67.04.87-.24.21-.3.34-.66.48-1,.1-.24.12-.5.23-.73.09-.21.24-.4.37-.59.03,0,.06.01.09.02.14.45.29.9.44,1.4.54-.65,1.05-1.27,1.59-1.91.48.56.58,1.21.8,1.88.25-.23.46-.43.67-.63.31-.31.6-.65.92-.95.33-.3.54-.28.68.13.19.55.28,1.13.42,1.69.08.31.15.63.23.94.74-.12,1.13-.55,1.23-1.27.03-.24.07-.47.12-.7.03-.12.07-.25.13-.36.12-.23.3-.46.57-.37.14.05.28.31.29.49.03.37-.03.75-.04,1.12,0,.17-.02.35.02.52.06.27.16.54.49.6.33.06.6-.07.77-.35.12-.2.26-.41.31-.64.18-.85.32-1.7.48-2.57-.32-.05-.58-.08-.83-.15-.11-.03-.22-.12-.28-.22-.09-.15-.05-.28.16-.3.27-.03.54-.09.82-.1.17,0,.24-.08.28-.23.07-.26.17-.52.25-.78.07-.25.2-.4.48-.37.07,0,.14-.01.26-.03-.02.46-.04.91-.07,1.39.55.04,1.11,0,1.55.42-.38.26-.8.29-1.21.33-.53.05-.54.04-.64.58-.13.74-.28,1.48-.08,2.23.19.73.57.99,1.31.88.03-.37.04-.74.08-1.11.07-.59.28-1.11.7-1.55.28-.29.61-.51,1.02-.37.41.14.6.51.68.93.09.49-.07.88-.43,1.21-.26.24-.53.47-.84.74.46.12.89.25,1.26-.03.3-.24.56-.55.78-.86.19-.27.29-.59.45-.87.15-.26.32-.51.51-.74.27-.33.62-.43,1.04-.28.09.03.19.05.31.08.09-1.01.17-1.99.26-3.01.2.05.34.08.48.12.22.06.29.21.29.43,0,1.01-.02,2.01,0,3.02.01.45.14.9.21,1.35,0,.04.03.09.05.13.4.86.64.86,1.33.45.09-.06.19-.1.29-.16v.49ZM429.11,96.32c-.01-.08-.03-.19-.04-.31-.01-.22-.12-.35-.34-.41-.21-.05-.35.04-.48.19-.41.49-.62,1.05-.56,1.69.04.42.31.57.68.37.12-.07.24-.17.32-.29.27-.35.38-.76.4-1.24ZM425.15,96.23c-.07-.12-.18-.33-.31-.53-.1-.15-.21-.13-.33,0-.36.36-.46,1.06-.2,1.5.03.05.17.1.23.07.37-.19.56-.5.61-1.03Z"/><path class="cls-1" d="M331.53,98.65c-.05-.18-.09-.3-.14-.46-.16.09-.31.17-.46.25-.51.27-.79.21-1.13-.25-.16-.21-.29-.44-.46-.7-.18.18-.36.33-.52.5-.39.42-.83.71-1.45.63-.48-.06-.88-.25-1.03-.73-.15-.48-.24-.99-.34-1.49-.05-.24-.05-.49-.06-.74,0-.14-.07-.21-.21-.18-.67.11-1.33.22-2,.34-.21.04-.28.16-.3.39-.05.7-.14,1.4-.21,2.1-.02.24-.14.33-.39.33-.84-.01-.69-.02-.67-.71.03-1.12.15-2.23.14-3.34,0-.74-.17-1.49-.28-2.22-.03-.21.04-.3.22-.32.24-.03.49-.05.73-.04.21,0,.19.18.2.33.07.79.14,1.58.21,2.38,0,.04.02.09.04.2.79-.1,1.57-.19,2.36-.31.07-.01.15-.19.16-.3.09-.6.15-1.2.24-1.79.03-.24.17-.45.42-.48.21-.03.48-.02.64.09.1.07.11.37.07.55-.2,1-.36,2-.29,3.02.04.51.09,1.02.22,1.51.19.71.8.84,1.33.31.38-.38.46-.88.57-1.37.06-.29.15-.59.28-.85.06-.13.27-.25.41-.25.11,0,.29.19.31.31.06.32.05.65.05.98,0,.27-.05.55-.03.82.04.57.52.83,1.02.55.32-.17.5-.45.6-.79.09-.33.17-.67.27-1,.09-.28.23-.53.51-.7.17.46.34.91.53,1.43.2-.25.34-.45.5-.64.27-.33.54-.67.83-.98.27-.28.47-.26.63.09.17.36.3.74.44,1.12.16.46.32.92.68,1.27.11.11.21.13.36.06.32-.16.54-.38.67-.72.14-.38.3-.75.46-1.11.07-.15.17-.28.27-.41.33-.41.72-.61,1.25-.38.05.02.11.03.16.04.02,0,.03,0,.06-.01.09-.98.18-1.95.27-2.91.06-.02.07-.03.08-.03.7.08.69.08.69.77,0,1.09,0,2.18.08,3.26.03.48.21.96.42,1.4.25.51.7.52.96,0,.23-.45.35-.95.48-1.44.11-.41.18-.84.27-1.25.05,0,.07,0,.08,0,.6.31.56.13.47.84-.07.56-.15,1.12-.23,1.72.44-.07.83-.2,1.1-.51.31-.35.58-.73.84-1.11.2-.3.36-.63.55-.97.24.21.37.42.39.74.02.6.09,1.2.15,1.8,0,.1.05.19.08.28.97-.09,1.93-1.42,2-2.77.35.01.68.04.97.27.62.5.88,1.19,1.02,1.95.02.11.04.23.07.36.49-.25.83-.57.89-1.13.07-.61.17-1.21.26-1.82.03-.17-.03-.25-.2-.28-.31-.06-.62-.14-.93-.21.04-.4.08-.44.45-.46.26-.02.59.04.76-.09.18-.14.2-.47.29-.72.08-.22.15-.45.23-.65.04-.01.06-.02.08-.02.55.14.55.14.51.7-.02.24-.05.47-.07.72.5.12,1.1-.15,1.48.41-.23.28-.54.3-.85.33-.2.02-.4-.01-.6,0-.08,0-.2.08-.21.14-.15.78-.36,1.55-.24,2.36.07.45.27.81.59,1.12.04.04.22.04.26-.01.2-.24.4-.48.55-.75.17-.3.25-.65.42-.95.16-.29.34-.59.57-.83.29-.31.56-.32.94-.13.12.06.24.13.38.21.06-.14.12-.27.18-.4.04,0,.06,0,.09,0,.56.16.49.02.56.68.06.59.2,1.17.32,1.74.05.23.2.38.46.41.27.03.46-.1.55-.32.13-.3.22-.61.32-.93.08-.24.11-.5.21-.73.09-.2.25-.37.37-.55.03,0,.06.01.09.02.16.44.33.87.51,1.36.29-.36.55-.69.82-1,.28-.31.57-.61.91-.96.16.34.3.61.41.88.16.39.29.79.43,1.18.05.13.1.25.17.37.25.44.45.49.85.18.2-.15.39-.32.63-.52.02.53-.12.97-.43,1.33-.66.78-1.02.73-1.45-.12-.21-.42-.44-.82-.67-1.23-.13-.24-.31-.29-.53-.11-.41.32-.82.64-1.22.97-.34.28-.66.58-1,.86-.07.06-.19.09-.29.09-.32,0-.64-.06-.95,0-.37.06-.62-.05-.81-.35-.11-.17-.22-.34-.35-.54-.08.08-.15.14-.22.2-.2.18-.38.37-.6.52-.51.35-.92.32-1.39-.1-.17-.15-.27-.17-.46-.02-.75.58-1.32.48-1.88-.29-.11-.15-.21-.32-.34-.5-.16.14-.31.27-.46.39-.59.51-1.23.85-2.04.77-.51-.05-.79-.4-.67-.93.16.01.33.02.5.03.63.05.95-.32.8-.94-.09-.35-.29-.7-.55-.92-.2.3-.38.6-.6.88-.41.5-.82,1-1.27,1.47-.17.17-.45.23-.67.34-.2.1-.33,0-.38-.17-.14-.43-.26-.87-.39-1.31-.02-.06-.03-.12-.06-.23-.12.1-.22.17-.31.25-.25.26-.49.52-.74.78-.09.09-.18.18-.27.27-.64.58-.91.58-1.53-.02-.05-.04-.1-.08-.15-.13-.17.11-.34.22-.52.32-.65.38-.98.33-1.49-.22-.14-.15-.27-.29-.42-.46-.24.22-.47.43-.71.62-.26.22-.55.35-.9.37-.34.01-.58-.11-.75-.41-.07-.12-.13-.24-.22-.38-.18.17-.34.32-.52.47-.12.1-.26.17-.39.25-.17.1-.34.09-.46-.09-.21-.32-.42-.64-.62-.97-.17-.29-.33-.59-.5-.88-.11-.19-.24-.23-.41-.09-.37.3-.74.6-1.11.9-.43.35-.85.69-1.28,1.03-.1.07-.22.11-.36.17ZM339.53,96.27c0-.09-.01-.2-.03-.31-.03-.2-.13-.36-.33-.43-.22-.08-.35.06-.47.19-.5.53-.62,1.18-.6,1.88,0,.07.05.17.11.19.26.09.51.12.74-.1.41-.39.56-.87.58-1.42ZM355.65,96.52s-.03-.01-.05-.02c0-.1.02-.21-.02-.3-.06-.13-.14-.3-.25-.34-.13-.05-.35-.02-.45.06-.43.39-.63.89-.56,1.47.05.41.38.56.74.33.13-.09.26-.22.33-.36.12-.27.18-.56.27-.85Z"/><path class="cls-1" d="M373.67,95.27c.1.34.18.66.28.97.06.21.19.26.36.12.16-.14.29-.33.43-.49.28-.32.57-.64.85-.96.17-.18.34-.14.44.06.14.27.25.57.37.85.18.45.32.91.55,1.34.23.42.63.43.85,0,.2-.38.25-.83.39-1.24.08-.25.16-.51.3-.72.2-.31.54-.26.66.1.07.23.08.48.08.72,0,.32-.08.64-.04.95.07.64.65,1,1.26.79.28-.1.54-.3.78-.48.06-.04.06-.22.03-.31-.35-1.19-.48-2.39-.16-3.6.12-.43.33-.85.54-1.25.15-.29.41-.47.77-.44.38.03.65.26.74.6.12.47.21.97.21,1.45-.02,1.14-.36,2.2-.94,3.17-.12.2-.11.33.05.5.33.33.69.57,1.18.56.19,0,.29-.06.27-.3-.06-.86.07-1.68.67-2.36.02-.02.04-.04.06-.06.29-.29.62-.55,1.04-.39.42.16.6.54.68.97.07.44-.05.81-.38,1.12-.19.17-.38.34-.57.52-.09.08-.17.18-.28.29.58.23,1.07.16,1.5-.24.4-.36.64-.82.84-1.3.14-.34.28-.68.44-1,.08-.17.21-.31.31-.47.03,0,.06,0,.09,0,.15.44.3.87.45,1.31.13.41.26.82.39,1.22.1.31.33.49.62.62.51-.56.55-1.21.42-1.9-.06-.36-.06-.72.14-1.04.08-.13.22-.26.36-.31.37-.13.52,0,.52.39,0,.89-.21,1.72-.69,2.47-.15.24-.36.44-.53.66-.36.46-.82.41-1.29.25-.11-.04-.22-.17-.28-.28-.1-.19-.15-.41-.24-.61-.1-.21-.22-.4-.33-.61-.05-.02-.09-.03-.14-.05-.06.1-.1.2-.17.28-.15.18-.31.33-.46.51-.73.91-1.88,1.01-2.84.63-.08-.03-.19-.01-.28,0-.26.05-.51.14-.77.18-.55.09-1.01-.09-1.4-.48-.15-.15-.28-.16-.45-.02-.54.47-1.19.57-1.88.5-.19-.02-.34-.08-.46-.25-.18-.27-.38-.53-.58-.8-.39.14-.56.46-.76.75-.14.22-.3.34-.58.31-.21-.03-.37-.1-.47-.29-.2-.39-.37-.8-.6-1.17-.43-.72-.47-.65-1.04-.25-.49.34-.9.8-1.37,1.18-.23.19-.51.34-.78.49-.09.05-.23.03-.41.04.19-.75.36-1.45.55-2.15.06-.22.14-.43.19-.66.06-.26.23-.37.5-.43ZM382.21,92.7s-.05.06-.07.1c-.03.07-.06.13-.09.2-.37.95-.33,1.92-.16,2.89.01.08.11.2.16.2.08,0,.21-.07.24-.15.39-.85.52-1.74.42-2.67-.04-.34-.23-.46-.51-.56ZM385.62,96.29c-.1-.21-.19-.42-.31-.61-.03-.05-.19-.07-.24-.04-.48.28-.63,1.12-.28,1.55.05.06.2.09.26.06.36-.2.52-.52.58-.95Z"/><path class="cls-1" d="M375.13,65.52c.25.28.47.54.75.86.04-.44.07-.81.11-1.25.5.39.96.74,1.47,1.13-.15-.74-.6-1.33-.54-2.09.63.16,1.23.31,1.9.48-.33-.78-.95-1.23-1.41-1.85.08-.05.15-.11.23-.13.55-.19,1.1-.41,1.67-.54.26-.06.56.05.85.08,0,.04,0,.07,0,.11-.27.13-.55.27-.82.4-.2.1-.39.2-.59.3-.16.07-.17.18-.07.3.22.28.45.55.68.82.26.3.53.58.77.89.08.11.07.28.1.43-.14.03-.3.1-.43.07-.43-.09-.85-.23-1.27-.34-.26-.07-.53-.13-.84-.2.18.9.81,1.6.75,2.56-.82-.21-1.29-.94-2.04-1.28-.11.37-.21.72-.32,1.1-.28-.23-.54-.44-.83-.68-.15.48-.29.93-.42,1.37-.04.14-.07.29-.14.41-.07.12-.18.21-.27.31-.04-.01-.08-.02-.12-.04-.13-.62-.26-1.24-.4-1.92-.39.3-.73.64-1.22.73v-1.74c-.84.39-1.65.77-2.46,1.14-.03-.03-.06-.06-.1-.09.05-.15.07-.33.17-.45.37-.48.76-.93,1.15-1.4.16-.2.32-.39.54-.66-.45-.05-.82-.1-1.2-.14-.22-.02-.44-.02-.66-.05-.07,0-.13-.06-.19-.1.04-.07.06-.16.11-.2.35-.26.71-.52,1.07-.77.04-.03.08-.07.15-.12-.34-.43-.96-.27-1.32-.66.9-.03,1.81-.25,2.72.21-.41.4-.93.6-1.16,1.12.54.12,1.06.23,1.62.35-.44.49-.83.94-1.22,1.38.02.02.04.05.05.07.47-.17.93-.34,1.45-.53-.03.51-.05.97-.08,1.43.02.01.04.02.05.03.3-.33.6-.66.93-1.04.08.55.15,1.05.21,1.55.03,0,.06,0,.09,0,.17-.45.34-.89.53-1.38Z"/><path class="cls-1" d="M382.93,84.83c.83.92,1.87.77,3,.65.14.22.32.52.53.87-.54.1-.6.53-.73.92-.3.91-.97.86-1.54.43-.21-.16-.36-.41-.53-.62-.07-.09-.12-.21-.19-.3-.2-.28-.3-.3-.58-.1-.1.07-.2.13-.28.22-.77.75-1.72,1.01-2.76,1.01-.12,0-.24,0-.37,0,.3.41,1.34.48,1.87.26.6-.24,1.16-.55,1.79-.85.27.4.54.95,1.12,1.11.54.15,1.11.19,1.66.28-.49.55-1.57.63-2.17.15-.15-.12-.26-.13-.43-.06-1.59.64-3.11.58-4.51-.49-.39-.3-.84-.34-1.29-.4-.55-.07-.96-.35-1.39-.76,1.02.01,1.87-.15,1.85-1.44.03,0,.05,0,.08,0,.16.16.35.31.48.49.19.28.33.59.51.88.06.09.16.18.25.21.49.14,1.04-.09,1.31-.52.05-.08.14-.19.23-.21.97-.19,1.64-.73,2.02-1.64,0-.02.03-.04.08-.09ZM384.74,86.14c-.23,0-.42.19-.41.42,0,.24.18.43.4.42.25,0,.41-.15.41-.38,0-.26-.18-.47-.4-.47Z"/><path class="cls-1" d="M390.84,73.18c.15.23.35.44.46.7.27.64.68,1.16,1.23,1.58.43.33.73.77.98,1.24.1.19.21.38.32.57.02,0,.05-.01.07-.02-.02-.15-.03-.31-.07-.46-.14-.6-.45-1.12-.83-1.59-.36-.46-.74-.91-1.11-1.37-.05-.07-.1-.14-.16-.23.72.01,1.19.32,1.45.96.25.63.5,1.25.75,1.88.04.1.09.19.15.33.24-.42.45-.81.67-1.21-.1-.07-.19-.12-.28-.18-.2-.14-.42-.26-.61-.42-.35-.3-.4-.66-.16-1.05.22-.35.55-.58.94-.77-.05.68-.09,1.33-.14,2.06.22-.07.37-.09.5-.16.43-.25.63-.95.45-1.5-.19-.58-.72-.99-1.24-.93-.17.02-.34.09-.5.14-.61.21-1.22.31-1.86.21-.78-.13-1.33-.57-1.7-1.26-.28-.51-.4-1.07-.47-1.59.78,0,1.56,0,2.33,0,.6,0,1.07.3,1.44.75.53.65,1.1,1.24,1.75,1.76.76.6.86,1.48.34,2.31-.25.4-.55.78-.8,1.18-.16.26-.25.55-.38.83.03.02.07.04.1.06.21-.21.42-.42.63-.62.15-.15.31-.29.55-.24.17.04.27.11.27.31,0,.58-.25,1.05-.63,1.54-.05-.15-.09-.27-.13-.38-.16-.45-.47-.53-.81-.19-.15.15-.26.35-.39.52-.04.05-.07.1-.13.18-.11-.29-.19-.56-.31-.81-.12-.28-.25-.57-.41-.84-.34-.57-.82-.97-1.48-1.13-.26-.06-.52-.18-.76-.29-.22-.11-.34-.3-.32-.56.05-.43.1-.86.16-1.29.04-.01.08-.03.13-.04ZM392.78,71.59c-.29-.34-.53-.64-.81-.97-.04.25-.07.46-.12.72-.31-.26-.57-.48-.89-.75.04.19.06.31.1.42.05.17.02.27-.16.33-.15.05-.29.14-.43.21,0,.02.01.04.02.07h1.16c-.12.24-.22.43-.35.68.48-.18.91-.34,1.34-.51.01.03.03.05.04.08-.1.23-.21.45-.31.67.46-.17.9-.34,1.34-.51-.19-.31-.42-.66-.66-1.04-.08.19-.16.36-.27.6Z"/><path class="cls-1" d="M386.61,66.76c-.09-.27-.17-.51-.26-.78-.32.22-.62.43-.92.64-.02-.01-.03-.02-.05-.03.16-.37.32-.74.49-1.14-.24-.05-.45-.1-.76-.16.31-.25.58-.47.89-.72-.33-.23-.57-.39-.83-.57.23-.14.44-.26.67-.39-.22-.4-.43-.78-.68-1.23.45.19.83.35,1.25.53.04-.22.07-.41.11-.63.07.02.14.03.19.06.32.2.64.17.97.03,0,0,.02,0,.03-.01.85-.47,1.62-.16,2.34.3.77.49,1.09,1.55.81,2.55-.26.92-1.08,1.57-2,1.62-.56.03-1.08-.1-1.55-.37-.22-.12-.36-.13-.49.1-.04.07-.12.13-.2.22ZM387.32,65.58s-.04.06-.06.09c.15.15.28.32.46.43.38.24.81.26,1.24.14.69-.2,1.14-.87,1.17-1.74.04-1.16-.73-1.95-1.82-1.88-.45.03-.79.29-.87.7.37-.06.72-.12,1.1-.18-.05.22-.09.4-.13.6.36.05.69.09,1.06.14-.26.2-.49.37-.74.56.22.26.41.49.63.75h-1.1c.06.24.11.46.18.72-.39-.11-.75-.21-1.11-.32ZM387.57,64.66c.19-.05.33-.09.55-.14-.22-.12-.38-.2-.55-.29.06-.15.11-.29.19-.49-.45.23-.69.03-.85-.36-.08.19-.11.39-.21.47-.11.08-.31.04-.51.06.13.19.23.34.34.5-.13.13-.24.26-.35.38.53-.07.6.27.63.69.17-.51.53-.42.9-.34-.05-.19-.09-.32-.14-.48Z"/><path class="cls-1" d="M370.62,74.48c.07.49-.2,1.04.25,1.52.37-.72.18-1.63.86-2.26.14.79-.21,1.52-.08,2.33.09-.14.17-.21.2-.31.15-.39.29-.79.45-1.18.11-.28.24-.55.38-.82.03-.05.14-.07.21-.1.03.07.1.15.09.21-.12.49-.26.97-.38,1.45-.08.31-.16.63-.24.95.03.02.06.03.09.05.11-.11.25-.21.32-.34.18-.32.32-.65.48-.98.14-.3.26-.6.57-.82.05.46,0,.87-.15,1.26-.28.71-.61,1.41-.92,2.11-.19.43-.38.87-.58,1.3-.17.38-.13.75.06,1.1.04.08.07.16.11.25-.02.03-.03.05-.05.08-.34-.17-.68-.33-1.02-.5-.25.42-.2,1.06.14,1.46.21.25.46.48.68.71.48.51.53.81.23,1.46-1.43-.77-2.09-2.08-1.5-3.58.25-.64.66-1.22,1.03-1.8.45-.7.19-1.36-.66-1.57-.14.29-.25.57-.03.89.08.12.16.33.11.42-.17.3-.4.58-.63.84-.02.02-.26-.07-.31-.16-.1-.18-.16-.39-.2-.59-.2-.99-.15-1.97.12-2.93.05-.19.2-.34.31-.51.03.02.05.03.08.05Z"/><path class="cls-1" d="M386.82,83.96c-.11-.27-.21-.51-.31-.76-.36.07-.73.16-1.1.22-.56.08-.97-.15-1.17-.6.19-.25.36-.47.54-.71,1.1.82,2.33.78,3.6.38.01,1.03-.9,2.09-2.04,2.36-1.25.29-2.62-.37-3.18-1.46-.71-1.4-.13-2.94.87-3.69.84-.64,2.02-.76,2.63-.24-.26.1-.5.19-.74.28.22.19.42.36.63.54-.01.03-.03.06-.04.1-.48.07-.96.13-1.46.2.02.07.03.11.04.13.27.43.27.45-.2.63-.15.06-.31.11-.46.18-.62.27-.84.64-.72,1.31.13.71.62,1.12,1.26,1.36.68.25,1.43.15,1.84-.22Z"/><path class="cls-1" d="M368.38,92.34c-.05.49-.08.95-.15,1.41-.14.99-.27,1.98-.08,2.97.05.23.12.46.22.67.2.44.53.72,1.03.75.54.04,1.01-.14,1.29-.62.59-1,.67-2.09.42-3.21-.08-.37-.19-.74-.23-1.12-.05-.4.23-.79.61-.9.07-.02.23.04.26.1.13.3.29.6.33.91.12,1.04.13,2.08-.14,3.1-.16.61-.41,1.18-.88,1.62-.41.39-.89.64-1.48.6-.12,0-.24-.01-.36,0-1.26.14-2.11-1-2.26-1.89-.21-1.22-.07-2.39.29-3.57.17-.56.57-.73,1.12-.84Z"/><path class="cls-1" d="M395.84,94.9c.36.76.11,1.64.69,2.32.09-.18.15-.32.23-.47.27-.51.5-1.04.82-1.51.36-.54.9-.85,1.58-.73.23.04.47.19.65.35.22.19.18.55-.03.77-.21.21-.5.23-.74.04-.06-.04-.11-.1-.16-.15-.29-.31-.3-.32-.64-.08-.18.13-.37.29-.47.48-.41.77-.79,1.56-1.17,2.35-.07.15-.15.21-.33.22-.28,0-.42-.09-.48-.36-.09-.41-.21-.81-.34-1.26-.08.08-.13.13-.18.19-.23.28-.45.58-.69.85-.35.39-.79.58-1.31.57-.2,0-.4,0-.6,0-.55-.02-.81-.23-.99-.75-.3-.93.05-2.06.81-2.58.79-.54,1.62-.2,1.8.74.08.43-.1.78-.45,1.02-.28.19-.6.31-.89.48-.1.06-.17.18-.25.27.11.08.21.2.34.23.47.12.88-.04,1.24-.36.51-.46.78-1.07,1.01-1.71.07-.2.14-.4.24-.58.07-.13.19-.22.32-.37ZM392.37,97.19c.47-.2.87-.33,1.05-.76.14-.33.02-.65-.26-.76-.29-.12-.6.03-.69.39-.08.34-.07.71-.1,1.14Z"/><path class="cls-1" d="M395.71,62.26c-.35.66-.08,1.25.01,1.85.15.92-.27,1.78-1.15,2.1-.52.19-1.09.32-1.65.36-.67.05-1.35-.02-2.05-.09.57-.36.72-.87.58-1.55.2.14.31.25.44.31.2.1.41.2.63.25.21.05.4-.05.49-.27.09-.22.08-.46-.12-.6-.29-.19-.61-.32-.92-.47-.18-.09-.37-.15-.56-.22,0-.03,0-.06.01-.09.44-.11.88-.21,1.36-.33-.22-.3-.5-.45-.79-.59-.29-.14-.6-.27-.9-.47.26-.05.52-.14.78-.15.46,0,.93,0,1.39.08.34.05.46.28.39.63-.05.24-.11.48-.15.72-.04.24.08.42.31.46.25.05.4-.07.44-.3.04-.24.04-.49.05-.73,0-.16,0-.31,0-.47.03-.29.18-.42.47-.43.3,0,.6,0,.95,0ZM394.8,63.91c-.13.99-.76,1.52-1.64,1.81.53.11,1.27-.07,1.63-.37.51-.41.53-.9,0-1.44ZM394.99,62.43s-.08,0-.12,0c-.07.11-.19.23-.19.34,0,.09.17.25.25.24.11-.02.25-.16.26-.26,0-.1-.13-.21-.2-.32Z"/><path class="cls-1" d="M377.84,77.55c-.16.1-.3.19-.44.27-.77-.53-.93-1.36-1.15-2.18-.22-.85-.04-1.64.32-2.47-.88,0-1.51.4-2.1.91-.14-.61.34-1.29.94-1.33.31-.02.62.03.93.04.11,0,.22,0,.39,0-.49-.54-1.03-.81-1.78-.71.07-.26.1-.47.19-.66.12-.25.37-.24.6-.19.37.08.62.34.83.63.14.19.26.4.43.67.07-.52.13-.97.19-1.41.38-.12.76.11,1.03.59-.29.3-.57.59-.85.88l.07.09c.16-.08.31-.16.47-.22.3-.12.6-.29.92-.35.68-.12,1.41.09,1.14,1.19-.68-.52-1.43-.57-2.24-.29.18.08.36.15.54.24.71.33.8.95.2,1.47-.15.13-.32.23-.52.38-.03-.7-.12-1.32-.72-1.75-.27.27-.37.59-.41.94-.11,1.05.22,1.98.75,2.86.04.06.08.12.12.18.04.06.08.12.13.2Z"/><path class="cls-1" d="M376.3,84.12c-.48-.12-1.01-.15-1.09-.78.84-.15,1.42.38,1.3,1.17-.05.33-.29.59-.62.65-1.06.2-2.07-.8-1.88-1.85.08-.46.52-.87,1.01-.92.64-.07,1.21.12,1.64.6.59.66.81,1.45.67,2.32-.12.71-.65,1.18-1.39,1.28-1.52.21-2.97-.88-3.16-2.4-.07-.52.26-1.15.73-1.42.03.42.02.85.1,1.27.2,1.04,1.22,1.73,2.27,1.59.71-.1,1.04-.53,1-1.28-.05-.9-.84-1.59-1.63-1.43-.55.11-.77.6-.49,1.09.32.55,1.17.79,1.55.14Z"/><path class="cls-1" d="M391.06,85.29c.91-.46,1.67-1.01,1.83-2.07-.02-.02-.04-.05-.06-.07-.16.13-.33.23-.46.38-.27.31-.5.66-.78.96-.44.48-1.18.42-1.59-.08-.21-.27-.22-.38.03-.61.26-.24.56-.45.84-.67.27-.21.5-.46.55-.82,0-.07,0-.14,0-.26-.18.13-.34.22-.47.34-.27.24-.51.5-.79.72-.24.19-.5.36-.78.5-.26.13-.43.05-.53-.19-.12-.27-.06-.45.23-.53.75-.22,1.32-.67,1.82-1.25.51-.58,1.2-.68,1.87-.33.68.35,1.03,1.01.93,1.74-.1.71-.43,1.3-.91,1.81-.29.31-.61.58-.93.85-.3.25-.47.21-.65-.13-.05-.09-.09-.18-.14-.29ZM392.78,82.59c.26,0,.44-.15.44-.35,0-.33-.43-.7-.8-.7-.27,0-.42.15-.41.4.01.34.38.65.76.65Z"/><path class="cls-1" d="M378.12,69.14c.18-.16.34-.31.5-.44.36-.29.74-.5,1.2-.24.39.22.6.76.51,1.27-.03.17-.08.33-.17.49-.1-.27-.2-.54-.3-.82-.41.47-.36,1.02.11,1.5-.28.63-1,.78-1.47.28-.21-.23-.33-.54-.47-.82-.06-.13-.1-.27-.15-.44-.15.12-.28.22-.41.32-.49.36-1,.65-1.64.58-.43-.05-.76-.26-.94-.66-.17-.38-.15-.74.11-1.11.13.26.24.49.35.73.08.18.2.18.35.08.31-.22.58-.97.44-1.31-.02-.05-.11-.09-.17-.09-.16-.01-.32,0-.49,0,.25-.56.88-.96,1.45-.91.97.08,1.07.85,1.19,1.62ZM376.38,70.33c.36-.26.4-.69.58-1.11.09.29.17.52.24.75.58-.31.69-.62.45-1.39-.17.21-.31.38-.44.54-.24-.16-.14-.38-.13-.58.01-.2.03-.4.06-.65-.54.47-.98,1.96-.76,2.45ZM379.36,68.92c-.49.6-.62,1.25-.58,1.97.49-.21.75-1.29.58-1.97ZM378.35,70.3s.07,0,.1.01c.07-.35.13-.71.21-1.13-.48.29-.58.73-.31,1.12Z"/><path class="cls-1" d="M378.54,77.62c.36.1.65.59,1.12.13-.22-.16-.43-.31-.63-.46-.27-.21-.54-.43-.79-.66-.21-.19-.19-.44-.01-.64.19-.21.41-.38.63-.56.19-.17.44-.3.57-.51.14-.24.17-.54.25-.81.64.29.87,1.01.47,1.64-.12.19-.25.38-.38.57-.15.22-.13.42.07.61.15.14.28.29.41.44.18.21.24.45.1.71-.13.24-.25.48-.39.72-.38.68-.39,1.28.37,1.7.02.01.03.04.05.06-.79.14-1.69-.3-2.09-1.01-.35-.62-.25-1.3.28-1.93Z"/><path class="cls-1" d="M387.84,78.88c-.28.02-.52.08-.76.05-.33-.04-.47-.36-.36-.73.03-.1.08-.2.13-.3.04-.1.08-.2.13-.32-.3-.01-.47.15-.63.32-.33.36-.71.62-1.14.74.08-.61.16-1.24.25-1.92.37.2.72.4,1.08.6.26-.21.29-.45.06-.66-.2-.17-.42-.32-.65-.46-.69-.44-.8-.73-.57-1.51.04-.14.09-.27.14-.43.4.28.8.53,1.17.82.09.07.13.24.15.36.02.22,0,.44,0,.66-.02.28.11.42.41.49,0-.24,0-.46,0-.69,0-.44.16-.57.58-.45.34.1.67.24,1.08.39-.25.14-.44.25-.63.35-.23.12-.45.24-.68.35-.19.1-.23.27-.2.46.03.19.17.27.34.3.15.02.3.04.47.07.05-.21.09-.39.15-.66.42.34.81.63,1.17.96.19.18-.02.32-.16.36-.41.12-.83.2-1.31.3.07-.26.12-.44.18-.65-.33-.02-.63-.03-1-.05.21.42.39.79.6,1.24Z"/><path class="cls-1" d="M380.58,78.82c.07.11.11.22.19.31.16.17.33.33.51.48.1.08.24.13.36.19.66.36.89.89.71,1.63-.35,1.41-1.97,2.08-3.26,1.32-.74-.44-1.21-1.06-1.13-1.97.01-.15.06-.29.11-.52.72.73,1.53,1.04,2.49.84.32-.07.6-.2.83-.48-.21-.18-.41-.35-.61-.52-.54-.46-.57-.63-.19-1.28ZM380.78,82.46c.65-.05,1.27-.88,1.06-1.43-.87.29-1.17.7-1.06,1.43Z"/><path class="cls-1" d="M374.24,78.82c.2.02.4.04.62.07.2-1.09-.38-2.02-.47-3.03-.04,0-.08,0-.12,0-.04.42-.08.84-.11,1.26-.03.4-.04.8-.09,1.2-.04.27-.22.46-.51.51-.43.08-.65-.12-.7-.67.13.03.25.07.37.09.31.05.44-.02.49-.33.06-.4.08-.82.11-1.23.08-1.09.64-1.9,1.5-2.53.01,0,.03,0,.02,0-.03.41-.11.83-.07,1.24.06.65.39,1.21.74,1.75.4.62.79,1.25,1.18,1.88.17.28.17.57.01.86-.2.37-.57.55-.96.46-.34-.08-.55-.39-.55-.82,0-.07,0-.14.01-.26.14.09.26.18.39.22.14.04.33.08.43.02.08-.05.11-.26.09-.39-.04-.2-.12-.4-.22-.59-.11-.21-.23-.42-.36-.61-.5-.75-.86-1.57-1.06-2.45-.03-.11-.07-.22-.13-.32-.17.47-.15.93-.02,1.39.17.61.37,1.2.54,1.81.05.18.06.38.03.57-.05.32-.41.58-.7.55-.25-.03-.48-.35-.47-.66Z"/><path class="cls-1" d="M390.81,78.37c-.68.1-.78.28-1.02,1.8-.11-.2-.21-.36-.32-.55-.19.08-.36.16-.59.27.09-.23.16-.42.24-.63-.18-.09-.35-.17-.57-.27.25-.07.45-.12.64-.2.26-.11.53-.22.75-.39.42-.32.42-.8.03-1.15-.2-.18-.42-.32-.64-.47-.11-.08-.22-.16-.36-.25.2-.08.43-.1.52-.23.1-.12.06-.35.09-.57.09.09.17.16.25.23.07.07.15.13.24.22.18-.13.36-.25.57-.41-.07.38-.16.71-.19,1.04-.02.19.01.4.08.59.09.26.32.3.47.07.1-.15.14-.36.15-.54.02-.29,0-.58,0-.93.32.28.63.45,1.01.02-.06.3-.1.5-.15.73.15.05.29.11.47.17-.53.22-1.13.26-1.39.88.65.26,1.23.03,1.86-.19-.03.11-.05.17-.07.23q-.18.38.15.65s.1.08.18.15c-.22.02-.44-.02-.56.07-.11.09-.11.32-.16.53-.14-.18-.24-.37-.39-.51-.2-.2-.43-.39-.66-.56-.07-.05-.25-.03-.32.02-.07.06-.11.24-.07.31.14.27.3.54.5.77.16.19.39.32.61.51-.2.03-.36.06-.53.09v.78c-.13-.13-.23-.21-.31-.32-.13-.18-.27-.22-.46-.08-.08.06-.17.09-.3.16.25-.69.49-1.33.25-2.05Z"/><path class="cls-1" d="M390.19,85.51c.48.34.56.98.19,1.49-.56.78-1.36,1.17-2.28,1.33-.28.05-.56.06-.85.06-.46,0-.78-.35-.77-.81.01-.53.21-.98.58-1.35.09-.09.26-.13.39-.12.35.01.7.13,1.03.07.45-.08.88-.27,1.31-.43.14-.05.27-.15.4-.23ZM388.14,87.71c.85-.05,1.59-.69,1.49-1.29-.25.06-.5.11-.74.17q-.83.2-.78,1.07s0,.02.03.04Z"/><path class="cls-1" d="M372.79,63.4c.33-.2.66-.4,1.03-.62-.19-.18-.35-.32-.52-.48.2-.2.44-.28.67-.17.29.14.57.31.83.51.18.14.3.2.48.03.42-.39.92-.51,1.5-.4-.15.17-.3.35-.46.53.32.27.61.53.9.78-.01.02-.02.03-.03.05-.33-.04-.66-.07-.99-.11-.13.47.13.83.2,1.26-.14-.11-.27-.22-.41-.32-.16-.12-.31-.26-.48-.36-.15-.09-.27-.05-.31.15-.07.3-.16.6-.25.94-.27-.41-.16-.94-.56-1.26-.28.2-.56.4-.84.6-.02-.01-.04-.02-.05-.04.18-.34.35-.68.55-1.06h-1.25s0-.03-.01-.05Z"/><path class="cls-1" d="M390.8,69.54c-1.04,0-1.9-.69-2.16-1.7-.05-.19,0-.27.21-.31.41-.07.82-.19,1.23-.26.16-.03.36-.02.48.06.3.19.6.22.91.12.29-.09.48-.02.59.26.12.29.24.59.33.89.09.32-.09.56-.36.66-.4.15-.81.24-1.22.35,0-.02-.01-.04-.02-.07ZM389.53,68.09c.31.5.71.69,1.19.74.36.04.79-.11.96-.36-.7-.12-1.39-.25-2.15-.38Z"/><path class="cls-1" d="M381.71,84.02c-.02-.37-.04-.66-.07-1.06.35.14.73.19.89.4.17.23.13.61.2.99-.3-.05-.52-.08-.79-.12.03.59-.13,1.09-.61,1.45-.4.3-.85.45-1.35.46-.76,0-1.33-.35-1.47-.91.23,0,.46,0,.69,0,.38.01.65-.14.83-.47.12-.21.24-.41.37-.61.08-.11.17-.22.27-.31.17-.16.35-.22.56-.06.13.09.29.15.49.25Z"/><path class="cls-1" d="M394.45,81.93c-.24-.68-.8-.96-1.36-1.24-.23-.11-.38-.27-.39-.54-.01-.43.21-.67.65-.67.16,0,.32,0,.52,0,0-.17,0-.34,0-.5,0-.28.12-.5.39-.61.28-.12.55-.04.72.18.17.22.32.48.37.74.19,1.02-.22,1.85-.89,2.63Z"/><path class="cls-1" d="M375.21,80.63c-.12.15-.21.33-.36.44-.18.14-.28.29-.31.51-.09.53-.55.74-.99.43-.27-.19-.54-.28-.86-.29-.11,0-.27-.07-.3-.15-.09-.22-.24-.45-.06-.7.05-.07.12-.14.2-.19.21-.14.31-.33.38-.58.15-.56.55-.71,1-.36.19.15.38.22.62.22.41,0,.64.24.69.67ZM373.72,80.48c-.21,0-.4.18-.4.4,0,.23.15.39.39.39.23,0,.4-.16.41-.39,0-.21-.19-.41-.4-.41Z"/><path class="cls-1" d="M370.11,71.52c.12-1.57.83-2.34,2.4-2.21.08,0,.18.08.24.15.14.18.25.38.37.58.03.06.06.15.04.2-.22.53-.5,1.01-1.04,1.29-.34.18-.7.2-1.07.16-.31-.04-.63-.11-.93-.17ZM371.03,70.03c-.24.3-.26.6-.06.89.21.31.58.43.95.31-.29-.4-.58-.8-.88-1.21ZM371.73,69.64c.09.25.13.44.23.58.11.16.27.32.43.42.14.09.34,0,.28-.18-.09-.27-.24-.54-.42-.77-.07-.08-.29-.04-.52-.05Z"/><path class="cls-1" d="M395.71,68.6c.16.55.19,1.06.14,1.56-.04.43-.1.85-.16,1.28-.05.35-.2.42-.5.23-.76-.48-1.29-1.14-1.66-2,.86-.09,1.55-.47,2.18-1.07Z"/><path class="cls-1" d="M375.43,81.54c.09-.55.66-.67,1.12-.57.43.1.71.37.88.76.14.32.24.65.35.98.05.18.12.27.33.28.53.02,1.04.13,1.34.65.13.22.29.45.15.71-.15.27-.44.27-.71.25-.59-.04-1.11-.47-1.28-1.04-.04-.13-.08-.26-.1-.4-.1-.65-.49-1.04-1.09-1.25-.33-.12-.66-.25-1-.37ZM378.11,83.52c.32.46.75.64,1.17.51-.14-.51-.72-.77-1.17-.51Z"/><path class="cls-1" d="M386.68,69.17c-.03.17-.06.33-.1.51.84.05,1.39-.29,1.62-1.17.32,1.15-.27,1.98-1.36,2-.2,0-.41,0-.6-.06-.23-.06-.38-.04-.49.18-.03.05-.08.1-.13.17-.41-.62-.42-1.26-.23-1.93.44.1.85.2,1.29.3Z"/><path class="cls-1" d="M387.28,79.35c.66.31,1.24.73,1.36,1.56.05.38-.12.77-.46.98-.29.18-.66.17-.93-.04-.32-.25-.38-.59-.31-.96.1-.51.22-1.01.34-1.55ZM387.61,80.97c.23-.09.46-.15.45-.4,0-.26-.21-.39-.45-.52v.92Z"/><path class="cls-1" d="M373.48,70.87c.24.17.51.31.68.52.17.2.32.48.36.74.07.51-.22.87-.62.89-.49.03-.84-.3-.88-.81-.03-.4.13-.89.47-1.33Z"/><path class="cls-1" d="M387.05,67.86c-.57-.19-1,.03-1.4.37-.03-.82.47-1.25,1.25-1.09.33.07.65.17.97.27.07.02.14.13.15.2.02.37-.22.96-.51,1.29-.2-.18-.41-.35-.61-.54-.04-.04-.04-.15-.02-.21.04-.1.1-.19.17-.3Z"/><path class="cls-1" d="M388.56,85.77c-.36-.09-.65-.15-.92-.24-.07-.02-.15-.16-.14-.23.04-.59.11-.7.71-.78.37-.05.75.02,1.13.06.19.02.3.16.32.35.02.21,0,.43-.21.52-.3.14-.62.23-.88.32Z"/><path class="cls-1" d="M395.25,66.96c.4.41.44.73.17,1.19-.42.7-1.3,1.1-2.12.96-.2-.03-.3-.14-.32-.35-.03-.24.15-.24.29-.27.28-.07.57-.12.85-.2.56-.17.95-.5,1.05-1.1,0-.05.03-.11.04-.16,0-.02.02-.03.03-.07Z"/><path class="cls-1" d="M372.44,68.17c0,.61-.02.63-.59.47-.43-.12-.8-.32-.91-.81-.08-.34.05-.65.33-.8.27-.15.62-.09.85.15.27.28.34.64.32.98Z"/><path class="cls-1" d="M389.16,80.34c.48.22.94.38,1.07.92.11.46-.27.89-.75.84-.3-.03-.5-.22-.47-.52.03-.4.1-.81.15-1.25Z"/><path class="cls-1" d="M378.5,65.73c.68.34,1.23.73,1.72,1.23.13.13.07.74-.07.85-.04.03-.11.03-.15.01-.08-.03-.18-.07-.23-.13-.51-.57-.98-1.15-1.26-1.95Z"/><path class="cls-1" d="M389,74.44c0,.36-.31.65-.7.65-.34,0-.64-.3-.65-.65,0-.37.28-.66.65-.67.41,0,.7.27.7.67Z"/><path class="cls-1" d="M418.54,92.77c0-.48.27-.7.81-.69.25,0,.38.22.37.6-.01.4-.34.76-.69.75-.3,0-.51-.28-.5-.67Z"/><path class="cls-1" d="M329.35,92.77c0-.43.25-.74.63-.75.34,0,.56.22.56.6,0,.42-.29.77-.65.77-.32,0-.54-.25-.54-.62Z"/><path class="cls-1" d="M378.94,93.29c-.31,0-.54-.27-.53-.61,0-.41.33-.77.68-.76.33,0,.55.25.55.59,0,.43-.32.78-.69.77Z"/><path class="cls-1" d="M408.71,92.05c.32,0,.57.27.56.59,0,.41-.37.81-.72.8-.29,0-.51-.3-.5-.64.02-.41.32-.75.66-.75Z"/><path class="cls-1" d="M392.72,67.36c.6-.13,1.12-.25,1.64-.35.09-.02.26.02.28.07.04.11.03.26-.02.36-.19.33-1.08.71-1.41.54-.2-.11-.31-.38-.49-.61Z"/><path class="cls-1" d="M388.99,71.45c0,.35-.26.62-.62.63-.34,0-.62-.27-.62-.63,0-.33.27-.6.59-.6.35,0,.65.28.65.61Z"/><path class="cls-1" d="M386.65,72.47c0-.34.23-.58.56-.59.31,0,.62.32.62.65,0,.3-.31.58-.62.57-.3-.01-.56-.3-.55-.63Z"/><path class="cls-1" d="M386.46,73.14c0,.32-.23.54-.56.54-.31,0-.52-.22-.52-.54,0-.32.22-.54.52-.54.32,0,.56.24.56.55Z"/><path class="cls-1" d="M370.18,67.76c.29.44.58.87.86,1.3-.34.17-.75.11-.98-.17-.34-.43-.31-.65.11-1.13Z"/><path class="cls-1" d="M385.81,81.03c.52.12.83.41.82.77,0,.24-.16.41-.4.43-.24.02-.4-.1-.41-.33-.02-.29,0-.58,0-.87Z"/><path class="cls-1" d="M372.78,73.15c-.33-.05-.72.02-.85-.42-.1-.31.09-.64.51-.92.11.44.22.88.34,1.35Z"/><path class="cls-1" d="M369.79,72.91c.47.52,1.05.48,1.64.43-.26.35-.85.58-1.18.5-.25-.07-.38-.33-.46-.92Z"/><path class="cls-1" d="M389.55,74.04c-.22,0-.42-.25-.42-.5,0-.24.2-.43.45-.41.25.01.46.25.44.5,0,.21-.25.42-.47.41Z"/><path class="cls-1" d="M371.07,64.7c-.24.5-.62.77-1.11.94-.11-.72.2-1,1.11-.94Z"/><path class="cls-1" d="M379.3,63.23c.34-.02.68-.03,1-.05.03.05.05.06.05.07,0,.21.09.51-.14.58-.18.05-.44-.09-.64-.19-.12-.06-.2-.22-.3-.33.01-.03.02-.06.04-.09Z"/><path class="cls-1" d="M389.87,72.34c0,.22-.17.36-.43.35-.2-.01-.36-.2-.36-.41,0-.22.19-.39.41-.39.2,0,.39.22.38.45Z"/><path class="cls-1" d="M370.1,72.04c.43.12.82.23,1.24.35-.2.2-.41.39-.72.33-.36-.07-.42-.39-.52-.68Z"/><path class="cls-1" d="M388.78,73.01c0,.23-.14.37-.37.37-.21,0-.38-.18-.38-.38,0-.2.19-.38.39-.39.2,0,.36.17.36.4Z"/><path class="cls-1" d="M373.9,70.26c-.19,0-.37-.18-.38-.39-.01-.19.16-.37.36-.37.21,0,.38.15.39.37.01.22-.15.38-.36.39Z"/><path class="cls-1" d="M373.37,69.35c-.21,0-.37-.18-.38-.39,0-.2.16-.37.36-.37.19,0,.4.21.4.41,0,.18-.19.36-.38.35Z"/><path class="cls-1" d="M386.3,71.28c.04.23.18.5.1.64-.08.13-.37.14-.58.21-.12-.67-.11-.69.49-.85Z"/><path class="cls-1" d="M387.06,73.46c.28,0,.44.16.42.39,0,.19-.22.37-.42.35-.23-.02-.33-.17-.32-.39,0-.23.1-.36.32-.35Z"/><path class="cls-1" d="M390.08,74.74c-.2.38-.45.53-.68.4-.16-.09-.23-.33-.14-.48.13-.22.46-.2.81.07Z"/><path class="cls-1" d="M386.61,71.15c.29-.33.55-.39.73-.19.11.13.07.39-.08.51-.2.16-.39.06-.65-.32Z"/><path class="cls-1" d="M388.53,69.91c.29-.02.54-.08.66.16.05.1.01.34-.06.39-.13.08-.43.12-.47.06-.1-.15-.09-.37-.12-.6Z"/><path class="cls-1" d="M748.53,38.95c-.24-.01-.48-.02-.72-.04-.64-.07-1.24-.25-1.74-.67-.28-.24-.43-.55-.45-.92-.01-.26-.02-.51-.03-.77,0-.1-.03-.2-.05-.3-.01,0-.02,0-.04,0-.05.07-.11.13-.15.2-.53.87-1.27,1.5-2.19,1.93-.51.23-1.04.4-1.59.48-.27.04-.53.08-.8.08-.99.01-1.94-.18-2.83-.64-.62-.32-1.18-.73-1.64-1.26-.31-.35-.54-.75-.72-1.18-.22-.52-.29-1.06-.29-1.61,0-.8.07-1.6.33-2.37.3-.88.85-1.58,1.63-2.1.84-.56,1.77-.87,2.75-1.09.65-.14,1.31-.23,1.98-.24.55-.01,1.1-.02,1.64-.01.44.01.89.06,1.33.08.07,0,.14,0,.21,0,.13-.01.2-.09.21-.22,0-.16,0-.33-.02-.49-.04-.41-.13-.81-.3-1.18-.35-.75-.93-1.24-1.73-1.47-.44-.12-.89-.15-1.34-.14-.53,0-1.05.08-1.56.21-.4.1-.78.25-1.16.42-.22.1-.44.18-.69.2-.37.03-.69-.07-.99-.27-.31-.21-.55-.48-.8-.75-.16-.18-.31-.37-.47-.55-.02-.03-.04-.05-.07-.09.06-.04.12-.07.18-.11.47-.27.92-.56,1.41-.79.8-.4,1.65-.67,2.53-.86.76-.16,1.53-.22,2.3-.19.49.02.98.08,1.46.19.5.11.99.25,1.46.47.75.36,1.4.84,1.89,1.51.37.51.61,1.08.79,1.68.13.44.19.88.23,1.33,0,.07.03.15.05.22v11.29ZM744.89,31.46c0-.15-.02-.3-.03-.45,0-.11-.02-.12-.13-.12-.21.01-.41.03-.62.05-.36.03-.72.06-1.09.09-.37.03-.74.08-1.11.11-.48.04-.95.09-1.42.19-.63.14-1.2.38-1.7.78-.56.44-.88,1.01-.91,1.73-.03.77.28,1.4.87,1.87.74.59,1.61.75,2.53.62.85-.12,1.53-.57,2.11-1.17.41-.42.74-.91.97-1.46.31-.72.51-1.46.51-2.25Z"/><path class="cls-1" d="M713.25,34.53s.02.04.03.04c.23.21.46.43.71.63.39.32.85.5,1.33.64.46.13.92.18,1.39.2.44.03.89.02,1.33-.02.89-.08,1.73-.3,2.52-.71.39-.2.81-.29,1.26-.22.28.05.52.17.75.35.4.31.63.72.77,1.19.03.11,0,.2-.08.27-.09.08-.19.15-.29.22-.59.4-1.21.75-1.87,1.04-.62.27-1.26.49-1.93.61-.45.08-.89.15-1.35.14-.43,0-.86,0-1.29-.03-.66-.05-1.31-.18-1.94-.37-1.04-.3-2-.77-2.87-1.41-.61-.45-1.15-.96-1.59-1.57-.38-.52-.69-1.09-.94-1.68-.22-.51-.38-1.04-.49-1.59-.09-.47-.15-.95-.17-1.43-.02-.43,0-.86.04-1.29.09-.88.31-1.73.67-2.54.41-.94.98-1.76,1.72-2.48.86-.84,1.86-1.45,3.01-1.81.63-.2,1.28-.32,1.94-.39.56-.06,1.12-.08,1.68-.06.9.04,1.76.23,2.59.59.66.3,1.28.67,1.83,1.14.82.7,1.4,1.58,1.76,2.59.2.55.34,1.12.41,1.71.03.26.05.52.06.78.01.52.01,1.03.02,1.55,0,.2-.06.31-.25.37-.3.11-.61.21-.92.31-.68.22-1.36.44-2.04.66-.81.26-1.63.53-2.44.79-.81.26-1.62.53-2.42.79-.88.29-1.77.58-2.65.86-.09.03-.18.06-.28.1ZM712.04,30.26c0,.16,0,.38.03.59.02.22.06.43.1.64.03.14.05.15.19.11.3-.1.6-.2.91-.3,1.11-.37,2.21-.73,3.32-1.1.93-.31,1.85-.62,2.78-.93.33-.11.67-.23,1-.34.15-.05.26-.21.26-.36,0-.42-.06-.83-.25-1.21-.43-.9-1.1-1.54-2.06-1.85-.62-.2-1.25-.27-1.9-.23-.34.02-.68.06-1.01.15-1.05.29-1.88.9-2.49,1.8-.6.9-.87,1.9-.88,3.03Z"/><path class="cls-1" d="M699.04,35.75c.12,0,.23.02.33.02.75,0,1.5,0,2.25,0,1.21,0,2.41,0,3.62,0,.32,0,.64-.02.95-.03.32,0,.64.02.94.12.61.21.99.62,1.14,1.25.07.28.1.56.12.85.03.3.02.59.03.89,0,.06-.02.09-.08.09-.11,0-.22,0-.34,0-2.04,0-4.08,0-6.12,0-2.43,0-4.87,0-7.3,0-.19,0-.38-.01-.58-.03-.23-.02-.39-.14-.45-.37-.05-.18-.08-.36-.1-.55-.06-.58.06-1.13.32-1.65.18-.36.44-.68.7-.98.43-.5.87-1,1.3-1.5.53-.62,1.06-1.24,1.59-1.86.58-.68,1.16-1.35,1.73-2.04.66-.78,1.32-1.57,1.98-2.35.55-.65,1.1-1.31,1.65-1.96.05-.05.09-.11.14-.19-.06,0-.1-.02-.14-.02-.74,0-1.47,0-2.21,0-1.29,0-2.58.01-3.87,0-.83-.01-1.52-.35-2.05-1-.29-.36-.49-.77-.55-1.23-.04-.27-.03-.55-.04-.82,0-.07.03-.1.1-.1.16,0,.32,0,.48,0,1.9,0,3.8,0,5.71,0,.84,0,1.69,0,2.53,0,1.62,0,3.24,0,4.86,0,.1,0,.21,0,.31,0,.29.03.43.17.43.47,0,.36.01.73,0,1.09-.02.39-.18.73-.43,1.03-.39.47-.77.94-1.16,1.41-.43.52-.86,1.04-1.29,1.56-.81.98-1.61,1.95-2.42,2.93-.76.92-1.51,1.83-2.27,2.75-.59.71-1.18,1.43-1.77,2.14-.02.02-.03.04-.06.09Z"/><path class="cls-1" d="M729.81,19.95c0,.4,0,.81,0,1.21,0,.23,0,.46-.01.7,0,.03,0,.06,0,.09.02.23.09.31.32.34.05,0,.11,0,.16,0,.73,0,1.47,0,2.2,0,.13,0,.26,0,.39,0,.05,0,.07.02.07.07,0,.6-.07,1.2-.35,1.74-.19.37-.45.69-.83.89-.23.11-.48.18-.73.2-.28.01-.56.02-.84.02-.12,0-.25,0-.37.01-.04,0-.07.02-.07.07,0,.29,0,.59,0,.88,0,.81,0,1.62,0,2.43,0,.59-.02,1.18-.01,1.77,0,.74,0,1.49.04,2.23.04.74.17,1.47.4,2.18.14.46.4.83.87,1.01.22.09.44.12.67.13.31.02.62.02.93.03.6.03,1.04.34,1.33.85.19.33.27.7.29,1.08.01.17.03.34.03.51,0,.08,0,.15-.02.23-.03.18-.17.28-.4.28-.32,0-.64,0-.96,0-.62,0-1.25.02-1.87-.02-.99-.06-1.89-.39-2.67-1.03-.52-.43-.88-.97-1.18-1.56-.26-.52-.47-1.06-.58-1.63-.1-.49-.15-.99-.16-1.49,0-.47-.02-.93-.02-1.4,0-1.13.01-2.26.02-3.38,0-2.65,0-5.3.02-7.95,0-.27.01-.55.06-.82.08-.44.34-.78.7-1.03.42-.29.86-.52,1.37-.62.15-.03.31-.05.47-.07.2-.02.41-.01.61-.03.09,0,.11.03.11.11,0,.24.02.48.03.72,0,.41,0,.81,0,1.22Z"/><path class="cls-1" d="M898.91,79.02c.48-.2.85-.42,1.25-.51,1.66-.36,3.05.85,3.05,2.66,0,3.58,0,7.15,0,10.73,0,1.01-.04,2.03,0,3.04.06,1.27-.89,2.69-2.55,2.73-1.36.03-2.72,0-4.07,0-.36,0-.53-.15-.52-.51,0-.11,0-.23,0-.34,0-7.72,0-15.45-.01-23.17,0-.55.17-.76.72-.73.48.03.96.03,1.43,0,.46-.02.61.18.6.61-.01,1.4,0,2.79,0,4.19,0,.42.05.83.08,1.31ZM900.6,87.82s0,0,0,0c0-1.93,0-3.87,0-5.8,0-.77-.42-1.12-1.12-.98-.59.12-.65.57-.65,1.06,0,3.81,0,7.62,0,11.43,0,.19.01.38.03.57.05.37.25.57.63.64.71.13,1.09-.18,1.09-1,.02-1.97,0-3.94,0-5.91Z"/><path class="cls-1" d="M926.25,89.14c0,2.64-.01,5.28.01,7.92,0,.48-.14.63-.62.62-1.38-.02-2.75.02-4.13-.01-1.36-.03-2.45-.87-2.51-2.31-.09-2.16-.09-4.32,0-6.48.07-1.64,1.11-2.5,2.75-2.51.5,0,.99-.02,1.49,0,.33,0,.5-.12.49-.46,0-1.49.01-2.98-.01-4.47,0-.51-.4-.83-.9-.84-.58,0-.93.26-.95.83-.03.88-.03,1.76,0,2.64.02.46-.11.66-.6.63-.61-.04-1.23.01-1.83-.03-.17-.01-.48-.21-.47-.32.02-1.4-.29-2.82.21-4.21.47-1.33,1.56-1.86,2.81-2.04,1-.14,2.02-.09,2.92.54.94.67,1.34,1.61,1.35,2.71.03,2.6,0,5.2,0,7.8h0ZM921.78,92.08s-.01,0-.02,0c0,.8-.02,1.61,0,2.41.02.6.36.94.85.96.5.02.86-.29.87-.86.02-1.64.01-3.29-.02-4.93,0-.5-.4-.81-.86-.8-.48,0-.82.31-.83.82-.02.8,0,1.61,0,2.41Z"/><path class="cls-1" d="M912.44,97.63c-1.75,0-3.45.09-5.14-.03-1.22-.08-2.07-1.21-2.07-2.44,0-1.97,0-3.94,0-5.91,0-1.2.38-2.22,1.58-2.66.55-.2,1.2-.2,1.8-.23,1.6-.06,1.43.2,1.44-1.45,0-1.11,0-2.22-.02-3.33,0-.47-.2-.86-.72-.98-.43-.1-.82,0-1.05.39-.11.19-.15.43-.16.65-.02.82-.03,1.64,0,2.47,0,.42-.15.58-.57.56-.61-.03-1.23.02-1.83-.03-.16-.01-.43-.23-.43-.37-.03-1.18-.06-2.37,0-3.55.08-1.34,1.42-2.47,2.8-2.63,1.12-.13,2.24-.13,3.23.62.83.63,1.17,1.49,1.18,2.44.03,5.37.02,10.75.01,16.12,0,.09-.02.19-.04.34ZM908.04,92.16s0,0,0,0c0,.78-.02,1.57,0,2.35.02.61.34.91.88.91.52,0,.88-.33.89-.92.02-1.57.01-3.13-.02-4.7,0-.24-.12-.58-.3-.7-.24-.16-.67-.29-.88-.18-.26.14-.52.53-.55.83-.08.8-.03,1.6-.03,2.41Z"/><path class="cls-1" d="M930.82,89.3c0,3.4,0,6.81,0,10.21,0,2.34-1.4,3.73-3.74,3.78-1.49.03-2.57-.59-3.16-1.92-.24-.53-.22-1.18-.26-1.79,0-.11.26-.34.4-.34.57-.03,1.15-.04,1.72.04.15.02.34.35.38.56.09.47.34.78.77.9.44.12.84-.03,1.1-.42.1-.15.18-.34.19-.51.03-.46.03-.92.03-1.38,0-6.48,0-12.97,0-19.45,0-1.06-.07-.93.97-.94.34,0,.69,0,1.03,0,.41-.01.56.16.56.59-.01,3.56,0,7.11,0,10.67Z"/><path class="cls-1" d="M917.1,89.38c0,3.48,0,6.96,0,10.44,0,1.54-.8,2.73-2.12,3.22-1.54.57-3.3.24-4.25-.83-.66-.75-.83-1.66-.77-2.62,0-.13.22-.33.34-.34.61-.03,1.23-.04,1.83.01.13.01.32.28.35.44.11.72.5,1.1,1.15,1.06.5-.03.92-.54.92-1.17.01-3,.01-6.01.02-9.01,0-3.86,0-7.73,0-11.59q0-.96.94-.96c.27,0,.54,0,.8,0,.74,0,.79.06.79.78,0,2.95,0,5.89,0,8.84,0,.57,0,1.15,0,1.72Z"/><path class="cls-1" d="M972.9,94.16c.46-2.52.92-5.03,1.39-7.61.5,0,.94.03,1.37,0,.47-.04.6.17.6.59,0,1.7,0,3.41,0,5.11,0,1.57-.02,3.14,0,4.71,0,.42-.09.65-.58.62-.43-.03-.7-.08-.7-.64.03-2.62.01-5.24.01-7.86,0-.19,0-.38,0-.57-.04,0-.09,0-.13-.01-.12.77-.24,1.54-.37,2.31-.32,2.04-.67,4.08-.96,6.12-.08.54-.38.63-.82.64-.47.02-.62-.24-.68-.65-.38-2.57-.78-5.14-1.17-7.71-.04-.24-.09-.47-.24-.69,0,.72,0,1.44,0,2.16.02,2.07.03,4.13.05,6.2,0,.38.04.74-.53.72-.48-.02-.72-.13-.71-.69.03-3.19.02-6.39,0-9.59,0-.5.12-.72.66-.74,1.36-.05,1.38-.08,1.59,1.26.32,2.02.61,4.05.91,6.07.01.09.06.17.09.25.07,0,.14.01.21.02Z"/><path class="cls-1" d="M949.88,90.16c-.02.29-.05.59-.05.88,0,1.93,0,3.86-.01,5.79,0,.68-.12.76-.76.72-.43-.03-.48-.26-.47-.61.01-1.61,0-3.21,0-4.82,0-1.7.01-3.4,0-5.11,0-.39.1-.53.52-.5,1.15.08,1.14.06,1.43,1.22.46,1.84.93,3.67,1.4,5.5.05.18.13.34.2.52.05,0,.1,0,.15,0,.02-.19.06-.37.06-.56.01-1.99.04-3.98.01-5.97,0-.56.21-.68.71-.68.52,0,.53.29.53.67,0,3.21,0,6.43,0,9.64,0,.31.09.64-.43.69-.98.08-1.14.05-1.29-.53-.55-2.17-1.1-4.34-1.66-6.5-.03-.13-.1-.26-.15-.39-.06,0-.13.02-.19.02Z"/><path class="cls-1" d="M985.87,95.14c0,.63-.02,1.26,0,1.89.02.46-.22.57-.6.52-.33-.04-.76.11-.75-.5.01-3.31,0-6.62,0-9.93,0-.4.15-.59.59-.57.8.05,1.61.02,2.4.1.87.08,1.41.66,1.58,1.46.2.97.35,2.03-.21,2.91-.43.68-.55,1.15,0,1.81.22.26.16.77.18,1.16.03.99.02,1.99.05,2.98.01.41-.11.6-.54.6-.4,0-.74,0-.74-.54,0-.94,0-1.88-.03-2.81,0-.32-.04-.65-.13-.96-.2-.68-.8-.99-1.44-.7-.18.08-.31.4-.35.63-.06.31-.01.65,0,.97,0,.33,0,.65,0,.98h0ZM985.88,89.48h0c0,.44-.04.88.02,1.32.03.21.18.49.35.57.4.17,1.37-.05,1.42-.69.06-.73.14-1.48.05-2.2-.04-.28-.49-.63-.82-.72-.83-.24-1.02-.04-1.02.82,0,.31,0,.61,0,.92Z"/><path class="cls-1" d="M946.37,92c0,1.19.03,2.37-.01,3.56-.03.92-.76,1.93-1.5,2.05-1.01.16-2.13.38-2.84-.64-.33-.47-.51-1.13-.53-1.71-.07-2.02-.05-4.05-.05-6.08,0-.15.03-.3.05-.46.24-2.16,1.69-2.42,3.34-2.23.75.09,1.52,1.13,1.55,2.01.03,1.17,0,2.33,0,3.5,0,0,0,0,0,0ZM942.82,92.12s-.01,0-.02,0c0,1.05-.02,2.1,0,3.15.02.81.46,1.24,1.19,1.24.6,0,1.02-.43,1.03-1.19.03-2.06.03-4.13.03-6.19,0-.28-.04-.59-.18-.83-.13-.24-.37-.5-.62-.59-.72-.25-1.39.22-1.42,1.03-.05,1.12-.01,2.25-.01,3.38Z"/><path class="cls-1" d="M1007.44,92.06c0-1.61.02-3.21,0-4.82,0-.52.17-.74.69-.69.87.08,1.76.04,2.6.23.89.21,1.31.93,1.33,1.84,0,.33,0,.65.01.98.02.75-.1,1.45-.69,1.99-.22.2-.26.41-.02.63.51.46.61,1.1.64,1.73.04,1.01,0,2.03.02,3.04,0,.41-.13.58-.56.58-.4,0-.72-.02-.73-.55,0-1.03-.01-2.07-.06-3.1-.04-.94-.36-1.45-1.3-1.43-.44,0-.62.17-.62.61.01,1.24-.01,2.49.01,3.73,0,.47-.1.69-.63.68-.53,0-.7-.18-.69-.7.03-1.59,0-3.17,0-4.76h-.01ZM1008.77,89.49h-.01c.02.48.03.95.08,1.43.01.15.1.35.21.42.32.21,1.23-.08,1.41-.43.46-.85.3-1.74.13-2.62-.03-.17-.19-.4-.34-.44-.39-.1-.82-.18-1.21-.11-.13.02-.22.5-.26.77-.04.32-.01.65-.01.97Z"/><path class="cls-1" d="M963.49,86.58c.03.49.07.93.08,1.36.01,2.45,0,4.9.02,7.34,0,.87.4,1.25,1.25,1.15.25-.03.59-.25.67-.46.16-.46.24-.96.24-1.45.03-2.41.02-4.82.02-7.23,0-.71.11-.79.81-.71.32.04.48.16.48.5,0,2.81.09,5.63-.03,8.43-.08,1.78-1.15,2.37-3.01,2.14-1.23-.15-1.8-1.29-1.81-2.24-.02-2.75,0-5.51-.02-8.26,0-.5.15-.77.71-.62.16.04.34.03.59.05Z"/><path class="cls-1" d="M1004.9,97.56c-.43.08-.63-.14-.69-.61-.09-.7-.24-1.39-.34-2.09-.05-.34-.2-.48-.55-.51-1.4-.11-1.43-.09-1.59,1.31-.05.4-.13.79-.2,1.19-.12.66-.54.91-1.18.66-.12-.05-.22-.33-.2-.49.17-1.15.38-2.3.57-3.45.34-2.05.68-4.11,1-6.16.13-.81.14-.85.96-.84,1.2.01,1.12-.2,1.34,1.13.51,3.05,1.03,6.1,1.55,9.15.11.68.08.71-.67.71ZM1002.96,88.37c-.07,0-.15,0-.22,0-.2,1.47-.43,2.94-.57,4.41-.05.52.49.34.79.35.27.02.63.05.57-.41-.08-.74-.16-1.48-.26-2.22-.09-.71-.21-1.42-.32-2.12Z"/><path class="cls-1" d="M957.92,97.7c-1.78.12-2.46-1.12-2.45-2.59,0-.5.28-.57.67-.54.34.03.77-.11.72.52-.02.28.05.57.11.85.09.44.44.62.84.66.41.05.73-.11.92-.52.42-.92.24-2.26-.47-2.98-.41-.42-.88-.79-1.33-1.18-1.32-1.13-1.7-3.08-.84-4.58.5-.87,1.33-1.01,2.24-.89.79.1,1.39.44,1.57,1.27.1.42.16.85.22,1.29.05.4-.23.44-.52.41-.3-.03-.74.19-.81-.36-.04-.26-.05-.53-.09-.8-.08-.43-.36-.66-.8-.67-.43-.01-.72.23-.77.62-.13.91-.25,1.81.66,2.49.59.44,1.09,1.01,1.65,1.5,1.16,1,1.09,3.72.19,4.85-.32.4-.98.65-1.71.65Z"/><path class="cls-1" d="M993.93,92.01c0-.98,0-1.95,0-2.93-.01-2.04,1.29-2.95,3.07-2.56.7.15,1.31.69,1.44,1.38.06.32.09.64.1.97,0,.69-.46,1.01-1.1.72-.1-.05-.19-.22-.21-.35-.05-.26-.03-.54-.07-.8-.08-.48-.39-.77-.86-.78-.48-.01-.85.24-.93.76-.04.26-.06.53-.06.8,0,1.84-.01,3.67,0,5.51,0,.43.09.87.21,1.29.11.4.47.63.85.5.3-.11.57-.39.75-.67.13-.2.09-.52.11-.78.03-.42.22-.61.66-.59.62.02.8.12.7.74-.1.62-.24,1.31-.59,1.81-.64.94-1.7.8-2.62.6-.83-.18-1.42-.93-1.45-2.24-.03-1.13,0-2.26,0-3.39h0Z"/><path class="cls-1" d="M936.27,92.1c0,1.07-.03,2.14,0,3.21.03.86.53,1.3,1.22,1.16.48-.1.73-.51.74-1.27,0-.39.01-.72.55-.73.7-.01.83.05.77.77-.04.49-.15.99-.34,1.44-.39.93-1.35,1.11-2.52,1.04-.88-.05-1.44-.65-1.67-1.64-.08-.37-.11-.76-.11-1.14,0-2.07-.03-4.13.03-6.2.01-.5.2-1.07.49-1.49.55-.82,1.59-1.03,2.69-.69.84.26,1.31.94,1.37,1.97,0,.11.02.23.01.34-.02.31.17.72-.42.73-.67.01-.79-.07-.88-.68-.04-.29-.1-.61-.24-.86-.18-.33-.47-.56-.9-.44-.4.12-.68.34-.73.79-.03.3-.09.61-.09.91-.01.92,0,1.84,0,2.76,0,0,.01,0,.02,0Z"/><path class="cls-1" d="M978.69,92.02c0-1.63.01-3.25,0-4.88,0-.46.16-.6.61-.58.94.03,1.87.03,2.81.02.44,0,.58.21.58.64,0,.45-.21.56-.59.56-.48,0-.96,0-1.44,0-.39,0-.62.15-.62.57,0,.75,0,1.49,0,2.24,0,.39.21.54.58.54.48,0,.96.02,1.43.02.4,0,.47.22.46.56-.01.31.03.63-.44.63-.48,0-.96.04-1.43.04-.4,0-.61.14-.61.56,0,.96,0,1.91,0,2.87,0,.39.19.55.56.55.55,0,1.11,0,1.66.01.28,0,.6.02.51.42-.07.32.11.82-.55.79-.96-.04-1.91-.02-2.87,0-.53.01-.69-.22-.68-.72.02-1.61,0-3.21,0-4.82,0,0,0,0,.01,0Z"/><path class="cls-1" d="M1014.21,92.05c0-1.61.01-3.21,0-4.82,0-.52.17-.71.69-.69.92.03,1.84.02,2.75-.01.49-.02.51.25.52.61,0,.38-.06.64-.52.62-.5-.01-.99.02-1.49.02-.38,0-.57.17-.57.55,0,.73,0,1.45,0,2.18,0,.41.21.58.62.56.4-.02.8,0,1.2,0,.46,0,.62.26.62.7,0,.43-.2.57-.6.56-.4-.01-.8.02-1.2,0-.41-.02-.63.13-.63.54,0,.97,0,1.95,0,2.92,0,.39.22.54.59.54.57,0,1.15,0,1.72.04.15.01.42.22.41.29-.06.3.17.81-.35.84-1.14.06-2.29.04-3.44.01-.11,0-.29-.36-.3-.55-.02-1.64-.01-3.29-.01-4.93h0Z"/><path class="cls-1" d="M929.56,72.98c1.02-.02,1.62.84,1.62,1.57,0,1-.77,1.71-1.77,1.68-.82-.03-1.53-.83-1.49-1.71.04-.91.74-1.57,1.64-1.53Z"/><path class="cls-1" d="M915.88,73.77c.71,0,1.2.49,1.21,1.23,0,.68-.6,1.3-1.26,1.29-.67-.01-1.23-.62-1.23-1.32,0-.65.58-1.19,1.28-1.19Z"/><path class="cls-1" d="M33.03,79.86c.6-.81,1.29-1.38,2.31-1.28.64.06,1.03.51,1.19,1.24.11-.14.18-.23.24-.32.43-.65,1.43-1.09,2.13-.94.73.16,1.13.54,1.19,1.28.07.89.08,1.79.08,2.69,0,1.45-.01,2.91,0,4.36,0,.26-.04.4-.35.39-.63-.02-1.26,0-1.95,0,0-.2,0-.37,0-.53,0-1.87,0-3.74-.01-5.61,0-.19-.13-.5-.26-.55-.19-.06-.53,0-.65.15-.19.23-.36.56-.36.85-.03,1.75-.03,3.5,0,5.24,0,.37-.09.49-.47.46-.57-.03-1.14,0-1.76,0,0-.22,0-.42,0-.61,0-1.79,0-3.59,0-5.38,0-.41-.26-.79-.54-.8-.37-.02-.77.4-.77.83,0,1.83-.01,3.65,0,5.48,0,.41-.12.54-.53.51-.46-.04-.93-.03-1.39,0-.28.01-.39-.09-.38-.37,0-2.58.01-5.16,0-7.74,0-.32.1-.43.43-.42.49.03.99.01,1.48,0,.28,0,.4.08.38.37-.02.24,0,.49,0,.73Z"/><path class="cls-1" d="M21.37,77.48v-2.31h5.69v2.33h-1.65c0,1.08,0,2.08,0,3.08,0,2.09,0,4.18,0,6.26,0,.34-.07.45-.44.42-.66-.05-1.32-.01-2.03-.01,0-.15-.02-.28-.02-.42,0-3,0-6,.02-9,0-.31-.1-.37-.37-.36-.38.02-.77,0-1.19,0Z"/><path class="cls-1" d="M47.15,83.58h-3.86c-.02.69.05,1.32.45,1.86.29.39.88.42,1.27.04.27-.26.46-.6.7-.94.44.21.91.44,1.37.66-.26,1.17-1.24,2.06-2.46,2.24-1.19.18-2.4-.36-2.93-1.5-.91-1.94-.97-3.95,0-5.9.75-1.49,2.27-1.74,3.57-1.27.41.15.8.55,1.06.92.78,1.15.86,2.47.82,3.88ZM45.2,81.99c-.13-.49-.18-.9-.34-1.27-.21-.52-.99-.57-1.26-.08-.18.31-.25.69-.33,1.05-.02.08.15.29.24.29.52.03,1.04.01,1.68.01Z"/><path class="cls-1" d="M47.48,85.14c.51-.2,1.02-.41,1.54-.58.08-.03.25.12.34.22.26.28.45.62.75.84.35.26.84.1,1.06-.24.22-.33.16-.67-.24-.96-.31-.23-.66-.39-1-.57-.26-.14-.53-.25-.8-.37-1.78-.77-1.82-3.15-.53-4.31,1.44-1.3,3.81-.73,4.5,1.07.18.48.14.57-.35.74-.04.01-.09.04-.13.05-.78.25-.77.24-1.31-.34-.16-.18-.37-.34-.59-.42-.32-.11-.68-.05-.85.28-.17.32-.08.65.24.85.37.23.75.42,1.14.61.3.15.62.27.92.44,1.01.59,1.41,1.5,1.26,2.63-.15,1.1-.76,1.86-1.84,2.23-1.82.61-3.71-.36-4.11-2.15Z"/><path class="cls-1" d="M37.34,89.99c11.51,0,23.02,0,34.53,0,.21,0,.61.16.61.21-.05.38-.38.21-.58.21-14.59.01-29.17.02-43.76.02-8.41,0-16.83,0-25.24,0-.03,0-.07,0-.09,0-.18-.08-.35-.16-.52-.24.16-.06.33-.18.49-.18,3.94-.01,7.89-.02,11.83-.02,7.58,0,15.16,0,22.74,0h0Z"/><path class="cls-1" d="M37.38,104.16c-11.49,0-22.98,0-34.48,0-.06,0-.13.02-.18,0-.15-.06-.29-.15-.44-.22.15-.06.3-.19.44-.19,6.39-.01,12.78-.02,19.17-.02,16.41,0,32.83,0,49.24,0,.32,0,.65-.01.97.02.13.02.26.15.38.22-.13.06-.27.18-.4.18-2.88.01-5.75.01-8.63.01-8.69,0-17.38,0-26.08,0h0Z"/><path class="cls-1" d="M27.48,87.29v-8.6c.73,0,1.45,0,2.16.01.07,0,.19.19.2.29.03.31,0,.62,0,.93,0,2.3,0,4.61,0,6.91,0,.35-.07.5-.47.47-.62-.04-1.23-.01-1.91-.01Z"/><path class="cls-1" d="M51.21,98.15c.71-1.37,1.38-2.67,2.05-3.97.14-.28.26-.61.78-.48-.28.52-.53,1-.79,1.49-.47.89-.9,1.8-1.42,2.65-.4.66-.34,1.21.2,1.79.1-.17.21-.33.3-.5.89-1.69,1.79-3.38,2.68-5.08.13-.25.27-.46.65-.29-1.19,2.28-2.38,4.55-3.61,6.9-.29-.55-.54-1.01-.84-1.59-.31.59-.56,1.06-.85,1.6-1.23-2.35-2.43-4.64-3.64-6.94.43-.13.59.13.72.38.87,1.67,1.74,3.34,2.61,5.01.08.16.18.3.3.5.14-.21.24-.36.34-.5.21-.29.24-.56.05-.89-.69-1.27-1.37-2.56-2.04-3.84-.11-.2-.2-.41-.31-.64.38-.18.53.05.65.28.59,1.12,1.17,2.24,1.75,3.37.12.23.25.46.41.75Z"/><path class="cls-1" d="M43.52,100.7c-1.98-1.96-3.91-3.88-5.91-5.87v5.89h-.45v-6.98c1.97,1.95,3.89,3.85,5.88,5.82v-5.82c.18-.02.3-.03.48-.05v7.01Z"/><path class="cls-1" d="M36.54,97.16c.1,2.15-1.81,3.64-3.41,3.68-2.04.05-3.77-1.54-3.82-3.5-.05-2.03,1.58-3.68,3.59-3.79,1.82-.1,3.76,1.73,3.63,3.6ZM36.11,97.3c.02-1.8-1.3-3.15-3.05-3.24-2.05-.1-3.33,1.64-3.32,3.11.01,1.72,1.37,3.16,3.07,3.2,1.86.04,3.28-1.28,3.3-3.07Z"/><path class="cls-1" d="M18.07,100.74h-.48v-6.96c.44-.14.49-.11.48.36-.01,1.17-.02,2.35-.05,3.52-.01.42.1.6.57.59,1.31-.03,2.63-.02,3.94,0,.38,0,.47-.13.46-.49-.02-1.19-.01-2.38-.02-3.57,0-.15.02-.3.03-.47h.4c.02.07.05.15.05.22,0,2.15,0,4.3,0,6.45,0,.3-.08.45-.48.31,0-.51-.01-1.05,0-1.58.01-.3-.08-.41-.39-.41-1.38.02-2.75.02-4.13,0-.34,0-.42.12-.41.43.02.52,0,1.05,0,1.6Z"/><path class="cls-1" d="M62.03,97.24c0-1.04.02-2.07-.01-3.11-.01-.39.15-.48.48-.47,1.53,0,3.06,0,4.59.02.14,0,.27.16.4.24-.13.08-.27.23-.4.24-1.34.02-2.69.02-4.03,0-.42,0-.54.12-.53.56.03,1.67.02,3.34-.01,5.01,0,.44.1.58.56.57,1.33-.03,2.66-.02,3.99,0,.16,0,.32.14.48.21-.15.08-.3.24-.45.24-1.56.02-3.12,0-4.68.01-.23,0-.37-.02-.36-.32.02-1.07,0-2.13,0-3.2,0,0-.01,0-.02,0Z"/><path class="cls-1" d="M56.09,93.67c.34,0,.66,0,.98,0,1.31,0,2.63,0,3.94.01.21,0,.49-.05.47.27,0,.08-.29.21-.45.21-1.33.02-2.66.02-3.99,0-.37,0-.5.07-.5.49.02,1.7.01,3.4-.01,5.1,0,.45.14.57.58.56,1.31-.03,2.63-.01,3.94-.01.06,0,.14-.02.18,0,.1.07.19.16.28.24-.1.07-.19.2-.3.2-.57.02-1.14.02-1.71.02-1.13,0-2.25,0-3.42,0v-7.1Z"/><path class="cls-1" d="M4.86,100.71c1.22-2.33,2.41-4.62,3.64-6.97.38.72.74,1.38,1.09,2.04.79,1.5,1.58,3.01,2.35,4.52.07.14.02.34.03.51-.16-.11-.39-.18-.47-.34-.98-1.84-1.94-3.69-2.9-5.53-.01-.02-.05-.03-.11-.07-.07.13-.15.25-.22.38-.89,1.71-1.78,3.42-2.66,5.14-.16.31-.35.45-.74.32Z"/><path class="cls-1" d="M15.55,95.01c-.12-.19-.23-.38-.36-.57-.3-.46-1.08-.54-1.46-.13-.23.25-.36.53-.22.89.15.39.42.61.83.64.84.07,1.55.36,2.08,1.05.57.75.69,1.55.35,2.4-.35.86-1.02,1.41-1.94,1.55-1.31.2-2.56-.66-2.87-1.94-.03-.13.08-.3.12-.45.09.11.23.21.26.34.32,1.1,1.17,1.68,2.39,1.6.9-.06,1.64-.81,1.8-1.83.14-.88-.62-1.97-1.53-2.16-.24-.05-.49-.06-.73-.09-.67-.07-1.17-.6-1.21-1.26-.04-.68.44-1.33,1.06-1.44.74-.13,1.37.2,1.59.87.05.15,0,.33,0,.5-.06.01-.11.02-.17.04Z"/><path class="cls-1" d="M74.51,102.95c-.16-.07-.36-.1-.47-.22-1.49-1.53-2.96-3.07-4.45-4.61.57-.58,1.23-1.25,1.89-1.91.72-.73,1.43-1.46,2.16-2.17.21-.2.52-.32.78-.47.04.05.07.09.11.14-.07.09-.12.19-.2.27-1.26,1.25-2.53,2.5-3.8,3.75-.46.46-.46.45,0,.89,1.23,1.22,2.45,2.45,3.67,3.69.16.16.29.34.43.51-.03.04-.07.09-.1.13Z"/><path class="cls-1" d="M0,100.71v-7.05c.71,0,1.4,0,2.09,0,.88,0,1.76,0,2.64.02.24,0,.62-.15.63.29,0,.06-.4.18-.61.19-1.27.02-2.54.01-3.8.02-.15,0-.3.02-.5.03,0,.26,0,.48,0,.71,0,1.79,0,3.59,0,5.38,0,.28.02.56-.46.42Z"/><path class="cls-1" d="M26.93,96.63c0-.13.02-.26,0-.39-.06-.32.05-.52.32-.7.12-.08.15-.31.17-.48.02-.17-.03-.36-.02-.53,0-.06.11-.11.18-.16.03.07.08.15.08.22-.03.52-.07,1.04-.13,1.55-.07.56-.16,1.12-.24,1.68-.12.82-.26,1.64-.35,2.46-.03.23.09.48.12.72.02.13.03.27,0,.39-.08.29-.17.57-.28.85-.05.13-.15.23-.22.35-.07-.12-.21-.24-.21-.35,0-.3-.03-.68.14-.89.27-.35.26-.63.18-1.03-.11-.47-.08-.98-.12-1.47-.03-.32-.07-.64-.12-.96-.09-.62-.19-1.25-.25-1.88-.01-.14.15-.41.25-.42.3-.03.41.22.41.5,0,.17-.03.35-.05.52.05,0,.11,0,.16,0Z"/><path class="cls-1" d="M28.64,75.03c.66,0,1.19.58,1.18,1.29-.01.78-.54,1.34-1.25,1.33-.68-.01-1.21-.6-1.2-1.32.01-.79.51-1.3,1.27-1.29Z"/><path class="cls-1" d="M68.03,100.71c0-2.24,0-4.46.01-6.69,0-.12.15-.24.24-.36.08.14.23.28.23.42.01,1.86,0,3.71,0,5.57,0,.25-.02.5,0,.74.04.37-.07.5-.48.33Z"/><path class="cls-1" d="M65.44,98.73c-.57,0-1.15.01-1.72-.01-.11,0-.21-.15-.32-.22.11-.1.22-.28.33-.28,1.13,0,2.26,0,3.39.04.14,0,.27.17.4.27-.14.06-.27.18-.41.19-.56.02-1.11,0-1.67,0h0Z"/><path class="cls-1" d="M5.44,98.6c-.15.04-.3.11-.46.11-1.11.01-2.22.02-3.33,0-.12,0-.23-.16-.35-.24.12-.09.24-.25.36-.26,1.09-.01,2.19,0,3.28.01.17,0,.35.11.52.17,0,.06-.01.13-.02.19Z"/><path class="cls-1" d="M61.52,98.62c-.14.03-.28.09-.42.09-1.11.01-2.22.02-3.33,0-.13,0-.25-.13-.38-.21.13-.1.25-.29.38-.29,1.08-.02,2.15,0,3.23.02.18,0,.36.12.55.18,0,.06-.02.13-.03.19Z"/><path class="cls-1" d="M27.21,92.82c-.19-.03-.33-.06-.47-.08.05.11.12.21.13.32,0,.1-.07.21-.13.38-.14-.23-.25-.36-.3-.51-.07-.2-.09-.42-.13-.63.19-.01.38-.08.56-.03.24.06.44.21.35.54Z"/><path class="cls-1" d="M26.95,94.48c-1.19.37-1.19.37-1.36,0h1.36Z"/><path class="cls-1" d="M612.31,33.56c-.57.52-1.17,1-1.69,1.56-1.21,1.3-2.65,1.78-4.38,1.39-.69-.16-1.27-.53-1.74-1.06-.6-.67-1.2-1.34-1.83-2.04-.2.37-.38.7-.56,1.04-.78,1.53-2.51,2.36-4.29,2.06-1.68-.29-3-1.63-3.25-3.3-.15-.98.03-1.9.49-2.78,1.07-2.02,2.16-4.03,3.22-6.05,1.17-2.24,4.73-2.82,6.46-.8.89,1.04,1.83,2.05,2.72,3.04.44-.41.87-.8,1.29-1.21.62-.61,1.21-1.26,1.84-1.87,1.51-1.47,4.25-1.44,5.69.09.29.3.5.69.69,1.07.96,1.94,1.9,3.88,2.85,5.82.59,1.21.76,2.46.25,3.74-.64,1.62-2.4,2.62-4.15,2.4-1.22-.15-2.24-.63-2.91-1.7-.22-.35-.38-.74-.56-1.12-.06-.12-.12-.24-.18-.35.02.03.03.06.05.08Z"/><path class="cls-1" d="M584.95,21.85c4.12,0,7.28,3.31,7.41,7.17.13,4.03-3.05,7.64-7.4,7.64-4.18,0-7.33-3.33-7.41-7.22-.09-4.18,3.26-7.58,7.4-7.59Z"/><path class="cls-1" d="M633.99,36.62c-1.96,0-3.93.04-5.89-.01-1.44-.04-2.61-.69-3.31-1.98-1.17-2.16-2.3-4.34-3.42-6.52-.83-1.61-.53-3.56.68-4.78,1.93-1.94,5.34-1.38,6.47.96.66,1.37,1.4,2.69,2.1,4.04.08.16.17.21.35.21,1.31,0,2.62,0,3.93.01.75,0,1.49.07,2.18.42,1.68.85,2.61,2.72,2.2,4.48-.43,1.88-2.06,3.19-3.98,3.21-.44,0-.87,0-1.31,0,0-.02,0-.03,0-.05Z"/><path class="cls-1" d="M158,94.71c-.16-1.56-.28-3.08-.5-4.58-.1-.71-.56-1.28-1.09-1.79-.33-.32-.6-.72-.8-1.13-.08-.17.09-.46.15-.7.2.1.44.15.59.3.42.42.81.88,1.21,1.32.5-.62.3-1.7-.32-2.3-.31-.29-.6-.65-.76-1.03-.09-.23.08-.56.14-.85.23.1.46.19.68.31.12.06.21.16.43.33.03-.4.06-.67.08-.95.02-.38.23-.5.58-.47.32.02.64.03.66.47.01.27.05.53.08.91.23-.19.36-.34.53-.41.18-.08.42-.18.58-.12.12.05.24.36.19.5-.14.4-.27.9-.58,1.13-.87.65-.87,1.47-.69,2.49.47-.5.88-.95,1.32-1.37.13-.12.44-.26.52-.2.16.11.33.41.28.56-.13.38-.3.84-.6,1.06-1.18.89-1.53,2.14-1.62,3.5-.05.8-.01,1.61-.06,2.4-.04.56.26.62.7.61,3.83-.01,7.66,0,11.49-.01,5.36,0,10.72,0,16.08,0,.29,0,.72-.17.76.33,0,.05-.5.21-.77.22-8.3.02-16.6.03-24.89.03-14.37,0-28.74,0-43.11,0-.53,0-1.06,0-1.58-.05-.16-.01-.32-.17-.48-.25.17-.09.33-.27.5-.27,5.47-.01,10.94-.01,16.41-.01,7.46,0,14.92.01,22.38.02.43,0,.87,0,1.51,0Z"/><path class="cls-1" d="M147.65,85.76c.85.39,1.53.89,1.92,1.7,1,2.08-.17,4.34-2.56,4.68-1.45.2-2.94.15-4.41.15-1.23,0-1.22-.03-1.21-1.25,0-3.63.01-7.25,0-10.88,0-.45.1-.63.57-.61,1.56.05,3.14,0,4.69.14,2.22.19,3.5,2.14,2.83,4.17-.23.69-.64,1.13-1.82,1.9ZM142.7,88.68s0,0,0,0c0,.69-.02,1.39.02,2.08,0,.15.22.42.33.42,1.31-.02,2.63.02,3.92-.16,1.13-.16,1.72-1.1,1.71-2.27-.02-1.16-.68-1.97-1.76-2.27-1.28-.36-2.57-.22-3.86-.23-.3,0-.36.14-.36.41.02.67,0,1.35,0,2.02ZM144.61,80.6v.05c-.5,0-.99,0-1.48,0-.29,0-.44.1-.43.41.01,1.28,0,2.55.03,3.83,0,.11.17.32.25.31,1.31-.03,2.63.2,3.91-.23,1.03-.34,1.52-1.09,1.46-2.22-.05-1-.67-1.77-1.67-1.96-.68-.12-1.37-.14-2.06-.2Z"/><path class="cls-1" d="M184.84,87.02c1.07,1.74,2.13,3.46,3.24,5.27-.53,0-.98.03-1.42-.02-.14-.01-.29-.21-.37-.35-.89-1.51-1.76-3.02-2.66-4.52-.11-.18-.38-.33-.59-.35-.63-.05-1.26-.02-1.95-.02v5.23h-1.31v-12.61s.05-.06.07-.06c1.62.03,3.26-.08,4.85.13,3.09.41,3.69,3.22,2.85,5.18-.45,1.04-1.31,1.56-2.33,1.9-.09.03-.18.04-.26.07-.03.01-.05.05-.13.15ZM181.07,80.58c0,1.77,0,3.41.01,5.05,0,.12.19.35.29.34,1.18-.05,2.37-.04,3.53-.25,1.13-.21,1.78-1.27,1.73-2.46-.05-1.36-.68-2.27-1.89-2.44-1.18-.17-2.38-.16-3.67-.24Z"/><path class="cls-1" d="M135.42,86.96c1.09,1.8,2.13,3.52,3.17,5.24-.88.33-1.45.14-1.92-.64-.81-1.36-1.62-2.72-2.41-4.1-.18-.31-.36-.45-.72-.44-.61.03-1.23,0-1.9,0v5.17c-.09.05-.12.07-.15.08-1.15.09-1.13.09-1.13-1.05,0-3.55,0-7.11,0-10.66,0-.31.03-.61.04-1,.43,0,.82-.02,1.21,0,1.34.06,2.7.03,4.02.24,1.71.27,2.75,1.54,2.87,3.19.12,1.73-.79,3.11-2.45,3.72-.17.06-.33.13-.65.25ZM131.65,86.04c1.15-.05,2.24-.03,3.31-.18,1.29-.17,1.96-.86,2.19-2.02.27-1.37-.33-2.71-1.52-2.93-1.27-.23-2.59-.17-3.89-.24-.02,0-.05.04-.09.07v5.29Z"/><path class="cls-1" d="M157.4,92.31c-2.84-.03-5.41-3.22-5.3-6.6.11-3.79,3-6.45,6.75-6.24,3.6.2,6.14,3.32,5.82,7.16-.29,3.44-3.01,5.57-5.19,5.64-.12-.68.02-.97.6-1.19,2.16-.82,3.16-2.45,3.28-4.7.1-1.92-.38-3.62-1.98-4.85-2.15-1.66-6.13-1.18-7.39,1.8-.88,2.08-.81,4.13.46,6.04.54.81,1.36,1.31,2.26,1.65.7.27.83.51.68,1.29Z"/><path class="cls-1" d="M175.28,84.13c0-1.29,0-2.59,0-3.88,0-.43.04-.73.61-.7.5.02.72.15.71.69-.02,2.37,0,4.74-.01,7.11,0,.47-.05.95-.13,1.41-.52,3.01-3.05,4.01-5.49,3.58-2.35-.41-3.54-1.87-3.63-4.54-.09-2.59-.03-5.18-.04-7.77,0-.47.3-.46.63-.45.41,0,.69.07.68.6-.03,2.08-.02,4.16-.02,6.24,0,.66,0,1.32.08,1.97.28,2.37,1.98,3.2,4.06,2.84,1.62-.28,2.48-1.38,2.52-3.15.03-1.31,0-2.63,0-3.94,0,0,0,0,.01,0Z"/><path class="cls-1" d="M127.91,92.3c-.37,0-.75.07-1.08-.03-.2-.06-.38-.36-.47-.59-1.11-3.04-2.2-6.09-3.3-9.14-.12-.33-.26-.66-.39-.99-.05,0-.1,0-.16,0-.21.56-.43,1.13-.64,1.69-1.05,2.89-2.08,5.79-3.15,8.67-.06.16-.3.33-.49.37-.29.06-.6.02-.99.02.3-.82.56-1.57.84-2.32,1.17-3.18,2.37-6.34,3.5-9.53.22-.63.58-.7,1.14-.72.55-.02.7.27.86.7,1.42,3.88,2.86,7.75,4.28,11.62.02.05.01.1.02.23Z"/><path class="cls-1" d="M158.52,101.43c.37-.82.73-1.65,1.1-2.47.14-.31.26-.64.45-.93.1-.16.32-.24.49-.36.1.17.28.35.29.52.03.85,0,1.71.01,2.57,0,.36.02.73.03,1.09,0,.27.07.63-.33.6-.14-.01-.34-.38-.36-.6-.05-.67-.02-1.35-.02-2.02,0-.13,0-.25,0-.38-.04-.01-.07-.03-.11-.04-.29.58-.58,1.16-.86,1.75-.13.26-.2.55-.34.8-.11.19-.3.33-.45.49-.15-.17-.35-.32-.44-.51-.34-.74-.65-1.5-.97-2.25-.07-.15-.17-.29-.34-.4,0,.82,0,1.65,0,2.47,0,.13.05.28,0,.38-.07.13-.22.23-.33.34-.1-.1-.27-.2-.28-.31-.03-.42-.02-.84-.02-1.26,0-.84-.02-1.68.01-2.51,0-.23.19-.45.29-.68.19.16.46.28.56.48.51,1.06.98,2.15,1.46,3.22.05,0,.11,0,.16.01Z"/><path class="cls-1" d="M122.3,99.03c0,.98,0,1.96,0,2.94,0,.27-.02.53-.34.46-.15-.03-.35-.3-.36-.47-.02-1.16,0-2.33,0-3.5,0-.18,0-.37.04-.54.09-.36.3-.47.57-.17.24.27.45.57.65.88.48.73.95,1.47,1.43,2.2.08.12.19.21.43.29,0-.46,0-.92,0-1.38,0-.55-.04-1.09,0-1.64,0-.16.19-.3.3-.45.12.15.34.3.35.45.02.96,0,1.93,0,2.9,0,.33.03.66,0,.98-.01.16-.1.4-.2.44-.13.04-.36-.06-.47-.17-.23-.25-.43-.54-.62-.83-.54-.81-1.07-1.63-1.6-2.44-.05.02-.1.04-.16.06Z"/><path class="cls-1" d="M171.58,98.96c0,.9,0,1.8,0,2.7,0,.16.04.34,0,.49-.04.12-.2.28-.31.28-.1,0-.29-.17-.3-.28-.04-.38-.02-.76-.02-1.15,0-.93,0-1.86.04-2.79,0-.19.13-.37.2-.56.19.11.44.19.55.35.63.91,1.23,1.85,1.84,2.77.1.16.23.29.48.39,0-.99-.01-1.99.01-2.98,0-.19.14-.53.23-.54.36-.03.34.29.34.55,0,1.26.01,2.52,0,3.77,0,.15-.12.31-.18.46-.19-.08-.45-.11-.56-.25-.41-.58-.77-1.19-1.16-1.78-.34-.5-.7-.99-1.05-1.49-.04.02-.08.03-.12.05Z"/><path class="cls-1" d="M145.8,98.96c-.35-.21-.61-.32-.82-.48-.38-.3-.78-.44-1.2-.17-.19.12-.39.38-.39.57,0,.2.18.49.36.6.34.2.74.29,1.11.44.78.31,1.1.78.99,1.43-.11.63-.69,1.08-1.43,1.12-.66.04-1.25-.11-1.57-.75-.08-.15,0-.38.02-.58.16.07.4.1.47.22.29.47.7.59,1.21.54.42-.03.68-.29.68-.64,0-.24-.24-.55-.46-.69-.33-.21-.74-.28-1.12-.42-.65-.24-.99-.71-.95-1.31.04-.57.41-.98,1.07-1.15.9-.24,1.88.28,2.02,1.28Z"/><path class="cls-1" d="M185.09,101.06c.17.16.35.3.49.47.35.4.81.47,1.24.31.24-.09.47-.4.54-.66.04-.15-.17-.48-.35-.58-.34-.2-.73-.31-1.11-.43-.73-.24-1.14-.73-1.08-1.32.07-.69.54-1.11,1.34-1.19.64-.06,1.19.14,1.6.65.09.11.05.32.06.48-.15-.02-.32,0-.45-.06-.12-.06-.21-.2-.32-.29-.41-.34-.99-.35-1.35-.02-.38.34-.34.85.11,1.08.3.16.64.25.97.35.95.3,1.37.88,1.17,1.62-.2.74-1.19,1.25-2.01.95-.37-.14-.69-.44-.98-.72-.11-.11-.07-.37-.1-.56.07-.02.14-.05.21-.07Z"/><path class="cls-1" d="M137.27,99.66c.53.19,1.22-.16,1.66.38,0,.07,0,.13-.01.2-.4.02-.8.07-1.2.05-.42-.03-.56.13-.53.53.02.32,0,.65,0,1.08.48,0,.93-.02,1.37.01.17.01.32.16.48.25-.17.09-.33.26-.51.27-.53.04-1.06.04-1.58,0-.16-.02-.41-.26-.41-.41-.04-1.31-.03-2.62-.03-3.94,0-.3.14-.44.43-.43.58,0,1.17,0,1.75.03.13,0,.25.19.37.29-.13.09-.26.19-.4.25-.08.03-.18,0-.27,0-1.3,0-1.37.09-1.13,1.44Z"/><path class="cls-1" d="M165.33,99.68c.61.14,1.22-.03,1.78.33-.38.44-.81.29-1.17.26-.52-.04-.69.13-.63.63.04.3,0,.61,0,.98.51,0,.96-.03,1.41.01.17.02.32.2.48.31-.16.08-.32.22-.49.23-.55.03-1.09,0-1.64.01-.31,0-.42-.13-.42-.43,0-1.31,0-2.63,0-3.94,0-.27.07-.46.4-.46.58.01,1.17,0,1.75.03.15.01.28.2.42.31-.14.08-.28.21-.42.22-.32.03-.66.02-.98,0-.39-.02-.52.14-.49.52.03.3,0,.61,0,.95Z"/><path class="cls-1" d="M130.91,101.64c.13-.25.23-.4.29-.56.36-.93.71-1.87,1.06-2.8.06-.15.11-.32.22-.43.09-.08.25-.09.38-.12.03.12.13.27.09.36-.49,1.35-.99,2.7-1.52,4.03-.06.14-.31.32-.44.3-.2-.04-.45-.19-.53-.37-.23-.47-.38-.98-.57-1.48-.28-.75-.58-1.49-.83-2.25-.06-.2.03-.44.05-.67.18.16.44.28.51.47.44,1.11.83,2.24,1.3,3.51Z"/><path class="cls-1" d="M178.12,97.86c.18-.05.36-.14.54-.14.8-.02,1.6-.03,2.4,0,.14,0,.27.16.41.25-.15.09-.3.26-.45.27-.79.05-.8.04-.81.82,0,.93,0,1.86,0,2.78,0,.3.04.64-.39.62-.38-.02-.36-.32-.36-.61,0-.98-.01-1.97,0-2.95.01-.49-.16-.71-.66-.68-.23.01-.46-.08-.69-.12,0-.08,0-.16,0-.23Z"/><path class="cls-1" d="M152.6,98.06c-.23.06-.46.16-.69.16-.46,0-.65.15-.63.64.03.95,0,1.89,0,2.84,0,.15.03.31-.03.43-.07.14-.22.25-.34.37-.13-.13-.35-.25-.36-.39-.05-.49-.03-.98-.03-1.47,0-.6-.01-1.2.01-1.81.02-.46-.19-.63-.62-.61-.16,0-.33,0-.48-.04-.08-.02-.15-.15-.17-.24,0-.06.1-.18.16-.19,1.06-.12,2.12-.22,3.15.09.01.07.02.14.03.21Z"/><path class="cls-1" d="M117.83,100.13c0,.62.02,1.24-.01,1.85,0,.16-.2.32-.3.47-.12-.15-.33-.29-.33-.44-.03-1.29-.03-2.58,0-3.87,0-.15.22-.3.34-.46.11.16.29.31.3.48.04.65.01,1.31.01,1.96h0Z"/><path class="cls-1" d="M851.95,86.7c-.06,3.81-1.03,7.6-3.4,10.94-1.82,2.57-4.16,4.51-7.25,5.35-3.39.93-6.57.32-9.45-1.67-3.43-2.36-5.42-5.71-6.47-9.69-.51-1.96-.75-3.95-.64-5.96.14-2.68.68-5.27,1.87-7.69,1.53-3.12,3.68-5.7,6.89-7.19,3.64-1.68,7.22-1.52,10.69.56,2.97,1.78,4.93,4.39,6.25,7.53,1.01,2.42,1.48,4.95,1.51,7.81ZM850.3,85.96c-.1-.92-.17-1.75-.29-2.58-.07-.5-.2-.99-.33-1.48-.82-3.28-2.4-6.1-5.06-8.25-2.3-1.86-4.92-2.61-7.85-2.17-1.39.21-2.67.75-3.84,1.53-2.46,1.62-4.1,3.91-5.21,6.59-.73,1.77-1.1,3.62-1.27,5.52-.02.23,0,.47,0,.78,4.01-2.97,7.95-5.88,11.9-8.8,3.97,2.95,7.93,5.88,11.96,8.86ZM828.59,95.3c1.07,1.86,2.37,3.47,4.14,4.65,2.49,1.66,5.2,2.24,8.13,1.45,1.81-.49,3.34-1.47,4.69-2.75.97-.92,1.74-1.99,2.43-3.13.11-.18.08-.29-.09-.41-.29-.2-.58-.41-.86-.62-2.78-2.06-5.57-4.11-8.34-6.18-.26-.19-.44-.18-.7.01-2.06,1.54-4.13,3.06-6.19,4.59-1.06.79-2.12,1.58-3.2,2.38ZM838.34,84.13c3.67,2.72,7.34,5.43,11.01,8.15.04-.06.07-.08.07-.11.18-.76.36-1.52.52-2.29.02-.1-.1-.26-.19-.33-.86-.65-1.73-1.29-2.6-1.93-2.55-1.89-5.1-3.78-7.66-5.67-.38-.28-.76-.56-1.15-.83-.1.07-.18.13-.26.19-2.38,1.75-4.76,3.51-7.13,5.26-1.33.98-2.66,1.97-3.99,2.95-.21.15-.27.31-.21.56.17.65.32,1.31.48,1.96.02.08.06.15.1.25,3.69-2.73,7.35-5.44,11.02-8.15Z"/><path class="cls-1" d="M832.71,109.5c.13,0,.23-.02.34-.02,1.39,0,2.78-.01,4.17.01.33,0,.68.08.99.22.54.23.83.84.75,1.42-.09.62-.37.93-1.04,1.07-.36.07-.73.1-1.16.15.82.57,1.6,1.1,2.38,1.64-.01.03-.02.05-.03.08-.67-.03-1.33.16-1.96-.37-.69-.59-1.48-1.07-2.23-1.6-.1-.07-.21-.13-.28-.23-.06-.08-.1-.2-.09-.29,0-.05.15-.11.24-.11.61,0,1.21,0,1.82,0,.25,0,.51,0,.76,0,.29-.01.47-.22.47-.52,0-.26-.18-.47-.44-.48-1.2,0-2.4,0-3.65,0v3.58h-1.04v-4.54Z"/><path class="cls-1" d="M849.3,111.33h3.89v.86h-3.9v.95h4.43v.9h-5.47v-4.52h5.46v.91h-4.41v.9Z"/><path class="cls-1" d="M843.54,109.34c.6.07,1.22.07,1.79.24,1.01.29,1.64,1.21,1.63,2.2-.01,1.08-.58,1.96-1.63,2.23-1.23.32-2.51.36-3.74-.05-1.03-.35-1.62-1.37-1.49-2.42.13-1.07.99-1.95,2.05-2.07.46-.05.92-.05,1.39-.08,0-.02,0-.04,0-.05ZM843.56,113.25c.36-.02.71-.03,1.06-.07.67-.07,1.14-.6,1.18-1.3.04-.73-.34-1.39-.97-1.45-.85-.08-1.71-.09-2.56,0-.69.07-1.05.7-1.01,1.48.04.69.48,1.19,1.15,1.27.38.04.77.04,1.15.06Z"/><path class="cls-1" d="M856.17,110.46v3.58s-.06.03-.09.03c-.95.12-.96.12-.96-.82,0-1.14.01-2.27,0-3.41,0-.3.1-.37.38-.36,1.13.01,2.25,0,3.38,0,1.47.01,2.27.82,2.28,2.28,0,.76,0,1.52,0,2.29h-1.06c0-.2,0-.39,0-.57,0-.63.01-1.26,0-1.89-.02-.71-.48-1.14-1.19-1.14-.89,0-1.78,0-2.72,0Z"/><path class="cls-1" d="M821.64,110.44c-.54,0-1.05,0-1.55,0-.63,0-1.26,0-1.88,0-.2,0-.4.01-.59.06-.67.17-1.04.71-.98,1.41.06.69.53,1.16,1.29,1.21.74.04,1.48.02,2.21.03.48,0,.97,0,1.43,0,.03.05.05.07.06.08.11.84.11.85-.72.85-1.02,0-2.05,0-3.07-.04-.92-.04-1.71-.4-2.11-1.29-.67-1.48.32-3.12,1.95-3.2,1.23-.06,2.47-.04,3.7-.07.2,0,.29.06.28.26,0,.21,0,.42,0,.69Z"/><path class="cls-1" d="M829.02,114.06h-1.05v-3.65c-.72,0-1.39,0-2.06,0-.58,0-.54.1-.54-.55,0-.11,0-.21.02-.34h6.17v.89h-2.53v3.66Z"/><path class="cls-1" d="M824.28,109.48v4.61c-.31,0-.6.02-.88-.01-.07,0-.19-.15-.19-.23-.01-1.38-.01-2.75,0-4.13,0-.08.14-.21.22-.22.26-.03.52-.01.84-.01Z"/><path class="cls-1" d="M852.24,109.01c-.22,0-.45.04-.66-.01-.16-.05-.37-.19-.41-.33-.05-.23.16-.35.38-.35.47,0,.95,0,1.42,0,.21,0,.37.09.37.33,0,.24-.15.36-.38.36-.24,0-.49,0-.73,0Z"/><path class="cls-1" d="M849.66,109.01c-.22,0-.44,0-.66,0-.24,0-.39-.13-.39-.36,0-.22.14-.35.39-.35.46,0,.92,0,1.38,0,.23,0,.39.09.39.35,0,.24-.15.35-.39.35-.24,0-.48,0-.73,0h0Z"/><path class="cls-1" d="M607.14,63.12c4.3.01,8.57.39,12.76,1.41,1.52.37,3.01.83,4.44,1.47,1.75.78,2.61,2.15,2.61,4.05.02,4.57-.47,9.08-1.6,13.51-1.65,6.46-4.69,12.18-9.07,17.19-1.78,2.04-3.72,3.92-5.75,5.71-.68.6-1.44,1.1-2.33,1.35-1.29.35-2.48.06-3.52-.71-.95-.71-1.85-1.52-2.72-2.33-2.41-2.25-4.62-4.68-6.54-7.36-3.58-4.98-5.86-10.52-7.03-16.53-.66-3.42-.97-6.86-1.01-10.35-.04-2.82,1.24-4.05,3.37-4.87,2.71-1.04,5.53-1.65,8.4-2.05,2.65-.37,5.32-.51,8-.51ZM607.48,64.26c-3.42.05-6.57.21-9.68.75-2.5.43-4.96,1.02-7.3,2.04-1.34.59-1.97,1.64-1.97,3.06,0,1.17.06,2.35.11,3.52.14,2.93.55,5.81,1.22,8.66,1.22,5.2,3.32,10.01,6.42,14.37,2.04,2.87,4.42,5.43,7.01,7.8.78.71,1.53,1.46,2.47,1.97.92.51,1.85.53,2.77,0,.42-.24.84-.5,1.2-.82,3.52-3.06,6.71-6.42,9.26-10.35,3.01-4.64,4.95-9.7,5.92-15.13.55-3.06.85-6.15.89-9.26,0-.54,0-1.08-.08-1.61-.19-1.23-1.05-1.91-2.13-2.3-1.26-.46-2.54-.92-3.84-1.25-4.12-1.05-8.32-1.4-12.29-1.45Z"/><path class="cls-1" d="M614.2,93.21c-.05.17-.08.28-.11.39-.42.04-.75-.23-.75-.64,0-.21.1-.41.13-.63.03-.2.02-.4.03-.59.01-.28.05-.56.03-.83-.02-.25-.03-.53-.15-.74-.21-.38-.49-.73-.76-1.1-.6.35-1.11.76-1.24,1.49-.08.47-.17.93-.26,1.4-.11.56-.4.83-.98.84-.47,0-.95-.02-1.42-.06-.38-.03-.64-.25-.76-.61-.09-.28-.15-.56-.24-.84-.03-.09-.11-.16-.16-.24-.1.08-.27.15-.29.25-.04.18-.01.38.02.57.03.22.02.39-.23.5-.08.03-.15.23-.13.33.17.8.17.81-.65.92-.29.04-.6.2-.9,0,.04-.18.07-.34.1-.51-.03-.01-.06-.02-.1-.04-.06.08-.12.17-.2.23-.06.05-.17.1-.22.07-.06-.02-.13-.15-.11-.2.09-.26.17-.53.31-.76.3-.5.64-.97.96-1.45.03-.04.03-.1.05-.17-.27-.01-.43.12-.51.33-.2.5-.53.9-.93,1.26-.18.16-.32.38-.42.6-.21.47-.39.96-.59,1.44-.25.62-.58.73-1.25.77-.07,0-.17-.12-.21-.2-.04-.09-.02-.21-.03-.38-.15.09-.25.15-.36.22-.17.1-.3.07-.32-.14-.06-.63.03-1.21.58-1.62.31-.23.62-.47.93-.7.32-.23.5-.54.48-.94-.04-.73-.09-1.46-.14-2.19,0-.07-.06-.13-.09-.19-.07.04-.18.05-.21.11-.39.65-.78,1.29-1.13,1.96-.12.23-.13.52-.15.79-.05.5-.24.91-.68,1.19-.24.16-.35.37-.33.65.01.24.01.47.02.71.02.27-.06.49-.22.71-.13.17-.16.44-.16.67,0,.32-.14.48-.46.49-.15,0-.3.03-.45.04-.47.03-.46.02-.51-.44,0-.09-.07-.18-.11-.27-.03,0-.05,0-.08.01-.03.22-.06.43-.09.65-.05.01-.1.02-.14.03-.07-.17-.17-.34-.2-.52-.06-.4.12-.73.37-1.03.12-.15.19-.36.3-.52.23-.34.46-.69.73-1,.16-.18.27-.33.24-.59-.06-.48-.03-.93.24-1.37.29-.46.24-.99.19-1.51-.07-.69-.11-1.36.21-2.02.14-.29.15-.68.11-1.01-.11-.91.11-1.73.58-2.5.19-.3.37-.61.58-.9.29-.41.44-.86.37-1.34-.18-1.24.32-2.11,1.37-2.71.33-.19.67-.35.98-.56.49-.33.96-.69,1.43-1.03.33-.24.64-.53,1-.7.23-.1.56-.09.81-.01.84.24,1.66.54,2.49.8.3.09.61.13.92.16.32.03.44-.1.42-.42-.03-.59-.32-.97-.89-1.12-.95-.25-1.92-.19-2.89-.17-.77.01-1.53.04-2.3,0-.46-.02-.91-.13-1.36-.24-.34-.09-.59-.32-.65-.69-.06-.38.14-.67.43-.89,1-.75,2.13-.95,3.34-.78.58.09,1.16.25,1.73.4.12.03.26.08.35.16.11.1.17.24.26.37-.13.07-.24.16-.38.2-.12.03-.26.01-.38-.02-.45-.13-.9-.27-1.36-.41-.11.2,0,.28.16.33.19.05.39.06.57.13.09.03.16.15.24.23-.09.06-.17.15-.27.17-1,.13-1.96.11-2.79-.57-.26-.21-1.02.03-1.11.34-.02.05.13.21.21.22.71.12,1.42.28,2.14.31.86.04,1.72-.03,2.59-.03.53,0,1.06,0,1.58.1,1.31.24,1.98,1.46,1.54,2.71-.04.11,0,.3.07.4.39.56.79,1.11,1.19,1.65.39.52.54,1.08.49,1.73-.03.43,0,.86.04,1.29.06.62.16,1.24.24,1.89h-.65c-.23-.87-.55-1.72-.28-2.65.16-.55.02-1.09-.31-1.57-.41-.6-.84-1.2-1.23-1.82-.16-.26-.35-.33-.62-.22-.2.08-.39.17-.65.28.79.33.72,1.03.88,1.61.06.22-.08.34-.3.35-.48.03-.82-.2-1.1-.55-.62-.77-1.24-1.54-1.87-2.31-.08-.09-.18-.17-.27-.25-.03.02-.06.04-.1.06.07.14.12.29.21.41.59.83,1.23,1.61,1.75,2.48.39.66.63,1.41.93,2.12.05.11.03.24,0,.39-.49-.23-.53-.79-.86-1.21-.17.46-.52.45-.91.39-.07-.01-.17.09-.25.13.08.06.16.16.25.18.14.04.3.01.45.03.22.03.38.14.38.44-.25-.04-.49-.07-.75-.11-.03.09-.05.18-.09.32.3.02.57.04.83.05.31,0,.53.12.68.4.05.1.2.18.31.2.22.03.45.01.68,0,.74-.02,1.38.21,1.91.72.09.09.19.2.31.22.53.1.89.46,1.25.82.46.46,1.01.64,1.65.58.14-.01.27-.08.4-.1.08-.02.18,0,.26,0-.02.09,0,.2-.05.26-.36.44-.84.67-1.4.72-.68.05-1.26-.22-1.79-.63-.24-.19-.52-.32-.77-.51-.09-.07-.19-.21-.17-.31.06-.41-.12-.61-.5-.7-.31-.08-.61-.19-.92-.28-.07-.02-.16.02-.34.05.21.15.36.24.49.36.07.06.11.14.16.22-.08.03-.17.09-.25.08-.34-.03-.66-.09-.9-.37-.08-.09-.2-.14-.23-.15-.21.13-.35.21-.49.3-.09.06-.18.12-.27.19.08.09.13.24.23.28.62.26,1.26.35,1.93.28.16-.02.31-.03.47-.05.02.03.04.05.06.08-.11.13-.2.29-.33.39-.57.48-1.24.44-1.91.36-.58-.07-1.1-.33-1.5-.77-.19-.22-.36-.5-.43-.77-.15-.66.06-.93.72-1.06.24-.05.48-.09.72-.13l.03-.11c-.1-.04-.2-.13-.3-.12-.3.02-.6.1-.89.12-.26.02-.53.05-.79,0-.5-.11-.67.01-.5.49.11.32.33.63.57.87.78.77.8.86.26,1.82-.32.56-.62,1.14-.59,1.82,0,.08.02.16.05.33.12-.14.2-.22.26-.31.09-.15.16-.31.24-.46.09-.17.21-.32.43-.22.21.09.21.26.15.44-.15.4-.29.81-.46,1.21-.16.38-.16.75-.02,1.13.03.08.08.14.12.22.31-.37.5-.43.69-.22.28.33-.17.35-.27.61.14.03.27.1.4.09.26-.02.51-.1.76-.13.34-.04.52-.23.57-.56.03-.2.1-.4.1-.6.02-.78.36-1.39.94-1.88.27-.23.55-.45.84-.65.29-.19.46-.44.5-.79.02-.19.06-.38.12-.57.09-.33.26-.39.55-.2.45.29.69.72.75,1.23.12,1.01.2,2.02.32,3.02.06.53.18,1.05.25,1.58.03.23,0,.48-.07.69-.04.12-.21.23-.35.28-.17.05-.27-.07-.29-.25,0-.05-.09-.08-.17-.15ZM607.4,90.09c-.32-.59-.61-1.1-.88-1.63-.26-.51-.19-.88.19-1.3.19-.21.39-.4.58-.61.17-.18.25-.38.13-.62-.2-.43-.4-.86-.62-1.28-.16-.31-.44-.39-.72-.18-.15.11-.27.28-.36.44-.27.54-.65.69-1.19.43q-.73-.34-1.07.37c-.19.38-.5.47-.8.17-.24-.24-.36-.12-.49.08-.06.09-.1.19-.13.3-.23.84-.48,1.67-.69,2.52-.08.3-.1.61-.11.92,0,.12.1.23.16.35.1-.07.22-.13.29-.22.32-.46.61-.94.94-1.4.09-.13.25-.29.39-.3.52-.04,1.05-.03,1.58-.02.13,0,.28.06.39.14.1.07.15.21.23.31-.1.07-.19.16-.3.2-.13.04-.27.05-.41.06-.19.01-.28.1-.25.29.04.3.07.6.14.89.02.07.13.18.2.18.91-.03,1.83-.07,2.82-.11ZM608.29,80.68c-.28,0-.49,0-.69,0-.2,0-.31.09-.31.28,0,.2.14.28.3.23.53-.15.85.11,1.11.53.05.08.12.15.19.21.27.25.52.18.62-.18.18-.67-.65-1.59-1.35-1.48-.02,0-.03.03-.06.06.04.07.08.15.19.34ZM604.08,82.58c-.15.41-.26.71-.37,1.02-.1.27.03.58.32.63.37.06.75.05,1.12.07.03-.05.06-.09.09-.14-.65-.33-.86-.97-1.15-1.58ZM613.99,87.87c-.28.09-.63.59-.63.82,0,.22.47.83.81.96-.06-.61-.12-1.19-.18-1.78ZM600.88,92.47s.08.04.11.06c.13-.18.27-.35.37-.55.03-.06-.05-.22-.12-.28-.04-.03-.21.03-.26.09-.18.2-.2.43-.1.68ZM604.83,91c-.16.23-.29.39-.38.57-.01.03.13.14.21.21.14-.14.29-.28.41-.44.02-.03-.11-.16-.23-.34ZM606.64,74.77c.23.07.42.14.61.17.06.01.17-.05.19-.11.03-.06,0-.18-.05-.23-.16-.16-.58-.08-.76.16Z"/><path class="cls-1" d="M598.39,68.81c.1-.29.18-.5.25-.71.17-.51.33-1.03.49-1.54.19-.58.27-.63.95-.59,0,.11,0,.23,0,.34,0,1.24,0,2.48,0,3.72,0,.63-.02.65-.71.63v-2.11s-.06-.01-.09-.02c-.27.84-.54,1.68-.85,2.61-.33-.9-.62-1.72-.91-2.53-.03,0-.05,0-.08.01,0,.54,0,1.08,0,1.62,0,.04,0,.09,0,.13,0,.65,0,.66-.74.67,0-.1,0-.21,0-.31,0-1.32.02-2.63-.01-3.95,0-.41.26-.35.49-.43.27-.09.33.07.4.27.25.7.52,1.39.81,2.17Z"/><path class="cls-1" d="M619.5,66.98c.27.06.49.08.68.17.12.05.22.19.27.32.32.8.61,1.61.92,2.41.04.09.08.18.18.26v-2.56c.58-.02.75.13.75.66,0,1.3,0,2.61-.01,3.91,0,.11,0,.21,0,.32-.57.03-.81-.13-1-.62-.27-.74-.55-1.47-.82-2.21-.05-.14-.11-.27-.16-.4-.03,0-.05,0-.08.01v2.62c-.68-.05-.74-.11-.74-.73,0-1.25,0-2.5,0-3.75,0-.12,0-.23,0-.4Z"/><path class="cls-1" d="M600.82,70.58c0-.19,0-.32,0-.45,0-1.32,0-2.65-.02-3.97,0-.3.09-.43.4-.44.27-.01.53-.08.8-.09,1.04-.07,1.66.72,1.3,1.7-.13.34-.14.59.04.94.46.88-.09,1.91-1.06,2.09-.46.08-.93.15-1.46.23ZM601.58,69.69c.9,0,1.19-.25,1.15-.95-.01-.21-.09-.41-.32-.41-.27,0-.53.08-.79.14-.02,0-.03.1-.03.15,0,.35,0,.7,0,1.08ZM601.59,67.65c.22-.03.42-.04.6-.1.36-.11.57-.57.44-.92-.11-.28-.53-.41-.86-.26-.07.03-.16.13-.16.21-.02.34,0,.68,0,1.06Z"/><path class="cls-1" d="M607.56,65.42c.67.07,1.33.07,1.96.24.81.21,1.11,1.58.45,2.21-.4.39-.34.69-.18,1.11.18.45.32.91.47,1.37-.59.16-.74.09-.93-.42-.14-.39-.27-.77-.4-1.16-.14-.4-.24-.46-.7-.33v1.91h-.68v-4.93ZM608.29,67.64c.42-.04.86.15,1.15-.27.18-.25.2-.57.02-.83-.29-.41-.75-.25-1.18-.33v1.43Z"/><path class="cls-1" d="M603.86,68.03c.1-.5.18-1.01.31-1.51.06-.22.2-.43.35-.61.57-.68,1.49-.63,1.96.12.18.29.31.64.38.98.16.76.1,1.52-.14,2.26-.09.28-.25.55-.44.78-.48.58-1.32.55-1.8-.03-.32-.38-.45-.83-.51-1.31-.03-.22-.03-.45-.05-.68-.02,0-.04,0-.06-.01ZM606.28,67.9c-.1-.42-.18-.84-.29-1.24-.07-.26-.23-.47-.54-.46-.33,0-.47.24-.55.51-.09.34-.16.69-.22,1.04-.1.56,0,1.1.27,1.59.09.17.34.37.5.36.17,0,.4-.22.47-.4.16-.44.24-.9.37-1.39Z"/><path class="cls-1" d="M615.05,68.14c.11.03.19.06.28.08.32.06.63.12,1,.19v-2.14c.26.04.47.07.69.1v4.84c-.2-.03-.39-.03-.56-.09-.07-.02-.13-.15-.13-.24-.01-.46-.02-.93,0-1.39,0-.25-.06-.38-.33-.41-.3-.03-.59-.1-.93-.15v1.98c-.26-.03-.48-.06-.72-.09v-4.85c.2.03.38.03.55.09.07.03.15.17.15.26.01.6,0,1.21,0,1.84Z"/><path class="cls-1" d="M613.47,67.17c-.15,0-.28-.01-.4,0-.2.02-.27-.07-.34-.25-.07-.17-.23-.39-.38-.41-.15-.02-.35.14-.5.27-.09.07-.13.22-.16.34-.17.69-.17,1.39-.02,2.08.03.14.08.33.18.4.16.11.39.22.57.19.14-.02.28-.23.36-.39.07-.15.07-.35.1-.55-.19-.02-.35-.03-.52-.05v-.71c.38,0,.74,0,1.1,0,.05,0,.15.11.15.16-.04.5-.05,1.01-.16,1.5-.12.5-.51.76-1.02.79-.52.04-1-.11-1.22-.61-.54-1.18-.53-2.39-.02-3.57.25-.58.86-.77,1.49-.57.56.18.88.7.81,1.35Z"/><path class="cls-1" d="M595.44,71.4c-.05-.21-.1-.39-.14-.56-.04-.18-.09-.35-.14-.56-.24.05-.46.08-.67.16-.09.03-.17.16-.21.25-.06.16-.09.33-.12.5-.14.64-.19.68-.92.72.1-.44.19-.86.28-1.29.23-1.03.46-2.06.69-3.09.12-.52.11-.52.65-.62.08-.01.16-.02.27-.04.33,1.45.67,2.88,1,4.34-.24.06-.45.12-.7.19ZM594.99,69.54c-.07-.3-.13-.57-.2-.85-.02,0-.05,0-.07,0-.07.3-.14.6-.22.96.2-.05.33-.08.49-.12Z"/><path class="cls-1" d="M591.37,67.98v3.83c.51-.19.97-.35,1.42-.52.2.55.11.75-.39.94-.57.21-1.15.42-1.78.65,0-.17,0-.3,0-.42,0-1.24,0-2.47,0-3.71q0-.68.75-.76Z"/><path class="cls-1" d="M617.9,66.52c.28.06.49.1.72.15v4.81c-.54.08-.71-.06-.71-.56,0-1.32,0-2.65,0-3.97,0-.13,0-.26,0-.44Z"/><path class="cls-1" d="M623.8,72.95c-.63-.04-.69-.1-.69-.68,0-1.29,0-2.58,0-3.87,0-.1,0-.21,0-.36.21.06.38.09.53.16.08.04.18.16.18.25.01,1.47,0,2.95,0,4.42,0,.02-.02.04-.03.08Z"/><path class="cls-1" d="M609.32,87.75c.24.33.46.6.64.9.1.15-.03.23-.18.25-.34.03-.64-.25-.61-.6.01-.17.09-.34.15-.55Z"/><path class="cls-1" d="M509.73,83.56c-.07.1-.11.22-.2.28-.76.48-1.53.96-2.31,1.43-.25.15-.37-.04-.51-.21-.6-.74-1.2-1.47-2.1-1.89-1.67-.77-3.29-.74-4.88.22-.68.41-1.26.92-1.68,1.6-.2.33-.45.39-.78.19-.67-.41-1.34-.81-2-1.23-.35-.23-.37-.45-.07-.76,1.15-1.18,2.5-2.04,4.06-2.6,1.25-.45,2.54-.54,3.84-.49,1.23.05,2.37.47,3.49.97,1.11.49,1.99,1.28,2.86,2.09.11.1.17.25.27.39Z"/><path class="cls-1" d="M507.42,93.37c0-1.06-.02-2.13,0-3.19.01-.43-.14-.58-.55-.56-.31.02-.63.02-.64-.45,0-.54.07-.64.61-.64,1.44,0,2.88-.02,4.32.02.85.02,1.61.31,2.2.96,1.14,1.24.82,3.37-.63,4.22-.2.12-.43.21-.65.27-.3.09-.33.24-.2.5.38.75.76,1.5,1.12,2.25.18.37.48.4.84.38.49-.02.73.24.62.69-.04.16-.25.36-.4.38-.49.04-.99.06-1.46-.02-.21-.03-.43-.3-.54-.51-.4-.75-.75-1.53-1.12-2.3-.08-.16-.16-.33-.25-.48-.14-.24-.25-.63-.43-.67-.45-.1-.94-.05-1.42-.02-.07,0-.18.18-.18.28-.01.77,0,1.54,0,2.31,0,.33.24.33.47.33.38,0,.58.15.58.55,0,.44-.08.54-.53.54-.78,0-1.57.01-2.35,0-.54,0-.68-.18-.6-.7.04-.27.17-.38.46-.37.64.03.7-.02.71-.66,0-1.04,0-2.07,0-3.11h0ZM510.2,93.01s0,.02,0,.03c.46-.04.92-.04,1.37-.12.79-.13,1.16-.64,1.21-1.55.04-.63-.23-1.41-1.03-1.5-.94-.11-1.89-.11-2.83-.13-.08,0-.23.23-.23.36-.02.82-.02,1.65-.02,2.47,0,.29.13.44.43.45.36,0,.73,0,1.09,0Z"/><path class="cls-1" d="M499.57,91.93c0-.33,0-.58,0-.82,0-.22,0-.45,0-.67,0-.78,0-.78-.75-.88-.24-.03-.35-.15-.34-.38.01-.26-.05-.6.31-.63.55-.05,1.12-.03,1.67,0,.37.02.35.33.35.6,0,2.04,0,4.08,0,6.13,0,.45.02.9-.01,1.34-.03.41.1.59.54.57.16,0,.39.1.48.24.25.39.03.76-.43.78-.31.01-.62,0-.92,0q-.7,0-.91-.58c-.46.21-.91.45-1.38.61-1.12.38-2.14.09-3-.66-1.78-1.56-1.43-4.74.26-5.92,1-.7,2.82-.82,3.76.03.08.07.18.12.37.25ZM499.71,94.68c-.14-.44-.27-.89-.43-1.32-.46-1.25-2.42-1.65-3.47-.46-.77.87-.8,2.58-.12,3.54.61.86,1.95,1.11,2.85.54.84-.54,1.08-1.34,1.18-2.3Z"/><path class="cls-1" d="M457.44,88.46c1.03.1,2.07.12,3.07.31,1.01.19,1.75.83,2.03,1.85.37,1.34.13,2.55-1.06,3.4-.62.44-1.37.63-2.14.64-.52.01-1.04.01-1.55,0-.34,0-.49.12-.48.47.01.5.01,1.01,0,1.51-.01.39.13.55.54.53.56-.03.66.08.66.5,0,.36-.14.53-.53.52-.87-.02-1.73-.02-2.6,0-.29,0-.41-.12-.4-.4.01-.27-.07-.58.36-.62.78-.09.78-.1.78-.89,0-2.03,0-4.06-.01-6.08,0-.59-.04-.63-.62-.6-.27.01-.51.02-.52-.35-.01-.54.07-.68.49-.68.66-.01,1.31,0,1.97,0,0-.03,0-.06,0-.08ZM457.32,91.56s0,0,0,0c0,.52,0,1.03,0,1.55,0,.28.11.46.42.45.74-.03,1.48-.01,2.22-.1.57-.07,1.05-.39,1.33-.91.65-1.2-.08-2.65-1.43-2.8-.73-.08-1.48-.05-2.22-.08-.28,0-.32.16-.32.38,0,.5,0,1,0,1.51Z"/><path class="cls-1" d="M547.58,97.61c-.51.22-.97.47-1.47.63-1.38.45-2.94-.29-3.59-1.58-.7-1.36-.64-2.67.07-4,.85-1.61,3.15-2.04,4.58-.98.1.08.21.15.42.29,0-.82.01-1.52-.02-2.22,0-.07-.31-.18-.48-.19-.47-.03-.63-.17-.55-.61.03-.15.23-.37.38-.39.46-.05.92-.03,1.38-.02.37.01.48.24.48.59-.02,2.49-.02,4.98-.03,7.47,0,.56.02.59.59.59.35,0,.47.14.46.48-.01.32-.08.55-.48.52-.25-.02-.5,0-.76,0q-.73,0-1-.59ZM543.22,94.72s-.07.02-.1.03c.13.46.21.95.4,1.38.37.86,1.11,1.19,2,1.16.89-.03,1.52-.45,1.88-1.29.35-.8.34-1.6.04-2.41-.49-1.36-2.08-1.86-3.27-1.02-.73.52-1.01,1.27-.96,2.15Z"/><path class="cls-1" d="M533.05,91.89q.27-.67.97-.67c.31,0,.62.01.92.01.36,0,.5.2.49.54-.01.32-.11.52-.5.5-.55-.03-.62.05-.62.63,0,1.29,0,2.57-.02,3.86,0,.33.13.44.45.45.2,0,.47.05.6.19.27.3.05.76-.36.79-.46.03-.93.05-1.38-.01-.2-.03-.38-.27-.64-.47,0,0-.13.04-.22.11-1.7,1.23-4.2.41-4.89-1.64-.36-1.07-.34-2.15.12-3.15.53-1.15,1.43-1.85,2.77-1.91.81-.04,1.52.14,2.12.68.05.04.12.06.2.1ZM528.77,94.78c.03.24.05.53.11.8.21.96,1.04,1.67,1.97,1.7,1.13.04,1.87-.49,2.2-1.54.19-.59.1-1.18.04-1.78-.13-1.31-1.82-2.38-3.29-1.44-.82.53-.95,1.35-1.03,2.26Z"/><path class="cls-1" d="M479.25,91.9c.41-.22.74-.43,1.09-.59,1.04-.46,2.97-.22,3.58,1.34.18.47.29.99.32,1.5.05.81.02,1.62.01,2.43,0,.58,0,.59.57.62.34.02.56.1.55.51,0,.32-.15.48-.45.48-.84.01-1.68.01-2.52,0-.27,0-.4-.16-.4-.43,0-.26.01-.52.35-.57.23-.04.57,0,.66-.14.13-.19.09-.51.08-.77-.02-.85-.02-1.71-.1-2.55-.11-1.1-1.22-1.61-1.98-1.55-.97.09-1.69.89-1.71,1.95-.02.84,0,1.68-.02,2.52-.01.41.14.54.54.52.5-.02.57.08.57.54,0,.34-.15.48-.49.47-.8-.01-1.6,0-2.39,0-.29,0-.53-.05-.53-.43,0-.43.11-.56.53-.58.6-.03.58-.03.58-.62,0-1.22,0-2.43.01-3.65,0-.57-.03-.6-.58-.6-.36,0-.54-.19-.54-.59,0-.34.19-.48.5-.49.38,0,.76.02,1.13-.02.5-.05.63.24.64.68Z"/><path class="cls-1" d="M467.24,95.3c-.71,0-1.43,0-2.14,0-.52,0-.64.25-.4.73.67,1.33,1.88,1.41,2.84,1.12.41-.13.75-.36.99-.73.19-.3.79-.46,1.09-.3.28.14.2.39.09.58-.36.62-.84,1.13-1.51,1.4-.77.31-1.56.33-2.38.18-1.55-.29-2.34-1.65-2.48-3-.09-.89.02-1.77.48-2.55.53-.92,1.33-1.48,2.41-1.58.25-.02.5,0,.75-.01,1.17-.05,2.6.95,2.83,2.08.11.53.18,1.06.25,1.59.05.38-.17.53-.53.53-.77,0-1.54,0-2.31,0,0,0,0-.02,0-.03ZM466.68,94.29s0,.01,0,.02c.53,0,1.06,0,1.59,0,.58,0,.71-.21.49-.75-.29-.72-.83-1.13-1.56-1.33-1.09-.31-2.47.54-2.63,1.62-.05.32.03.47.39.46.57-.02,1.14,0,1.72,0Z"/><path class="cls-1" d="M486.02,94.68c.11-1.13.44-2.11,1.31-2.85,1.48-1.27,4.37-.89,5.2,1.03.58,1.34.63,2.63-.06,3.9-.71,1.31-2.05,1.84-3.58,1.58-1.12-.19-2-.75-2.41-1.84-.22-.58-.31-1.2-.46-1.81ZM487.29,94.75c.02.22.02.42.05.61.15,1,.86,1.75,1.8,1.9,1.01.17,1.91-.27,2.33-1.16.35-.72.34-1.48.18-2.25-.36-1.65-2.36-2.2-3.62-1.1-.6.53-.72,1.26-.75,2Z"/><path class="cls-1" d="M502.21,70.69c.07.85,0,.93-.82,1.07-.24.04-.48.14-.71.24-.31.14-.45,0-.52-.27-.09-.35-.19-.7-.25-1.06-.22-1.35-.66-2.62-1.29-3.83-.31-.6-.57-1.21-.87-1.81-.15-.31-.09-.52.23-.62.79-.24,1.58-.47,2.37-.69.28-.08.42.12.49.35.22.69.47,1.38.63,2.09.24,1.06.43,2.13.62,3.21.08.44.08.89.12,1.34Z"/><path class="cls-1" d="M502.4,70.69c.19-1.17.34-2.34.6-3.5.23-1.05.57-2.07.86-3.1.09-.34.29-.45.63-.35.72.22,1.45.41,2.16.64.44.14.49.3.29.72-.31.64-.62,1.28-.94,1.92-.69,1.35-1.09,2.8-1.36,4.28-.14.76-.26.85-1,.59-.17-.06-.34-.13-.51-.17-.58-.13-.62-.18-.61-.79,0-.07,0-.14,0-.21-.04,0-.07-.01-.11-.02Z"/><path class="cls-1" d="M525.21,91.89c.05-.1.11-.17.13-.24.08-.5.45-.42.78-.39.33.03.38.28.38.55,0,.55-.01,1.09-.01,1.64,0,.31-.14.45-.46.46-.71.03-.74,0-1.02-.55-.71-1.39-2.5-1.62-3.6-.34-.66.76-.6,3.09.27,3.78.98.79,2.81.56,3.35-.52.19-.38.41-.81.99-.75.42.05.55.21.4.61-.65,1.74-2.39,2.59-4.16,2.13-1.25-.32-1.95-1.12-2.39-2.25-.54-1.38.06-3.48,1.27-4.34,1.03-.73,2.75-.96,4.08.21Z"/><path class="cls-1" d="M509.3,65.97c.15.08.33.12.44.23.54.53,1.07,1.06,1.57,1.62.28.31.22.54-.17.72-1.25.57-2.34,1.37-3.22,2.42-.58.69-1.04,1.48-1.53,2.24-.27.43-.37.45-.69.08-.21-.25-.46-.48-.7-.71-.22-.21-.27-.42-.13-.71.49-.97.89-1.98,1.45-2.91.67-1.12,1.65-1.99,2.65-2.82.08-.07.2-.1.32-.15Z"/><path class="cls-1" d="M499.88,72.26c-.04.07-.08.19-.16.27-.29.3-.58.6-.88.89-.21.21-.34.07-.46-.12-.32-.52-.62-1.06-.97-1.56-.98-1.4-2.28-2.44-3.8-3.2-.46-.23-.5-.39-.14-.77.52-.54,1.05-1.07,1.58-1.6.21-.21.42-.23.67-.03,1.14.94,2.21,1.93,2.95,3.23.51.9.99,1.81,1.22,2.89Z"/><path class="cls-1" d="M513.74,72.91c-.06.29-.19.39-.45.43-.85.13-1.71.24-2.55.42-1.04.22-1.96.73-2.84,1.29-.26.16-.5.36-.75.53-.32.22-.49.16-.57-.21-.09-.37-.19-.73-.23-1.1-.02-.16.07-.36.17-.49.99-1.18,2.12-2.18,3.57-2.76.7-.28,1.41-.54,2.12-.79.41-.14.66-.03.79.37.26.77.5,1.54.75,2.31Z"/><path class="cls-1" d="M497.96,75.76c-.87-.52-1.63-1.04-2.46-1.43-1.2-.57-2.46-.97-3.81-.99-.67-.01-.8-.18-.59-.82.2-.62.4-1.25.63-1.86.19-.49.37-.57.87-.4.7.23,1.41.47,2.08.77,1.01.45,1.92,1.08,2.71,1.86.24.23.45.49.67.75.24.28.34.59.21.97-.13.38-.21.78-.31,1.16Z"/><path class="cls-1" d="M513.87,75.79c-.13.71-.25,1.43-.4,2.14-.09.41-.34.48-.73.32-.45-.18-.91-.35-1.39-.44-1.51-.28-3.02-.27-4.52.13-.17.05-.37-.02-.56-.03.02-.17.03-.35.06-.51.04-.19.14-.37.17-.56.06-.44.34-.67.71-.86,1.88-.94,3.86-1.23,5.93-.97.59.08.69.18.72.78Z"/><path class="cls-1" d="M492.02,74.9c.88.04,1.76.03,2.63.15,1.07.14,2.08.54,3.02,1.07.21.12.36.38.47.61.13.26.18.56.26.84.12.37.02.5-.37.43-.42-.08-.85-.16-1.27-.24-1.66-.3-3.27-.1-4.84.53-.35.14-.6.05-.66-.31-.14-.81-.25-1.62-.33-2.44-.01-.14.2-.35.36-.43.22-.1.48-.11.73-.15,0-.01,0-.03.01-.04Z"/><path class="cls-1" d="M500.67,79.93c-.28.06-.47.14-.66.15-2.09.09-3.94.82-5.6,2.08-.57.43-.66.43-1.07-.14-.4-.55-.77-1.13-1.13-1.71-.23-.38-.18-.56.22-.78.34-.18.7-.35,1.07-.48,1.58-.58,3.22-.81,4.9-.64.29.03.58.25.83.42.45.31.88.67,1.43,1.09Z"/><path class="cls-1" d="M504.04,79.95c.64-.52,1.14-1,1.71-1.35.29-.18.72-.17,1.08-.19,1.29-.09,2.57.01,3.8.46.55.2,1.09.42,1.63.65.3.13.46.39.28.68-.46.73-.95,1.44-1.47,2.13-.06.09-.39.1-.49.02-1.04-.82-2.17-1.48-3.45-1.84-.76-.21-1.55-.3-2.33-.44-.23-.04-.46-.08-.75-.13Z"/><path class="cls-1" d="M473.59,91.87c.61-.53,1.26-.83,2.06-.74.55.06.86.52.58,1.01-.07.13-.35.21-.52.19-.5-.04-.97,0-1.4.3-.54.38-.68.96-.71,1.54-.05.88-.01,1.76-.02,2.64,0,.41.27.4.55.39.29,0,.53.02.56.4.03.45-.07.58-.54.59-.77.01-1.54,0-2.31,0-.3,0-.53-.07-.53-.44,0-.41.13-.55.54-.57.55-.02.57-.04.57-.58,0-1.25,0-2.49,0-3.74,0-.37-.1-.58-.53-.57-.41,0-.59-.21-.59-.59,0-.39.24-.49.59-.48.29,0,.59,0,.88,0q.62,0,.82.63Z"/><path class="cls-1" d="M538.98,91.91c.61-.6,1.3-.88,2.12-.76.47.07.63.27.59.74-.03.31-.16.45-.51.45-.43,0-.91.03-1.29.21-.64.3-.86.92-.87,1.6-.02.89-.02,1.79-.02,2.68,0,.33.19.4.47.38.34-.03.63.03.65.46.01.34-.11.52-.49.52-.81,0-1.62,0-2.43.02-.35,0-.46-.17-.47-.49,0-.32.1-.49.45-.51.68-.03.68-.04.68-.73,0-1.18.01-2.35.02-3.53,0-.6,0-.62-.59-.65-.38-.02-.58-.19-.57-.57,0-.38.24-.5.58-.49.28,0,.56,0,.84,0q.65,0,.86.67Z"/><path class="cls-1" d="M517.85,94.26c0,.81.02,1.62,0,2.43-.01.36.09.5.47.49.51-.02.63.12.68.52.04.35-.15.48-.43.49-.85.02-1.71.02-2.56,0-.29,0-.47-.17-.48-.48,0-.32.14-.52.49-.55.6-.06.59-.06.6-.65,0-1.23.01-2.46.04-3.69,0-.37-.12-.54-.51-.53-.44,0-.63-.2-.62-.6.02-.42.31-.48.65-.48.38,0,.76,0,1.13,0,.38-.02.54.16.53.52,0,.84,0,1.68,0,2.52Z"/><path class="cls-1" d="M517.86,89.27c0,.63-.08.72-.64.72-.62,0-.71-.08-.71-.64,0-.74.06-.82.67-.82.63,0,.68.05.68.75Z"/><path class="cls-1" d="M277.52,93.57c-1.08.83-2.12.89-3.27.53-.39-.12-.9-.08-1.29.06-2.66.99-5.31,1.08-7.94-.05-1.14-.49-1.87-1.35-1.98-2.63-.06-.71-.1-1.44-.06-2.15.1-1.7.95-2.88,2.58-3.44,1.54-.52,3.09-.99,4.64-1.48,1.34-.43,1.88-1.17,1.75-2.39-.11-1.02-.88-1.65-2.21-1.75-.56-.04-1.13-.04-1.68.02-.9.1-1.65.5-1.86,1.45-.13.57-.42.69-.92.66-.31-.02-.63,0-.94,0-1.44,0-1.61-.21-1.27-1.64.25-1.05.89-1.81,1.85-2.23,2.52-1.11,5.13-1.07,7.69-.24,1.67.54,2.51,1.86,2.49,3.68-.02,2.75,0,5.5,0,8.25,0,2.2.28,2.59,2.41,3.36ZM271.93,86.71c-.75.25-1.39.48-2.04.68-.65.21-1.32.38-1.97.59-.87.29-1.59.77-1.77,1.74-.27,1.44.43,2.35,1.96,2.63,1.98.36,3.51-.31,3.79-1.65.01-.06.03-.12.03-.18,0-1.24,0-2.48,0-3.82Z"/><path class="cls-1" d="M261.64,77.7c-.26.89-.4,1.52-.65,2.12-.08.19-.41.35-.65.4-.39.07-.81.04-1.22.05-1.85.08-2.54.78-2.54,2.62,0,3.22,0,6.44,0,9.67,0,2.07,0,2.03-2.1,2.07-.86.01-1.04-.3-1.04-1.09.04-3.66.11-7.32,0-10.98-.09-2.89,1.25-4.2,3.92-4.64,1.31-.21,2.66-.15,4.26-.22Z"/><path class="cls-1" d="M247.1,77.99c.94,0,1.74,0,2.55,0,.66,0,.52.5.52.88,0,2.03,0,4.07,0,6.1,0,2.91-.02,5.82.02,8.73,0,.66-.12.94-.87.93-2.22-.02-2.22.02-2.22-2.22,0-4.47,0-8.95,0-13.42,0-.28,0-.56,0-1Z"/></g></svg>