<?xml version="1.0" encoding="UTF-8"?>
<svg id="Layer_2" data-name="Layer 2" xmlns="http://www.w3.org/2000/svg" viewBox="0 0 252.75 163.12">
  <defs>
    <style>
      .cls-1 {
        fill: #6ee956;
        stroke-width: 0px;
      }
    </style>
  </defs>
  <g id="Layer_1-2" data-name="Layer 1">
    <g>
      <path class="cls-1" d="m99.3,88.59c.24.08.51.11.7.25.28.2.46.14.68-.07.42-.39.72-.41,1.21-.07-.13.06-.22.11-.32.16-.43.21-.61.64-.44,1.05.17.44.52.63.9.5.4-.13.62-.52.54-.94-.03-.18-.15-.38.19-.49.01.14.04.26.04.38-.01.5.26.87.68.89.39.02.78-.34.82-.81.08-.76-.43-1.38-1.19-1.07-.03.01-.07,0-.1,0-.2-.59.25-1.15.85-1.04.25.04.37,0,.39-.29.02-.35.11-.69.19-1.11.43.3.4.67.42.98.02.37.07.5.5.4.51-.11.88.44.75,1.08-.04,0-.09,0-.13,0-.57-.19-.98.03-1.14.63-.15.57.13,1.11.64,1.22.44.1.91-.32.85-.77,0-.07-.06-.15-.04-.21.03-.09.1-.16.16-.24.05.09.14.18.14.27,0,.16-.07.33-.05.49.05.36.36.64.71.67.31.03.61-.18.75-.52.12-.31.03-.72-.23-.92-.14-.11-.31-.18-.48-.28.13-.24.34-.28.57-.26.1.01.24.03.3.1.43.49.88.39,1.36.1.08-.05.21,0,.32,0-.04.09-.05.2-.12.28-1.27,1.43-1.76,3.14-1.78,5.01,0,.33-.08.46-.44.46-1.91-.02-3.83,0-5.74,0-.58,0-.56,0-.57-.56-.03-1.59-.42-3.07-1.36-4.38-.18-.26-.4-.49-.61-.74.03-.05.05-.1.08-.15Z"/>
      <path class="cls-1" d="m75.75,105.4c-1.09,0-1.92-.27-2.4-1.15-.47-.87-.44-1.79.04-2.66.35-.64.96-.94,1.67-1.07,1.31-.25,2.63.37,2.97,1.45.55,1.77-.28,3.45-2.28,3.43Zm-1.94-2.46c-.01,1.15.69,1.87,1.82,1.86,1.08,0,1.79-.73,1.8-1.82,0-1.15-.67-1.86-1.78-1.87-1.15-.01-1.83.67-1.84,1.83Z"/>
      <path class="cls-1" d="m93.76,100.81c-.13.3-.27.62-.44,1.01-.25-.53-.69-.67-1.13-.69-.43-.02-.87.08-1.31.14-.07,0-.15.05-.18.1-.13.21-.33.44-.33.66,0,.29.32.4.59.42.43.03.87.01,1.3.05.33.03.67.09.98.2.89.31.97,1.59.33,2.08-.35.27-.78.49-1.21.57-.76.15-1.53.05-2.24-.32-.18-.09-.38-.12-.63-.19.12-.28.26-.61.45-1.04.16.63.61.78,1.03.9.58.17,1.19.2,1.76-.08.18-.09.35-.26.46-.44.19-.32.04-.72-.32-.81-.36-.09-.73-.1-1.1-.14-.43-.04-.87-.04-1.28-.12-.4-.08-.72-.33-.81-.77-.1-.5-.05-.96.38-1.31.7-.56,1.5-.65,2.35-.53.22.03.43.13.66.18.22.05.44.07.71.11Z"/>
      <path class="cls-1" d="m106.55,100.56h.95c-.25.63-.09,1.26-.12,1.87,0,.05.12.16.18.16.92.01,1.85,0,2.76,0v-2.02h.87c-.03.23-.08.49-.08.74,0,1.18,0,2.36,0,3.54,0,.16.07.32.11.51h-.99c.27-.63.09-1.3.13-1.95,0-.06-.13-.18-.2-.18-.87-.01-1.73,0-2.6,0-.07,0-.19.12-.2.19-.01.54,0,1.08,0,1.62,0,.1.08.19.14.31h-.98c.03-.22.09-.43.09-.65,0-1.18,0-2.36,0-3.54,0-.19-.05-.39-.09-.62Z"/>
      <path class="cls-1" d="m140.58,102.42v.93c-.21-.05-.4-.12-.6-.12-.43-.02-.87,0-1.3,0-.2,0-.28.07-.28.28,0,.32.01.65,0,.98,0,.23.1.29.3.29.83,0,1.66,0,2.49-.01.16,0,.31-.11.49-.17v.84h-4.08c.03-.34.08-.62.08-.91,0-1.12,0-2.24,0-3.36,0-.18-.06-.36-.1-.62h3.88v.7c-.28-.03-.55-.09-.82-.09-.64-.01-1.28,0-1.91,0-.26,0-.34.09-.33.34.01.28.01.55,0,.83,0,.21.07.31.29.3.47,0,.94,0,1.41-.01.15,0,.3-.1.48-.16Z"/>
      <path class="cls-1" d="m83.6,100.55h.81c0,.5-.02.97-.02,1.44,0,.61.01,1.23,0,1.84-.03.96-.58,1.52-1.54,1.55-.57.01-1.15-.02-1.72-.11-.62-.1-.96-.56-1-1.16-.06-.96-.05-1.92-.08-2.88,0-.21-.04-.42-.06-.66h.88c-.02.31-.05.62-.06.93,0,.75,0,1.49,0,2.24,0,.56.21.88.77.96.44.07.91.06,1.36-.02.54-.09.73-.37.74-.95.01-.81,0-1.61,0-2.42,0-.24-.05-.49-.07-.76Z"/>
      <path class="cls-1" d="m101.27,105.37h-.95c.03-.33.08-.66.08-.99.01-1.09.01-2.19,0-3.28,0-.18-.07-.36-.11-.56.85,0,1.7,0,2.54,0,.36,0,.73,0,1.07.11.6.18.86.77.75,1.5-.1.66-.51,1.07-1.14,1.1-.66.03-1.32.02-1.98,0-.28,0-.39.08-.37.36.02.43,0,.87.02,1.3,0,.14.06.27.1.45Zm.97-2.7h0c.18,0,.36,0,.54,0,.18,0,.36-.02.54-.05.48-.08.7-.35.67-.81-.03-.45-.25-.63-.78-.64-.58,0-1.15.02-1.73,0-.28-.01-.33.1-.32.33.01.26.01.53,0,.79-.02.28.07.4.37.38.24-.02.48,0,.72,0Z"/>
      <path class="cls-1" d="m126.21,105.38h-.96c.04-.24.1-.48.1-.71.01-1.2,0-2.41,0-3.61,0-.16-.06-.31-.1-.52.26,0,.53,0,.8,0,.82,0,1.64-.01,2.45.04.73.04,1.12.53,1.1,1.25-.01.88-.4,1.38-1.15,1.42-.68.04-1.37.02-2.06,0-.26,0-.33.08-.33.33.02.41,0,.82.01,1.23,0,.17.07.35.12.56Zm1.07-4.23s0,.02,0,.02c-.31,0-.63-.02-.94.01-.09,0-.23.13-.24.21-.03.36-.02.72,0,1.08,0,.07.1.19.15.19.74-.02,1.49-.02,2.23-.09.33-.03.49-.36.47-.78-.01-.34-.19-.55-.52-.58-.38-.04-.77-.04-1.15-.06Z"/>
      <path class="cls-1" d="m132.34,103.26v2.1h-.91c.04-.25.1-.51.1-.76.01-1.15,0-2.31,0-3.46,0-.18-.06-.35-.1-.58-.03.02,0-.02.02-.02,1.07,0,2.14-.02,3.21.03.8.04,1.12.51,1.1,1.39-.02.78-.45,1.27-1.2,1.29-.74.02-1.49,0-2.23,0Zm1.13-2.08h0c-.25,0-.51.01-.76-.01-.34-.04-.48.08-.44.43.04.34-.08.79.1,1,.15.17.63.07.96.07.39,0,.79,0,1.18-.06.42-.06.64-.38.62-.8-.02-.38-.24-.59-.69-.63-.32-.02-.65,0-.97,0Z"/>
      <path class="cls-1" d="m107.97,95.41v.86h-6.73v-.86h6.73Z"/>
      <path class="cls-1" d="m71.6,104.58v.82c-1.39-.03-2.77,0-4.09-.01.04-.3.1-.57.11-.85.01-1.11.02-2.21,0-3.32,0-.21-.08-.42-.12-.65h.91c-.02.28-.06.56-.06.84,0,1,0,2,0,2.99,0,.27.05.39.36.38.77-.02,1.54,0,2.31-.01.19,0,.37-.11.59-.17Z"/>
      <path class="cls-1" d="m116.39,105.39c.04-.25.11-.46.11-.68.01-1.2.01-2.4,0-3.61,0-.17-.07-.34-.11-.54h.89c-.02.3-.06.6-.06.9,0,.99,0,1.97-.01,2.96,0,.24.04.35.31.35.83-.01,1.66,0,2.49-.02.15,0,.3-.13.46-.21v.87c-1.05,0-2.1-.02-3.14-.02-.33,0-.66,0-.95,0Z"/>
      <path class="cls-1" d="m114.36,105.37h-1c.03-.27.08-.53.08-.79,0-1.16,0-2.31,0-3.47,0-.17-.05-.35-.09-.55h.94c-.17.55-.14,4.48.07,4.81Z"/>
      <path class="cls-1" d="m87.51,105.37h-.94c.04-.25.12-.49.12-.73.01-1.15.01-2.31,0-3.46,0-.19-.06-.38-.1-.6h.85c0,.79-.04,1.6-.02,2.41.02.79-.1,1.59.09,2.39Z"/>
      <path class="cls-1" d="m122.22,100.55h.92c-.2.82-.09,1.63-.09,2.43,0,.78-.11,1.58.09,2.38h-.92c.04-.26.1-.51.1-.76.01-1.13.01-2.26,0-3.39,0-.2-.06-.41-.11-.67Z"/>
    </g>
    <g>
      <path class="cls-1" d="m175.95,46.91v-.89c.34,1.04.59,2.29,1.97,2.15,1.07-.11,1.37-1.17,1.47-2.18.05,0,.1.02.15.02.02.32.05.63.08,1,1.08-.94,1.98-1.97,2.5-3.28.39-.98.02-2.04-.87-2.62-.48-.31-.79-.71-.83-1.29.67.71,1.33,1.4,1.98,2.09.04,0,.08-.01.13-.02-.1-.52-.16-1.06-.31-1.56-.15-.49-.4-.96-.54-1.46.74.77.94,1.76,1.08,2.83.74-.5.72-1.32.99-2.01.12.54.09,1.13-.25,1.51-.97,1.08-.86,2.56-1.56,3.74.7.08,1.13-.14,1.23-.68.1-.49.08-1,.11-1.51.61.74.19,2.21-.7,2.55q-1.21.46-2.03,1.6c.83.25,1.65-.07,2.39-.85-.07.18-.11.39-.22.53-.44.56-1.08.68-1.74.77-.54.07-1.12.01-1.56.55.67-.05,1.3-.1,1.95-.16-.11.76-.46,1.16-1.08,1.3-.22.05-.45.08-.68.11-.46.06-.63.33-.54.77.13.6,0,1.12-.33,1.64-.19.31-.24.71-.29,1.09-.06.43-.22.76-.68.78-.47.01-.63-.3-.71-.74-.09-.46-.3-.89-.42-1.35-.11-.4-.24-.81-.23-1.21.01-.86.05-.9-.83-1.01-.78-.1-1.27-.46-1.52-1.35.68.04,1.31.08,1.94.11.02-.03.03-.07.05-.1-.28-.11-.55-.26-.84-.33-.59-.14-1.22-.19-1.79-.39-.44-.15-.84-.46-.78-1.08.49,1.04,1.44.91,2.33.97-.58-.62-.89-1.51-1.93-1.63-.64-.07-.97-.59-1.01-1.23-.03-.44,0-.89,0-1.33.06,0,.13,0,.19,0,.03.48.03.97.11,1.45.11.63.59.78,1.28.81-.73-1.18-.59-2.58-1.48-3.64-.34-.41-.38-1.08-.56-1.63.06-.02.13-.05.19-.07.26.68.51,1.37.77,2.05.07,0,.15-.02.22-.02.16-1.02.34-2.04,1.09-2.83-.37.98-.84,1.93-.78,3.1.7-.74,1.35-1.43,1.97-2.08.08.29-.12.73-.55,1.07-1.4,1.12-1.62,2.02-.67,3.55.55.9,1.29,1.68,1.94,2.52.08-.04.15-.09.23-.13Z"/>
      <path class="cls-1" d="m186.04,57.57h-.99c-.58-1.56-1.38-2.02-2.94-1.71-.52.1-.92.38-1.14.87-.33.74-.08,1.43.68,1.67.89.28,1.82.48,2.72.72,1.61.43,2.31,1.54,1.87,3.12-.11.42-.39.86-.71,1.14-1.17,1.02-3.6,1.1-4.88.23-.87-.59-1.23-1.42-1.21-2.49h1.02c.02.05.05.12.06.19.42,1.82,2.68,2.59,4.17,1.42.79-.62.69-1.89-.23-2.28-.63-.27-1.32-.4-1.98-.58-.37-.1-.74-.2-1.11-.3-.9-.26-1.56-.76-1.64-1.77-.09-1.06.26-1.94,1.17-2.52,1.2-.77,3.3-.6,4.39.33.53.45.77,1.07.73,1.97Z"/>
      <path class="cls-1" d="m158.87,63.87c-.08.03-.09.05-.11.05-1.11.06-1.11.06-1.48-.97-.2-.56-.27-1.3-.67-1.59-.38-.28-1.11-.1-1.68-.09-.59,0-1.31-.15-1.73.13-.39.26-.46,1.01-.66,1.54,0,.02-.01.04-.02.05q-.36,1.03-1.51.9c.35-.92.69-1.83,1.03-2.74.71-1.9,1.45-3.8,2.13-5.71.19-.53.56-.41.92-.42.33-.01.61-.02.76.4.97,2.73,1.97,5.44,2.95,8.16.03.09.05.18.07.29Zm-3.85-7.43l-.13.02c-.45,1.25-.9,2.5-1.37,3.8h2.83c-.46-1.31-.89-2.56-1.33-3.81Z"/>
      <path class="cls-1" d="m170.04,61.04h-4.73c-.06,1.12.4,1.92,1.22,2.16.89.26,1.7-.07,2.22-.97.31-.54.73-.18,1.13-.3-.26,1.25-1.13,2.05-2.35,2.21-1.34.18-2.55-.4-3.05-1.56-.56-1.3-.53-2.63.17-3.88.63-1.11,1.82-1.59,3.11-1.34,1.23.24,1.98,1.05,2.16,2.37.06.4.07.8.12,1.31Zm-4.73-.9h3.56c-.03-1.2-.68-1.91-1.72-1.93-1.01-.02-1.79.78-1.83,1.93Z"/>
      <path class="cls-1" d="m187.21,60.73c.13-.56.19-1.14.4-1.66.51-1.31,1.69-1.96,3.14-1.79,1.28.15,2.24,1.1,2.47,2.43.16.89.09,1.76-.24,2.6-.54,1.41-1.69,2.04-3.27,1.83-1.26-.16-2.23-1.21-2.38-2.59-.03-.27-.04-.54-.05-.8-.02,0-.04-.01-.07-.02Zm5.02-.07c-.08-.47-.1-.87-.21-1.26-.21-.75-.81-1.19-1.56-1.24-.85-.05-1.42.26-1.76,1.01-.43.95-.48,1.93-.11,2.91.31.83.85,1.18,1.72,1.17.85-.01,1.33-.34,1.62-1.2.15-.47.21-.96.31-1.4Z"/>
      <path class="cls-1" d="m204.54,57.51c-1.05,2.71-2.05,5.38-3.12,8.02-.41,1.02-1.11,1.27-2.22.97v-.82c.14,0,.29-.01.43,0,.49.05.76-.16.99-.6.31-.61.32-1.15.08-1.79-.72-1.89-1.39-3.81-2.07-5.71.9-.31,1.13-.2,1.4.63.49,1.47.97,2.94,1.51,4.54.1-.26.17-.39.22-.54.44-1.31.86-2.62,1.3-3.92.31-.92.31-.92,1.49-.76Z"/>
      <path class="cls-1" d="m171.99,63.9h-1v-6.42h.96v.87c.23-.21.35-.33.49-.44.8-.66,1.7-.77,2.65-.43.59.21.97.66,1.04,1.27.09.82.1,1.64.12,2.47.02.88,0,1.76,0,2.68h-1.05c-.01-.19-.03-.39-.04-.59,0-1.15,0-2.3,0-3.45-.01-1.05-.36-1.53-1.11-1.59-.99-.08-1.82.46-1.95,1.39-.1.76-.08,1.53-.09,2.3-.01.63,0,1.26,0,1.96Z"/>
      <path class="cls-1" d="m160.75,63.9h-1.02v-8.82h1.02v8.82Z"/>
      <path class="cls-1" d="m162.26,55.06h1v8.84h-1v-8.84Z"/>
      <path class="cls-1" d="m195.48,63.91h-.96v-8.84h.96v8.84Z"/>
      <path class="cls-1" d="m197.77,55.07v8.84h-.97v-8.84h.97Z"/>
    </g>
    <g>
      <path class="cls-1" d="m72.55,159.54c-.14.12-.26.25-.41.35-.41.27-.76.21-1.05-.19-.07-.1-.14-.2-.24-.35-.14.15-.26.29-.38.43-.26.3-.6.29-.95.26-.05,0-.1-.06-.13-.11-.1-.16-.19-.32-.29-.48-.18.12-.33.25-.51.35-.45.26-.91.33-1.4.06-.06-.03-.15-.02-.22,0-.2.05-.4.14-.6.18-.29.05-.52-.08-.7-.3-.09-.11-.18-.22-.28-.35-.08.09-.14.17-.21.24-.13.12-.25.25-.4.34-.26.16-.53.11-.72-.12-.13-.16-.24-.35-.37-.53-.18.14-.34.28-.52.41-.24.17-.49.31-.79.32-.15,0-.2-.05-.22-.19-.06-.34-.13-.67-.21-1.01-.02-.1-.08-.18-.14-.32-.22.24-.43.44-.62.65-.15.17-.28.35-.42.52-.07.08-.13.16-.22.22-.08.05-.18.07-.28.1-.02-.08-.04-.17-.05-.25-.01-.29-.01-.58-.03-.87,0-.09-.06-.18-.1-.31-.18.13-.35.23-.49.35-.24.22-.46.46-.7.68-.12.12-.26.22-.39.33-.12.11-.22.09-.31-.05-.02-.04-.06-.07-.1-.12-.12.07-.24.13-.35.19-.21.11-.38.09-.54-.09-.11-.12-.2-.26-.29-.39-.04-.05-.07-.11-.12-.17-.4.3-.82.55-1.31.63-.38.06-.77.05-1.15.06-.18,0-.31-.12-.4-.28-.16-.28-.2-.6-.21-.91-.03-.94.01-1.87.24-2.79.06-.24.2-.36.44-.37.26-.01.38.1.34.35-.05.36-.15.72-.19,1.09-.08.71-.13,1.43.05,2.14.04.14.1.21.25.23.49.05.97.02,1.39-.27.18-.12.3-.28.34-.51.05-.27.13-.54.23-.8.05-.12.16-.22.24-.34.29.25.32.54.3.86-.01.2-.02.4-.03.6,0,.19.03.39.24.46.22.07.44.03.57-.16.14-.2.22-.43.31-.66.06-.16.08-.33.15-.48.06-.14.16-.26.24-.39.02,0,.04,0,.06.01.09.3.19.6.29.92.35-.43.69-.84,1.05-1.26.32.37.38.8.53,1.24.16-.15.31-.28.44-.42.2-.21.39-.43.61-.62.22-.2.36-.19.45.08.12.36.19.74.28,1.12.05.21.1.42.15.62.49-.08.74-.36.81-.84.02-.16.05-.31.08-.46.02-.08.05-.16.08-.24.08-.15.2-.3.37-.24.09.03.18.21.19.32.02.24-.02.49-.03.74,0,.11-.01.23.01.34.04.18.11.36.32.4.22.04.4-.05.51-.23.08-.13.17-.27.2-.42.12-.56.21-1.12.32-1.7-.21-.04-.38-.05-.55-.1-.07-.02-.15-.08-.19-.14-.06-.1-.03-.18.11-.2.18-.02.36-.06.54-.07.11,0,.16-.05.18-.16.05-.17.11-.34.16-.52.05-.17.13-.26.32-.24.05,0,.1,0,.17-.02-.01.31-.03.6-.04.92.36.02.73,0,1.03.28-.25.17-.53.19-.8.22-.35.03-.36.02-.42.38-.09.49-.18.97-.05,1.47.13.48.38.65.87.58.02-.24.03-.49.06-.73.04-.39.19-.74.46-1.02.18-.19.41-.34.68-.25.27.1.4.34.45.61.06.32-.05.58-.28.8-.17.16-.35.31-.56.49.3.08.59.17.83-.02.2-.16.37-.36.51-.57.12-.18.19-.39.3-.58.1-.17.21-.34.34-.49.18-.22.41-.28.68-.19.06.02.13.03.21.05.06-.66.12-1.32.17-1.99.13.03.23.05.32.08.14.04.19.14.19.29,0,.66-.02,1.33,0,1.99,0,.3.09.59.14.89,0,.03.02.06.03.08.27.57.42.57.88.3.06-.04.13-.07.19-.1v.33Zm-1.84-1.01c0-.05-.02-.13-.03-.21,0-.14-.08-.23-.22-.27-.14-.04-.23.03-.31.13-.27.32-.41.69-.37,1.12.03.28.2.38.45.24.08-.04.16-.12.21-.19.18-.23.25-.5.27-.82Zm-2.61-.06c-.05-.08-.12-.22-.21-.35-.06-.1-.14-.08-.22,0-.24.24-.31.7-.13.99.02.04.12.06.15.05.24-.12.37-.33.41-.68Z"/>
      <path class="cls-1" d="m6.29,160.06c-.04-.12-.06-.2-.09-.3-.11.06-.21.11-.3.17-.33.18-.52.14-.75-.17-.1-.14-.19-.29-.31-.46-.12.12-.24.22-.34.33-.26.28-.55.47-.95.42-.32-.04-.58-.17-.68-.48-.1-.32-.16-.65-.22-.98-.03-.16-.03-.32-.04-.49,0-.09-.04-.14-.14-.12-.44.07-.88.15-1.32.22-.14.02-.19.11-.2.25-.04.46-.09.92-.14,1.39-.02.16-.09.22-.26.22-.55,0-.46-.01-.44-.47.02-.74.1-1.47.09-2.21,0-.49-.11-.98-.19-1.47-.02-.14.02-.2.14-.21.16-.02.32-.03.48-.03.14,0,.13.12.13.22.05.52.09,1.05.14,1.57,0,.03.01.06.03.13.52-.06,1.04-.12,1.56-.2.05,0,.1-.13.11-.2.06-.39.1-.79.16-1.18.02-.16.11-.3.28-.32.14-.02.32-.01.42.06.07.05.07.24.05.36-.13.66-.24,1.32-.19,1.99.03.34.06.68.14,1,.12.47.53.55.88.21.25-.25.3-.58.37-.9.04-.19.1-.39.19-.56.04-.08.18-.17.27-.17.07,0,.19.12.21.21.04.21.03.43.03.64,0,.18-.03.36-.02.54.03.38.35.55.68.37.21-.11.33-.3.39-.52.06-.22.11-.44.18-.66.06-.19.15-.35.34-.46.11.3.22.6.35.94.13-.17.23-.3.33-.42.18-.22.36-.44.55-.65.18-.19.31-.17.42.06.11.24.2.49.29.74.11.3.21.6.45.84.07.07.14.09.24.04.21-.11.36-.25.44-.48.09-.25.2-.49.31-.73.04-.1.11-.19.18-.27.22-.27.48-.4.83-.25.03.01.07.02.11.03.01,0,.02,0,.04,0,.06-.64.12-1.29.18-1.92.04-.01.05-.02.05-.02.46.05.45.05.46.51,0,.72,0,1.44.05,2.15.02.31.14.64.28.92.16.34.46.34.64,0,.15-.3.23-.63.32-.95.08-.27.12-.55.18-.82.03,0,.04,0,.05,0,.4.21.37.09.31.56-.05.37-.1.74-.15,1.14.29-.05.55-.13.73-.33.2-.23.38-.48.56-.73.13-.2.24-.42.36-.64.16.14.25.28.26.49.02.4.06.79.1,1.19,0,.06.03.13.05.18.64-.06,1.28-.94,1.32-1.83.23,0,.45.03.64.18.41.33.58.79.67,1.29.01.07.03.15.04.24.32-.17.55-.38.59-.74.05-.4.11-.8.17-1.2.02-.11-.02-.16-.13-.18-.21-.04-.41-.09-.61-.14.03-.27.05-.29.29-.31.17-.01.39.03.5-.06.12-.09.13-.31.19-.48.05-.15.1-.29.15-.43.03,0,.04-.01.05-.01.36.1.36.1.34.46-.01.16-.03.31-.05.48.33.08.73-.1.98.27-.15.18-.36.2-.56.22-.13.01-.27,0-.4,0-.05,0-.13.05-.14.09-.1.51-.24,1.02-.16,1.56.04.29.18.54.39.74.03.03.15.02.17,0,.13-.16.26-.32.36-.49.11-.2.17-.43.28-.63.1-.19.22-.39.37-.55.19-.21.37-.21.62-.08.08.04.16.09.25.14.04-.09.08-.18.12-.27.02,0,.04,0,.06,0,.37.1.32.01.37.45.04.39.13.77.21,1.15.03.15.13.25.3.27.18.02.3-.06.37-.21.09-.2.15-.41.21-.61.05-.16.07-.33.14-.48.06-.13.16-.24.25-.37.02,0,.04,0,.06.01.11.29.22.58.34.9.19-.24.36-.46.54-.66.18-.21.38-.4.6-.64.11.23.2.4.27.58.1.26.19.52.29.78.03.08.07.17.11.25.17.29.29.32.56.12.13-.1.26-.21.42-.34.01.35-.08.64-.28.88-.44.51-.68.48-.96-.08-.14-.27-.29-.54-.44-.81-.09-.16-.2-.19-.35-.07-.27.21-.54.42-.81.64-.22.18-.43.39-.66.57-.05.04-.13.06-.19.06-.21,0-.42-.04-.63,0-.25.04-.41-.03-.53-.23-.07-.11-.14-.22-.23-.35-.06.05-.1.09-.15.13-.13.12-.25.24-.4.34-.33.23-.61.21-.92-.06-.11-.1-.18-.11-.3-.01-.5.38-.87.32-1.24-.19-.07-.1-.14-.21-.22-.33-.1.09-.2.18-.3.26-.39.34-.81.56-1.35.51-.34-.03-.52-.27-.45-.62.11,0,.22.01.33.02.42.03.62-.21.53-.62-.06-.23-.19-.46-.36-.61-.13.2-.25.4-.39.58-.27.33-.54.66-.84.97-.11.11-.29.15-.44.23-.13.07-.21,0-.25-.12-.09-.29-.17-.57-.26-.86-.01-.04-.02-.08-.04-.15-.08.07-.15.11-.2.17-.16.17-.32.34-.49.51-.06.06-.12.12-.18.18-.43.38-.6.38-1.01-.01-.03-.03-.06-.05-.1-.09-.12.07-.23.14-.34.21-.43.25-.65.22-.98-.14-.09-.1-.18-.19-.28-.3-.16.14-.31.28-.47.41-.17.14-.36.23-.59.24-.22,0-.39-.07-.49-.27-.04-.08-.09-.16-.14-.25-.12.11-.23.21-.34.31-.08.06-.17.11-.26.17-.12.07-.23.06-.3-.06-.14-.21-.28-.42-.41-.64-.11-.19-.22-.39-.33-.58-.07-.13-.16-.15-.27-.06-.24.2-.49.4-.73.59-.28.23-.56.46-.85.68-.06.05-.15.07-.24.11Zm5.28-1.57c0-.06,0-.13-.02-.2-.02-.13-.08-.24-.22-.28-.15-.05-.23.04-.31.13-.33.35-.41.78-.39,1.24,0,.04.04.12.07.13.17.06.34.08.49-.07.27-.25.37-.57.38-.94Zm10.64.17s-.02,0-.03-.01c0-.07.01-.14-.02-.2-.04-.09-.09-.2-.17-.23-.08-.03-.23-.01-.29.04-.29.26-.42.59-.37.97.03.27.25.37.49.22.09-.06.17-.14.22-.24.08-.18.12-.37.18-.56Z"/>
      <path class="cls-1" d="m34.11,157.83c.06.23.12.43.18.64.04.14.12.17.24.08.11-.09.19-.22.29-.32.19-.21.37-.43.56-.63.11-.12.22-.09.29.04.09.18.16.37.24.56.12.29.21.6.36.88.15.28.41.28.56,0,.13-.25.17-.55.26-.82.05-.16.11-.34.2-.48.13-.2.36-.17.43.06.05.15.05.32.06.48,0,.21-.05.42-.03.63.05.42.43.66.83.52.19-.07.36-.2.52-.32.04-.03.04-.14.02-.21-.23-.78-.32-1.58-.1-2.37.08-.29.21-.56.35-.83.1-.19.27-.31.51-.29.25.02.43.17.49.4.08.31.14.64.14.96-.01.75-.24,1.45-.62,2.09-.08.13-.07.22.03.33.22.22.46.38.78.37.13,0,.19-.04.18-.19-.04-.57.05-1.11.44-1.56.01-.01.02-.03.04-.04.19-.19.41-.36.69-.26.27.1.4.35.45.64.05.29-.03.54-.25.74-.12.11-.25.23-.38.34-.06.06-.11.12-.18.19.38.15.7.1.99-.16.26-.24.42-.54.56-.86.09-.22.18-.45.29-.66.05-.11.14-.21.21-.31.02,0,.04,0,.06,0,.1.29.2.58.29.87.09.27.17.54.26.81.07.2.22.32.41.41.34-.37.36-.8.28-1.26-.04-.24-.04-.47.09-.69.05-.09.14-.17.24-.2.24-.08.34,0,.34.26,0,.59-.14,1.14-.46,1.63-.1.16-.24.29-.35.44-.24.3-.54.27-.85.17-.07-.03-.14-.11-.18-.19-.07-.13-.1-.27-.16-.4-.06-.14-.14-.27-.22-.4-.03-.01-.06-.02-.09-.03-.04.06-.07.13-.11.19-.1.12-.21.22-.3.34-.48.6-1.24.67-1.88.41-.05-.02-.13,0-.19,0-.17.04-.34.09-.51.12-.36.06-.67-.06-.92-.32-.1-.1-.19-.11-.29-.01-.36.31-.78.38-1.24.33-.13-.01-.23-.05-.3-.16-.12-.18-.25-.35-.38-.53-.26.09-.37.3-.5.5-.09.14-.2.23-.38.2-.14-.02-.24-.07-.31-.19-.13-.26-.25-.53-.4-.77-.29-.47-.31-.43-.69-.16-.32.23-.59.53-.9.78-.15.13-.34.23-.51.32-.06.03-.15.02-.27.03.12-.49.24-.96.36-1.42.04-.15.09-.29.13-.43.04-.17.15-.25.33-.28Zm5.64-1.69s-.03.04-.04.06c-.02.04-.04.09-.06.13-.24.62-.22,1.27-.1,1.91,0,.05.07.13.1.13.06,0,.14-.05.16-.1.25-.56.34-1.15.28-1.77-.02-.22-.16-.31-.33-.37Zm2.25,2.37c-.07-.14-.13-.28-.21-.4-.02-.03-.12-.05-.16-.03-.32.19-.42.74-.19,1.02.03.04.13.06.17.04.24-.13.34-.34.38-.63Z"/>
      <path class="cls-1" d="m35.07,138.19c.16.19.31.36.49.57.03-.29.05-.53.07-.83.33.25.63.49.97.75-.1-.49-.4-.88-.36-1.38.41.1.81.2,1.26.32-.22-.52-.63-.82-.93-1.22.05-.03.1-.07.15-.09.36-.13.73-.27,1.1-.36.17-.04.37.03.56.05,0,.02,0,.05,0,.07-.18.09-.36.18-.54.26-.13.06-.26.13-.39.2-.1.05-.11.12-.05.2.15.18.3.36.45.54.17.2.35.38.51.59.05.07.05.19.07.28-.09.02-.2.07-.28.05-.28-.06-.56-.15-.84-.22-.17-.05-.35-.08-.55-.13.12.59.53,1.06.5,1.69-.54-.14-.85-.62-1.35-.84-.07.24-.14.47-.21.73-.18-.15-.35-.29-.55-.45-.1.32-.19.61-.28.91-.03.09-.05.19-.1.27-.04.08-.12.14-.18.21-.03,0-.05-.02-.08-.02-.09-.41-.17-.82-.26-1.27-.26.2-.48.42-.8.48v-1.15c-.56.26-1.09.51-1.63.76-.02-.02-.04-.04-.06-.06.03-.1.05-.22.11-.3.24-.31.5-.62.76-.92.11-.13.21-.26.36-.44-.3-.03-.54-.07-.79-.09-.14-.01-.29-.02-.43-.03-.04,0-.09-.04-.13-.06.02-.04.04-.1.08-.13.23-.17.47-.34.7-.51.03-.02.06-.04.1-.08-.23-.29-.64-.18-.87-.44.59-.02,1.19-.17,1.8.14-.27.27-.61.39-.77.74.36.08.7.15,1.07.23-.29.32-.55.62-.81.91.01.01.02.03.04.04.31-.11.62-.23.96-.35-.02.34-.04.64-.05.94.01,0,.02.01.04.02.2-.22.39-.44.62-.68.05.37.1.69.14,1.02.02,0,.04,0,.06,0,.11-.29.23-.59.35-.91Z"/>
      <path class="cls-1" d="m40.22,150.94c.55.61,1.24.51,1.98.43.09.15.21.34.35.57-.36.07-.39.35-.48.6-.2.6-.64.57-1.02.29-.14-.11-.24-.27-.35-.41-.05-.06-.08-.14-.12-.2-.13-.19-.2-.2-.38-.07-.06.04-.13.09-.19.14-.51.49-1.14.67-1.82.67-.08,0-.16,0-.25,0,.2.27.88.31,1.23.17.39-.16.77-.36,1.18-.56.18.27.36.63.74.73.36.1.73.13,1.09.19-.32.36-1.04.42-1.43.1-.1-.08-.17-.09-.29-.04-1.05.42-2.05.38-2.98-.33-.26-.2-.56-.23-.85-.26-.36-.04-.63-.23-.92-.5.68,0,1.24-.1,1.22-.95.02,0,.04,0,.05,0,.11.11.23.2.31.33.13.18.22.39.34.58.04.06.1.12.17.14.32.09.69-.06.87-.34.04-.06.09-.12.15-.14.64-.12,1.08-.48,1.33-1.08,0-.02.02-.03.05-.06Zm1.2.86c-.15,0-.28.13-.27.28,0,.16.12.28.27.28.16,0,.27-.1.27-.25,0-.17-.12-.31-.26-.31Z"/>
      <path class="cls-1" d="m45.44,143.25c.1.15.23.29.3.46.18.42.45.76.81,1.04.28.22.48.51.64.82.07.13.14.25.21.37.02,0,.03,0,.05-.01-.01-.1-.02-.2-.04-.3-.09-.4-.3-.74-.54-1.05-.24-.3-.49-.6-.73-.9-.04-.04-.07-.09-.1-.15.47,0,.79.21.96.64.16.42.33.83.5,1.24.03.07.06.13.1.22.16-.28.3-.53.44-.8-.07-.04-.12-.08-.18-.12-.14-.09-.28-.17-.4-.28-.23-.2-.27-.44-.11-.7.14-.23.36-.38.62-.51-.03.45-.06.88-.09,1.36.15-.05.25-.06.33-.11.28-.16.42-.63.3-.99-.12-.38-.47-.65-.82-.61-.11.01-.22.06-.33.09-.4.14-.81.2-1.23.14-.52-.08-.88-.38-1.12-.83-.18-.34-.26-.71-.31-1.05.52,0,1.03,0,1.54,0,.4,0,.71.2.95.5.35.43.72.82,1.16,1.16.5.4.57.98.22,1.52-.17.27-.36.51-.53.78-.1.17-.17.36-.25.55.02.01.04.03.07.04.14-.14.28-.28.42-.41.1-.1.2-.19.37-.16.11.02.18.07.18.21,0,.38-.17.7-.41,1.02-.03-.1-.06-.18-.09-.25-.11-.3-.31-.35-.53-.12-.1.1-.17.23-.26.35-.02.03-.05.07-.09.12-.07-.19-.13-.37-.2-.54-.08-.19-.17-.38-.27-.55-.22-.38-.54-.64-.98-.75-.17-.04-.34-.12-.5-.19-.15-.07-.23-.2-.21-.37.03-.29.07-.57.1-.85.03,0,.06-.02.08-.03Zm1.28-1.05c-.19-.23-.35-.42-.53-.64-.03.16-.05.3-.08.48-.2-.17-.38-.32-.59-.49.03.13.04.2.06.28.04.11.01.18-.11.22-.1.03-.19.09-.28.14,0,.01,0,.03.01.04h.77c-.08.16-.15.29-.23.45.32-.12.6-.23.89-.33,0,.02.02.03.02.05-.07.15-.14.3-.2.44.3-.12.6-.23.88-.34-.13-.2-.28-.44-.43-.69-.06.12-.11.24-.18.4Z"/>
      <path class="cls-1" d="m42.65,139.01c-.06-.18-.11-.34-.17-.52-.21.15-.41.28-.6.42-.01,0-.02-.01-.03-.02.1-.24.21-.49.32-.76-.16-.03-.3-.06-.5-.11.2-.17.38-.31.59-.47-.22-.15-.38-.26-.55-.38.15-.09.29-.17.44-.26-.14-.26-.28-.52-.45-.81.3.13.55.23.82.35.03-.14.05-.27.07-.42.04.01.09.02.13.04.21.13.42.11.64.02,0,0,.01,0,.02,0,.56-.31,1.07-.11,1.54.2.51.32.72,1.02.53,1.68-.17.61-.72,1.04-1.32,1.07-.37.02-.71-.06-1.03-.24-.14-.08-.24-.08-.32.06-.03.05-.08.09-.13.15Zm.47-.77s-.03.04-.04.06c.1.1.19.21.3.28.25.16.54.17.82.09.46-.13.75-.58.77-1.15.03-.77-.48-1.29-1.2-1.24-.3.02-.52.19-.57.46.24-.04.48-.08.72-.12-.03.14-.06.26-.08.4.24.03.45.06.7.09-.17.13-.32.24-.49.37.14.17.27.32.42.49h-.72c.04.16.08.31.12.47-.26-.07-.49-.14-.73-.21Zm.16-.61c.12-.03.22-.06.36-.09-.15-.08-.25-.13-.36-.19.04-.1.07-.19.13-.32-.3.15-.46.02-.56-.24-.05.13-.07.26-.14.31-.07.05-.2.03-.34.04.09.13.15.23.22.33-.08.09-.16.17-.23.25.35-.04.39.18.42.46.11-.33.35-.28.59-.23-.03-.12-.06-.21-.09-.32Z"/>
      <path class="cls-1" d="m32.09,144.11c.05.33-.13.69.17,1,.25-.48.12-1.07.57-1.49.09.52-.14,1-.06,1.54.06-.09.11-.14.13-.2.1-.26.19-.52.3-.78.07-.18.16-.36.25-.54.02-.04.09-.04.14-.06.02.05.07.1.06.14-.08.32-.17.64-.25.96-.05.21-.1.42-.16.62.02.01.04.02.06.03.07-.07.16-.14.21-.22.12-.21.21-.43.31-.65.09-.2.17-.4.38-.54.03.3,0,.58-.1.83-.19.47-.4.93-.61,1.39-.13.29-.25.57-.38.86-.11.25-.09.49.04.73.03.05.05.11.07.16-.01.02-.02.03-.03.05-.22-.11-.45-.22-.67-.33-.16.28-.13.7.09.97.14.17.3.31.45.47.32.33.35.54.15.96-.95-.51-1.38-1.37-.99-2.36.17-.42.43-.8.68-1.19.29-.47.12-.9-.44-1.03-.09.19-.17.38-.02.59.05.08.11.22.07.28-.11.2-.27.38-.42.56-.01.02-.17-.05-.21-.11-.07-.12-.1-.26-.13-.39-.13-.65-.1-1.3.08-1.94.03-.12.13-.23.2-.34.02.01.04.02.05.03Z"/>
      <path class="cls-1" d="m42.79,150.37c-.07-.18-.14-.34-.2-.5-.24.05-.48.11-.73.14-.37.06-.64-.1-.77-.39.12-.16.24-.31.36-.47.72.54,1.54.51,2.38.25,0,.68-.6,1.38-1.35,1.56-.83.19-1.73-.24-2.1-.97-.47-.92-.09-1.94.57-2.44.56-.42,1.34-.5,1.74-.16-.17.07-.33.13-.49.19.14.12.28.24.42.36,0,.02-.02.04-.03.06-.32.04-.63.09-.97.13.02.05.02.07.03.09.18.28.18.3-.13.42-.1.04-.2.07-.3.12-.41.18-.56.42-.47.86.09.47.41.74.83.9.45.17.94.1,1.22-.15Z"/>
      <path class="cls-1" d="m30.62,155.89c-.03.32-.06.63-.1.93-.09.65-.18,1.3-.05,1.96.03.15.08.3.14.44.13.29.35.47.68.49.36.02.66-.09.85-.41.39-.66.44-1.38.28-2.12-.05-.25-.13-.49-.15-.74-.03-.27.15-.52.41-.6.05-.01.15.03.17.07.09.2.19.4.21.6.08.69.08,1.37-.09,2.05-.1.4-.27.78-.58,1.07-.27.26-.59.42-.98.4-.08,0-.16,0-.24,0-.83.09-1.39-.66-1.49-1.25-.14-.8-.05-1.58.19-2.36.11-.37.38-.48.74-.55Z"/>
      <path class="cls-1" d="m48.75,157.59c.24.5.07,1.08.46,1.53.06-.12.1-.21.15-.31.18-.34.33-.69.54-1,.24-.35.6-.56,1.04-.48.15.03.31.13.43.23.14.13.12.36-.02.51-.14.14-.33.15-.49.03-.04-.03-.07-.06-.11-.1-.19-.2-.2-.21-.42-.05-.12.09-.24.19-.31.32-.27.51-.52,1.03-.78,1.55-.05.1-.1.14-.22.14-.18,0-.27-.06-.32-.24-.06-.27-.14-.53-.22-.83-.05.05-.09.09-.12.12-.15.19-.3.38-.46.56-.23.26-.52.38-.87.38-.13,0-.27,0-.4,0-.36-.01-.54-.15-.65-.49-.2-.61.03-1.36.53-1.7.52-.35,1.07-.13,1.19.49.05.29-.07.52-.29.67-.18.13-.4.2-.59.32-.07.04-.11.12-.17.18.07.05.14.13.22.15.31.08.58-.03.82-.24.34-.31.52-.71.67-1.13.05-.13.09-.26.16-.38.05-.08.13-.15.21-.24Zm-2.29,1.51c.31-.13.57-.22.69-.5.09-.22.01-.43-.17-.5-.19-.08-.4.02-.45.26-.05.23-.04.47-.07.75Z"/>
      <path class="cls-1" d="m48.66,136.04c-.23.44-.06.83,0,1.22.1.61-.18,1.17-.76,1.39-.35.13-.72.21-1.09.24-.44.03-.89-.01-1.36-.06.38-.24.48-.57.39-1.03.13.09.2.16.29.21.13.07.27.13.41.17.14.03.27-.03.32-.18.06-.15.06-.31-.08-.39-.19-.12-.4-.21-.61-.31-.12-.06-.25-.1-.37-.15,0-.02,0-.04,0-.06.29-.07.58-.14.9-.22-.14-.2-.33-.3-.52-.39-.19-.1-.39-.18-.59-.31.17-.03.34-.1.52-.1.3,0,.61,0,.91.05.23.03.3.19.26.41-.03.16-.07.32-.1.48-.03.16.05.27.2.31.16.03.26-.04.29-.2.03-.16.02-.32.03-.49,0-.1,0-.21,0-.31.02-.19.12-.28.31-.28.2,0,.39,0,.63,0Zm-.6,1.09c-.09.65-.5,1-1.08,1.2.35.07.84-.05,1.08-.25.34-.27.35-.6,0-.95Zm.13-.98s-.05,0-.08,0c-.05.07-.13.15-.13.22,0,.06.12.17.16.16.07-.01.17-.1.17-.17,0-.07-.09-.14-.14-.21Z"/>
      <path class="cls-1" d="m36.87,146.13c-.1.06-.2.12-.29.18-.51-.35-.62-.9-.76-1.44-.15-.56-.03-1.08.21-1.63-.58,0-1,.26-1.39.6-.09-.4.23-.85.62-.88.2-.01.41.02.61.03.07,0,.14,0,.26,0-.32-.36-.68-.54-1.18-.47.05-.17.07-.31.13-.44.08-.17.24-.16.4-.12.25.05.41.22.55.42.09.13.17.26.28.44.05-.34.09-.64.13-.93.25-.08.5.07.68.39-.19.2-.37.39-.56.58l.04.06c.1-.05.21-.1.31-.15.2-.08.4-.19.61-.23.45-.08.93.06.75.79-.45-.34-.95-.38-1.48-.19.12.05.24.1.36.16.47.22.53.63.13.97-.1.09-.21.15-.35.25-.02-.46-.08-.87-.48-1.16-.18.18-.25.39-.27.62-.07.69.15,1.31.5,1.89.03.04.05.08.08.12.03.04.05.08.09.13Z"/>
      <path class="cls-1" d="m35.85,150.47c-.31-.08-.66-.1-.72-.52.55-.1.94.25.86.77-.03.22-.19.39-.41.43-.7.13-1.37-.53-1.24-1.22.06-.31.35-.57.66-.61.43-.05.8.08,1.08.4.39.44.53.96.44,1.53-.08.47-.43.78-.92.85-1.01.14-1.96-.58-2.09-1.59-.04-.34.17-.76.48-.94.02.28.02.56.07.84.13.69.8,1.14,1.5,1.05.47-.06.69-.35.66-.85-.04-.59-.56-1.05-1.07-.94-.36.07-.51.4-.32.72.21.36.78.52,1.02.09Z"/>
      <path class="cls-1" d="m45.59,151.25c.6-.3,1.1-.67,1.21-1.37-.01-.02-.03-.03-.04-.05-.1.08-.22.15-.31.25-.18.2-.33.43-.51.63-.29.31-.78.28-1.05-.06-.14-.18-.15-.25.02-.4.17-.16.37-.3.55-.44.18-.14.33-.3.36-.54,0-.04,0-.09,0-.17-.12.09-.22.15-.31.22-.18.16-.34.33-.52.48-.16.13-.33.24-.51.33-.17.09-.28.03-.35-.13-.08-.18-.04-.3.15-.35.5-.14.87-.44,1.2-.83.33-.38.79-.45,1.23-.22.45.23.68.67.61,1.15-.06.47-.29.86-.6,1.19-.19.2-.4.39-.61.56-.2.16-.31.14-.43-.08-.03-.06-.06-.12-.09-.19Zm1.13-1.79c.17,0,.29-.1.29-.23,0-.21-.28-.46-.53-.46-.18,0-.27.1-.27.27,0,.23.25.43.5.43Z"/>
      <path class="cls-1" d="m37.05,140.58c.12-.11.22-.2.33-.29.24-.19.49-.33.79-.16.26.14.4.5.34.84-.02.11-.05.22-.12.32-.06-.18-.13-.36-.2-.54-.27.31-.24.68.07.99-.18.42-.66.52-.97.18-.14-.15-.22-.36-.31-.54-.04-.08-.06-.18-.1-.29-.1.08-.19.15-.27.21-.32.24-.66.43-1.08.38-.29-.03-.5-.17-.62-.44-.11-.25-.1-.49.07-.73.08.17.16.33.23.48.06.12.13.12.23.05.21-.14.38-.64.29-.87-.01-.03-.07-.06-.11-.06-.11,0-.21,0-.32,0,.17-.37.58-.63.96-.6.64.05.7.56.79,1.07Zm-1.15.78c.24-.17.27-.45.39-.73.06.19.11.34.16.49.38-.21.46-.41.3-.92-.11.14-.21.25-.29.35-.16-.11-.1-.25-.09-.39,0-.13.02-.26.04-.43-.36.31-.65,1.3-.5,1.62Zm1.96-.93c-.32.4-.41.83-.38,1.3.32-.14.5-.85.38-1.3Zm-.66.91s.04,0,.07,0c.04-.23.09-.47.14-.75-.32.19-.38.48-.21.74Z"/>
      <path class="cls-1" d="m37.33,146.18c.24.07.43.39.74.08-.15-.11-.28-.2-.41-.31-.18-.14-.36-.28-.52-.44-.14-.13-.12-.29,0-.42.12-.14.27-.25.41-.37.13-.11.29-.2.37-.33.09-.16.11-.36.16-.53.43.19.58.67.31,1.08-.08.13-.17.25-.25.38-.1.15-.09.28.05.4.1.09.18.19.27.29.12.14.16.3.07.47-.08.16-.17.32-.26.48-.25.45-.26.84.24,1.12.01,0,.02.02.03.04-.52.09-1.12-.2-1.38-.66-.23-.41-.17-.86.18-1.27Z"/>
      <path class="cls-1" d="m43.47,147.01c-.19.01-.35.05-.5.03-.22-.02-.31-.24-.23-.48.02-.07.06-.13.08-.2.03-.07.05-.13.09-.21-.2,0-.31.1-.41.21-.22.24-.47.41-.76.49.05-.4.11-.82.17-1.27.24.13.48.26.71.39.17-.14.19-.3.04-.44-.13-.12-.28-.21-.43-.3-.46-.29-.53-.48-.37-1,.03-.09.06-.18.09-.28.26.18.53.35.77.54.06.05.09.16.1.24.01.14,0,.29,0,.43-.01.18.08.28.27.32,0-.16,0-.31,0-.45,0-.29.11-.37.38-.29.22.06.44.16.71.26-.17.1-.29.17-.41.23-.15.08-.3.16-.45.23-.13.07-.15.18-.13.31.02.13.11.18.23.2.1.02.2.03.31.05.03-.14.06-.26.1-.44.28.23.53.42.77.64.13.12-.01.21-.1.24-.27.08-.55.13-.86.2.05-.17.08-.29.12-.43-.21-.01-.41-.02-.66-.03.14.28.26.52.4.82Z"/>
      <path class="cls-1" d="m38.67,146.97c.04.07.07.15.13.2.11.11.22.22.34.32.07.06.16.08.24.13.44.24.59.59.47,1.08-.23.93-1.3,1.37-2.15.87-.49-.29-.8-.7-.75-1.3,0-.1.04-.19.07-.34.48.48,1.01.69,1.64.55.21-.05.4-.13.55-.32-.14-.12-.27-.23-.41-.34-.36-.3-.37-.42-.13-.85Zm.13,2.4c.43-.03.84-.58.7-.94-.57.19-.77.46-.7.94Z"/>
      <path class="cls-1" d="m34.49,146.97c.13.01.26.03.41.04.13-.72-.25-1.33-.31-2-.03,0-.05,0-.08,0-.02.28-.05.56-.07.83-.02.26-.02.53-.06.79-.02.18-.15.3-.33.34-.28.05-.43-.08-.46-.44.08.02.16.04.24.06.2.03.29-.01.32-.22.04-.27.05-.54.07-.81.05-.72.42-1.26.99-1.67,0,0,.02,0,.02,0-.02.27-.07.55-.05.82.04.43.26.8.49,1.16.26.41.52.83.78,1.24.11.18.11.38,0,.57-.13.25-.38.37-.64.31-.22-.05-.36-.26-.36-.54,0-.05,0-.1,0-.17.09.06.17.12.26.15.09.03.22.06.29.01.05-.03.07-.17.06-.26-.02-.13-.08-.26-.14-.39-.07-.14-.15-.27-.24-.41-.33-.5-.57-1.04-.7-1.62-.02-.07-.04-.14-.09-.21-.11.31-.1.61-.01.92.11.4.24.8.35,1.2.03.12.04.25.02.37-.03.21-.27.39-.46.36-.17-.02-.31-.23-.31-.44Z"/>
      <path class="cls-1" d="m45.43,146.68c-.45.06-.52.18-.67,1.19-.08-.13-.14-.24-.21-.36-.12.06-.24.11-.39.18.06-.15.11-.28.16-.41-.12-.06-.23-.11-.38-.18.16-.05.3-.08.42-.13.17-.07.35-.14.49-.26.27-.21.28-.53.02-.76-.13-.12-.28-.21-.42-.31-.07-.05-.15-.1-.23-.17.13-.05.28-.07.35-.15.06-.08.04-.23.06-.37.06.06.11.1.16.15.05.04.1.09.16.14.12-.08.23-.17.38-.27-.05.25-.1.47-.12.69-.01.13,0,.27.05.39.06.17.21.2.31.04.06-.1.09-.23.1-.36.02-.19,0-.38,0-.61.21.18.42.3.67.01-.04.2-.07.33-.1.48.1.04.19.07.31.11-.35.14-.74.17-.92.58.43.17.81.02,1.23-.12-.02.07-.03.11-.05.15q-.12.25.1.43s.06.05.12.1c-.14.01-.29-.01-.37.05-.07.06-.07.21-.11.35-.09-.12-.16-.24-.26-.34-.14-.13-.28-.26-.44-.37-.05-.03-.17-.02-.21.02-.04.04-.07.16-.05.21.09.18.2.35.33.51.11.12.26.21.41.33-.13.02-.24.04-.35.06v.52c-.09-.09-.15-.14-.21-.21-.09-.12-.18-.14-.3-.05-.05.04-.11.06-.2.1.16-.46.33-.88.17-1.35Z"/>
      <path class="cls-1" d="m45.02,151.39c.31.23.37.65.13.98-.37.51-.9.77-1.51.88-.18.03-.37.04-.56.04-.31,0-.52-.23-.51-.54,0-.35.14-.65.38-.89.06-.06.17-.08.26-.08.23,0,.46.09.68.05.3-.05.58-.18.87-.29.09-.03.18-.1.26-.15Zm-1.36,1.45c.56-.03,1.05-.45.99-.85-.16.04-.33.08-.49.11q-.55.13-.51.71s0,.01.02.03Z"/>
      <path class="cls-1" d="m33.53,136.79c.22-.13.44-.26.68-.41-.13-.12-.23-.21-.34-.32.13-.13.29-.18.44-.11.19.09.38.21.55.34.12.09.2.13.32.02.28-.26.61-.33.99-.26-.1.11-.2.23-.3.35.21.18.4.35.6.52,0,.01-.01.02-.02.03-.22-.02-.43-.05-.65-.07-.08.31.09.55.13.83-.09-.07-.18-.14-.27-.21-.1-.08-.2-.17-.32-.24-.1-.06-.18-.03-.21.1-.05.2-.1.39-.16.62-.18-.27-.11-.62-.37-.83-.19.13-.37.27-.55.4-.01,0-.02-.02-.04-.02.12-.23.23-.45.36-.7h-.82s0-.02,0-.03Z"/>
      <path class="cls-1" d="m45.42,140.85c-.68,0-1.26-.45-1.42-1.12-.03-.13,0-.18.14-.2.27-.04.54-.12.81-.17.1-.02.24-.02.32.04.2.13.39.15.6.08.19-.06.32-.01.39.17.08.19.16.39.22.59.06.21-.06.37-.24.44-.26.1-.54.16-.81.23,0-.01,0-.03-.01-.04Zm-.84-.96c.2.33.47.45.79.49.24.03.52-.07.63-.24-.46-.08-.92-.16-1.42-.25Z"/>
      <path class="cls-1" d="m39.42,150.41c-.02-.24-.03-.44-.04-.7.23.09.48.12.59.26.11.15.09.4.13.65-.2-.03-.35-.05-.52-.08.02.39-.08.72-.41.96-.27.2-.56.3-.89.3-.5,0-.88-.23-.97-.6.15,0,.3,0,.45,0,.25,0,.43-.09.55-.31.08-.14.16-.27.24-.4.05-.07.11-.14.18-.21.11-.11.23-.14.37-.04.09.06.19.1.32.17Z"/>
      <path class="cls-1" d="m47.83,149.03c-.16-.45-.53-.63-.9-.82-.15-.08-.25-.18-.26-.36,0-.29.14-.44.43-.44.11,0,.21,0,.34,0,0-.11,0-.22,0-.33,0-.18.08-.33.26-.4.19-.08.36-.03.47.12.11.14.21.32.25.49.12.67-.15,1.22-.59,1.74Z"/>
      <path class="cls-1" d="m35.12,148.17c-.08.1-.14.22-.24.29-.12.09-.18.19-.21.34-.06.35-.36.49-.65.28-.18-.12-.36-.19-.57-.19-.07,0-.18-.05-.2-.1-.06-.14-.16-.3-.04-.46.04-.05.08-.09.13-.13.14-.09.21-.22.25-.38.1-.37.36-.47.66-.24.13.1.25.14.41.14.27,0,.42.16.46.44Zm-.98-.1c-.14,0-.26.12-.27.26,0,.15.1.26.26.26.16,0,.27-.1.27-.25,0-.14-.12-.27-.26-.27Z"/>
      <path class="cls-1" d="m31.76,142.15c.08-1.04.55-1.54,1.59-1.46.06,0,.12.05.16.1.09.12.17.25.24.38.02.04.04.1.02.13-.15.35-.33.67-.69.85-.23.12-.46.13-.7.1-.21-.03-.41-.07-.62-.11Zm.6-.98c-.16.2-.17.4-.04.59.14.2.38.28.62.21-.19-.26-.38-.53-.58-.8Zm.47-.26c.06.17.08.29.15.38.07.11.18.21.29.28.09.06.23,0,.19-.12-.06-.18-.16-.36-.28-.51-.04-.05-.19-.02-.34-.04Z"/>
      <path class="cls-1" d="m48.66,140.22c.11.36.12.7.09,1.03-.02.28-.07.56-.1.84-.03.23-.13.28-.33.15-.5-.32-.85-.75-1.1-1.32.56-.06,1.02-.31,1.44-.71Z"/>
      <path class="cls-1" d="m35.27,148.76c.06-.36.44-.45.74-.38.28.06.47.25.58.5.09.21.16.43.23.65.04.12.08.18.22.19.35.01.69.08.89.43.09.15.19.3.1.47-.1.18-.29.18-.47.17-.39-.03-.73-.31-.84-.69-.03-.09-.05-.17-.07-.26-.07-.43-.32-.69-.72-.82-.22-.08-.44-.16-.66-.25Zm1.77,1.31c.21.3.49.42.77.33-.09-.34-.48-.51-.77-.33Z"/>
      <path class="cls-1" d="m42.7,140.6c-.02.11-.04.22-.07.33.55.03.92-.19,1.07-.78.21.76-.18,1.3-.9,1.32-.13,0-.27,0-.39-.04-.15-.04-.25-.03-.33.12-.02.04-.05.06-.09.11-.27-.41-.28-.83-.15-1.27.29.07.56.13.85.2Z"/>
      <path class="cls-1" d="m43.09,147.32c.44.21.82.48.9,1.03.04.25-.08.51-.3.65-.19.12-.43.11-.61-.02-.21-.16-.25-.39-.21-.63.06-.33.14-.67.22-1.02Zm.22,1.07c.15-.06.3-.1.3-.27,0-.17-.14-.26-.3-.34v.61Z"/>
      <path class="cls-1" d="m33.98,141.72c.16.12.33.2.45.34.11.14.21.32.23.49.05.34-.14.57-.41.59-.32.02-.55-.2-.58-.53-.02-.26.09-.59.31-.88Z"/>
      <path class="cls-1" d="m42.94,139.74c-.37-.12-.66.02-.92.24-.02-.54.31-.83.82-.72.22.04.43.11.64.18.04.01.1.09.1.14.01.25-.15.63-.34.85-.13-.12-.27-.23-.4-.35-.03-.03-.03-.1-.01-.14.02-.07.07-.12.11-.2Z"/>
      <path class="cls-1" d="m43.94,151.56c-.24-.06-.43-.1-.61-.16-.05-.02-.1-.1-.1-.15.03-.39.07-.46.47-.52.24-.03.5.01.74.04.12.01.2.1.21.23.01.14,0,.28-.14.35-.2.09-.41.15-.58.21Z"/>
      <path class="cls-1" d="m48.36,139.14c.26.27.29.48.11.78-.28.46-.86.73-1.4.63-.13-.02-.2-.09-.21-.23-.02-.16.1-.16.19-.18.19-.05.38-.08.56-.13.37-.11.63-.33.7-.73,0-.04.02-.07.03-.1,0-.01.01-.02.02-.04Z"/>
      <path class="cls-1" d="m33.3,139.94c0,.41-.02.42-.39.31-.29-.08-.53-.21-.6-.53-.05-.22.03-.43.22-.53.18-.1.41-.06.56.1.18.19.22.42.21.65Z"/>
      <path class="cls-1" d="m44.34,147.98c.32.15.62.25.7.61.07.31-.18.58-.49.56-.2-.02-.33-.14-.31-.34.02-.27.06-.53.1-.82Z"/>
      <path class="cls-1" d="m37.3,138.33c.45.23.82.49,1.14.81.08.08.05.49-.05.56-.02.02-.07.02-.1,0-.06-.02-.12-.05-.15-.09-.33-.37-.65-.76-.84-1.29Z"/>
      <path class="cls-1" d="m44.23,144.08c0,.24-.2.43-.46.43-.23,0-.42-.2-.43-.43,0-.24.18-.44.43-.44.27,0,.46.18.46.44Z"/>
      <path class="cls-1" d="m63.73,156.18c0-.32.18-.46.54-.45.16,0,.25.15.25.39,0,.27-.22.5-.45.5-.2,0-.33-.19-.33-.44Z"/>
      <path class="cls-1" d="m4.85,156.18c0-.28.17-.49.42-.49.23,0,.37.15.37.39,0,.28-.19.51-.43.51-.21,0-.35-.17-.36-.41Z"/>
      <path class="cls-1" d="m37.59,156.52c-.2,0-.36-.18-.35-.4,0-.27.22-.51.45-.5.22,0,.37.17.36.39,0,.28-.21.51-.46.51Z"/>
      <path class="cls-1" d="m57.24,155.71c.21,0,.37.18.37.39,0,.27-.24.53-.48.53-.19,0-.34-.2-.33-.42.01-.27.21-.5.44-.49Z"/>
      <path class="cls-1" d="m46.69,139.4c.4-.09.74-.17,1.08-.23.06-.01.17.01.18.04.02.07.02.17-.01.24-.12.22-.72.47-.93.36-.13-.07-.21-.25-.32-.4Z"/>
      <path class="cls-1" d="m44.23,142.11c0,.23-.17.41-.41.41-.23,0-.41-.18-.41-.41,0-.22.18-.4.39-.4.23,0,.43.18.43.4Z"/>
      <path class="cls-1" d="m42.68,142.78c0-.22.16-.38.37-.39.2,0,.41.21.41.43,0,.2-.2.38-.41.37-.2,0-.37-.2-.37-.42Z"/>
      <path class="cls-1" d="m42.56,143.22c0,.21-.15.36-.37.35-.21,0-.35-.14-.35-.36,0-.21.14-.36.35-.36.21,0,.37.16.37.36Z"/>
      <path class="cls-1" d="m31.81,139.67c.19.29.38.58.57.86-.22.11-.5.08-.64-.11-.22-.28-.2-.43.07-.75Z"/>
      <path class="cls-1" d="m42.13,148.43c.35.08.55.27.54.51,0,.16-.11.27-.26.29-.16.01-.26-.06-.27-.22-.01-.19,0-.38,0-.57Z"/>
      <path class="cls-1" d="m33.52,143.23c-.22-.03-.47.01-.56-.28-.06-.21.06-.42.34-.61.07.29.15.58.22.89Z"/>
      <path class="cls-1" d="m31.55,143.07c.31.34.69.32,1.08.28-.17.23-.56.39-.78.33-.16-.04-.25-.22-.3-.61Z"/>
      <path class="cls-1" d="m44.59,143.81c-.15,0-.28-.16-.27-.33,0-.16.13-.28.29-.27.16,0,.3.16.29.33,0,.14-.16.28-.31.27Z"/>
      <path class="cls-1" d="m32.39,137.65c-.16.33-.41.51-.73.62-.07-.48.14-.66.73-.62Z"/>
      <path class="cls-1" d="m37.83,136.68c.22-.01.45-.02.66-.03.02.03.03.04.03.05,0,.14.06.34-.09.38-.12.03-.29-.06-.42-.12-.08-.04-.13-.14-.2-.22,0-.02.02-.04.02-.06Z"/>
      <path class="cls-1" d="m44.81,142.7c0,.15-.12.24-.28.23-.13,0-.24-.13-.24-.27,0-.14.12-.26.27-.26.13,0,.26.14.25.3Z"/>
      <path class="cls-1" d="m31.75,142.5c.28.08.54.15.82.23-.13.14-.27.26-.47.22-.24-.04-.28-.26-.35-.45Z"/>
      <path class="cls-1" d="m44.09,143.14c0,.15-.09.25-.24.25-.14,0-.25-.12-.25-.25,0-.13.13-.25.26-.26.13,0,.24.11.24.26Z"/>
      <path class="cls-1" d="m34.26,141.32c-.13,0-.25-.12-.25-.26,0-.13.1-.24.24-.24.14,0,.25.1.26.24,0,.14-.1.25-.24.26Z"/>
      <path class="cls-1" d="m33.91,140.72c-.14,0-.25-.12-.25-.26,0-.13.11-.24.24-.25.13,0,.26.14.26.27,0,.12-.12.24-.25.23Z"/>
      <path class="cls-1" d="m42.45,141.99c.03.15.12.33.06.42-.05.09-.25.1-.38.14-.08-.45-.07-.45.32-.56Z"/>
      <path class="cls-1" d="m42.95,143.43c.18,0,.29.1.28.26,0,.12-.14.24-.28.23-.15-.01-.22-.11-.21-.26,0-.15.07-.24.21-.23Z"/>
      <path class="cls-1" d="m44.95,144.28c-.13.25-.3.35-.45.27-.11-.06-.15-.22-.09-.32.09-.15.3-.13.54.05Z"/>
      <path class="cls-1" d="m42.65,141.91c.19-.22.36-.26.48-.12.08.09.05.26-.05.34-.13.11-.26.04-.43-.21Z"/>
      <path class="cls-1" d="m43.92,141.09c.19-.01.36-.05.44.1.03.07,0,.23-.04.26-.09.05-.29.08-.31.04-.06-.1-.06-.25-.08-.4Z"/>
    </g>
    <g>
      <path class="cls-1" d="m124.48,64.59c-.16,0-.32-.01-.48-.03-.42-.04-.82-.17-1.15-.44-.19-.16-.28-.36-.3-.61,0-.17-.01-.34-.02-.51,0-.07-.02-.13-.03-.2,0,0-.02,0-.02,0-.03.04-.07.09-.1.13-.35.57-.84.99-1.45,1.27-.33.15-.68.26-1.05.32-.18.03-.35.05-.53.05-.65,0-1.28-.12-1.87-.42-.41-.21-.78-.48-1.08-.83-.2-.23-.36-.5-.48-.78-.14-.34-.19-.7-.19-1.06,0-.53.05-1.06.22-1.56.2-.58.56-1.04,1.07-1.38.55-.37,1.17-.58,1.81-.72.43-.1.86-.15,1.3-.16.36,0,.72-.02,1.08,0,.29,0,.59.04.88.06.05,0,.09,0,.14,0,.09,0,.13-.06.14-.14,0-.11,0-.21-.01-.32-.03-.27-.08-.53-.2-.78-.23-.5-.61-.82-1.14-.97-.29-.08-.59-.1-.89-.09-.35,0-.69.05-1.03.14-.26.07-.52.17-.77.28-.14.07-.29.12-.46.13-.24.02-.46-.05-.65-.18-.2-.14-.37-.32-.53-.5-.11-.12-.21-.24-.31-.36-.01-.02-.03-.04-.04-.06.04-.03.08-.05.12-.07.31-.18.61-.37.93-.52.53-.26,1.09-.44,1.67-.57.5-.11,1.01-.14,1.52-.12.33.01.65.05.97.13.33.07.66.17.96.31.49.23.92.55,1.24,1,.24.33.41.71.52,1.11.08.29.13.58.15.88,0,.05.02.1.03.15v7.45Zm-2.4-4.95c0-.1-.01-.2-.02-.3,0-.07-.01-.08-.09-.08-.14,0-.27.02-.41.03-.24.02-.48.04-.72.06-.24.02-.49.05-.73.07-.31.03-.63.06-.94.12-.41.09-.79.25-1.12.51-.37.29-.58.67-.6,1.14-.02.51.18.92.58,1.24.49.39,1.06.5,1.67.41.56-.08,1.01-.38,1.39-.77.27-.28.49-.6.64-.96.21-.47.34-.96.34-1.49Z"/>
      <path class="cls-1" d="m101.19,61.67s.01.02.02.03c.15.14.31.28.47.42.26.21.56.33.88.42.3.08.61.12.92.14.29.02.59.01.88-.01.58-.05,1.14-.2,1.66-.47.26-.14.54-.19.83-.14.19.03.35.12.49.23.26.2.42.47.51.78.02.07,0,.13-.05.18-.06.05-.13.1-.19.15-.39.26-.8.5-1.23.69-.41.18-.83.32-1.27.4-.29.06-.59.1-.89.09-.28,0-.57,0-.85-.02-.44-.04-.86-.12-1.28-.24-.69-.2-1.32-.51-1.89-.93-.4-.29-.76-.63-1.05-1.04-.25-.34-.45-.72-.62-1.11-.14-.34-.25-.69-.32-1.05-.06-.31-.1-.63-.11-.94-.01-.28,0-.57.03-.85.06-.58.21-1.14.44-1.68.27-.62.65-1.16,1.13-1.63.57-.55,1.23-.96,1.99-1.19.42-.13.85-.21,1.28-.26.37-.04.74-.06,1.11-.04.59.03,1.16.15,1.71.39.44.19.84.44,1.21.75.54.47.92,1.04,1.16,1.71.13.37.22.74.27,1.13.02.17.03.34.04.51,0,.34,0,.68.01,1.02,0,.13-.04.2-.17.25-.2.07-.4.14-.61.2-.45.15-.9.29-1.35.44-.54.17-1.07.35-1.61.52-.53.17-1.07.35-1.6.52-.58.19-1.17.38-1.75.57-.06.02-.12.04-.18.06Zm-.8-2.82c0,.11,0,.25.02.39.01.14.04.28.07.42.02.09.03.1.12.07.2-.06.4-.13.6-.2.73-.24,1.46-.48,2.19-.73.61-.2,1.22-.41,1.83-.61.22-.07.44-.15.66-.23.1-.04.17-.14.17-.24,0-.28-.04-.54-.16-.8-.28-.6-.73-1.02-1.36-1.22-.41-.13-.83-.18-1.25-.15-.23.01-.45.04-.67.1-.69.19-1.24.59-1.64,1.19-.4.59-.57,1.25-.58,2Z"/>
      <path class="cls-1" d="m91.81,62.48c.08,0,.15.01.22.01.49,0,.99,0,1.48,0,.8,0,1.59,0,2.39,0,.21,0,.42-.01.63-.02.21,0,.42,0,.62.08.4.14.66.41.75.82.04.18.06.37.08.56.02.2.02.39.02.59,0,.04-.01.06-.06.06-.07,0-.15,0-.22,0-1.35,0-2.69,0-4.04,0-1.61,0-3.21,0-4.82,0-.13,0-.25,0-.38-.02-.15-.02-.26-.09-.29-.24-.03-.12-.05-.24-.07-.36-.04-.38.04-.75.21-1.09.12-.24.29-.45.46-.65.28-.33.57-.66.86-.99.35-.41.7-.82,1.05-1.23.38-.45.76-.89,1.14-1.34.44-.52.87-1.04,1.31-1.55.36-.43.73-.86,1.09-1.29.03-.04.06-.07.09-.12-.04,0-.07,0-.09,0-.49,0-.97,0-1.46,0-.85,0-1.7,0-2.56,0-.55,0-1.01-.23-1.35-.66-.19-.24-.32-.51-.36-.81-.02-.18-.02-.36-.03-.54,0-.05.02-.07.07-.07.11,0,.21,0,.32,0,1.26,0,2.51,0,3.77,0,.56,0,1.11,0,1.67,0,1.07,0,2.14,0,3.21,0,.07,0,.14,0,.2,0,.19.02.28.11.29.31,0,.24,0,.48,0,.72-.01.26-.12.48-.29.68-.26.31-.51.62-.76.93-.28.34-.57.69-.85,1.03-.53.64-1.06,1.29-1.6,1.93-.5.61-1,1.21-1.5,1.81-.39.47-.78.94-1.17,1.41-.01.01-.02.03-.04.06Z"/>
      <path class="cls-1" d="m112.12,52.04c0,.27,0,.53,0,.8,0,.15,0,.31,0,.46,0,.02,0,.04,0,.06.01.15.06.2.21.22.04,0,.07,0,.11,0,.48,0,.97,0,1.45,0,.09,0,.17,0,.26,0,.03,0,.05.01.05.05,0,.4-.05.79-.23,1.15-.13.25-.29.46-.55.59-.15.08-.31.12-.48.13-.19,0-.37.01-.56.02-.08,0-.16,0-.24,0-.03,0-.04.01-.04.04,0,.19,0,.39,0,.58,0,.53,0,1.07,0,1.6,0,.39-.01.78,0,1.17,0,.49,0,.98.03,1.47.02.49.11.97.26,1.44.1.3.27.55.57.67.14.06.29.08.44.09.2.01.41.01.61.02.4.02.69.22.88.56.12.22.18.46.19.72,0,.11.02.23.02.34,0,.05,0,.1-.01.15-.02.12-.11.18-.26.19-.21,0-.42,0-.64,0-.41,0-.83.01-1.24-.02-.66-.04-1.25-.26-1.76-.68-.34-.28-.58-.64-.78-1.03-.17-.34-.31-.7-.38-1.07-.06-.32-.1-.65-.11-.98,0-.31-.01-.62-.01-.92,0-.74,0-1.49.01-2.23,0-1.75,0-3.5.01-5.25,0-.18,0-.36.04-.54.05-.29.22-.51.46-.68.28-.19.57-.34.9-.41.1-.02.2-.04.31-.04.13-.01.27,0,.4-.02.06,0,.07.02.07.07,0,.16.02.32.02.48,0,.27,0,.54,0,.81Z"/>
    </g>
    <g>
      <path class="cls-1" d="m173.92,147.07c.31-.13.56-.28.82-.33,1.1-.24,2.01.56,2.02,1.76,0,2.36,0,4.72,0,7.08,0,.67-.03,1.34,0,2.01.04.84-.59,1.78-1.68,1.8-.9.02-1.79,0-2.69,0-.24,0-.35-.1-.34-.34,0-.08,0-.15,0-.23,0-5.1,0-10.2,0-15.3,0-.36.11-.5.48-.48.31.02.63.02.95,0,.3-.02.4.12.4.4,0,.92,0,1.84,0,2.76,0,.28.03.55.06.87Zm1.11,5.81s0,0,0,0c0-1.28,0-2.55,0-3.83,0-.51-.27-.74-.74-.65-.39.08-.43.38-.43.7,0,2.51,0,5.03,0,7.54,0,.13,0,.25.02.38.03.24.17.38.41.42.47.09.72-.12.72-.66.01-1.3,0-2.6,0-3.9Z"/>
      <path class="cls-1" d="m191.96,153.75c0,1.74,0,3.49,0,5.23,0,.32-.09.41-.41.41-.91-.02-1.82.01-2.73,0-.9-.02-1.62-.58-1.66-1.53-.06-1.42-.06-2.85,0-4.28.04-1.08.73-1.65,1.82-1.66.33,0,.66-.01.98,0,.22,0,.33-.08.33-.31,0-.98,0-1.97,0-2.95,0-.34-.26-.55-.59-.55-.38,0-.61.17-.63.55-.02.58-.02,1.16,0,1.74.01.3-.07.44-.4.42-.4-.03-.81,0-1.21-.02-.11,0-.31-.14-.31-.21.01-.93-.19-1.86.14-2.78.31-.88,1.03-1.23,1.85-1.35.66-.09,1.34-.06,1.93.36.62.44.88,1.07.89,1.79.02,1.72,0,3.43,0,5.15h0Zm-2.95,1.94s0,0-.01,0c0,.53-.01,1.06,0,1.59.01.39.24.62.56.63.33.01.57-.19.58-.57.01-1.08,0-2.17-.01-3.26,0-.33-.26-.53-.56-.53-.32,0-.54.21-.55.54-.01.53,0,1.06,0,1.59Z"/>
      <path class="cls-1" d="m182.85,159.36c-1.15,0-2.28.06-3.39-.02-.8-.05-1.36-.8-1.37-1.61,0-1.3,0-2.6,0-3.9,0-.8.25-1.47,1.04-1.76.37-.13.79-.14,1.19-.15,1.06-.04.94.13.95-.96,0-.73,0-1.46,0-2.2,0-.31-.13-.57-.47-.64-.29-.06-.54,0-.69.26-.07.12-.1.28-.1.43-.01.54-.02,1.09,0,1.63,0,.28-.1.38-.38.37-.4-.02-.81.01-1.21-.02-.1,0-.28-.15-.29-.24-.02-.78-.04-1.56,0-2.34.05-.89.94-1.63,1.85-1.74.74-.09,1.48-.08,2.13.41.55.41.77.99.78,1.61.02,3.55.01,7.1,0,10.64,0,.06-.01.12-.03.23Zm-2.9-3.61s0,0,0,0c0,.52-.01,1.04,0,1.55.01.4.22.6.58.6.34,0,.58-.22.59-.6.01-1.03,0-2.07-.01-3.1,0-.16-.08-.38-.19-.46-.16-.11-.44-.19-.58-.12-.17.09-.34.35-.36.55-.05.53-.02,1.06-.02,1.59Z"/>
      <path class="cls-1" d="m194.99,153.86c0,2.25,0,4.49,0,6.74,0,1.55-.92,2.46-2.47,2.49-.98.02-1.69-.39-2.08-1.27-.16-.35-.14-.78-.17-1.18,0-.07.17-.22.27-.23.38-.02.76-.03,1.13.02.1.01.23.23.25.37.06.31.22.52.51.6.29.08.55-.02.73-.28.07-.1.12-.22.12-.34.02-.3.02-.61.02-.91,0-4.28,0-8.56,0-12.84,0-.7-.05-.62.64-.62.23,0,.45,0,.68,0,.27,0,.37.1.37.39,0,2.35,0,4.7,0,7.04Z"/>
      <path class="cls-1" d="m185.92,153.91c0,2.3,0,4.6,0,6.9,0,1.02-.53,1.8-1.4,2.13-1.02.38-2.18.16-2.81-.55-.44-.49-.55-1.1-.51-1.73,0-.08.14-.22.23-.22.4-.02.81-.02,1.21,0,.09,0,.21.18.23.29.07.48.33.73.76.7.33-.02.61-.36.61-.77,0-1.98,0-3.97.01-5.95,0-2.55,0-5.1,0-7.65q0-.64.62-.63c.18,0,.35,0,.53,0,.49,0,.52.04.52.51,0,1.94,0,3.89,0,5.83,0,.38,0,.76,0,1.14Z"/>
      <path class="cls-1" d="m222.76,157.06c.3-1.66.61-3.32.92-5.02.33,0,.62.02.91,0,.31-.03.4.11.39.39,0,1.12,0,2.25,0,3.37,0,1.04-.01,2.07,0,3.11,0,.28-.06.43-.38.41-.28-.02-.46-.06-.46-.42.02-1.73,0-3.46,0-5.19,0-.12,0-.25,0-.37-.03,0-.06,0-.09,0-.08.51-.16,1.02-.24,1.52-.21,1.35-.44,2.69-.64,4.04-.05.36-.25.41-.54.42-.31.01-.41-.16-.45-.43-.25-1.7-.51-3.39-.77-5.09-.02-.16-.06-.31-.16-.46,0,.48,0,.95,0,1.43,0,1.36.02,2.73.03,4.09,0,.25.03.49-.35.47-.32-.01-.47-.09-.47-.46.02-2.11.01-4.22,0-6.33,0-.33.08-.47.44-.49.9-.04.91-.05,1.05.83.21,1.33.4,2.67.6,4.01,0,.06.04.11.06.17.05,0,.09,0,.14.01Z"/>
      <path class="cls-1" d="m207.57,154.43c-.01.19-.03.39-.03.58,0,1.28,0,2.55,0,3.83,0,.45-.08.5-.5.48-.28-.02-.31-.17-.31-.4,0-1.06,0-2.12,0-3.18,0-1.12,0-2.25,0-3.37,0-.26.06-.35.35-.33.76.05.76.04.94.81.3,1.21.61,2.42.93,3.63.03.12.09.23.13.34.03,0,.07,0,.1,0,.01-.12.04-.24.04-.37,0-1.31.02-2.63,0-3.94,0-.37.14-.45.47-.45.34,0,.35.19.35.44,0,2.12,0,4.24,0,6.36,0,.21.06.43-.29.45-.65.05-.75.03-.85-.35-.37-1.43-.73-2.86-1.09-4.29-.02-.09-.07-.17-.1-.26-.04,0-.08.01-.12.02Z"/>
      <path class="cls-1" d="m231.33,157.72c0,.42-.01.83,0,1.25.01.3-.14.37-.4.34-.22-.03-.5.07-.5-.33,0-2.19,0-4.37,0-6.56,0-.27.1-.39.39-.37.53.03,1.06.02,1.59.06.57.05.93.44,1.04.96.13.64.23,1.34-.14,1.92-.29.45-.36.76,0,1.19.14.17.11.51.12.77.02.66.01,1.31.03,1.97,0,.27-.07.4-.36.39-.26,0-.49,0-.49-.36,0-.62,0-1.24-.02-1.86,0-.21-.03-.43-.09-.63-.13-.45-.53-.65-.95-.46-.12.05-.2.27-.23.42-.04.21,0,.43,0,.64,0,.21,0,.43,0,.64h0Zm0-3.74h0c0,.29-.02.58.01.87.02.14.12.33.23.37.27.11.91-.03.94-.46.04-.48.09-.98.03-1.45-.02-.18-.33-.41-.54-.48-.54-.16-.67-.03-.67.54,0,.2,0,.4,0,.61Z"/>
      <path class="cls-1" d="m205.25,155.64c0,.78.02,1.57,0,2.35-.02.61-.5,1.27-.99,1.35-.67.11-1.41.25-1.88-.42-.22-.31-.34-.75-.35-1.13-.05-1.34-.03-2.68-.04-4.01,0-.1.02-.2.03-.3.16-1.42,1.12-1.6,2.21-1.47.49.06,1,.75,1.02,1.33.02.77,0,1.54,0,2.31,0,0,0,0,0,0Zm-2.34.08s0,0-.01,0c0,.69-.01,1.39,0,2.08.01.53.3.82.79.82.4,0,.67-.29.68-.79.02-1.36.02-2.72.02-4.09,0-.19-.03-.39-.12-.55-.09-.16-.25-.33-.41-.39-.47-.17-.92.14-.94.68-.03.74,0,1.49,0,2.23Z"/>
      <path class="cls-1" d="m245.57,155.68c0-1.06,0-2.12,0-3.18,0-.34.11-.49.46-.45.57.05,1.16.02,1.72.15.59.14.87.62.88,1.22,0,.21,0,.43,0,.64.01.49-.07.96-.45,1.31-.15.13-.17.27-.01.42.34.31.41.72.42,1.14.03.67,0,1.34.01,2.01,0,.27-.08.39-.37.38-.27,0-.48-.01-.48-.36,0-.68,0-1.36-.04-2.04-.03-.62-.24-.96-.86-.95-.29,0-.41.11-.41.41,0,.82,0,1.64,0,2.46,0,.31-.07.45-.42.45-.35,0-.46-.12-.46-.46.02-1.05,0-2.1,0-3.14h0Zm.88-1.7h0c.01.31.02.63.05.94,0,.1.06.23.14.28.21.14.81-.06.93-.28.31-.56.19-1.15.08-1.73-.02-.11-.13-.27-.22-.29-.26-.06-.54-.12-.8-.07-.09.01-.15.33-.17.51-.03.21,0,.43,0,.64Z"/>
      <path class="cls-1" d="m216.55,152.06c.02.32.05.61.05.9,0,1.62,0,3.23.01,4.85,0,.58.26.82.83.76.16-.02.39-.17.44-.31.11-.3.16-.64.16-.96.02-1.59.01-3.18.01-4.77,0-.47.07-.52.53-.47.21.02.32.11.31.33,0,1.86.06,3.71-.02,5.57-.05,1.18-.76,1.56-1.99,1.41-.81-.1-1.19-.85-1.19-1.48-.01-1.82,0-3.64-.01-5.45,0-.33.1-.51.47-.41.11.03.22.02.39.03Z"/>
      <path class="cls-1" d="m243.89,159.31c-.28.06-.42-.09-.46-.4-.06-.46-.16-.92-.23-1.38-.03-.23-.13-.32-.36-.33-.92-.07-.94-.06-1.05.86-.03.26-.08.52-.13.78-.08.43-.36.6-.78.44-.08-.03-.15-.22-.13-.32.11-.76.25-1.52.38-2.28.22-1.36.45-2.71.66-4.07.08-.54.09-.56.64-.56.79,0,.74-.13.89.74.33,2.02.68,4.03,1.02,6.04.08.45.05.47-.45.47Zm-1.28-6.07s-.1,0-.15,0c-.13.97-.29,1.94-.37,2.91-.03.34.33.22.52.23.18.01.41.03.38-.27-.05-.49-.11-.98-.17-1.47-.06-.47-.14-.93-.21-1.4Z"/>
      <path class="cls-1" d="m212.88,159.4c-1.18.08-1.62-.74-1.62-1.71,0-.33.19-.37.44-.36.22.02.51-.07.47.34-.02.18.03.38.07.56.06.29.29.41.55.44.27.03.48-.07.61-.34.28-.6.16-1.49-.31-1.97-.27-.28-.58-.52-.88-.78-.87-.74-1.12-2.03-.56-3.02.33-.57.88-.66,1.48-.59.52.07.91.29,1.04.84.06.28.11.56.14.85.03.26-.15.29-.34.27-.2-.02-.49.13-.54-.24-.02-.17-.03-.35-.06-.53-.05-.29-.23-.44-.53-.44-.28,0-.47.15-.51.41-.09.6-.16,1.2.44,1.64.39.29.72.67,1.09.99.76.66.72,2.45.13,3.2-.21.26-.65.43-1.13.43Z"/>
      <path class="cls-1" d="m236.65,155.65c0-.64,0-1.29,0-1.93,0-1.35.85-1.95,2.03-1.69.46.1.86.46.95.91.04.21.06.43.06.64,0,.46-.31.66-.73.48-.07-.03-.12-.15-.14-.23-.03-.17-.02-.35-.05-.53-.05-.32-.26-.51-.57-.51-.32,0-.56.16-.61.5-.03.17-.04.35-.04.53,0,1.21,0,2.43,0,3.64,0,.28.06.57.14.85.07.26.31.41.56.33.2-.07.38-.26.49-.44.09-.13.06-.34.07-.52.02-.28.14-.4.44-.39.41.02.53.08.46.49-.07.41-.16.86-.39,1.2-.42.62-1.12.53-1.73.4-.55-.12-.94-.62-.96-1.48-.02-.74,0-1.49,0-2.24h0Z"/>
      <path class="cls-1" d="m198.58,155.7c0,.71-.02,1.42,0,2.12.02.57.35.86.8.76.32-.06.48-.33.49-.84,0-.26,0-.48.36-.48.46,0,.55.03.51.51-.03.32-.1.65-.22.95-.26.62-.89.73-1.67.69-.58-.04-.95-.43-1.1-1.08-.05-.24-.07-.5-.07-.75,0-1.36-.02-2.73.02-4.09,0-.33.13-.7.32-.98.36-.54,1.05-.68,1.78-.45.55.17.87.62.91,1.3,0,.08.01.15,0,.23-.01.21.11.48-.28.48-.45,0-.52-.04-.58-.45-.03-.19-.07-.4-.16-.57-.12-.22-.31-.37-.59-.29-.26.08-.45.23-.48.52-.02.2-.06.4-.06.6,0,.61,0,1.21,0,1.82,0,0,0,0,.01,0Z"/>
      <path class="cls-1" d="m226.59,155.66c0-1.07,0-2.15,0-3.22,0-.3.1-.4.4-.39.62.02,1.24.02,1.86.02.29,0,.38.14.38.42,0,.3-.14.37-.39.37-.32,0-.63,0-.95,0-.26,0-.41.1-.41.38,0,.49,0,.99,0,1.48,0,.26.14.36.38.36.32,0,.63.01.95.01.26,0,.31.15.3.37,0,.21.02.42-.29.41-.32,0-.63.03-.95.02-.27,0-.4.09-.4.37,0,.63,0,1.26,0,1.89,0,.26.12.37.37.36.37,0,.73,0,1.1,0,.19,0,.39.01.34.28-.04.21.07.54-.36.52-.63-.02-1.26-.02-1.89,0-.35,0-.45-.14-.45-.48.01-1.06,0-2.12,0-3.18,0,0,0,0,0,0Z"/>
      <path class="cls-1" d="m250.04,155.68c0-1.06,0-2.12,0-3.18,0-.34.11-.47.46-.46.6.02,1.21.01,1.82,0,.32-.01.34.17.34.41,0,.25-.04.42-.34.41-.33,0-.66.01-.98.01-.25,0-.38.11-.38.37,0,.48,0,.96,0,1.44,0,.27.14.38.41.37.26-.01.53,0,.79,0,.3,0,.41.17.41.47,0,.29-.13.38-.39.37-.26,0-.53.01-.79,0-.27-.02-.42.08-.42.36,0,.64,0,1.29,0,1.93,0,.26.15.36.39.36.38,0,.76,0,1.13.03.1,0,.28.14.27.19-.04.2.11.54-.23.55-.75.04-1.51.03-2.27,0-.07,0-.19-.24-.2-.36-.02-1.08,0-2.17,0-3.26h0Z"/>
      <path class="cls-1" d="m194.15,143.08c.67-.01,1.07.55,1.07,1.04,0,.66-.51,1.13-1.17,1.11-.54-.02-1.01-.55-.98-1.13.02-.6.49-1.03,1.08-1.01Z"/>
      <path class="cls-1" d="m185.12,143.61c.47,0,.79.33.8.81,0,.45-.39.86-.83.85-.44,0-.82-.41-.81-.87,0-.43.38-.79.84-.79Z"/>
    </g>
    <g>
      <path class="cls-1" d="m33.12,3.19c.39-.53.85-.91,1.53-.84.42.04.68.34.78.82.07-.1.12-.15.16-.21.29-.43.94-.72,1.41-.62.48.11.74.35.78.85.05.59.05,1.18.06,1.77,0,.96,0,1.92,0,2.88,0,.17-.03.26-.23.26-.42-.01-.83,0-1.28,0,0-.13,0-.24,0-.35,0-1.24,0-2.47,0-3.71,0-.13-.08-.33-.17-.36-.13-.04-.35,0-.43.1-.13.15-.23.37-.24.56-.02,1.15-.02,2.31,0,3.46,0,.25-.06.32-.31.31-.37-.02-.75,0-1.16,0,0-.15,0-.28,0-.4,0-1.18,0-2.37,0-3.55,0-.27-.17-.52-.36-.53-.25-.01-.51.26-.51.55,0,1.2,0,2.41,0,3.61,0,.27-.08.36-.35.34-.3-.02-.61-.02-.92,0-.19,0-.25-.06-.25-.24,0-1.7,0-3.41,0-5.11,0-.21.07-.29.28-.28.33.02.65,0,.98,0,.18,0,.26.05.25.24-.01.16,0,.32,0,.48Z"/>
      <path class="cls-1" d="m25.42,1.62V.09h3.76v1.54h-1.09c0,.71,0,1.37,0,2.03,0,1.38,0,2.76,0,4.13,0,.23-.05.3-.29.28-.44-.03-.87,0-1.34,0,0-.1-.01-.19-.01-.27,0-1.98,0-3.96.01-5.94,0-.2-.07-.24-.25-.24-.25.01-.51,0-.78,0Z"/>
      <path class="cls-1" d="m42.44,5.65h-2.55c-.01.45.04.87.3,1.23.19.26.58.28.84.02.18-.17.3-.4.46-.62.29.14.6.29.9.44-.17.78-.82,1.36-1.62,1.48-.79.12-1.58-.24-1.94-.99-.6-1.28-.64-2.61,0-3.89.5-.98,1.5-1.15,2.36-.84.27.1.53.36.7.61.51.76.57,1.63.54,2.56Zm-1.29-1.05c-.08-.33-.12-.6-.22-.84-.14-.34-.65-.38-.83-.05-.12.21-.17.46-.22.69-.01.05.1.19.16.19.34.02.68,0,1.11,0Z"/>
      <path class="cls-1" d="m42.66,6.68c.34-.13.67-.27,1.02-.38.05-.02.16.08.23.15.17.18.3.41.5.55.23.17.55.07.7-.16.14-.22.1-.44-.16-.63-.2-.15-.44-.26-.66-.37-.17-.09-.35-.17-.53-.24-1.17-.51-1.2-2.08-.35-2.85.95-.86,2.52-.48,2.97.71.12.32.09.38-.23.49-.03,0-.06.02-.09.03-.51.17-.51.16-.86-.23-.11-.12-.25-.23-.39-.28-.21-.08-.45-.03-.56.18-.11.21-.05.43.16.56.24.15.5.28.75.4.2.1.41.18.6.29.66.39.93.99.83,1.73-.1.73-.5,1.23-1.21,1.47-1.2.4-2.45-.24-2.72-1.42Z"/>
      <path class="cls-1" d="m35.97,9.88c7.6,0,15.2,0,22.8,0,.14,0,.4.11.4.14-.03.25-.25.14-.38.14-9.63,0-19.26,0-28.89.01-5.56,0-11.11,0-16.67,0-.02,0-.04,0-.06,0-.12-.05-.23-.1-.35-.16.11-.04.22-.12.33-.12,2.6,0,5.21-.01,7.81-.01,5,0,10.01,0,15.01,0h0Z"/>
      <path class="cls-1" d="m35.99,19.23c-7.59,0-15.17,0-22.76,0-.04,0-.09.01-.12,0-.1-.04-.19-.1-.29-.15.1-.04.19-.12.29-.12,4.22,0,8.44-.01,12.66-.01,10.84,0,21.67,0,32.51,0,.21,0,.43,0,.64.01.09.01.17.1.25.15-.09.04-.18.12-.27.12-1.9,0-3.8,0-5.7,0-5.74,0-11.48,0-17.22,0h0Z"/>
      <path class="cls-1" d="m29.46,8.09V2.41c.48,0,.95,0,1.43,0,.05,0,.13.12.13.19.02.2,0,.41,0,.61,0,1.52,0,3.04,0,4.56,0,.23-.05.33-.31.31-.41-.03-.81,0-1.26,0Z"/>
      <path class="cls-1" d="m45.13,15.26c.47-.91.91-1.76,1.35-2.62.09-.18.17-.4.52-.32-.18.34-.35.66-.52.98-.31.59-.59,1.19-.94,1.75-.27.44-.22.8.13,1.18.07-.11.14-.22.2-.33.59-1.12,1.18-2.23,1.77-3.35.09-.17.18-.3.43-.19-.79,1.51-1.57,3.01-2.38,4.56-.19-.37-.35-.66-.56-1.05-.21.39-.37.7-.56,1.05-.81-1.55-1.6-3.06-2.4-4.58.28-.09.39.09.48.25.58,1.1,1.15,2.21,1.72,3.31.05.1.12.2.2.33.09-.14.16-.24.23-.33.14-.19.16-.37.04-.59-.46-.84-.9-1.69-1.35-2.54-.07-.13-.13-.27-.2-.42.25-.12.35.03.43.18.39.74.77,1.48,1.16,2.22.08.15.16.3.27.5Z"/>
      <path class="cls-1" d="m40.04,16.95c-1.31-1.3-2.58-2.56-3.9-3.87v3.89h-.3v-4.61c1.3,1.29,2.57,2.54,3.88,3.84v-3.84c.12-.01.2-.02.32-.03v4.63Z"/>
      <path class="cls-1" d="m35.43,14.61c.07,1.42-1.19,2.4-2.25,2.43-1.35.03-2.49-1.02-2.52-2.31-.03-1.34,1.04-2.43,2.37-2.5,1.2-.06,2.48,1.14,2.4,2.38Zm-.28.09c.02-1.19-.86-2.08-2.01-2.14-1.35-.07-2.2,1.08-2.19,2.05,0,1.14.9,2.09,2.02,2.11,1.23.02,2.16-.85,2.18-2.03Z"/>
      <path class="cls-1" d="m23.25,16.97h-.32v-4.6c.29-.09.32-.07.32.24,0,.78-.01,1.55-.03,2.33,0,.28.07.4.38.39.87-.02,1.73-.02,2.6,0,.25,0,.31-.09.31-.32-.01-.79,0-1.57-.01-2.36,0-.1.01-.2.02-.31h.26s.03.1.03.14c0,1.42,0,2.84,0,4.26,0,.19-.05.3-.32.21,0-.34,0-.69,0-1.05,0-.2-.05-.27-.26-.27-.91.01-1.82.01-2.72,0-.22,0-.28.08-.27.29.01.34,0,.69,0,1.05Z"/>
      <path class="cls-1" d="m52.27,14.66c0-.68.01-1.37,0-2.05,0-.26.1-.31.32-.31,1.01,0,2.02,0,3.03.01.09,0,.18.1.27.16-.09.05-.18.15-.26.16-.89.01-1.78.02-2.66,0-.28,0-.36.08-.35.37.02,1.1.01,2.2,0,3.31,0,.29.07.39.37.38.88-.02,1.76-.02,2.63,0,.11,0,.21.09.31.14-.1.06-.2.16-.3.16-1.03.01-2.06,0-3.09,0-.15,0-.24-.01-.24-.21.01-.7,0-1.41,0-2.11,0,0,0,0-.01,0Z"/>
      <path class="cls-1" d="m48.34,12.3c.22,0,.43,0,.65,0,.87,0,1.73,0,2.6,0,.14,0,.32-.03.31.18,0,.05-.19.14-.3.14-.88.01-1.75.01-2.63,0-.24,0-.33.05-.33.32.02,1.12,0,2.24,0,3.37,0,.3.09.38.38.37.87-.02,1.73,0,2.6,0,.04,0,.09-.01.12,0,.07.05.13.11.19.16-.06.05-.13.13-.2.13-.38.02-.75.01-1.13.01-.74,0-1.49,0-2.26,0v-4.69Z"/>
      <path class="cls-1" d="m14.52,16.96c.8-1.54,1.59-3.05,2.41-4.6.25.47.49.91.72,1.35.52.99,1.04,1.99,1.55,2.98.05.09.02.22.02.34-.11-.07-.26-.12-.31-.22-.65-1.21-1.28-2.43-1.92-3.65,0-.01-.03-.02-.08-.05-.05.08-.1.17-.15.25-.59,1.13-1.18,2.26-1.75,3.39-.11.21-.23.3-.49.21Z"/>
      <path class="cls-1" d="m21.58,13.19c-.08-.13-.15-.25-.23-.38-.2-.31-.72-.36-.96-.09-.15.17-.24.35-.15.59.1.26.28.4.55.42.55.04,1.02.24,1.37.69.38.49.46,1.02.23,1.58-.23.57-.67.93-1.28,1.02-.86.13-1.69-.44-1.89-1.28-.02-.09.05-.2.08-.3.06.07.15.14.17.22.21.73.77,1.11,1.58,1.06.6-.04,1.09-.53,1.19-1.21.09-.58-.41-1.3-1.01-1.43-.16-.03-.32-.04-.49-.06-.44-.05-.77-.39-.8-.83-.03-.45.29-.88.7-.95.49-.09.9.13,1.05.58.03.1,0,.22,0,.33-.04,0-.08.02-.11.02Z"/>
      <path class="cls-1" d="m60.51,18.43c-.11-.05-.24-.07-.31-.15-.98-1.01-1.96-2.03-2.94-3.05.38-.38.81-.82,1.25-1.26.47-.48.94-.97,1.43-1.43.14-.13.34-.21.51-.31.02.03.05.06.07.09-.04.06-.08.13-.13.18-.83.83-1.67,1.65-2.51,2.47-.31.3-.3.3,0,.59.81.81,1.62,1.62,2.42,2.43.1.1.19.23.28.34-.02.03-.04.06-.07.09Z"/>
      <path class="cls-1" d="m11.31,16.96v-4.66c.47,0,.93,0,1.38,0,.58,0,1.16,0,1.75.01.16,0,.41-.1.42.19,0,.04-.26.12-.4.12-.84.01-1.67,0-2.51,0-.1,0-.2.01-.33.02,0,.17,0,.32,0,.47,0,1.18,0,2.37,0,3.55,0,.19.01.37-.3.28Z"/>
      <path class="cls-1" d="m29.1,14.26c0-.09.01-.17,0-.26-.04-.21.03-.34.21-.46.08-.05.1-.2.12-.31.01-.12-.02-.24-.01-.35,0-.04.08-.07.12-.1.02.05.06.1.05.14-.02.34-.04.68-.08,1.03-.04.37-.11.74-.16,1.11-.08.54-.17,1.08-.23,1.63-.02.15.06.31.08.47.01.08.02.18,0,.26-.05.19-.11.38-.19.56-.03.08-.1.15-.15.23-.05-.08-.14-.16-.14-.23,0-.2-.02-.45.09-.58.18-.23.17-.42.12-.68-.07-.31-.05-.65-.08-.97-.02-.21-.05-.42-.08-.63-.06-.41-.13-.82-.16-1.24,0-.09.1-.27.17-.28.2-.02.27.14.27.33,0,.12-.02.23-.03.34.04,0,.07,0,.11,0Z"/>
      <path class="cls-1" d="m30.22,0c.44,0,.79.39.78.85,0,.52-.36.88-.83.88-.45,0-.8-.4-.79-.87,0-.52.34-.86.84-.85Z"/>
      <path class="cls-1" d="m56.23,16.95c0-1.48,0-2.95,0-4.42,0-.08.1-.16.16-.24.05.09.15.18.15.28,0,1.22,0,2.45,0,3.67,0,.16-.01.33,0,.49.03.25-.05.33-.32.22Z"/>
      <path class="cls-1" d="m54.52,15.64c-.38,0-.76,0-1.13,0-.07,0-.14-.1-.21-.15.07-.06.15-.18.22-.18.74,0,1.49,0,2.23.03.09,0,.18.12.27.18-.09.04-.18.12-.27.12-.37.01-.73,0-1.1,0h0Z"/>
      <path class="cls-1" d="m14.91,15.56c-.1.03-.2.07-.3.07-.73,0-1.47.01-2.2,0-.08,0-.15-.1-.23-.16.08-.06.16-.17.24-.17.72,0,1.45,0,2.17,0,.11,0,.23.07.34.11,0,.04,0,.08-.01.13Z"/>
      <path class="cls-1" d="m51.93,15.57c-.09.02-.18.06-.28.06-.73,0-1.46.01-2.2,0-.08,0-.17-.09-.25-.14.08-.07.17-.19.25-.19.71-.01,1.42,0,2.13.01.12,0,.24.08.36.12,0,.04-.01.09-.02.13Z"/>
      <path class="cls-1" d="m29.28,11.75c-.12-.02-.22-.04-.31-.05.03.07.08.14.09.21,0,.07-.04.14-.09.25-.09-.15-.16-.24-.2-.33-.05-.13-.06-.28-.09-.41.12,0,.25-.05.37-.02.16.04.29.14.23.35Z"/>
      <path class="cls-1" d="m29.11,12.84c-.78.24-.79.24-.89,0h.89Z"/>
    </g>
    <g>
      <path class="cls-1" d="m34.55,61.03c-.37.34-.77.66-1.12,1.03-.8.86-1.75,1.17-2.89.92-.46-.1-.84-.35-1.15-.7-.39-.44-.79-.88-1.21-1.35-.13.24-.25.46-.37.69-.52,1.01-1.65,1.56-2.83,1.36-1.11-.19-1.98-1.08-2.14-2.18-.1-.65.02-1.26.32-1.83.71-1.33,1.43-2.66,2.12-4,.77-1.48,3.12-1.86,4.27-.53.59.69,1.21,1.35,1.8,2.01.29-.27.58-.53.85-.8.41-.41.8-.83,1.21-1.23,1-.97,2.81-.95,3.76.06.19.2.33.46.46.71.63,1.28,1.26,2.56,1.88,3.84.39.8.5,1.62.17,2.47-.42,1.07-1.59,1.73-2.74,1.58-.8-.1-1.48-.41-1.92-1.12-.14-.23-.25-.49-.37-.74-.04-.08-.08-.16-.12-.23.01.02.02.04.03.06Z"/>
      <path class="cls-1" d="m16.48,53.3c2.72,0,4.81,2.19,4.89,4.73.09,2.66-2.02,5.04-4.88,5.04-2.76,0-4.84-2.2-4.89-4.77-.06-2.76,2.15-5.01,4.89-5.01Z"/>
      <path class="cls-1" d="m48.86,63.05c-1.3,0-2.6.03-3.89,0-.95-.03-1.72-.46-2.19-1.31-.77-1.42-1.52-2.86-2.26-4.31-.55-1.07-.35-2.35.45-3.15,1.27-1.28,3.52-.91,4.27.64.43.9.93,1.78,1.39,2.66.05.1.11.14.23.14.87,0,1.73,0,2.6,0,.5,0,.98.05,1.44.28,1.11.56,1.72,1.79,1.45,2.96-.28,1.24-1.36,2.11-2.63,2.12-.29,0-.58,0-.86,0,0-.01,0-.02,0-.03Z"/>
    </g>
    <g>
      <path class="cls-1" d="m115.63,12.99c-.11-1.03-.19-2.03-.33-3.03-.07-.47-.37-.84-.72-1.18-.22-.21-.4-.48-.53-.75-.05-.11.06-.31.1-.46.13.06.29.1.39.2.28.28.53.58.8.87.33-.41.2-1.12-.21-1.52-.2-.19-.4-.43-.5-.68-.06-.15.05-.37.09-.56.15.07.31.13.45.2.08.04.14.11.28.22.02-.26.04-.44.05-.63.01-.25.15-.33.38-.31.21.02.42.02.43.31,0,.18.03.35.06.6.15-.12.24-.22.35-.27.12-.06.28-.12.38-.08.08.03.16.24.13.33-.09.26-.18.59-.38.74-.57.43-.57.97-.46,1.64.31-.33.58-.63.87-.91.09-.08.29-.17.34-.13.1.07.22.27.19.37-.09.25-.2.55-.39.7-.78.59-1.01,1.41-1.07,2.31-.04.53,0,1.06-.04,1.59-.02.37.17.41.46.41,2.53,0,5.06,0,7.59,0,3.54,0,7.08,0,10.62,0,.19,0,.47-.11.5.22,0,.03-.33.14-.51.14-5.48.01-10.96.02-16.43.02-9.49,0-18.98,0-28.46,0-.35,0-.7,0-1.05-.03-.11,0-.21-.11-.31-.17.11-.06.22-.18.33-.18,3.61,0,7.22,0,10.84,0,4.92,0,9.85,0,14.77.01.29,0,.57,0,1,0Z"/>
      <path class="cls-1" d="m108.8,7.09c.56.26,1.01.59,1.27,1.12.66,1.38-.11,2.87-1.69,3.09-.96.14-1.94.1-2.91.1-.81,0-.8-.02-.8-.83,0-2.39,0-4.79,0-7.18,0-.29.07-.41.38-.4,1.03.04,2.07,0,3.1.09,1.47.13,2.31,1.41,1.87,2.75-.15.46-.42.74-1.2,1.25Zm-3.27,1.93s0,0,0,0c0,.46-.01.92.01,1.37,0,.1.14.28.22.28.86-.01,1.73.02,2.59-.1.74-.1,1.14-.73,1.13-1.5,0-.76-.45-1.3-1.16-1.5-.84-.24-1.7-.15-2.55-.15-.2,0-.24.09-.23.27.01.45,0,.89,0,1.34Zm1.26-5.33v.04c-.33,0-.65,0-.98,0-.19,0-.29.07-.29.27,0,.84,0,1.69.02,2.53,0,.07.11.21.17.21.86-.02,1.73.13,2.58-.15.68-.23,1-.72.96-1.47-.03-.66-.44-1.17-1.1-1.29-.45-.08-.91-.09-1.36-.13Z"/>
      <path class="cls-1" d="m133.35,7.92c.7,1.15,1.41,2.29,2.14,3.48-.35,0-.64.02-.94-.01-.09,0-.19-.14-.25-.23-.59-.99-1.16-2-1.75-2.99-.07-.12-.25-.22-.39-.23-.42-.03-.83-.01-1.28-.01v3.45h-.86V3.05s.03-.04.05-.04c1.07.02,2.15-.05,3.2.09,2.04.27,2.44,2.13,1.88,3.42-.3.69-.87,1.03-1.54,1.25-.06.02-.12.03-.17.05-.02,0-.03.03-.09.1Zm-2.49-4.26c0,1.17,0,2.25,0,3.33,0,.08.13.23.19.23.78-.04,1.57-.03,2.33-.17.75-.14,1.17-.84,1.14-1.63-.03-.9-.45-1.5-1.25-1.61-.78-.11-1.57-.11-2.42-.16Z"/>
      <path class="cls-1" d="m100.72,7.88c.72,1.19,1.4,2.32,2.09,3.46-.58.22-.96.09-1.27-.42-.53-.9-1.07-1.8-1.59-2.71-.12-.2-.24-.3-.48-.29-.41.02-.81,0-1.26,0v3.41c-.06.03-.08.05-.1.05-.76.06-.75.06-.75-.69,0-2.35,0-4.69,0-7.04,0-.2.02-.41.03-.66.28,0,.54-.01.8,0,.89.04,1.78.02,2.66.16,1.13.18,1.82,1.01,1.9,2.1.08,1.14-.52,2.06-1.62,2.45-.11.04-.22.09-.43.17Zm-2.49-.61c.76-.04,1.48-.02,2.19-.12.85-.11,1.29-.57,1.44-1.34.18-.91-.21-1.79-1-1.93-.84-.15-1.71-.12-2.57-.16-.02,0-.03.03-.06.05v3.49Z"/>
      <path class="cls-1" d="m115.23,11.41c-1.88-.02-3.57-2.13-3.5-4.36.08-2.5,1.98-4.26,4.46-4.12,2.38.13,4.06,2.19,3.84,4.73-.19,2.27-1.99,3.68-3.43,3.72-.08-.45.01-.64.4-.78,1.43-.54,2.09-1.62,2.16-3.1.06-1.27-.25-2.39-1.3-3.2-1.42-1.1-4.04-.78-4.88,1.19-.58,1.37-.54,2.72.3,3.99.35.53.9.86,1.49,1.09.46.18.55.34.45.85Z"/>
      <path class="cls-1" d="m127.04,6.01c0-.85,0-1.71,0-2.56,0-.29.02-.48.4-.46.33.01.47.1.47.45-.01,1.56,0,3.13,0,4.69,0,.31-.03.63-.08.93-.35,1.99-2.01,2.65-3.62,2.36-1.55-.27-2.34-1.23-2.4-3-.06-1.71-.02-3.42-.03-5.13,0-.31.2-.3.42-.3.27,0,.46.05.45.4-.02,1.37-.02,2.74-.01,4.12,0,.43,0,.87.05,1.3.18,1.56,1.31,2.11,2.68,1.88,1.07-.18,1.63-.91,1.66-2.08.02-.87,0-1.73,0-2.6,0,0,0,0,0,0Z"/>
      <path class="cls-1" d="m95.76,11.4c-.25,0-.49.05-.71-.02-.13-.04-.25-.24-.31-.39-.73-2.01-1.45-4.02-2.18-6.04-.08-.22-.17-.43-.26-.65-.03,0-.07,0-.1,0-.14.37-.29.74-.42,1.12-.69,1.91-1.38,3.82-2.08,5.72-.04.11-.2.22-.32.24-.19.04-.4.01-.65.01.2-.54.37-1.04.55-1.53.77-2.1,1.56-4.19,2.31-6.29.15-.42.38-.46.75-.47.36,0,.46.18.57.46.94,2.56,1.89,5.12,2.83,7.67.01.03,0,.07.02.15Z"/>
      <path class="cls-1" d="m115.97,17.43c.24-.54.49-1.09.73-1.63.09-.21.17-.43.3-.61.07-.11.21-.16.32-.24.07.11.18.23.19.34.02.56,0,1.13,0,1.69,0,.24.01.48.02.72,0,.18.04.42-.22.4-.09,0-.23-.25-.24-.4-.03-.44-.01-.89-.01-1.33,0-.08,0-.17,0-.25-.02,0-.05-.02-.07-.03-.19.38-.38.77-.57,1.15-.08.17-.13.36-.23.53-.07.12-.2.22-.3.32-.1-.11-.23-.21-.29-.34-.23-.49-.43-.99-.64-1.49-.04-.1-.11-.19-.22-.26,0,.54,0,1.09,0,1.63,0,.08.04.18,0,.25-.05.09-.14.15-.22.22-.06-.07-.18-.13-.19-.21-.02-.27-.01-.55-.01-.83,0-.55-.01-1.11,0-1.66,0-.15.12-.3.19-.45.13.11.31.19.37.32.34.7.64,1.42.96,2.13.04,0,.07,0,.11,0Z"/>
      <path class="cls-1" d="m92.06,15.85c0,.65,0,1.29,0,1.94,0,.18-.01.35-.23.31-.1-.02-.23-.2-.24-.31-.02-.77,0-1.54,0-2.31,0-.12,0-.24.03-.36.06-.24.2-.31.38-.11.16.18.3.38.43.58.32.48.62.97.94,1.45.05.08.12.14.28.19,0-.3,0-.61,0-.91,0-.36-.02-.72,0-1.08,0-.1.13-.2.2-.3.08.1.23.2.23.3.02.64,0,1.27,0,1.91,0,.22.02.43,0,.65,0,.1-.06.27-.13.29-.08.03-.24-.04-.31-.11-.15-.17-.28-.36-.41-.55-.36-.54-.71-1.07-1.06-1.61-.03.01-.07.03-.1.04Z"/>
      <path class="cls-1" d="m124.59,15.8c0,.59,0,1.19,0,1.78,0,.11.03.23,0,.32-.03.08-.13.18-.2.18-.07,0-.19-.11-.2-.18-.03-.25-.01-.5-.01-.76,0-.61,0-1.23.03-1.84,0-.12.09-.24.13-.37.12.08.29.12.37.23.42.6.81,1.22,1.22,1.83.07.1.15.19.31.26,0-.66,0-1.31,0-1.97,0-.13.09-.35.15-.36.24-.02.22.19.22.36,0,.83,0,1.66,0,2.49,0,.1-.08.2-.12.3-.13-.05-.3-.07-.37-.17-.27-.38-.51-.79-.77-1.18-.22-.33-.46-.65-.69-.98-.03.01-.05.02-.08.03Z"/>
      <path class="cls-1" d="m107.57,15.8c-.23-.14-.4-.21-.54-.32-.25-.2-.51-.29-.79-.11-.12.08-.26.25-.26.38,0,.13.12.32.24.4.22.13.49.19.73.29.51.2.73.52.65.94-.07.41-.46.71-.95.74-.44.02-.82-.07-1.04-.49-.05-.1,0-.25.01-.38.11.05.26.06.31.15.19.31.46.39.8.36.28-.02.45-.19.45-.42,0-.16-.16-.36-.3-.45-.22-.14-.49-.19-.74-.28-.43-.16-.65-.47-.63-.86.02-.38.27-.64.71-.76.59-.16,1.24.19,1.34.84Z"/>
      <path class="cls-1" d="m133.52,17.18c.11.1.23.2.33.31.23.26.53.31.82.21.16-.06.31-.26.36-.43.03-.1-.11-.31-.23-.38-.22-.13-.48-.2-.73-.29-.48-.16-.75-.48-.71-.87.05-.45.36-.73.89-.79.42-.04.79.09,1.05.43.06.07.03.21.04.32-.1-.01-.21,0-.3-.04-.08-.04-.14-.13-.21-.19-.27-.23-.65-.23-.89-.02-.25.23-.22.56.07.71.2.1.42.17.64.23.62.2.9.58.77,1.07-.13.49-.79.82-1.32.63-.24-.09-.45-.29-.64-.48-.07-.07-.05-.24-.06-.37.05-.02.09-.03.14-.05Z"/>
      <path class="cls-1" d="m101.94,16.26c.35.13.81-.11,1.1.25,0,.04,0,.09,0,.13-.26.01-.53.05-.79.03-.28-.02-.37.08-.35.35.02.21,0,.43,0,.71.31,0,.61-.02.9,0,.11,0,.21.11.32.17-.11.06-.22.17-.33.18-.35.02-.7.03-1.05,0-.1-.01-.27-.17-.27-.27-.02-.87-.02-1.73-.02-2.6,0-.2.09-.29.28-.29.39,0,.77,0,1.15.02.08,0,.16.12.24.19-.09.06-.17.12-.26.17-.05.02-.12,0-.18,0-.86,0-.9.06-.74.95Z"/>
      <path class="cls-1" d="m120.47,16.27c.41.1.81-.02,1.18.22-.25.29-.54.19-.77.17-.34-.03-.46.08-.42.42.02.2,0,.4,0,.65.34,0,.64-.02.93,0,.11.01.21.13.32.21-.11.05-.21.15-.32.15-.36.02-.72,0-1.08,0-.2,0-.28-.08-.28-.28,0-.87,0-1.73,0-2.6,0-.18.05-.31.26-.3.39,0,.77,0,1.15.02.1,0,.18.13.27.21-.09.05-.18.14-.28.15-.21.02-.43.01-.65,0-.26-.02-.34.1-.32.34.02.2,0,.41,0,.63Z"/>
      <path class="cls-1" d="m97.74,17.56c.09-.17.15-.26.19-.37.24-.62.47-1.24.7-1.85.04-.1.07-.21.15-.28.06-.06.17-.06.25-.08.02.08.08.18.06.24-.33.89-.66,1.78-1,2.66-.04.09-.2.21-.29.2-.13-.02-.3-.13-.35-.24-.15-.31-.25-.65-.38-.97-.19-.49-.39-.99-.55-1.49-.04-.13.02-.29.03-.44.12.1.29.18.34.31.29.73.55,1.48.86,2.32Z"/>
      <path class="cls-1" d="m128.91,15.07c.12-.03.24-.09.36-.09.53-.01,1.06-.02,1.58,0,.09,0,.18.11.27.16-.1.06-.2.17-.3.18-.52.04-.53.03-.53.54,0,.61,0,1.23,0,1.84,0,.2.03.42-.26.41-.25-.01-.24-.21-.24-.4,0-.65,0-1.3,0-1.95,0-.32-.1-.47-.44-.45-.15,0-.3-.05-.45-.08,0-.05,0-.1,0-.15Z"/>
      <path class="cls-1" d="m112.06,15.2c-.15.04-.31.1-.46.1-.3,0-.43.1-.41.42.02.62,0,1.25,0,1.88,0,.1.02.21-.02.28-.05.1-.15.17-.22.25-.08-.09-.23-.17-.24-.26-.03-.32-.02-.65-.02-.97,0-.4,0-.8,0-1.19.01-.3-.13-.42-.41-.4-.11,0-.22,0-.32-.02-.05-.01-.1-.1-.11-.16,0-.04.06-.12.1-.12.7-.08,1.4-.14,2.08.06,0,.05.01.09.02.14Z"/>
      <path class="cls-1" d="m89.11,16.57c0,.41.01.82,0,1.22,0,.11-.13.21-.2.31-.08-.1-.22-.19-.22-.29-.02-.85-.02-1.7,0-2.56,0-.1.14-.2.22-.3.07.1.19.21.2.31.02.43,0,.86,0,1.3h0Z"/>
    </g>
    <g>
      <path class="cls-1" d="m192.76,96.11c-.04,2.52-.68,5.02-2.24,7.22-1.2,1.7-2.75,2.97-4.79,3.53-2.24.61-4.34.21-6.24-1.1-2.26-1.56-3.58-3.77-4.27-6.39-.34-1.29-.49-2.61-.42-3.94.09-1.77.45-3.48,1.24-5.08,1.01-2.06,2.43-3.76,4.55-4.75,2.4-1.11,4.77-1,7.06.37,1.96,1.17,3.25,2.9,4.12,4.97.67,1.6.98,3.27,1,5.16Zm-1.09-.49c-.07-.61-.11-1.16-.19-1.7-.05-.33-.13-.66-.22-.98-.54-2.17-1.59-4.03-3.34-5.45-1.52-1.23-3.25-1.73-5.18-1.43-.92.14-1.76.5-2.54,1.01-1.62,1.07-2.7,2.58-3.44,4.35-.48,1.17-.72,2.39-.84,3.64-.01.15,0,.31,0,.52,2.65-1.96,5.25-3.88,7.85-5.81,2.62,1.94,5.24,3.88,7.89,5.85Zm-14.33,6.17c.7,1.23,1.56,2.29,2.73,3.07,1.65,1.09,3.43,1.48,5.37.96,1.19-.32,2.2-.97,3.09-1.81.64-.61,1.15-1.31,1.6-2.06.07-.12.06-.19-.06-.27-.19-.13-.38-.27-.57-.41-1.84-1.36-3.68-2.72-5.51-4.08-.17-.13-.29-.12-.46,0-1.36,1.01-2.73,2.02-4.09,3.03-.7.52-1.4,1.04-2.11,1.57Zm6.44-7.38c2.42,1.8,4.84,3.59,7.27,5.38.03-.04.04-.05.05-.07.12-.5.24-1,.34-1.51.01-.06-.06-.17-.13-.22-.57-.43-1.14-.85-1.72-1.28-1.69-1.25-3.37-2.49-5.06-3.74-.25-.19-.5-.37-.76-.55-.07.05-.12.08-.17.12-1.57,1.16-3.14,2.32-4.71,3.47-.88.65-1.75,1.3-2.64,1.95-.14.1-.18.21-.14.37.11.43.21.86.31,1.29.01.05.04.1.07.16,2.44-1.8,4.85-3.59,7.27-5.38Z"/>
      <path class="cls-1" d="m180.06,111.17c.08,0,.15-.01.22-.01.92,0,1.83,0,2.75,0,.22,0,.45.06.65.14.36.15.55.56.49.94-.06.41-.25.62-.69.71-.24.05-.48.06-.76.1.54.37,1.06.73,1.57,1.09,0,.02-.01.04-.02.05-.44-.02-.88.1-1.29-.25-.46-.39-.98-.71-1.47-1.06-.07-.05-.14-.09-.19-.15-.04-.05-.07-.13-.06-.19,0-.03.1-.07.16-.07.4,0,.8,0,1.2,0,.17,0,.34,0,.5,0,.19,0,.31-.15.31-.35,0-.17-.12-.31-.29-.31-.79,0-1.59,0-2.41,0v2.37h-.69v-3Z"/>
      <path class="cls-1" d="m191.01,112.37h2.57v.57h-2.57v.62h2.92v.6h-3.61v-2.98h3.61v.6h-2.91v.59Z"/>
      <path class="cls-1" d="m187.21,111.06c.39.05.8.05,1.18.16.67.19,1.08.8,1.08,1.45,0,.71-.38,1.29-1.08,1.47-.81.21-1.66.24-2.47-.03-.68-.23-1.07-.9-.99-1.6.09-.71.65-1.29,1.35-1.37.3-.03.61-.04.91-.05,0-.01,0-.02,0-.04Zm.01,2.58c.24-.01.47-.02.7-.05.44-.05.75-.39.78-.86.03-.48-.22-.92-.64-.96-.56-.05-1.13-.06-1.69,0-.45.04-.69.46-.67.98.02.46.31.79.76.84.25.03.51.03.76.04Z"/>
      <path class="cls-1" d="m195.55,111.8v2.36s-.04.02-.06.02c-.63.08-.63.08-.63-.54,0-.75,0-1.5,0-2.25,0-.2.07-.24.25-.24.74,0,1.49,0,2.23,0,.97,0,1.5.54,1.5,1.5,0,.5,0,1,0,1.51h-.7c0-.13,0-.26,0-.38,0-.42,0-.83,0-1.25-.02-.47-.31-.75-.79-.75-.59,0-1.18,0-1.8,0Z"/>
      <path class="cls-1" d="m172.75,111.78c-.36,0-.69,0-1.02,0-.41,0-.83,0-1.24,0-.13,0-.26,0-.39.04-.44.11-.69.47-.65.93.04.46.35.77.85.8.49.03.97.01,1.46.02.32,0,.64,0,.94,0,.02.03.04.04.04.06.07.55.07.56-.48.56-.68,0-1.35,0-2.03-.03-.61-.03-1.13-.26-1.39-.85-.44-.98.21-2.06,1.29-2.11.81-.04,1.63-.03,2.44-.05.13,0,.19.04.18.17,0,.14,0,.28,0,.46Z"/>
      <path class="cls-1" d="m177.62,114.17h-.69v-2.41c-.48,0-.92,0-1.36,0-.38,0-.36.07-.36-.37,0-.07,0-.14.01-.22h4.07v.59h-1.67v2.41Z"/>
      <path class="cls-1" d="m174.5,111.15v3.04c-.21,0-.39.01-.58,0-.05,0-.12-.1-.12-.15,0-.91,0-1.82,0-2.73,0-.05.09-.14.15-.15.17-.02.35,0,.56,0Z"/>
      <path class="cls-1" d="m192.96,110.84c-.15,0-.3.03-.43,0-.11-.03-.25-.13-.27-.22-.03-.15.1-.23.25-.23.31,0,.63,0,.94,0,.14,0,.25.06.25.22,0,.16-.1.24-.25.24-.16,0-.32,0-.48,0Z"/>
      <path class="cls-1" d="m191.25,110.85c-.15,0-.29,0-.44,0-.16,0-.26-.09-.26-.24,0-.15.1-.23.26-.23.3,0,.61,0,.91,0,.15,0,.26.06.25.23,0,.16-.1.23-.25.23-.16,0-.32,0-.48,0h0Z"/>
    </g>
    <g>
      <path class="cls-1" d="m31.14,80.55c2.84,0,5.66.26,8.42.93,1,.24,1.99.55,2.93.97,1.16.51,1.72,1.42,1.73,2.68.02,3.02-.31,5.99-1.06,8.92-1.09,4.26-3.09,8.04-5.99,11.35-1.18,1.35-2.46,2.59-3.8,3.77-.45.4-.95.73-1.54.89-.85.23-1.64.04-2.32-.47-.63-.47-1.22-1-1.8-1.54-1.59-1.48-3.05-3.09-4.32-4.86-2.36-3.29-3.87-6.94-4.64-10.91-.44-2.26-.64-4.53-.67-6.83-.03-1.87.82-2.67,2.23-3.21,1.79-.69,3.65-1.09,5.54-1.35,1.75-.24,3.51-.34,5.28-.34Zm.22.75c-2.26.03-4.33.14-6.39.49-1.65.28-3.27.67-4.82,1.35-.89.39-1.3,1.08-1.3,2.02,0,.78.04,1.55.08,2.33.09,1.93.36,3.84.8,5.72.8,3.44,2.19,6.61,4.24,9.49,1.35,1.89,2.92,3.58,4.63,5.15.51.47,1.01.96,1.63,1.3.61.34,1.22.35,1.83,0,.28-.16.55-.33.79-.54,2.32-2.02,4.43-4.24,6.12-6.83,1.99-3.06,3.27-6.4,3.91-9.99.36-2.02.56-4.06.59-6.11,0-.35,0-.71-.05-1.06-.13-.81-.69-1.26-1.41-1.52-.83-.31-1.67-.61-2.53-.83-2.72-.7-5.49-.93-8.11-.96Z"/>
      <path class="cls-1" d="m35.8,100.41c-.03.11-.05.19-.07.26-.28.03-.5-.15-.49-.42,0-.14.07-.27.09-.41.02-.13.02-.26.02-.39,0-.18.03-.37.02-.55-.01-.17-.02-.35-.1-.49-.14-.25-.33-.48-.5-.73-.4.23-.73.5-.82.98-.06.31-.11.62-.17.92-.07.37-.27.55-.64.56-.31,0-.63-.01-.94-.04-.25-.02-.42-.16-.5-.4-.06-.18-.1-.37-.16-.55-.02-.06-.07-.1-.11-.16-.07.05-.18.1-.19.16-.03.12,0,.25.01.38.02.15.02.26-.15.33-.05.02-.1.15-.08.22.11.53.12.53-.43.6-.19.03-.4.13-.59,0,.02-.12.05-.23.07-.33-.02,0-.04-.02-.06-.02-.04.05-.08.11-.13.15-.04.03-.11.06-.14.05-.04-.02-.08-.1-.07-.13.06-.17.11-.35.2-.5.2-.33.42-.64.63-.96.02-.03.02-.06.03-.12-.18,0-.28.08-.34.22-.13.33-.35.6-.61.83-.12.11-.21.25-.28.4-.14.31-.26.63-.39.95-.17.41-.38.48-.82.51-.04,0-.11-.08-.14-.13-.03-.06-.01-.14-.02-.25-.1.06-.17.1-.23.14-.11.07-.2.05-.21-.09-.04-.42.02-.8.38-1.07.2-.15.41-.31.62-.46.21-.15.33-.35.31-.62-.03-.48-.06-.97-.09-1.45,0-.04-.04-.09-.06-.13-.05.02-.12.03-.14.07-.25.43-.52.85-.75,1.29-.08.15-.08.34-.1.52-.03.33-.16.6-.45.79-.16.1-.23.24-.22.43,0,.16,0,.31.02.47,0,.18-.04.32-.15.47-.08.11-.1.29-.11.44,0,.21-.09.32-.3.32-.1,0-.2.02-.3.02-.31.02-.31.02-.34-.29,0-.06-.05-.12-.07-.18-.02,0-.04,0-.05,0-.02.14-.04.29-.06.43-.03,0-.06.01-.09.02-.04-.11-.11-.22-.13-.34-.04-.26.08-.48.25-.68.08-.1.12-.23.2-.34.15-.23.3-.46.49-.66.11-.12.18-.22.16-.39-.04-.31-.02-.61.16-.9.19-.3.16-.66.13-1-.05-.45-.07-.9.14-1.33.09-.19.1-.45.08-.67-.07-.6.07-1.14.39-1.65.12-.2.24-.4.38-.59.19-.27.29-.57.24-.89-.12-.82.21-1.39.91-1.79.22-.12.44-.23.65-.37.32-.22.63-.45.95-.68.22-.16.42-.35.66-.46.15-.07.37-.06.53,0,.55.16,1.09.36,1.65.53.2.06.4.08.61.1.21.02.29-.07.28-.27-.02-.39-.21-.64-.59-.74-.63-.16-1.27-.13-1.91-.11-.51,0-1.01.03-1.52,0-.3-.01-.6-.08-.9-.16-.23-.06-.39-.21-.43-.46-.04-.25.09-.44.28-.58.66-.5,1.41-.63,2.21-.51.39.06.76.17,1.14.26.08.02.17.05.23.11.07.07.12.16.17.24-.08.05-.16.11-.25.13-.08.02-.17,0-.25-.01-.3-.08-.59-.18-.9-.27-.07.13,0,.19.11.22.12.03.25.04.37.08.06.02.11.1.16.15-.06.04-.11.1-.18.11-.66.09-1.29.07-1.85-.37-.17-.14-.68.02-.74.22-.01.03.08.14.14.15.47.08.94.18,1.41.21.57.03,1.14-.02,1.71-.02.35,0,.7,0,1.04.07.86.16,1.31.97,1.02,1.79-.03.08,0,.2.05.26.25.37.52.73.79,1.09.26.34.36.71.32,1.14-.02.28,0,.57.03.85.04.41.1.82.16,1.25h-.43c-.15-.57-.37-1.13-.19-1.75.11-.37.02-.72-.2-1.04-.27-.4-.55-.8-.81-1.2-.11-.17-.23-.22-.41-.15-.13.05-.25.11-.43.19.52.22.48.68.58,1.06.04.15-.05.22-.2.23-.32.02-.54-.13-.73-.37-.41-.51-.82-1.02-1.24-1.53-.05-.06-.12-.11-.18-.16-.02.01-.04.03-.06.04.05.09.08.19.14.27.39.54.81,1.06,1.16,1.64.26.43.42.93.61,1.4.03.07.02.16,0,.26-.33-.15-.35-.52-.57-.8-.11.3-.34.3-.6.26-.05,0-.11.06-.17.09.05.04.1.1.16.12.09.02.2,0,.3.02.15.02.25.1.25.29-.16-.02-.32-.05-.5-.07-.02.06-.03.12-.06.21.2.01.37.03.55.03.2,0,.35.08.45.27.03.06.13.12.21.13.15.02.3,0,.45,0,.49-.02.91.14,1.26.48.06.06.13.13.2.15.35.07.59.31.82.54.3.3.67.42,1.09.38.09,0,.18-.05.26-.07.06-.01.12,0,.17,0-.01.06,0,.13-.04.17-.24.29-.55.45-.92.47-.45.03-.83-.14-1.18-.42-.16-.12-.35-.21-.51-.34-.06-.04-.12-.14-.11-.2.04-.27-.08-.4-.33-.46-.21-.05-.4-.13-.61-.18-.05-.01-.11.01-.22.03.14.1.24.16.32.24.04.04.07.1.1.14-.06.02-.11.06-.16.06-.22-.02-.44-.06-.59-.24-.05-.06-.13-.09-.15-.1-.14.08-.23.14-.33.2-.06.04-.12.08-.18.12.05.06.09.16.15.18.41.17.83.23,1.27.18.1-.01.21-.02.31-.03.01.02.03.03.04.05-.07.09-.13.19-.21.26-.37.32-.82.29-1.26.23-.39-.05-.73-.22-.99-.51-.13-.14-.24-.33-.28-.51-.1-.43.04-.62.47-.7.16-.03.32-.06.48-.09l.02-.07c-.07-.03-.14-.09-.2-.08-.2.02-.39.07-.59.08-.17.01-.35.03-.52,0-.33-.07-.44,0-.33.32.07.21.21.42.38.58.52.51.53.56.17,1.2-.21.37-.41.75-.39,1.2,0,.05.02.11.03.22.08-.09.13-.14.17-.2.06-.1.1-.2.16-.3.06-.11.14-.21.29-.15.14.06.14.17.1.29-.1.27-.19.53-.3.8-.11.25-.11.5-.02.75.02.05.05.1.08.15.2-.24.33-.28.45-.14.19.22-.11.23-.18.4.09.02.18.06.26.06.17-.02.34-.07.5-.09.22-.03.34-.15.38-.37.02-.13.06-.27.07-.4.01-.51.24-.92.62-1.24.18-.15.36-.3.56-.43.19-.13.31-.29.33-.52.01-.13.04-.25.08-.38.06-.22.17-.26.36-.13.3.19.46.47.5.81.08.66.13,1.33.21,2,.04.35.12.7.16,1.05.02.15,0,.31-.05.46-.03.08-.14.15-.23.18-.11.04-.18-.04-.19-.16,0-.03-.06-.05-.11-.1Zm-4.49-2.06c-.21-.39-.4-.73-.58-1.07-.17-.33-.13-.58.12-.86.12-.14.26-.27.38-.4.11-.12.16-.25.09-.41-.13-.28-.26-.57-.41-.84-.11-.21-.29-.26-.48-.12-.1.07-.18.18-.23.29-.18.36-.43.45-.78.29q-.48-.22-.71.25c-.12.25-.33.31-.53.11-.16-.16-.24-.08-.32.06-.04.06-.06.13-.08.2-.15.55-.31,1.11-.45,1.66-.05.2-.07.4-.07.61,0,.08.07.15.1.23.06-.05.15-.08.19-.15.21-.3.4-.62.62-.92.06-.09.16-.19.26-.2.35-.03.69-.02,1.04-.01.09,0,.18.04.26.09.07.05.1.14.15.21-.07.04-.13.1-.2.13-.09.03-.18.03-.27.04-.12,0-.18.06-.17.19.03.2.05.4.09.59.01.05.09.12.13.12.6-.02,1.21-.05,1.86-.07Zm.59-6.22c-.18,0-.32,0-.46,0-.13,0-.2.06-.2.19,0,.13.09.18.2.15.35-.1.56.07.73.35.03.05.08.1.13.14.18.17.34.12.41-.12.12-.44-.43-1.05-.89-.98-.01,0-.02.02-.04.04.03.05.05.1.12.23Zm-2.78,1.25c-.1.27-.17.47-.25.67-.06.18.02.38.21.42.24.04.49.03.74.04.02-.03.04-.06.06-.09-.43-.22-.57-.64-.76-1.04Zm6.54,3.49c-.19.06-.42.39-.42.54,0,.15.31.54.53.63-.04-.41-.08-.78-.12-1.17Zm-8.66,3.04s.05.03.08.04c.08-.12.18-.23.24-.36.02-.04-.03-.15-.08-.18-.03-.02-.14.02-.17.06-.12.13-.13.29-.07.45Zm2.61-.97c-.11.15-.19.26-.25.37,0,.02.09.09.14.14.09-.09.19-.18.27-.29.01-.02-.07-.11-.15-.22Zm1.2-10.72c.15.04.27.09.4.11.04,0,.11-.03.13-.07.02-.04,0-.12-.03-.15-.1-.1-.39-.06-.5.11Z"/>
      <path class="cls-1" d="m25.36,84.3c.07-.19.12-.33.16-.47.11-.34.22-.68.33-1.02.12-.38.18-.42.62-.39,0,.07,0,.15,0,.23,0,.82,0,1.64,0,2.46,0,.41-.01.43-.47.41v-1.39s-.04,0-.06-.01c-.18.55-.36,1.11-.56,1.72-.22-.6-.41-1.13-.6-1.67-.02,0-.03,0-.05,0,0,.36,0,.71,0,1.07,0,.03,0,.06,0,.09,0,.43,0,.44-.49.44,0-.07,0-.14,0-.21,0-.87.01-1.74,0-2.6,0-.27.17-.23.32-.28.18-.06.22.05.26.18.17.46.34.92.54,1.43Z"/>
      <path class="cls-1" d="m39.29,83.1c.18.04.33.05.45.11.08.04.15.13.18.21.21.53.41,1.06.61,1.59.02.06.05.12.12.17v-1.69c.38-.02.49.09.49.43,0,.86,0,1.72,0,2.58,0,.07,0,.14,0,.21-.38.02-.54-.09-.66-.41-.18-.49-.36-.97-.54-1.46-.03-.09-.07-.18-.1-.27-.02,0-.04,0-.05,0v1.73c-.45-.03-.49-.07-.49-.48,0-.82,0-1.65,0-2.47,0-.08,0-.15,0-.26Z"/>
      <path class="cls-1" d="m26.96,85.47c0-.13,0-.21,0-.3,0-.87,0-1.75-.01-2.62,0-.2.06-.29.26-.29.18,0,.35-.05.53-.06.69-.05,1.09.47.86,1.12-.08.23-.09.39.03.62.31.58-.06,1.26-.7,1.38-.31.05-.61.1-.97.15Zm.5-.58c.6,0,.79-.17.76-.63,0-.14-.06-.27-.21-.27-.18,0-.35.05-.52.09-.01,0-.02.06-.02.1,0,.23,0,.46,0,.71Zm.01-1.35c.15-.02.28-.03.39-.06.24-.07.38-.38.29-.61-.07-.18-.35-.27-.57-.17-.05.02-.1.09-.11.14-.01.22,0,.45,0,.7Z"/>
      <path class="cls-1" d="m31.41,82.07c.44.05.88.05,1.29.16.54.14.73,1.04.3,1.46-.27.26-.23.46-.12.73.12.29.21.6.31.9-.39.11-.49.06-.61-.28-.09-.25-.18-.51-.26-.77-.09-.27-.16-.3-.46-.22v1.26h-.45v-3.25Zm.48,1.47c.27-.03.57.1.76-.18.12-.17.13-.38.02-.55-.19-.27-.5-.17-.78-.22v.94Z"/>
      <path class="cls-1" d="m28.97,83.79c.07-.33.12-.67.21-1,.04-.15.13-.29.23-.4.37-.45.98-.42,1.3.08.12.19.2.42.25.65.11.5.06,1.01-.09,1.49-.06.18-.17.36-.29.51-.32.38-.87.37-1.19-.02-.21-.25-.3-.55-.34-.86-.02-.15-.02-.3-.03-.45-.01,0-.03,0-.04,0Zm1.59-.08c-.06-.28-.12-.55-.19-.82-.05-.17-.15-.31-.36-.31-.22,0-.31.16-.36.33-.06.23-.11.46-.15.69-.06.37,0,.73.18,1.05.06.11.22.24.33.24.11,0,.26-.15.31-.26.11-.29.16-.6.24-.92Z"/>
      <path class="cls-1" d="m36.36,83.86c.07.02.13.04.18.05.21.04.42.08.66.12v-1.41c.17.03.31.05.46.07v3.19c-.13-.02-.26-.02-.37-.06-.04-.01-.09-.1-.09-.16,0-.31-.01-.61,0-.92,0-.16-.04-.25-.22-.27-.2-.02-.39-.06-.61-.1v1.31c-.17-.02-.32-.04-.47-.06v-3.2c.13.02.25.02.36.06.05.02.1.11.1.17,0,.4,0,.8,0,1.21Z"/>
      <path class="cls-1" d="m35.31,83.22c-.1,0-.18,0-.27,0-.13.02-.18-.05-.23-.16-.05-.11-.15-.26-.25-.27-.1-.02-.23.09-.33.18-.06.05-.09.14-.11.23-.11.46-.11.92-.01,1.37.02.09.05.22.12.26.11.08.26.15.38.13.09-.01.19-.15.24-.26.05-.1.04-.23.06-.36-.13-.01-.23-.02-.35-.03v-.47c.25,0,.49,0,.73,0,.04,0,.1.07.1.1-.03.33-.03.67-.11.99-.08.33-.34.5-.68.52-.35.02-.66-.07-.81-.4-.35-.78-.35-1.58-.01-2.36.16-.38.57-.51.98-.38.37.12.58.46.54.89Z"/>
      <path class="cls-1" d="m23.41,86.01c-.04-.14-.06-.25-.09-.37-.03-.12-.06-.23-.1-.37-.16.04-.3.05-.44.11-.06.02-.11.1-.14.17-.04.11-.06.22-.08.33-.1.43-.13.45-.6.47.06-.29.12-.57.19-.85.15-.68.3-1.36.46-2.04.08-.34.07-.35.43-.41.05,0,.11-.02.18-.03.22.96.44,1.9.66,2.86-.16.04-.29.08-.46.12Zm-.29-1.23c-.05-.2-.09-.38-.13-.56-.02,0-.03,0-.05,0-.04.2-.09.4-.14.64.13-.03.22-.05.32-.08Z"/>
      <path class="cls-1" d="m20.72,83.76v2.53c.34-.12.64-.23.94-.34.13.36.07.5-.26.62-.38.14-.76.28-1.18.43,0-.12,0-.2,0-.28,0-.82,0-1.63,0-2.45q0-.45.5-.5Z"/>
      <path class="cls-1" d="m38.24,82.79c.18.04.33.07.48.1v3.18c-.36.05-.47-.04-.47-.37,0-.87,0-1.75,0-2.62,0-.08,0-.17,0-.29Z"/>
      <path class="cls-1" d="m42.13,87.04c-.41-.03-.45-.06-.45-.45,0-.85,0-1.71,0-2.56,0-.07,0-.14,0-.24.14.04.25.06.35.11.06.03.12.11.12.16,0,.97,0,1.95,0,2.92,0,.01-.01.03-.02.05Z"/>
      <path class="cls-1" d="m32.57,96.81c.16.22.3.4.42.59.06.1-.02.15-.12.16-.22.02-.42-.16-.4-.39,0-.11.06-.22.1-.36Z"/>
    </g>
    <g>
      <path class="cls-1" d="m123.94,150.1c-.05.07-.08.15-.13.18-.5.32-1.01.63-1.52.94-.16.1-.25-.02-.34-.14-.39-.49-.79-.97-1.39-1.25-1.1-.51-2.17-.49-3.22.14-.45.27-.83.61-1.11,1.06-.13.22-.3.26-.51.13-.44-.27-.89-.53-1.32-.81-.23-.15-.24-.3-.05-.5.76-.78,1.65-1.34,2.68-1.71.83-.3,1.68-.36,2.54-.32.81.03,1.57.31,2.31.64.73.33,1.31.85,1.89,1.38.07.07.11.16.18.26Z"/>
      <path class="cls-1" d="m122.42,156.58c0-.7-.01-1.4,0-2.11,0-.28-.09-.39-.36-.37-.2,0-.42.02-.42-.3,0-.35.05-.43.4-.43.95,0,1.9-.01,2.86.01.56.01,1.06.21,1.46.63.75.82.54,2.23-.42,2.79-.13.08-.28.14-.43.18-.2.06-.22.16-.13.33.25.49.5.99.74,1.48.12.24.32.26.56.25.32-.02.48.16.41.46-.03.1-.16.24-.26.25-.32.03-.65.04-.97-.01-.14-.02-.28-.2-.36-.34-.26-.5-.49-1.01-.74-1.52-.05-.11-.1-.22-.16-.32-.09-.16-.16-.42-.28-.44-.3-.07-.62-.03-.93-.02-.04,0-.12.12-.12.19,0,.51,0,1.02,0,1.52,0,.22.16.22.31.22.25,0,.38.1.38.36,0,.29-.06.36-.35.36-.52,0-1.03,0-1.55,0-.35,0-.45-.12-.39-.46.03-.18.11-.25.3-.24.43.02.46-.02.47-.44,0-.68,0-1.37,0-2.05h0Zm1.83-.24s0,.01,0,.02c.3-.02.61-.03.91-.08.52-.09.76-.42.8-1.03.03-.42-.15-.93-.68-.99-.62-.07-1.24-.07-1.87-.08-.05,0-.15.15-.15.23-.02.54-.01,1.09-.01,1.63,0,.19.09.29.28.29.24,0,.48,0,.72,0Z"/>
      <path class="cls-1" d="m117.23,155.63c0-.22,0-.38,0-.54,0-.15,0-.3,0-.44,0-.51,0-.52-.5-.58-.16-.02-.23-.1-.23-.25,0-.17-.03-.4.21-.42.37-.03.74-.02,1.11,0,.24.01.23.22.23.4,0,1.35,0,2.7,0,4.04,0,.3.01.59,0,.89-.02.27.07.39.36.38.1,0,.26.07.31.16.16.25.02.5-.28.51-.2,0-.41,0-.61,0q-.46,0-.6-.38c-.3.14-.6.3-.91.4-.74.25-1.41.06-1.98-.44-1.17-1.03-.94-3.13.17-3.91.66-.46,1.86-.54,2.48.02.05.05.12.08.24.16Zm.1,1.81c-.1-.29-.18-.59-.29-.87-.3-.82-1.6-1.09-2.29-.31-.51.58-.53,1.7-.08,2.34.4.57,1.29.73,1.88.36.56-.35.71-.88.78-1.52Z"/>
      <path class="cls-1" d="m89.42,153.34c.68.06,1.36.08,2.03.21.66.13,1.16.55,1.34,1.22.24.88.08,1.68-.7,2.24-.41.29-.9.41-1.41.43-.34,0-.68,0-1.02,0-.22,0-.32.08-.32.31,0,.33,0,.67,0,1,0,.26.09.37.36.35.37-.02.44.05.43.33,0,.24-.09.35-.35.34-.57-.02-1.14-.01-1.72,0-.19,0-.27-.08-.26-.26,0-.18-.05-.38.24-.41.52-.06.52-.07.52-.59,0-1.34,0-2.68,0-4.02,0-.39-.02-.41-.41-.4-.18,0-.34.01-.35-.23,0-.36.04-.45.32-.45.43,0,.87,0,1.3,0,0-.02,0-.04,0-.05Zm-.08,2.04s0,0,0,0c0,.34,0,.68,0,1.02,0,.18.07.3.28.3.49-.02.98,0,1.46-.06.38-.04.69-.26.88-.6.43-.79-.05-1.75-.95-1.85-.48-.05-.98-.04-1.46-.05-.18,0-.21.11-.21.25,0,.33,0,.66,0,1Z"/>
      <path class="cls-1" d="m148.93,159.38c-.34.15-.64.31-.97.42-.91.3-1.94-.19-2.37-1.04-.46-.9-.42-1.76.05-2.64.56-1.06,2.08-1.35,3.03-.65.07.05.14.1.28.19,0-.54,0-1.01-.01-1.47,0-.05-.2-.12-.31-.13-.31-.02-.42-.11-.36-.4.02-.1.15-.25.25-.26.3-.03.61-.02.91-.01.25,0,.32.16.32.39-.01,1.64-.01,3.29-.02,4.93,0,.37.01.39.39.39.23,0,.31.1.3.32,0,.21-.05.36-.31.34-.16-.01-.33,0-.5,0q-.48,0-.66-.39Zm-2.88-1.91s-.04.01-.07.02c.09.31.14.62.26.91.25.57.73.78,1.32.77.59-.02,1.01-.3,1.24-.85.23-.53.22-1.06.03-1.59-.33-.9-1.37-1.23-2.16-.67-.48.34-.67.84-.63,1.42Z"/>
      <path class="cls-1" d="m139.34,155.6q.18-.45.64-.44c.2,0,.41,0,.61,0,.24,0,.33.13.32.35,0,.21-.07.34-.33.33-.37-.02-.41.04-.41.41,0,.85,0,1.7-.01,2.55,0,.22.08.29.3.3.14,0,.31.04.39.13.18.2.03.5-.24.52-.3.02-.61.03-.91,0-.14-.02-.25-.18-.43-.31,0,0-.08.02-.15.07-1.12.81-2.77.27-3.23-1.08-.24-.71-.22-1.42.08-2.08.35-.76.94-1.22,1.83-1.26.54-.03,1,.09,1.4.45.03.03.08.04.13.07Zm-2.82,1.91c.02.16.03.35.07.53.14.64.69,1.1,1.3,1.12.75.02,1.23-.32,1.45-1.02.12-.39.07-.78.03-1.18-.08-.87-1.2-1.57-2.17-.95-.54.35-.63.89-.68,1.49Z"/>
      <path class="cls-1" d="m103.81,155.61c.27-.15.49-.29.72-.39.69-.3,1.96-.14,2.36.88.12.31.19.66.21.99.03.53.01,1.07,0,1.61,0,.38,0,.39.37.41.22.01.37.07.36.34,0,.21-.1.32-.3.32-.55,0-1.11,0-1.66,0-.18,0-.27-.11-.27-.28,0-.17,0-.34.23-.38.15-.02.38,0,.44-.09.08-.13.06-.34.05-.51-.01-.56-.01-1.13-.06-1.69-.07-.72-.81-1.07-1.31-1.02-.64.06-1.11.59-1.13,1.29-.01.55,0,1.11-.01,1.66,0,.27.1.36.36.34.33-.01.38.05.37.36,0,.22-.1.32-.32.31-.53,0-1.05,0-1.58,0-.19,0-.35-.03-.35-.28,0-.28.07-.37.35-.38.4-.02.38-.02.38-.41,0-.8,0-1.61,0-2.41,0-.37-.02-.4-.38-.4-.24,0-.36-.13-.36-.39,0-.22.12-.32.33-.32.25,0,.5.01.75-.01.33-.03.41.16.42.45Z"/>
      <path class="cls-1" d="m95.88,157.85c-.47,0-.94,0-1.41,0-.34,0-.42.16-.26.48.44.88,1.24.93,1.87.74.27-.08.49-.23.65-.48.13-.2.52-.3.72-.2.18.09.13.26.06.38-.24.41-.56.74-1,.92-.51.2-1.03.22-1.57.12-1.02-.19-1.55-1.09-1.63-1.98-.06-.59.01-1.17.32-1.69.35-.61.88-.98,1.59-1.04.17-.01.33,0,.5,0,.77-.04,1.72.63,1.87,1.37.07.35.12.7.17,1.05.03.25-.11.35-.35.35-.51,0-1.02,0-1.52,0,0,0,0-.01,0-.02Zm-.37-.67s0,0,0,.01c.35,0,.7,0,1.05,0,.38,0,.47-.14.33-.5-.19-.48-.55-.74-1.03-.88-.72-.2-1.63.36-1.74,1.07-.03.21.02.31.26.3.38-.01.76,0,1.13,0Z"/>
      <path class="cls-1" d="m108.29,157.44c.07-.75.29-1.39.86-1.88.98-.84,2.89-.59,3.44.68.38.88.42,1.74-.04,2.57-.47.86-1.35,1.22-2.36,1.04-.74-.13-1.32-.5-1.59-1.22-.14-.38-.21-.79-.3-1.19Zm.84.04c.01.15.01.28.03.4.1.66.57,1.15,1.19,1.26.66.11,1.26-.18,1.54-.77.23-.48.23-.98.12-1.49-.24-1.09-1.56-1.45-2.39-.72-.4.35-.48.83-.49,1.32Z"/>
      <path class="cls-1" d="m118.98,141.6c.05.56,0,.61-.54.7-.16.03-.32.09-.47.16-.2.09-.3,0-.34-.18-.06-.23-.13-.46-.16-.7-.14-.89-.44-1.73-.85-2.53-.2-.39-.38-.8-.57-1.2-.1-.2-.06-.34.15-.41.52-.16,1.04-.31,1.57-.45.18-.05.28.08.32.23.14.46.31.91.41,1.38.16.7.28,1.41.41,2.12.05.29.05.59.08.88Z"/>
      <path class="cls-1" d="m119.1,141.61c.13-.77.23-1.55.39-2.31.15-.69.38-1.37.56-2.05.06-.22.19-.3.41-.23.48.14.96.27,1.43.42.29.09.32.2.19.47-.2.42-.41.85-.62,1.26-.45.89-.72,1.85-.9,2.83-.09.5-.17.56-.66.39-.11-.04-.22-.09-.34-.11-.38-.09-.41-.12-.4-.52,0-.05,0-.09,0-.14-.02,0-.05,0-.07-.01Z"/>
      <path class="cls-1" d="m134.16,155.6c.04-.07.08-.11.08-.16.05-.33.3-.28.52-.26.22.02.25.18.25.36,0,.36,0,.72,0,1.08,0,.21-.09.29-.3.3-.47.02-.49,0-.68-.36-.47-.92-1.65-1.07-2.38-.23-.44.5-.39,2.04.18,2.49.65.52,1.86.37,2.21-.34.13-.25.27-.54.65-.49.28.03.36.14.26.4-.43,1.15-1.58,1.71-2.75,1.41-.82-.21-1.29-.74-1.58-1.48-.36-.91.04-2.3.84-2.86.68-.48,1.81-.63,2.69.14Z"/>
      <path class="cls-1" d="m123.66,138.49c.1.05.22.08.29.15.35.35.7.7,1.04,1.07.19.21.14.36-.11.48-.83.38-1.55.91-2.13,1.6-.38.46-.69.98-1.01,1.48-.18.28-.25.3-.46.05-.14-.17-.3-.32-.46-.47-.14-.14-.18-.27-.08-.47.32-.64.59-1.31.96-1.92.44-.74,1.09-1.32,1.75-1.86.05-.04.13-.06.21-.1Z"/>
      <path class="cls-1" d="m117.43,142.64s-.06.13-.11.18c-.19.2-.39.39-.58.59-.14.14-.23.04-.3-.08-.21-.34-.41-.7-.64-1.03-.65-.92-1.5-1.61-2.51-2.12-.3-.15-.33-.26-.09-.51.34-.36.69-.71,1.05-1.06.14-.14.28-.15.44-.02.75.62,1.46,1.28,1.95,2.13.34.59.65,1.2.81,1.91Z"/>
      <path class="cls-1" d="m126.59,143.07c-.04.19-.13.26-.3.28-.56.08-1.13.16-1.69.28-.68.14-1.29.48-1.88.85-.17.11-.33.24-.5.35-.21.14-.32.1-.38-.14-.06-.24-.12-.48-.15-.73-.01-.1.04-.24.11-.32.65-.78,1.4-1.44,2.36-1.82.46-.18.93-.35,1.4-.52.27-.1.43-.02.52.24.17.51.33,1.01.49,1.52Z"/>
      <path class="cls-1" d="m116.17,144.95c-.58-.34-1.08-.69-1.62-.95-.79-.38-1.63-.64-2.52-.65-.45,0-.53-.12-.39-.54.13-.41.26-.82.42-1.23.12-.32.24-.38.57-.27.46.15.93.31,1.37.51.67.3,1.27.72,1.79,1.23.16.15.3.32.44.49.16.19.22.39.14.64-.09.25-.14.52-.21.76Z"/>
      <path class="cls-1" d="m126.67,144.97c-.09.47-.16.94-.27,1.41-.06.27-.22.31-.48.21-.3-.12-.6-.23-.92-.29-1-.19-2-.18-2.98.09-.11.03-.24-.01-.37-.02.01-.11.02-.23.04-.34.03-.12.09-.24.11-.37.04-.29.22-.45.47-.57,1.24-.62,2.55-.82,3.92-.64.39.05.46.12.48.51Z"/>
      <path class="cls-1" d="m112.25,144.38c.58.03,1.16.02,1.73.1.71.09,1.37.36,1.99.7.14.08.23.25.31.4.08.17.12.37.17.55.08.25.01.33-.24.28-.28-.05-.56-.11-.84-.16-1.1-.2-2.16-.06-3.19.35-.23.09-.4.03-.44-.2-.09-.53-.17-1.07-.22-1.61,0-.09.13-.23.23-.28.14-.07.32-.07.48-.1,0,0,0-.02,0-.03Z"/>
      <path class="cls-1" d="m117.96,147.7c-.18.04-.31.09-.44.1-1.38.06-2.6.54-3.7,1.37-.37.28-.43.29-.71-.09-.26-.36-.51-.75-.75-1.13-.15-.25-.12-.37.15-.51.23-.12.46-.23.71-.32,1.05-.38,2.13-.53,3.24-.42.19.02.38.16.55.28.3.21.58.44.95.72Z"/>
      <path class="cls-1" d="m120.19,147.72c.43-.34.75-.66,1.13-.89.19-.12.47-.11.72-.13.85-.06,1.7,0,2.51.31.36.13.72.28,1.08.43.2.08.3.26.18.45-.3.48-.63.95-.97,1.4-.04.06-.26.07-.33.01-.69-.54-1.43-.98-2.27-1.22-.5-.14-1.03-.2-1.54-.29-.15-.03-.31-.05-.5-.08Z"/>
      <path class="cls-1" d="m100.08,155.59c.4-.35.83-.55,1.36-.49.36.04.57.35.39.67-.05.08-.23.14-.35.13-.33-.03-.64,0-.92.2-.36.25-.45.63-.47,1.02-.03.58,0,1.16-.02,1.75,0,.27.18.26.36.26.19,0,.35.01.37.26.02.29-.05.38-.35.39-.51,0-1.02,0-1.52,0-.2,0-.35-.04-.35-.29,0-.27.09-.36.36-.37.36-.02.38-.03.38-.38,0-.82,0-1.64,0-2.47,0-.25-.07-.38-.35-.37-.27,0-.39-.14-.39-.39,0-.26.16-.33.39-.32.19,0,.39,0,.58,0q.41,0,.54.42Z"/>
      <path class="cls-1" d="m143.25,155.61c.4-.39.86-.58,1.4-.5.31.04.42.18.39.49-.02.2-.1.3-.34.3-.29,0-.6.02-.85.14-.42.2-.57.61-.58,1.06-.01.59-.01,1.18-.02,1.77,0,.22.12.26.31.25.22-.02.41.02.43.3,0,.22-.07.35-.32.34-.54,0-1.07,0-1.61.01-.23,0-.31-.11-.31-.33,0-.21.06-.33.3-.34.45-.02.45-.02.45-.48,0-.78,0-1.55.01-2.33,0-.39,0-.41-.39-.43-.25-.01-.38-.13-.38-.38,0-.25.16-.33.38-.33.18,0,.37,0,.55,0q.43,0,.57.44Z"/>
      <path class="cls-1" d="m129.3,157.17c0,.54.01,1.07,0,1.61,0,.24.06.33.31.32.34-.01.42.08.45.35.03.23-.1.32-.28.32-.56.01-1.13.01-1.69,0-.19,0-.31-.11-.31-.31,0-.21.1-.34.33-.37.4-.04.39-.04.39-.43,0-.81,0-1.62.02-2.44,0-.25-.08-.36-.33-.35-.29,0-.42-.13-.41-.4.01-.28.2-.32.43-.32.25,0,.5,0,.75,0,.25-.01.35.1.35.35,0,.55,0,1.11,0,1.66Z"/>
      <path class="cls-1" d="m129.31,153.87c0,.42-.05.47-.42.48-.41,0-.47-.05-.47-.42,0-.49.04-.54.44-.54.42,0,.45.03.45.49Z"/>
    </g>
    <g>
      <path class="cls-1" d="m194.53,12.24c-.71.55-1.4.59-2.16.35-.26-.08-.59-.06-.85.04-1.76.65-3.5.71-5.24-.04-.75-.32-1.24-.89-1.31-1.74-.04-.47-.06-.95-.04-1.42.06-1.12.63-1.9,1.7-2.27,1.01-.35,2.04-.65,3.06-.98.89-.28,1.24-.77,1.15-1.58-.08-.67-.58-1.09-1.46-1.15-.37-.03-.74-.03-1.11.01-.6.06-1.09.33-1.23.96-.08.37-.28.46-.6.43-.21-.01-.41,0-.62,0-.95,0-1.06-.14-.84-1.08.16-.69.58-1.19,1.22-1.47,1.66-.73,3.39-.71,5.08-.16,1.1.36,1.65,1.23,1.64,2.43-.02,1.82,0,3.63,0,5.45,0,1.45.18,1.71,1.59,2.22Zm-3.69-4.53c-.5.17-.92.32-1.35.45-.43.14-.87.25-1.3.39-.57.19-1.05.51-1.17,1.15-.18.95.28,1.55,1.29,1.73,1.31.24,2.32-.2,2.5-1.09,0-.04.02-.08.02-.12,0-.82,0-1.64,0-2.52Z"/>
      <path class="cls-1" d="m184.06,1.76c-.17.59-.27,1.01-.43,1.4-.05.13-.27.23-.43.26-.26.05-.53.02-.8.04-1.22.06-1.67.52-1.68,1.73,0,2.13,0,4.25,0,6.38,0,1.37,0,1.34-1.39,1.36-.57,0-.69-.2-.68-.72.02-2.42.07-4.83,0-7.25-.06-1.9.83-2.77,2.59-3.06.86-.14,1.76-.1,2.81-.15Z"/>
      <path class="cls-1" d="m174.45,1.95c.62,0,1.15,0,1.68,0,.43,0,.35.33.35.58,0,1.34,0,2.69,0,4.03,0,1.92-.01,3.84.01,5.76,0,.44-.08.62-.57.61-1.46-.01-1.46.01-1.46-1.46,0-2.95,0-5.91,0-8.86,0-.18,0-.37,0-.66Z"/>
    </g>
  </g>
</svg>