<?xml version="1.0" encoding="UTF-8"?><svg id="Layer_2" xmlns="http://www.w3.org/2000/svg" viewBox="0 0 201.86 100.11"><defs><style>.cls-1{fill:none;font-family:cafedeparis, 'cafe de paris-sans';font-size:104.57px;letter-spacing:-.02em;stroke:#e9e2cf;stroke-miterlimit:10;}.cls-2{fill:#6ee856;stroke-width:0px;}</style></defs><g id="Layer_1-2"><text class="cls-1" transform="translate(.5 78.11)"><tspan x="0" y="0">X</tspan></text><path class="cls-2" d="M186.84,93.15c.02-.36.03-.72.05-1.08.02-.41-.08-.74-.44-.99-.46-.32-.88-.7-1.34-1.03-1.1-.8-2.06-1.75-2.96-2.76-1.48-1.67-2.86-3.41-3.96-5.36-.55-.97-1-1.99-1.4-3.03-.39-1-.81-1.99-1.35-2.93-1.19-2.06-2.97-3.33-5.25-3.92-.49-.13-1.02-.17-1.53-.18-1.7-.03-3.39-.15-5.07-.43-3.8-.62-7.09-2.23-9.81-4.98-.71-.71-1.43-1.41-2.15-2.11-.22-.21-.47-.41-.73-.57-.32-.2-.42-.17-.69.09-.3.28-.58.57-.9.82-.75.59-1.62.89-2.57,1-1.49.17-2.91-.12-4.29-.64-1.13-.43-2.22-.95-3.32-1.43-.48-.21-.96-.43-1.45-.62-.2-.08-.42-.1-.63-.13-.21-.03-.38.07-.46.26-.09.21-.15.43-.21.64-.06.23-.09.47-.15.7-.09.31-.3.51-.62.58-.41.1-.81.07-1.2-.06-.61-.2-1.1-.57-1.48-1.09-.51-.69-.54-1.43-.23-2.21.24-.61.66-1.07,1.21-1.43.67-.44,1.43-.66,2.2-.83,1.44-.32,2.87-.26,4.3.09.01,0,.02,0,.03,0,.9.24,1.18-.32,1.26-.9.03-.21.02-.43,0-.64-.04-.48-.29-.84-.72-1.04-.79-.37-1.59-.59-2.46-.27-.17.06-.35.09-.52.14-.63.19-1.15,0-1.61-.44-.11-.11-.22-.22-.32-.34-.35-.42-.76-.76-1.21-1.06-.23-.15-.46-.3-.68-.47-.28-.22-.48-.49-.56-.85-.08-.41.01-.76.31-1.05.17-.16.36-.32.56-.45.49-.34.79-.79.83-1.4.04-.69.4-1.14,1.02-1.39.84-.34,1.37-.97,1.77-1.75.19-.36.37-.72.58-1.07.27-.46.47-.47.82-.08.15.17.29.35.43.53.11.13.21.26.32.38.3.31.44.3.74,0,.1-.1.19-.21.29-.32.16-.18.31-.36.47-.54.09-.09.19-.18.3-.25.28-.18.45-.16.63.12.28.44.57.89.8,1.36.2.44.45.65.97.7,2.27.2,4.37,1,6.4,1.98,2.63,1.27,5.04,2.88,7.38,4.62,2.2,1.64,4.26,3.44,6.32,5.25,1.38,1.21,2.76,2.41,4.29,3.42,1.87,1.23,3.83,2.31,5.95,3.07,1.33.47,2.7.72,4.11.76,1.38.04,2.65-.29,3.84-.99,1.58-.92,2.83-2.19,3.88-3.67.8-1.13,1.37-2.38,1.91-3.65.66-1.56,1.3-3.14,2.01-4.68.78-1.7,1.79-3.27,3.05-4.67,1.26-1.4,2.73-2.53,4.41-3.4.47-.24.96-.42,1.49-.51,1.23-.21,2.3.59,2.38,1.84.09,1.41-.48,2.57-1.56,3.46-.49.41-1.08.71-1.64,1.03-.5.28-1.02.53-1.54.77-2.52,1.19-4.49,2.96-5.82,5.44-.93,1.73-1.74,3.51-2.52,5.31-.15.34-.31.68-.43,1.02-.5,1.35-1.37,2.43-2.4,3.4-.67.63-1.4,1.2-2.16,1.71-.44.3-.49.48-.13.86,1.14,1.19,1.61,2.7,2.02,4.22.43,1.6.68,3.23.82,4.87.13,1.46.15,2.91.12,4.37-.01.66.15,1.25.47,1.81.2.35.41.7.62,1.05.26.44.63.78,1.06,1.06.23.15.46.3.69.45.71.45,1.03,1.1,1.05,1.93.01.46.04.93.12,1.39.11.66.43,1.24.78,1.8.17.27.35.54.51.83.24.43.26.86.03,1.3-.25.48-.34,1-.35,1.53,0,.57.02,1.15.05,1.72.05.77-.14.99-.91.93-1.31-.1-2.28-.73-2.92-1.86-.46-.8-.7-1.68-.81-2.58-.1-.83-.13-1.67-.2-2.5.01,0,.02,0,.04,0Z"/></g></svg>