<?xml version="1.0" encoding="UTF-8"?><svg id="Layer_2" xmlns="http://www.w3.org/2000/svg" viewBox="0 0 245.27 95.56"><defs><style>.cls-1{fill:none;font-family:cafedeparis, 'cafe de paris-sans';font-size:104.57px;letter-spacing:-.02em;stroke:#e9e2cf;stroke-miterlimit:10;}.cls-2{fill:#6ee856;stroke-width:0px;}</style></defs><g id="Layer_1-2"><text class="cls-1" transform="translate(.5 78.11)"><tspan x="0" y="0">X</tspan></text><polygon class="cls-2" points="153.33 38.59 155.6 48.39 158.33 38.59 160.1 38.59 162.83 48.41 165.1 38.59 166.89 38.59 163.72 50.65 162.01 50.65 159.23 40.65 156.43 50.65 154.71 50.65 151.56 38.59 153.33 38.59"/><polygon class="cls-2" points="169.28 38.59 170.93 38.59 170.93 43.57 177.13 43.57 177.13 38.59 178.78 38.59 178.78 50.65 177.13 50.65 177.13 45.01 170.93 45.01 170.93 50.65 169.28 50.65 169.28 38.59"/><rect class="cls-2" x="181.2" y="38.59" width="1.65" height="12.06"/><path class="cls-2" d="M186.77,46.76c.04.68.19,1.24.47,1.67.52.8,1.44,1.2,2.76,1.2.59,0,1.13-.09,1.61-.26.94-.34,1.41-.95,1.41-1.82,0-.66-.2-1.12-.6-1.4-.4-.27-1.03-.51-1.89-.71l-1.58-.37c-1.03-.24-1.77-.51-2.2-.8-.74-.5-1.11-1.26-1.11-2.26,0-1.08.36-1.97,1.09-2.67.73-.69,1.76-1.04,3.1-1.04,1.23,0,2.28.31,3.14.92.86.61,1.29,1.59,1.29,2.93h-1.54c-.08-.65-.25-1.14-.5-1.49-.48-.63-1.29-.94-2.43-.94-.92,0-1.59.2-1.99.61-.4.41-.61.88-.61,1.41,0,.59.24,1.02.72,1.3.31.18,1.02.39,2.12.66l1.64.39c.79.19,1.4.44,1.83.76.74.56,1.11,1.38,1.11,2.45,0,1.34-.47,2.29-1.42,2.87-.95.57-2.05.86-3.3.86-1.46,0-2.61-.38-3.43-1.15-.83-.76-1.23-1.79-1.22-3.09h1.54Z"/><polygon class="cls-2" points="206.16 38.59 206.16 40.03 202.1 40.03 202.1 50.65 200.45 50.65 200.45 40.03 196.39 40.03 196.39 38.59 206.16 38.59"/><polygon class="cls-2" points="208.56 38.59 210.2 38.59 210.2 49.21 216.25 49.21 216.25 50.65 208.56 50.65 208.56 38.59"/><rect class="cls-2" x="218.66" y="38.64" width="1.65" height="12.06"/><polygon class="cls-2" points="222.72 38.64 224.64 38.64 230.66 48.38 230.66 38.64 232.22 38.64 232.22 50.7 230.38 50.7 224.28 40.97 224.28 50.7 222.72 50.7 222.72 38.64"/><path class="cls-2" d="M242.91,38.98c1.18.63,1.9,1.73,2.17,3.31h-1.62c-.19-.88-.59-1.52-1.2-1.93-.61-.4-1.37-.6-2.29-.6-1.09,0-2.01.42-2.76,1.26s-1.12,2.09-1.12,3.74c0,1.43.31,2.6.93,3.5.62.9,1.62,1.35,3.02,1.35,1.07,0,1.95-.32,2.65-.95.7-.63,1.06-1.65,1.07-3.07h-3.78v-1.35h5.3v6.45h-1.46l.02-1.55c-.54.61-1.03,1.03-1.45,1.26-.71.4-1.6.61-2.69.61-1.41,0-2.61-.46-3.63-1.39-1.1-1.16-1.66-2.75-1.66-4.78s.54-3.63,1.62-4.82c1.02-1.14,2.35-1.71,3.98-1.71,1.12,0,2.08.22,2.9.66Z"/><polygon class="cls-2" points="162.83 65.24 160.1 55.42 158.33 55.42 155.6 65.22 153.33 55.42 151.56 55.42 154.71 67.48 156.43 67.48 159.23 57.48 162.01 67.48 163.72 67.48 166.89 55.42 165.1 55.42 162.83 65.24"/><path class="cls-2" d="M174.71,55.1c-2.04,0-3.57.74-4.61,2.23-.81,1.16-1.21,2.56-1.21,4.19,0,1.81.47,3.3,1.42,4.48,1.06,1.23,2.52,1.84,4.38,1.84,1.99,0,3.52-.7,4.59-2.1.91-1.19,1.37-2.69,1.37-4.49,0-1.66-.4-3.03-1.2-4.1-1.02-1.37-2.6-2.05-4.73-2.05ZM178,64.84c-.64,1.03-1.68,1.55-3.12,1.55-1.52,0-2.61-.46-3.29-1.38-.68-.92-1.01-2.04-1.01-3.38,0-1.67.39-2.93,1.18-3.79.79-.86,1.81-1.29,3.05-1.29s2.3.43,3.04,1.3c.74.87,1.11,2.01,1.11,3.43,0,1.34-.32,2.53-.96,3.56Z"/><path class="cls-2" d="M188.94,55.1c-2.04,0-3.57.74-4.61,2.23-.81,1.16-1.21,2.56-1.21,4.19,0,1.81.47,3.3,1.42,4.48,1.06,1.23,2.52,1.84,4.38,1.84,1.99,0,3.52-.7,4.59-2.1.91-1.19,1.37-2.69,1.37-4.49,0-1.66-.4-3.03-1.2-4.1-1.02-1.37-2.6-2.05-4.73-2.05ZM192.23,64.84c-.64,1.03-1.68,1.55-3.12,1.55-1.52,0-2.61-.46-3.29-1.38-.68-.92-1.01-2.04-1.01-3.38,0-1.67.39-2.93,1.18-3.79.79-.86,1.81-1.29,3.05-1.29s2.3.43,3.04,1.3c.74.87,1.11,2.01,1.11,3.43,0,1.34-.32,2.53-.96,3.56Z"/><path class="cls-2" d="M202.11,55.42h-4.82v12.06h4.8c2.04,0,3.48-.91,4.32-2.74.48-1.03.71-2.19.71-3.47,0-1.66-.4-3.02-1.21-4.08-.9-1.18-2.17-1.76-3.81-1.76ZM205.33,62.81c-.14.76-.37,1.38-.68,1.87-.4.61-.9,1.02-1.52,1.23-.35.11-.79.17-1.33.17h-2.85v-9.26h2.83c1.29,0,2.22.41,2.81,1.24.58.83.87,1.99.87,3.48,0,.39-.04.81-.12,1.26Z"/><path class="cls-2" d="M217.57,61.66c-.43-.32-1.04-.58-1.83-.76l-1.64-.39c-1.1-.26-1.81-.48-2.12-.66-.48-.27-.72-.71-.72-1.3,0-.54.2-1.01.61-1.41.4-.4,1.07-.61,1.99-.61,1.14,0,1.95.31,2.43.94.26.34.43.84.5,1.49h1.54c0-1.34-.43-2.32-1.29-2.93-.86-.61-1.91-.92-3.14-.92-1.34,0-2.37.35-3.1,1.04-.73.7-1.09,1.58-1.09,2.67,0,1,.37,1.75,1.11,2.26.43.29,1.16.56,2.2.8l1.58.37c.86.2,1.49.44,1.89.71.4.28.6.75.6,1.4,0,.88-.47,1.48-1.41,1.82-.49.18-1.02.26-1.61.26-1.32,0-2.24-.4-2.76-1.2-.27-.43-.43-.98-.47-1.67h-1.54c-.02,1.3.39,2.33,1.22,3.09.83.77,1.97,1.15,3.43,1.15,1.25,0,2.35-.29,3.3-.86s1.42-1.53,1.42-2.87c0-1.07-.37-1.89-1.11-2.45Z"/><rect class="cls-2" x="151.56" y="72.27" width=".6" height="4.38"/><polygon class="cls-2" points="155.2 72.27 155.9 72.27 158.08 75.81 158.08 72.27 158.65 72.27 158.65 76.65 157.98 76.65 155.77 73.11 155.77 76.65 155.2 76.65 155.2 72.27"/><polygon class="cls-2" points="164.87 72.27 164.87 72.79 163.4 72.79 163.4 76.65 162.8 76.65 162.8 72.79 161.32 72.79 161.32 72.27 164.87 72.27"/><polygon class="cls-2" points="167.55 72.27 170.74 72.27 170.74 72.81 168.13 72.81 168.13 74.14 170.54 74.14 170.54 74.64 168.13 74.64 168.13 76.13 170.78 76.13 170.78 76.65 167.55 76.65 167.55 72.27"/><path class="cls-2" d="M177.11,76.28c-.02-.08-.04-.21-.04-.37l-.02-.59c0-.25-.06-.44-.14-.55-.09-.11-.22-.2-.39-.27.19-.1.35-.24.46-.4.11-.17.16-.38.16-.64,0-.5-.2-.85-.61-1.04-.21-.1-.48-.15-.81-.15h-1.99v4.38h.59v-1.88h1.31c.24,0,.41.03.52.08.19.1.3.29.31.58l.04.73c0,.17.02.29.03.35.01.06.03.11.05.15h.73v-.1c-.09-.04-.16-.13-.19-.27ZM176.29,74.11c-.16.11-.37.17-.64.17h-1.33v-1.5h1.41c.2,0,.35.03.47.09.22.11.33.33.33.64,0,.29-.08.49-.24.6Z"/><polygon class="cls-2" points="180.14 72.27 180.84 72.27 183.03 75.81 183.03 72.27 183.59 72.27 183.59 76.65 182.93 76.65 180.71 73.11 180.71 76.65 180.14 76.65 180.14 72.27"/><path class="cls-2" d="M188.58,72.27h-.67l-1.65,4.38h.61l.47-1.31h1.73l.44,1.31h.65l-1.59-4.38ZM187.51,74.85l.71-1.94.67,1.94h-1.37Z"/><polygon class="cls-2" points="195.52 72.27 195.52 72.79 194.04 72.79 194.04 76.65 193.44 76.65 193.44 72.79 191.97 72.79 191.97 72.27 195.52 72.27"/><rect class="cls-2" x="198.28" y="72.27" width=".6" height="4.38"/><path class="cls-2" d="M205.53,72.89c-.37-.5-.94-.75-1.72-.75s-1.3.27-1.68.81c-.29.42-.44.93-.44,1.52,0,.66.17,1.2.52,1.63.39.45.92.67,1.59.67.72,0,1.28-.25,1.67-.76.33-.43.5-.98.5-1.63,0-.6-.15-1.1-.44-1.49ZM205,75.69c-.23.38-.61.56-1.14.56-.55,0-.95-.17-1.19-.5-.25-.33-.37-.74-.37-1.23,0-.61.14-1.07.43-1.38.29-.31.66-.47,1.11-.47s.84.16,1.11.47c.27.31.4.73.4,1.25,0,.49-.12.92-.35,1.29Z"/><polygon class="cls-2" points="208.87 72.27 209.57 72.27 211.75 75.81 211.75 72.27 212.32 72.27 212.32 76.65 211.65 76.65 209.44 73.11 209.44 76.65 208.87 76.65 208.87 72.27"/><path class="cls-2" d="M217.43,72.27h-.67l-1.65,4.38h.61l.47-1.31h1.73l.44,1.31h.65l-1.59-4.38ZM216.36,74.85l.71-1.94.67,1.94h-1.37Z"/><polygon class="cls-2" points="221.76 72.27 222.35 72.27 222.35 76.13 224.55 76.13 224.55 76.65 221.76 76.65 221.76 72.27"/><polygon class="cls-2" points="144.15 38.6 128.75 70.86 112.84 38.6 110.14 38.6 128.78 76.7 146.91 38.6 144.15 38.6"/><polygon class="cls-2" points="125.85 38.6 123.09 38.6 118.37 48.48 119.78 51.34 125.85 38.6"/><polygon class="cls-2" points="125.12 62.17 136.34 38.6 133.58 38.6 123.7 59.29 125.12 62.17"/><polygon class="cls-2" points="112.52 59.37 102.27 38.6 99.57 38.6 111.14 62.25 112.52 59.37"/><polygon class="cls-2" points="118.18 70.86 114.27 62.92 112.85 60.04 107.69 70.86 91.78 38.6 89.08 38.6 107.72 76.7 112.89 65.82 118.21 76.7 123.1 66.43 121.68 63.53 118.18 70.86"/></g></svg>