<?xml version="1.0" encoding="UTF-8"?><svg id="Layer_2" xmlns="http://www.w3.org/2000/svg" viewBox="0 0 250.18 100.11"><defs><style>.cls-1{fill:none;font-family:cafedeparis, 'cafe de paris-sans';font-size:104.57px;letter-spacing:-.02em;stroke:#e9e2cf;stroke-miterlimit:10;}.cls-2{fill:#6ee856;stroke-width:0px;}</style></defs><g id="Layer_1-2"><text class="cls-1" transform="translate(.5 78.11)"><tspan x="0" y="0">X</tspan></text><polygon class="cls-2" points="179.4 90.81 179.4 91 176.42 91 176.42 90.81 177.09 90.22 177.09 81.37 176.42 80.92 176.42 79.84 178.51 79.84 178.71 79.84 178.71 90.22 179.4 90.81"/><path class="cls-2" d="M191.46,90.81v.19h-3v-.19l.69-.58v-6.58c0-1.96-1.21-3.41-2.96-3.41s-3.11,1.27-3.43,3.02v6.97l.69.58v.19h-2.98v-.19l.69-.58v-8.85l-.69-.45v-.19l2.09-.89h.19v1.64c1.17-1.04,2.53-1.64,4.01-1.64,2.05,0,3.99,1.12,3.99,3.93v6.45l.69.58Z"/><path class="cls-2" d="M196.9,90.89v.26c-1.53.06-3.58-.3-3.58-3.02v-8.03h-1.21v-.26l2.63-1.81h.19v1.81h1.79v.26h-1.79v8.29c0,1.25.37,2.5,1.96,2.5"/><path class="cls-2" d="M207.3,89.4c-1.12,1.17-2.37,1.9-4.43,1.9-3.82,0-5.98-2.85-5.98-5.66s2.16-5.81,5.98-5.81c1.99,0,4.19,1.04,4.06,2.98-.19,3.13-6.95,2.63-7.14,6.24.99,1.23,2.18,1.99,4.04,1.77,1.4-.17,2.35-.67,3.26-1.6l.22.17ZM199.55,88.71c.58-3.39,5.76-3.06,5.76-6.13,0-1.36-1.14-2.44-2.7-2.44,0,0-.45-.02-.86.09-2.55.56-3.69,3.41-3.17,6.04.17.84.41,1.68.97,2.44Z"/><path class="cls-2" d="M216.04,80.19l-.45,1.6c-.97-1.04-1.86-1.36-2.59-1.36-1.53,0-2.53,1.53-2.76,2.83v6.97l.69.58v.19h-2.98v-.19l.67-.58v-8.85l-.67-.45v-1.08h2.29v1.64c1.23-1.1,2.46-1.64,3.97-1.64.65,0,1.29.09,1.83.34"/><polygon class="cls-2" points="219.66 90.81 219.66 91 216.68 91 216.68 90.81 217.35 90.22 217.35 81.37 216.68 80.92 216.68 79.84 218.78 79.84 218.97 79.84 218.97 90.22 219.66 90.81"/><path class="cls-2" d="M232.2,85.65c0,2.81-1.9,5.66-5.72,5.66s-5.74-2.85-5.74-5.66,1.92-5.81,5.74-5.81,5.72,3,5.72,5.81M230.5,84.8c-.54-2.7-2.55-5.14-5.14-4.58-2.55.54-3.43,3.41-2.91,6.07.54,2.72,2.55,5.2,5.16,4.62,2.59-.54,3.45-3.45,2.89-6.11Z"/><path class="cls-2" d="M241.16,80.19l-.45,1.6c-.97-1.04-1.86-1.36-2.59-1.36-1.53,0-2.53,1.53-2.76,2.83v6.97l.69.58v.19h-2.98v-.19l.67-.58v-8.85l-.67-.45v-1.08h2.29v1.64c1.23-1.1,2.46-1.64,3.97-1.64.65,0,1.3.09,1.83.34"/><path class="cls-2" d="M242.97,82.11c.52,2.22,7.21,3.04,7.21,6.15,0,2.05-2.53,3.04-4.68,3.04-1.45,0-3.28-.41-4.77-1.42l.52-1.62c1.25,1.66,3.04,2.74,4.64,2.74,1.45,0,2.98-.45,2.98-2.01,0-2.61-7.06-3.17-7.19-6.28-.07-1.81,1.86-2.87,3.6-2.87.93,0,2.5.13,4.32,1.06l-.54,1.62c-1.06-1.36-2.22-2.42-3.97-2.42-1.12,0-2.42.76-2.11,2.01"/><path class="cls-2" d="M179.73,98.12c.12.1.22.22.3.37.07.15.11.3.11.47,0,.21-.05.4-.16.57-.11.17-.26.3-.47.4-.2.1-.44.14-.72.14h-1.54v-4.13h1.48c.28,0,.52.05.72.14.2.09.35.22.44.38.1.16.15.34.15.53,0,.24-.07.45-.2.61-.13.16-.31.28-.53.35.15.02.29.08.41.18M177.79,97.72h.91c.25,0,.45-.06.59-.18.14-.12.21-.28.21-.49s-.07-.37-.21-.49c-.14-.12-.34-.18-.6-.18h-.89v1.34ZM179.37,99.43c.15-.13.23-.3.23-.53s-.08-.41-.24-.54c-.16-.13-.37-.2-.64-.2h-.93v1.46h.95c.27,0,.48-.06.63-.19Z"/><polygon class="cls-2" points="183.77 95.93 182.43 98.51 182.43 100.07 181.89 100.07 181.89 98.51 180.54 95.93 181.14 95.93 182.16 98.03 183.17 95.93 183.77 95.93"/><polygon class="cls-2" points="189.11 95.93 189.11 100.07 188.57 100.07 188.57 98.19 186.47 98.19 186.47 100.07 185.92 100.07 185.92 95.93 186.47 95.93 186.47 97.75 188.57 97.75 188.57 95.93 189.11 95.93"/><path class="cls-2" d="M190.85,99.84c-.32-.18-.57-.43-.75-.75-.19-.32-.28-.69-.28-1.09s.09-.77.28-1.09c.18-.32.43-.57.75-.75.31-.18.67-.27,1.05-.27s.74.09,1.06.27c.32.18.56.43.75.75.18.32.27.68.27,1.09s-.09.77-.27,1.09c-.18.32-.43.57-.75.75-.32.18-.67.27-1.06.27s-.73-.09-1.05-.27M192.68,99.44c.23-.13.41-.33.55-.57.13-.25.2-.54.2-.87s-.07-.62-.2-.87c-.13-.25-.31-.44-.54-.57-.23-.13-.49-.2-.78-.2s-.55.07-.78.2c-.23.13-.41.33-.54.57-.13.25-.2.54-.2.87s.07.62.2.87c.13.25.31.44.55.57.23.13.49.2.78.2s.55-.07.78-.2Z"/><polygon class="cls-2" points="198.88 95.96 198.88 100.07 198.34 100.07 198.34 97.01 196.97 100.07 196.59 100.07 195.22 97 195.22 100.07 194.68 100.07 194.68 95.96 195.27 95.96 196.78 99.35 198.3 95.96 198.88 95.96"/><polygon class="cls-2" points="200.33 96.37 200.33 97.75 201.83 97.75 201.83 98.2 200.33 98.2 200.33 99.62 202.01 99.62 202.01 100.07 199.79 100.07 199.79 95.93 202.01 95.93 202.01 96.37 200.33 96.37"/><polygon class="cls-2" points="205.37 95.93 205.37 96.37 204.24 96.37 204.24 100.07 203.71 100.07 203.71 96.37 202.57 96.37 202.57 95.93 205.37 95.93"/><path class="cls-2" d="M206.86,99.84c-.32-.18-.56-.43-.75-.75-.18-.32-.27-.69-.27-1.09s.09-.77.27-1.09c.19-.32.43-.57.75-.75.32-.18.67-.27,1.05-.27s.74.09,1.06.27c.32.18.56.43.75.75.18.32.27.68.27,1.09s-.09.77-.27,1.09c-.18.32-.43.57-.75.75-.32.18-.67.27-1.06.27s-.73-.09-1.05-.27M208.69,99.44c.23-.13.41-.33.55-.57.13-.25.2-.54.2-.87s-.06-.62-.2-.87c-.13-.25-.31-.44-.54-.57-.23-.13-.49-.2-.78-.2s-.55.07-.78.2c-.23.13-.41.33-.54.57-.13.25-.2.54-.2.87s.06.62.2.87c.13.25.31.44.55.57.23.13.49.2.78.2s.55-.07.78-.2Z"/><polygon class="cls-2" points="215.89 95.93 214.69 100.07 214.08 100.07 213.12 96.74 212.13 100.07 211.53 100.07 210.37 95.93 210.95 95.93 211.85 99.44 212.84 95.93 213.45 95.93 214.4 99.43 215.31 95.93 215.89 95.93"/><polygon class="cls-2" points="219.73 100.07 219.19 100.07 217.02 96.78 217.02 100.07 216.48 100.07 216.48 95.93 217.02 95.93 219.19 99.21 219.19 95.93 219.73 95.93 219.73 100.07"/><path class="cls-2" d="M113.55,77.53c-.1-.34-.32-.66-.62-.91-.23-.2-.45-.42-.64-.66-.71-.93-1.42-1.86-2.09-2.82-.73-1.05-1.66-1.86-2.77-2.49-.51-.29-1.03-.5-1.6-.58-.08-.01-.16-.03-.3-.06.25-.23.46-.42.66-.61.6-.56.94-1.25.99-2.07.03-.58-.06-1.14-.23-1.69-.11-.38-.4-.59-.8-.6-.26,0-.53.01-.79.05-.55.07-1.1.16-1.69.24.07-.1.11-.17.15-.23.14-.21.29-.42.4-.64.41-.8.03-1.38-.55-1.73-.16-.09-.34-.17-.51-.21-.43-.1-.86-.2-1.29-.23-.6-.05-1.19-.15-1.75-.37-.74-.3-1.49-.58-2.22-.89-.58-.25-1.18-.29-1.8-.21-.42.05-.75.25-1.01.58-.39.48-.73.98-.98,1.55-.83,1.96-1.34,3.98-1.24,6.13.04.89.19,1.75.64,2.53.01.02,0,.05.02.17-.16-.18-.27-.3-.38-.42-.78-.94-1.44-1.96-1.92-3.07-.53-1.2-1.44-2.06-2.38-2.91-.21-.19-.46-.29-.73-.12-.22.14-.47.26-.65.44-.24.26-.45.56-.63.87-.47.78-.76,1.64-1.05,2.5-.19.57-.38,1.13-.58,1.7-.2.57-.42,1.12-.6,1.69-.38,1.21-.5,2.45-.36,3.71.04.36.12.71.33,1.01.3.44.59.89.93,1.3.77.91,1.77,1.39,2.96,1.43.71.03,1.41-.09,2.1-.24,1.26-.26,2.48-.08,3.68.36.57.21,1.03.6,1.51.96.49.37,1.43,1.03,2.01,1.22,1.12.36.33,0,.63.03.29-.02.56-.03.81-.08.88-.19,1.77-.4,2.64-.63.79-.21,1.59-.29,2.41-.3.95,0,1.89-.02,2.84-.06,1.12-.04,2.22-.28,3.32-.49.53-.1,1.03-.25,1.51-.5.76-.39,1.25-1.03,1.54-1.81.1-.26.17-.59.1-.84M110.81,74.25c.18.31.39.59.6.9-.43.01-.83,0-1.22.04-1.73.17-3.29.83-4.81,1.62-1.58.82-3.01,1.86-4.36,3.01-.53.46-1.4.84-1.2.7,1.02-.7,2-1.46,2.91-2.3.4-.37.77-.77,1.16-1.15,1.32-1.29,2.82-2.3,4.59-2.87.56-.18,1.14-.27,1.73-.27.26,0,.46.08.6.32ZM109.96,73.09c.13.21.29.4.46.63-.09.02-.14.03-.19.03-1.23-.09-2.33.32-3.41.84-1.34.64-2.48,1.55-3.5,2.61-.8.83-1.67,1.57-2.57,2.27-.09.07-.19.14-.29.21-.02.01-.05,0-.12.02.07-.09.11-.16.17-.22.35-.35.68-.71,1.05-1.04.79-.7,1.46-1.52,2.06-2.38,1.04-1.49,2.47-2.43,4.18-2.97.47-.15.96-.22,1.44-.32.31-.06.54.02.71.3ZM107.41,70.81c.76.43,1.46.93,2.02,1.6.03.04.06.08.12.17-1.41.18-2.72.49-3.9,1.22-.84.52-1.55,1.16-2.13,1.95-.7.96-1.44,1.88-2.32,2.68-.54.49-1.03,1.03-1.55,1.55-.17.17-.34.33-.57.45.05-.1.09-.2.16-.29.64-.95,1.29-1.88,1.93-2.84.59-.89,1.16-1.78,1.72-2.69.94-1.55,2.25-2.72,3.77-3.66.12-.08.26-.15.4-.18.12-.03.27-.02.37.03ZM105.76,70.23c.37.08.74.17,1.12.26,0,.03-.01.06-.02.09-.34.2-.71.38-1.03.61-1.32.96-2.5,2.06-3.33,3.5-.6,1.04-1.26,2.03-1.98,3-.59.8-1.1,1.66-1.64,2.5-.16.24-.45.46-.4.35.86-2.01,1.87-3.95,3.02-5.8.98-1.57,2.15-2.98,3.47-4.27.24-.23.48-.32.79-.25ZM106.68,68.09c-.2.54-.57.95-.98,1.34-.66.62-1.33,1.22-1.95,1.88-1.25,1.32-2.34,2.77-3.2,4.37-.68,1.26-1.31,2.56-1.96,3.84-.06.11.1-.85.28-1.43.99-3.12,2.74-5.78,4.9-8.2.68-.77,1.4-1.49,2.22-2.12.31-.24.55-.56.85-.88.06.43,0,.82-.15,1.2ZM105.7,65.24c.6-.09.82.07,1,.64.13.41.09.75-.19,1.06-.28.3-.55.61-.85.89-.51.48-1.08.92-1.56,1.43-1.49,1.58-2.81,3.31-3.9,5.2-.75,1.31-1.27,2.72-1.73,4.16-.04.14-.04-.67.05-1.2.26-1.43.59-2.84,1.23-4.16.92-1.88,2.02-3.62,3.51-5.11.3-.3.59-.61.9-.91.5-.49.9-1.05,1.15-1.71.08-.2.2-.25.38-.28ZM103.82,63.27c.27.26.33.56.18.9-.11.24-.25.47-.42.67-.5.62-1.04,1.21-1.51,1.86-.61.84-1.18,1.71-1.72,2.59-.86,1.4-1.44,2.93-1.89,4.51-.24.86-.45,1.72-.67,2.59-.02.08-.05.15-.07.23-.03,0-.06,0-.09,0,.1-.8.19-1.61.31-2.41.27-1.9.89-3.69,1.76-5.4.7-1.38,1.59-2.64,2.61-3.81.5-.57.99-1.14,1.51-1.73ZM100.3,62.23c-2.45,1.84-3.67,4.37-4.34,7.22.2-2.87,1.36-5.39,2.87-7.81.48.19.95.38,1.47.59ZM98.59,61.53c-1.06,1.54-1.83,3.18-2.4,4.92-.58,1.77-.63,3.58-.55,5.41-.53-1.14-.86-2.32-.83-3.59.05-1.77.48-3.45,1.24-5.04.34-.7.8-1.32,1.31-1.9.06-.07.13-.13.21-.2.33.13.64.25,1.02.4ZM93.17,69.01c-.15-2.2.39-4.25,1.26-6.24.22-.49.57-.93.87-1.38.22-.32.52-.47.92-.48.37,0,.74,0,1.13.15-.06.09-.1.16-.16.23-1.14,1.25-1.87,2.71-2.26,4.34-.21.89-.39,1.79-.41,2.72-.02,1.1.21,2.14.59,3.16.26.7.56,1.38.78,2.09.28.89.49,1.8.73,2.7.03.12.04.23.06.35-.02,0-.03.02-.05.03-.15-.35-.3-.71-.45-1.06-.53-1.24-1.28-2.36-1.99-3.51-.59-.95-.96-1.97-1.04-3.11ZM85.98,69.45c.86.33,1.4.94,1.72,1.74.17.43.3.89.38,1.34.17.95.72,1.61,1.51,2.1.37.23.74.47,1.11.71.78.52,1.32,1.27,1.81,2.05.21.35.37.73.56,1.12-.79-.44-1.55-.83-2.28-1.27-.67-.4-1.34-.82-1.98-1.27-.5-.35-.84-.84-1.11-1.39-.32-.65-.63-1.29-.97-1.93-.34-.62-.73-1.21-1.31-1.64.18-.52.36-1.03.55-1.57ZM88.96,79.75c-.69.05-1.36-.04-1.97-.38-.32-.18-.64-.39-.91-.64-.57-.53-1-1.17-1.37-1.85-.16-.31-.2-.65-.19-.99.03-.01.07-.02.1-.04.15.26.31.52.46.79.27.51.58.98,1.01,1.38.63.6,1.36.97,2.22,1.09.65.09,1.29.15,1.94.23.17.02.34.04.51.09-.59.18-1.18.28-1.79.33ZM91.65,79.26c-1-.12-2.01-.24-3.01-.36-1.44-.18-2.48-.95-3.19-2.2-.25-.44-.47-.89-.86-1.24-.06-.06-.13-.16-.13-.23,0-.51,0-1.03.15-1.59.4.38.58.81.76,1.24.1.25.2.49.28.75.44,1.3,1.35,2.13,2.6,2.64.83.34,1.7.52,2.57.71.36.08.73.15,1.08.29-.09,0-.18.01-.26,0ZM93.36,79.31c-1.2-.28-2.41-.55-3.61-.83-.78-.18-1.52-.46-2.22-.88-.55-.33-.99-.77-1.29-1.33-.22-.41-.41-.84-.57-1.27-.22-.57-.44-1.14-.89-1.59-.06-.06-.08-.2-.06-.28.17-.61.36-1.22.54-1.83.04-.01.08-.02.12-.03.13.14.29.27.39.43.38.59.75,1.19,1.1,1.8.24.42.42.86.63,1.29.29.62.69,1.14,1.26,1.52.65.44,1.33.83,2,1.24.75.45,1.51.89,2.26,1.35.16.1.29.26.44.4-.03,0-.07.02-.1.01ZM95.1,80.16c-.41-.34-.82-.68-1.21-1.04-.45-.43-.73-.98-1-1.53-.58-1.17-1.4-2.13-2.55-2.79-.5-.29-.99-.58-1.39-.99-.31-.31-.51-.68-.61-1.1-.11-.43-.22-.85-.33-1.27-.27-.98-.84-1.71-1.78-2.14-.05-.02-.09-.05-.2-.11.25-.68.5-1.33.76-2.02.39.17.67.41.89.71.65.84,1.15,1.77,1.45,2.79.37,1.24,1.09,2.2,2.1,2.98.87.68,1.71,1.41,2.35,2.33.29.42.51.87.65,1.36.22.77.37,1.56.75,2.27.12.22.25.44.41.73-.13-.08-.21-.11-.27-.16ZM96.56,81.2c-.59-.52-1.06-1.08-1.37-1.75-.21-.46-.41-.93-.51-1.42-.32-1.67-1.23-2.95-2.53-3.99-.3-.24-.6-.49-.9-.73-.91-.72-1.58-1.6-1.92-2.73-.22-.74-.55-1.44-.95-2.11-.37-.61-.78-1.18-1.46-1.54.14-.24.24-.43.36-.6.1-.16.22-.3.35-.48.12.08.24.14.33.23.88.78,1.58,1.69,1.98,2.81.17.46.31.94.53,1.38.21.44.47.87.76,1.26.47.65,1.05,1.2,1.65,1.73,1.08.96,1.82,2.15,2.31,3.5.22.62.37,1.28.54,1.92.22.81.45,1.62.82,2.38.01.03,0,.07.02.16ZM96.55,80.32c-.33-1.01-.62-2.04-.91-3.06-.44-1.55-1.2-2.92-2.36-4.06-.55-.54-1.11-1.07-1.65-1.63-.5-.52-.85-1.15-1.1-1.84-.27-.75-.5-1.51-.94-2.2-.43-.67-.94-1.26-1.55-1.76-.06-.05-.12-.1-.18-.16.2-.2.4-.25.61-.08.31.25.66.48.9.78.37.47.69.98.99,1.5.42.72.78,1.49,1.22,2.2.3.48.66.94,1.05,1.35.79.85,1.53,1.74,2.19,2.69.73,1.04,1.22,2.17,1.49,3.42.26,1.21.85,1.61.86,2.85,0,.29-.46.44-.61,0ZM96.54,73.76c-.09-.43-.2-.82-.26-1.22-.27-1.69-.09-3.35.49-4.96.33-.9.73-1.77,1.22-2.6.53-.91,1.27-1.64,2.02-2.36.31-.29.66-.44,1.1-.19-.04.06-.08.13-.12.19-.38.47-.77.92-1.13,1.4-.49.65-.97,1.3-1.44,1.96-1.04,1.47-1.66,3.08-1.72,4.9-.03.94-.1,1.89-.15,2.87ZM96.89,74.2c-.01-.2-.03-.4-.03-.6-.02-1.4.1-2.79.32-4.17.14-.89.53-1.7.98-2.47.76-1.32,1.71-2.5,2.65-3.69.17-.22.35-.44.51-.67.1-.14.2-.19.37-.16.28.05.57.09.96.14-3.67,3.32-5.36,7.45-5.7,12.22-.02-.2-.04-.4-.05-.6ZM97.34,77.42c-.03-.12-.09-.24-.09-.37.02-1.24-.05-2.48.12-3.71.23-1.7.62-3.35,1.29-4.93.51-1.22,1.15-2.37,1.99-3.4.51-.63,1.06-1.23,1.59-1.85.03-.04.07-.08.11-.11.52-.49.72-.49,1.31.03-.17.2-.33.41-.51.6-1.17,1.26-2.29,2.56-3.18,4.04-.51.84-.92,1.74-1.28,2.66-.75,1.93-1.11,3.94-1.26,5.99-.02.34-.01.69-.08,1.04ZM97.89,77.85c.07-.92.32-1.8.6-2.68.5-1.57.96-3.16,1.68-4.65.62-1.27,1.25-2.53,2.16-3.63.17-.2.34-.41.52-.6.61-.64,1.39-.89,2.31-.93-.06.16-.1.28-.15.4-.26.56-.62,1.05-1.06,1.48-1.04,1.02-2.05,2.06-2.85,3.28-.9,1.36-1.7,2.77-2.21,4.33-.41,1.25-.63,2.56-.8,3.86-.05.35-.1.7-.15,1.05-.13-.64-.09-1.27-.04-1.9ZM98.47,81.81c-.08.02-.04-.17,0-.18,1.08-.35,1.88-.91,2.75-1.61,1.04-.84,2.07-1.68,3.21-2.36,1.13-.68,2.3-1.28,3.54-1.74.88-.32,1.79-.5,2.72-.6.51-.05.93.09,1.27.51.26.33.59.62.87.93.14.15.25.33.38.49-.02.02-.03.04-.05.07-.08-.01-.17-.02-.25-.04-.8-.17-1.6-.24-2.42-.26-.75-.02-1.5-.03-2.22.18-.69.2-1.37.43-2.03.71-1.1.47-2.13,1.08-3.15,1.71-1.09.67-2.17,1.35-3.37,1.82-.41.16-.84.25-1.26.36ZM112.01,79.76c-.45.3-.94.51-1.47.61-1.14.2-2.28.43-3.43.53-1.1.1-2.21.06-3.31.08-.03,0-.07-.02-.12-.03.05-.03.08-.06.12-.07,1.58-.56,3.15-1.16,4.78-1.55,1.02-.24,2.05-.34,3.09-.15.23.04.45.13.77.23-.19.16-.3.27-.43.35ZM113.22,78.07c-.09.38-.41.92-.75,1.23-1.21-.55-2.46-.48-3.7-.25-1.48.29-2.89.81-4.31,1.32-.75.27-1.5.54-2.27.76-.65.18-1.32.29-2.03.45.06-.05.09-.08.13-.1,1.29-.72,2.58-1.44,3.86-2.17,1.12-.64,2.26-1.24,3.48-1.67.78-.28,1.59-.43,2.42-.43.92,0,1.84.03,2.74.2.45.09.53.2.42.65Z"/><path class="cls-2" d="M96.06,100.11c-.56-2.73.48-5.79,1.63-8.29.94-2.65,1.19-5.59.19-8.22-.29-.75-.76-1.64-1.37-2.09l.74-1.04c1.64,1.46,2.23,3.7,2.34,5.76.16,3.06-1.08,5.81-2.38,8.46-.7,1.67-.89,3.62-.65,5.43h-.5Z"/><path class="cls-2" d="M147.43,67.35v9.96s.04.05.06.07c-.02,0-.04,0-.06,0v15.63c0,5.02,1.81,6.33,1.81,6.33v.51h-7.8v-.51s1.7-.83,1.81-6.33v-14.3c-2.67,1.68-6.61,2.21-12.09,2.32-4.18.09-6.42,1.18-7.07,4.71v6.96c0,6.33,1.81,6.64,1.81,6.64v.51h-7.8v-.51s1.78-.68,1.75-6.64v-25.5c0-5.71-1.75-6.43-1.75-6.43v-.51h7.8v.51s-1.81.22-1.81,6.43v14.84c1.27-1.87,3.54-2.67,6.85-2.72,8.93-.18,11.64-2.78,12.32-8.47v-3.51c0-6.1-1.81-6.57-1.81-6.57v-.51h7.8v.51s-1.81.24-1.81,6.57"/><path class="cls-2" d="M178.92,60.27h-27.57l-.18,4.36h.78s1.3-2.16,3.71-2.93h0c1.11-.36,2.11-.68,4.18-.6h.17c3.4,0,2.86,3.32,2.86,6.72v24.48c0,1.48-.13,2.9-.36,4.13,0,0,0,.02,0,.03-.1.51-.21.98-.34,1.4-.48,1.43-1.04,1.49-1.04,1.49v.5h7.22v-.5s-.56-.06-1.04-1.49c-.13-.43-.25-.9-.34-1.41,0,0,0,0,0,0-.23-1.23-.36-2.66-.36-4.15v-7.76s.02,0,0,0v-16.71c0-3.4.08-6.72,3.48-6.72h.17c1.71,0,3.07.24,4.18.6h0c2.41.77,3.71,2.93,3.71,2.93h.78v-4.36Z"/></g></svg>