<?xml version="1.0" encoding="UTF-8"?><svg id="Layer_2" xmlns="http://www.w3.org/2000/svg" viewBox="0 0 244.65 100.11"><defs><style>.cls-1{fill:none;font-family:cafedeparis, 'cafe de paris-sans';font-size:104.57px;letter-spacing:-.02em;stroke:#e9e2cf;stroke-miterlimit:10;}.cls-2{fill:#6ee856;stroke-width:0px;}</style></defs><g id="Layer_1-2"><text class="cls-1" transform="translate(.5 78.11)"><tspan x="0" y="0">X</tspan></text><path class="cls-2" d="M175.85,82.48c-.17-.02-.19.09-.22.17-.39,1.03-.78,2.07-1.17,3.1-.55,1.45-1.1,2.89-1.65,4.34-.65,1.73-1.3,3.46-1.95,5.19-.45,1.2-.9,2.39-1.36,3.59-.07.17-.17.34-.28.49-.39.53-1.39.53-1.74-.12-.11-.21-.2-.43-.29-.65-.66-1.78-1.32-3.55-1.98-5.33-.66-1.78-1.31-3.56-1.97-5.33-.6-1.61-1.2-3.22-1.8-4.84-.04-.1-.09-.19-.17-.34-.05.11-.09.16-.09.21-.01.11,0,.22,0,.33,0,4.49,0,8.99,0,13.48,0,.11,0,.22,0,.33.02.53.31.84.84.91.39.05.78.11,1.17.16.08.01.15.04.22.06.1.35.11.97.03,1.42-.1.11-.23.08-.36.08-.71,0-1.42,0-2.14,0-1.16,0-2.31,0-3.47,0-.13,0-.25,0-.38,0-.13-.01-.21-.08-.21-.21-.02-.41-.04-.82.02-1.24.1-.03.18-.08.27-.09.36-.06.72-.1,1.08-.16.14-.02.28-.06.41-.1.33-.12.48-.39.53-.72.01-.11,0-.22,0-.33,0-4.94,0-9.87,0-14.81,0-.09,0-.19,0-.28-.02-.37-.22-.58-.58-.62-.49-.05-.97-.1-1.46-.15-.06,0-.12-.02-.18-.03-.03-.05-.08-.08-.08-.12,0-.38-.02-.76-.01-1.14,0-.16.08-.23.23-.24.11-.01.22,0,.33,0,1.58,0,3.16,0,4.75,0,.11,0,.22,0,.33,0,.46.03.77.26.93.69.45,1.2.89,2.4,1.34,3.6.48,1.3.97,2.6,1.45,3.91.54,1.45,1.07,2.9,1.61,4.35.29.78.58,1.57.88,2.35.04.11.11.21.2.37.06-.12.1-.19.13-.26.38-1,.76-2.01,1.14-3.01.78-2.05,1.56-4.1,2.33-6.16.63-1.68,1.27-3.37,1.89-5.06.19-.51.53-.77,1.06-.78.09,0,.19,0,.28,0,1.57,0,3.13,0,4.7,0,.58,0,.59,0,.58.58,0,.3.04.6-.05.91-.09.02-.18.05-.27.06-.41.05-.82.09-1.23.13-.47.05-.66.26-.67.74,0,.09,0,.19,0,.28,0,4.97,0,9.94,0,14.91,0,.13,0,.25,0,.38.03.35.21.55.56.59.47.06.94.1,1.41.14.05,0,.09.02.16.03.02.08.07.16.07.25,0,.39.04.79-.04,1.21-.13.02-.25.04-.37.04-.68,0-1.36,0-2.04,0-1.47,0-2.94,0-4.41,0-.54,0-.56-.02-.56-.56,0-.21,0-.41,0-.62.01-.28.06-.34.32-.37.38-.04.75-.07,1.13-.11.09,0,.19-.01.28-.03.37-.05.48-.18.51-.56,0-.09,0-.19,0-.28,0-4.78,0-9.56,0-14.34,0-.14-.02-.27-.03-.4Z"/><path class="cls-2" d="M152.5,32.71c-.06,0-.12-.02-.18-.02-1.85-.04-3.4-.78-4.71-2.05-.63-.61-1.11-1.34-1.33-2.21-.06-.26-.09-.53-.1-.8,0-.38.18-.55.54-.58.13,0,.25,0,.38,0,4.07,0,8.13,0,12.2,0,1.73,0,3.35.42,4.85,1.27,1.27.72,2.25,1.72,2.86,3.07.03.07.11.12.18.2.05-.06.09-.1.11-.14.62-1.42,1.66-2.45,2.99-3.19.95-.52,1.97-.84,3.03-1.04.77-.14,1.54-.17,2.31-.17,3.85,0,7.69,0,11.54,0,.14,0,.28,0,.43,0,.3,0,.55.15.56.57,0,.31-.05.63-.13.93-.25.88-.77,1.59-1.42,2.21-.81.78-1.76,1.33-2.84,1.67-.5.15-1.01.27-1.54.25-.12,0-.25,0-.36,0-.06.16.05.2.12.25.27.17.55.32.81.49,1.7,1.11,3.02,2.57,4.01,4.35.58,1.05.99,2.15,1.26,3.31.16.66.22,1.34.28,2.02.11,1.21-.03,2.4-.27,3.58-.2.98-.54,1.91-.98,2.81-.49,1-1.09,1.92-1.82,2.76-1.25,1.43-2.74,2.51-4.5,3.24-1.02.42-2.08.66-3.16.79-.44.05-.88.05-1.33.05-1.08,0-2.15,0-3.23,0-1.33.01-2.61.25-3.82.81-.59.27-1.15.6-1.59,1.1-.11.12-.22.23-.39.25-.24.03-.43-.04-.59-.22-.37-.43-.83-.73-1.32-.99-.78-.41-1.6-.66-2.47-.81-.75-.12-1.51-.16-2.27-.16-1.11,0-2.21-.02-3.32-.01-.61,0-1.2-.11-1.79-.22-1.14-.23-2.21-.64-3.23-1.21-.96-.53-1.83-1.19-2.61-1.96-.86-.85-1.58-1.8-2.17-2.86-.72-1.3-1.19-2.68-1.43-4.14-.07-.4-.08-.82-.12-1.23-.02-.24-.06-.47-.05-.71,0-.38.04-.76.07-1.13.07-1.01.27-2.01.59-2.97.31-.93.72-1.82,1.24-2.66.5-.81,1.08-1.56,1.76-2.23.77-.77,1.64-1.44,2.59-1.98.12-.07.24-.14.36-.21,0-.03-.01-.06-.02-.09ZM167.18,57.13c.24-.18.45-.34.68-.49,1.29-.8,2.7-1.24,4.2-1.35.8-.06,1.61-.06,2.42-.08.71-.01,1.42,0,2.14,0,1.22,0,2.39-.23,3.52-.67,1.65-.64,3.06-1.63,4.24-2.96,1.68-1.9,2.63-4.11,2.87-6.63.09-.94.06-1.89-.1-2.84-.16-.96-.41-1.88-.79-2.77-.9-2.11-2.3-3.81-4.24-5.04-1.65-1.05-3.43-1.68-5.41-1.62-.54.02-1.07.06-1.61.11-1.35.13-2.63.5-3.84,1.13-1.39.72-2.53,1.72-3.42,3.01-.06.09-.12.19-.19.27-.25.29-.65.3-.91,0-.07-.08-.14-.17-.2-.26-.42-.6-.9-1.14-1.44-1.63-1.6-1.46-3.49-2.25-5.62-2.5-.41-.05-.82-.11-1.23-.13-.54-.02-1.08-.06-1.61,0-.96.11-1.89.36-2.78.74-1.61.69-2.98,1.71-4.11,3.05-1.51,1.8-2.35,3.88-2.62,6.2-.14,1.17-.09,2.34.16,3.5.19.88.46,1.74.84,2.56.58,1.26,1.36,2.39,2.35,3.37.99.97,2.12,1.75,3.41,2.29,1.24.52,2.53.79,3.87.81,1.31.02,2.62-.03,3.94.04.81.04,1.6.14,2.38.35,1.07.28,2.06.72,2.93,1.41.05.04.11.06.19.12ZM166.59,35.12c.02-.18.04-.28.03-.37-.04-.42-.07-.85-.13-1.27-.12-.76-.37-1.47-.77-2.13-.59-.98-1.41-1.69-2.42-2.21-.49-.25-1.01-.45-1.54-.6-.75-.21-1.51-.35-2.29-.36-1.58,0-3.17,0-4.75,0-2.25,0-4.49,0-6.74,0-.14,0-.29,0-.43.02-.09.01-.13.08-.12.17.01.06.04.12.07.18.29.67.74,1.21,1.3,1.66,1.15.93,2.45,1.42,3.93,1.41,1.09-.01,2.18,0,3.28,0,.25,0,.5-.03.76-.04.3-.02.6-.05.9-.06.92-.01,1.83.09,2.73.26.73.14,1.44.35,2.13.63,1.42.59,2.71,1.37,3.77,2.5.06.06.14.11.29.22ZM186.92,28.19c-.26,0-.45-.01-.63-.01-3.7,0-7.41,0-11.11,0-1.53,0-2.98.35-4.32,1.08-.66.36-1.24.81-1.72,1.4-.99,1.2-1.37,2.61-1.38,4.14,0,.07.03.14.06.26.11-.08.19-.13.25-.19.9-.91,1.95-1.61,3.09-2.18.75-.37,1.55-.64,2.36-.84.66-.16,1.34-.24,2.02-.3.52-.05,1.05-.08,1.56-.02.6.06,1.2.09,1.8.09.97,0,1.93,0,2.9,0,.14,0,.29,0,.43,0,1.21-.13,2.3-.56,3.25-1.32.6-.48,1.09-1.05,1.4-1.77.03-.08.03-.18.05-.32Z"/><path class="cls-2" d="M115.56,89.99c-.13.17-.09.33-.09.49,0,.74,0,1.49,0,2.23,0,1.44,0,2.88,0,4.32,0,.11,0,.22,0,.33.02.38.23.63.6.68.3.04.6.06.9.09.26.03.53.07.78.1.12.38.12,1.04.01,1.44-.15.1-.32.06-.49.06-.98,0-1.96,0-2.94,0-1.16,0-2.31,0-3.47,0-.17,0-.34-.01-.51-.02-.13-.25-.08-.49-.08-.72,0-.23-.03-.47.05-.73.08-.03.17-.06.26-.08.36-.04.72-.07,1.08-.11.14-.02.29-.03.41-.09.22-.12.36-.3.38-.57,0-.16,0-.32,0-.47,0-4.91,0-9.81,0-14.72,0-.13,0-.25,0-.38-.03-.38-.28-.64-.66-.69-.41-.06-.82-.09-1.22-.15-.09-.01-.17-.06-.27-.09-.07-.41-.04-.8-.02-1.2,0-.17.1-.24.28-.26.11,0,.22,0,.33,0,2.1,0,4.21,0,6.31,0,.13,0,.25,0,.38,0,.15.01.24.09.24.24.01.35.01.7,0,1.04,0,.16-.07.22-.24.24-.35.04-.69.08-1.04.12-.16.02-.32.02-.47.04-.36.06-.59.32-.61.68,0,.08,0,.16,0,.24,0,1.9,0,3.8,0,5.7,0,.13,0,.25,0,.39.11.03.2.06.29.07.09.01.19,0,.28,0,2.9,0,5.79,0,8.69,0,.19,0,.38.03.58-.06.01-.08.04-.18.04-.27,0-1.95,0-3.89,0-5.84,0-.03,0-.06,0-.09,0-.52-.35-.82-.78-.84-.43-.02-.85-.08-1.27-.13-.24-.03-.3-.09-.31-.33,0-.3-.01-.6,0-.9,0-.23.09-.3.33-.31.09,0,.19,0,.28,0,2.1,0,4.21,0,6.31,0q.6,0,.61.6c0,.21,0,.41,0,.62,0,.09-.03.18-.06.3-.37.05-.73.1-1.09.14-.13.02-.25.02-.38.04-.38.06-.62.31-.67.69-.01.11,0,.22,0,.33,0,4.95,0,9.91,0,14.86,0,.62.23,1.04.97,1.05.38,0,.75.08,1.13.12.18.24.09.5.1.74.01.23.03.47-.04.73-.13.02-.25.04-.37.04-.63,0-1.27,0-1.9,0-1.54,0-3.07,0-4.61,0-.17,0-.34,0-.51-.01-.04-.08-.09-.14-.09-.2-.01-.36-.02-.73,0-1.09,0-.15.08-.22.24-.24.41-.04.82-.08,1.23-.12.68-.06.88-.28.88-.97,0-2.2,0-4.4,0-6.6,0-.54,0-.55-.56-.55-2.94,0-5.89,0-8.83,0-.14,0-.28.02-.39.02Z"/><path class="cls-2" d="M196.19,88.89c.23.05.46.11.69.16.89.18,1.68.56,2.36,1.15.59.51,1,1.15,1.21,1.89.38,1.31.33,2.62-.14,3.91-.34.94-.93,1.68-1.73,2.26-.79.58-1.68.93-2.63,1.15-.99.23-1.99.33-3.01.32-2.52-.01-5.03,0-7.55,0-.19,0-.38.03-.58-.05-.02-.05-.07-.11-.07-.16,0-.35-.01-.7,0-1.04,0-.19.07-.26.26-.28.34-.04.69-.08,1.04-.11.13-.01.25-.02.38-.05.3-.06.5-.3.52-.6,0-.11,0-.22,0-.33,0-4.98,0-9.97,0-14.95,0-.09,0-.19,0-.28-.01-.41-.25-.67-.67-.72-.41-.05-.82-.09-1.22-.14-.24-.03-.29-.09-.3-.34,0-.28,0-.57,0-.85,0-.25.1-.33.35-.35.09,0,.19,0,.28,0,2.36,0,4.72,0,7.07,0,1.08,0,2.15.09,3.2.34.74.18,1.45.45,2.08.89.8.57,1.32,1.34,1.57,2.3.2.77.23,1.54.11,2.31-.16.99-.65,1.81-1.42,2.45-.44.37-.92.66-1.45.89-.12.05-.29.04-.36.24ZM190.05,90.35c-.11.17-.07.36-.07.55,0,2.17,0,4.33,0,6.5,0,.11,0,.22,0,.33.01.09.04.18.06.25.06.02.09.03.12.03,1.17,0,2.34.06,3.5-.12.64-.1,1.27-.24,1.87-.52.83-.39,1.42-1.01,1.69-1.88.29-.92.31-1.86.06-2.8-.27-1.02-.9-1.71-1.88-2.1-.76-.3-1.56-.41-2.36-.45-.95-.05-1.89.1-2.84.16-.04,0-.09.03-.14.05ZM190.06,88.46c.18.09.39.1.59.09.57-.03,1.13-.08,1.7-.11.59-.03,1.15-.19,1.7-.39.89-.33,1.54-.92,1.86-1.83.28-.8.37-1.62.18-2.47-.22-1.01-.79-1.7-1.72-2.11-.61-.27-1.26-.42-1.93-.46-.73-.05-1.45-.04-2.18-.05-.08,0-.15.02-.25.04-.02.12-.05.22-.05.33,0,.3,0,.6,0,.9,0,1.84,0,3.67,0,5.51,0,.19-.04.38.08.56Z"/><path class="cls-2" d="M233.32,79.49c.12.44.11,1.11,0,1.47-.37.09-.77.11-1.16.16-.16.02-.32.02-.47.04-.33.04-.58.28-.64.61-.02.12-.02.25-.02.38,0,2.22,0,4.43,0,6.65,0,.15-.03.32.08.47.47,0,.85-.2,1.18-.51.22-.2.42-.43.61-.66,1.4-1.7,2.79-3.4,4.18-5.1.33-.4.66-.8,1-1.21.08-.1.16-.2.23-.3.07-.11,0-.27-.12-.3-.14-.03-.28-.04-.42-.06-.36-.05-.72-.09-1.1-.14-.02-.12-.06-.23-.06-.33,0-.37-.05-.75.05-1.15.16-.01.3-.03.44-.03,1.84,0,3.67,0,5.51,0,.46,0,.5.04.5.48,0,.25,0,.51,0,.76,0,.22-.05.27-.28.31-.37.06-.75.11-1.13.17-.13.02-.25.03-.38.05-.14.02-.27.08-.37.2-.07.09-.15.16-.22.25-1.09,1.3-2.17,2.6-3.26,3.89-.7.84-1.41,1.67-2.11,2.5-.12.14-.25.28-.35.49.08.14.16.29.26.43,1.65,2.38,3.31,4.75,4.96,7.12.41.59.9,1.1,1.52,1.47.65.39,1.35.6,2.11.61.83,0,.76-.04.76.79,0,.23.06.48-.09.71-.3.08-.62.07-.93.07-.68,0-1.36,0-2.04-.04-.78-.05-1.53-.23-2.23-.59-.56-.29-1.01-.71-1.37-1.22-1.13-1.59-2.25-3.17-3.37-4.76-.29-.41-.59-.82-.88-1.24-.5-.72-1.19-1.06-2.06-1.05-.64,0-.62-.05-.62.62,0,1.84,0,3.67,0,5.51,0,.14,0,.29.01.43.04.34.26.58.61.63.31.04.63.06.94.09.25.03.5.06.73.09.1.4.1,1.06,0,1.45-.15.09-.33.06-.5.06-1.79,0-3.58,0-5.36,0-.33,0-.66,0-1,0-.09,0-.19,0-.28,0-.28-.01-.34-.07-.35-.33,0-.13,0-.25,0-.38,0-.13,0-.25,0-.38,0-.41,0-.41.42-.46.36-.04.72-.09,1.08-.12.2-.02.36-.09.5-.23.1-.11.17-.23.18-.38,0-.13,0-.25,0-.38,0-4.98,0-9.97,0-14.95,0-.08,0-.16,0-.24-.02-.42-.24-.67-.67-.73-.38-.05-.75-.09-1.13-.14-.08,0-.16,0-.23-.04-.06-.03-.14-.11-.15-.17-.01-.36-.02-.73,0-1.09,0-.15.1-.23.24-.24.11-.01.22-.01.33-.01,2.14,0,4.27,0,6.41,0,.16,0,.31.02.48.02Z"/><path class="cls-2" d="M134.03,80.95c-.01-.5-.05-.95.03-1.42.1-.02.19-.05.28-.06.09-.01.19,0,.28,0,2.12,0,4.24,0,6.36,0,.66,0,.67.01.67.66,0,.16,0,.32,0,.47-.01.35-.04.38-.37.42-.42.05-.85.09-1.27.14-.14.02-.28.06-.4.13-.19.1-.29.28-.31.5,0,.11,0,.22,0,.33,0,3.5,0,6.99,0,10.49,0,.94.15,1.86.48,2.74.42,1.1,1.17,1.85,2.29,2.23.58.19,1.16.3,1.76.33.81.04,1.61.03,2.4-.18.88-.23,1.65-.63,2.22-1.36.39-.51.62-1.1.78-1.71.19-.75.27-1.53.27-2.3,0-3.18,0-6.36,0-9.54,0-.21,0-.41,0-.62-.02-.56-.25-.85-.79-.97-.17-.04-.34-.05-.52-.07-.27-.04-.53-.08-.8-.13-.18-.04-.25-.11-.25-.29-.01-.32-.01-.63,0-.95,0-.2.11-.28.3-.3.11,0,.22,0,.33,0,1.79,0,3.58,0,5.36,0,.11,0,.22,0,.33,0,.19.02.27.08.28.26.02.39.04.79-.02,1.18-.26.16-.55.16-.83.21-.23.04-.47.05-.7.1-.29.06-.53.21-.65.49-.05.11-.08.24-.09.36-.02.16,0,.32,0,.47,0,3.48,0,6.96,0,10.44,0,.78-.06,1.55-.2,2.31-.32,1.66-1.19,2.94-2.71,3.74-.86.46-1.77.73-2.73.9-1.13.2-2.27.2-3.4.08-1.03-.1-2.02-.36-2.96-.81-1.37-.64-2.34-1.66-2.83-3.09-.27-.8-.38-1.63-.38-2.48-.02-3.83-.02-7.66-.04-11.49,0-.09,0-.19,0-.28-.02-.42-.25-.67-.67-.73-.36-.05-.72-.08-1.08-.13-.12-.02-.24-.04-.43-.08Z"/><path class="cls-2" d="M216.3,92.31h-.47c-1.91,0-3.83,0-5.74,0-.03,0-.06,0-.09,0-.44,0-.43,0-.59.44-.36.96-.72,1.92-1.08,2.88-.23.62-.47,1.24-.7,1.86-.12.32,0,.51.35.56.3.04.6.06.9.09.26.03.53.03.81.12.08.48.03.94.03,1.42-.14.02-.23.05-.32.05-1.8,0-3.61,0-5.41,0-.05,0-.1,0-.14,0-.16-.02-.23-.07-.23-.24,0-.39,0-.79,0-1.15.15-.17.32-.22.48-.27.87-.31,1.48-.9,1.81-1.76.39-1.02.77-2.04,1.15-3.06.54-1.43,1.07-2.87,1.61-4.3.43-1.14.85-2.28,1.27-3.42.54-1.45,1.09-2.9,1.64-4.34.12-.33.22-.66.37-.97.26-.57.68-.93,1.35-.95.81-.02,1.34.31,1.64,1.09.36.93.71,1.86,1.07,2.79.59,1.55,1.19,3.1,1.78,4.65.55,1.43,1.09,2.86,1.63,4.29.47,1.22.94,2.45,1.41,3.67.07.18.13.35.21.53.38.9,1.03,1.5,1.95,1.82.13.05.27.1.39.14.11.35.12,1.09.01,1.45-.4.08-4.74.11-6.63.05-.11,0-.21-.03-.34-.05-.02-.12-.05-.23-.05-.33,0-.28,0-.57,0-.85,0-.22.06-.28.28-.3.38-.04.75-.07,1.13-.11.11-.01.22-.02.33-.04.22-.05.32-.21.24-.43-.11-.33-.24-.65-.36-.98-.49-1.28-.97-2.57-1.46-3.85-.06-.15-.12-.29-.2-.47ZM215.61,90.53c-.01-.09,0-.16-.03-.21-.87-2.33-1.74-4.67-2.61-7-.02-.04-.05-.07-.1-.15-.06.13-.11.2-.14.29-.15.4-.29.8-.44,1.2-.32.89-.63,1.78-.94,2.67-.34.96-.7,1.93-1.04,2.89-.03.1-.02.21-.03.31.42.07,4.9.07,5.32,0Z"/><path class="cls-2" d="M106.16,84.98c-.45.08-1.46.07-1.84,0-.14-.18-.14-.41-.18-.62-.1-.61-.21-1.22-.31-1.82-.07-.43-.32-.72-.7-.89-.66-.28-1.34-.48-2.05-.55-1.81-.19-3.49.13-4.99,1.22-1.04.76-1.76,1.76-2.24,2.94-.48,1.17-.7,2.39-.71,3.65,0,.43,0,.85,0,1.28.02.86.16,1.7.38,2.53.27.99.68,1.9,1.29,2.73.91,1.22,2.1,2.04,3.57,2.44.92.25,1.87.35,2.82.29.57-.04,1.13-.12,1.68-.29.42-.12.67-.39.77-.82.17-.74.33-1.48.5-2.22.06-.26.1-.53.22-.76.35-.09,1.3-.1,1.78-.02.02.09.06.2.06.3,0,1.12.01,2.25,0,3.37,0,.73-.52,1.4-1.22,1.65-.28.1-.58.17-.87.23-1.53.36-3.08.52-4.66.46-.88-.03-1.73-.16-2.57-.4-1.2-.33-2.29-.89-3.26-1.68-1.13-.92-2.03-2.02-2.7-3.33-.4-.78-.71-1.59-.91-2.44-.11-.46-.18-.93-.22-1.4-.05-.49-.08-.98-.07-1.47.02-1.09.14-2.18.44-3.23.54-1.83,1.5-3.41,2.97-4.65,1.05-.89,2.24-1.53,3.56-1.91,1.56-.46,3.14-.56,4.74-.43,1.15.09,2.29.28,3.4.61.64.19,1.06.61,1.3,1.21.05.13.07.28.07.42,0,1.12,0,2.25,0,3.37,0,.06-.02.12-.04.21Z"/><path class="cls-2" d="M165.95,43.76c.04,4.27-3.35,8.13-8.13,8.14-4.71.01-8.29-3.86-8.15-8.47.13-4.14,3.69-7.99,8.45-7.83,4.23.14,7.88,3.69,7.83,8.16ZM157.81,50.77c3.85.07,7.01-3.21,7.04-6.96.03-3.8-3.14-7.12-7.08-7.09-3.87.03-7.06,3.26-6.99,7.18.07,3.75,3.24,6.94,7.03,6.87Z"/><path class="cls-2" d="M184.77,43.79c.09,4.11-3.29,8.1-8.1,8.12-4.6.02-8.18-3.64-8.18-8.16,0-4.6,3.7-8.02,7.91-8.14,4.76-.13,8.49,3.81,8.37,8.18ZM176.66,50.77c3.6.07,7.03-2.9,7.02-7.03,0-4.02-3.28-7.03-7.05-7.02-3.87.01-6.95,3.14-7.01,6.91-.07,4.12,3.37,7.23,7.05,7.14Z"/><path class="cls-2" d="M167.15,54.79c-.06-.04-.13-.08-.18-.13-.52-.57-1.02-1.16-1.42-1.83-.41-.7-.55-1.44-.4-2.23.12-.64.42-1.17,1.03-1.44.75-.34,1.51-.32,2.22.12.46.28.68.73.79,1.24.18.81.04,1.57-.38,2.28-.42.71-.92,1.36-1.53,1.92-.03.03-.08.04-.15.07Z"/><path class="cls-2" d="M157.81,48.88c-2.77-.04-5.04-2.15-5.14-5.14.11-2.94,2.25-5.04,5.15-5.13,2.99.1,5.12,2.35,5.12,5.14,0,2.93-2.32,5.09-5.13,5.13ZM157.79,47.73c2.07.13,4.12-1.81,4-4.03.06-2.04-1.75-3.94-3.96-3.95-2.3,0-3.98,1.97-4.02,3.91-.05,2.25,1.93,4.17,3.98,4.07Z"/><path class="cls-2" d="M171.53,43.7c0-2.5,1.94-5,5.13-5.09,3.05.12,5.11,2.42,5.1,5.17-.02,3.02-2.44,5.12-5.15,5.1-2.94-.03-5.14-2.45-5.08-5.18ZM176.63,47.73c2.06.11,4.04-1.74,4.02-3.98-.02-2.31-1.96-3.98-3.99-4-2.06-.02-4.04,1.78-4.02,4.06.02,2.13,1.91,4.01,3.99,3.92Z"/></g></svg>