<?xml version="1.0" encoding="UTF-8"?><svg id="Layer_2" xmlns="http://www.w3.org/2000/svg" viewBox="0 0 259.9 95.56"><defs><style>.cls-1{fill:none;font-family:cafedeparis, 'cafe de paris-sans';font-size:104.57px;letter-spacing:-.02em;stroke:#e9e2cf;stroke-miterlimit:10;}.cls-2{fill:#6ee856;stroke-width:0px;}</style></defs><g id="Layer_1-2"><path class="cls-2" d="M74.44,91.45v-3.56l1.72.92c1.01.53,2.09.92,2.9.92,1.49,0,2.37-.94,2.37-3.06v-9.63h3.38v10.14c0,3.91-1.95,5.77-5.29,5.77-1.86,0-3.75-.76-5.08-1.49Z"/><path class="cls-2" d="M89.56,84.85c0-5.24,3.22-8.09,8-8.09s7.98,2.85,7.98,8.09-3.24,8.09-7.98,8.09-8-2.83-8-8.09ZM102.04,84.85c0-3.56-1.82-5.13-4.48-5.13s-4.5,1.56-4.5,5.13,1.84,5.13,4.5,5.13,4.48-1.54,4.48-5.13Z"/><path class="cls-2" d="M124.96,77.04v15.63h-3.38v-6.85h-7.77v6.85h-3.38v-15.63h3.38v5.81h7.77v-5.81h3.38Z"/><path class="cls-2" d="M145.45,77.04v15.63h-3.63l-8-10.87v10.87h-3.36v-15.63h3.63l8,10.87v-10.87h3.36Z"/><path class="cls-2" d="M156.51,91.45v-3.56l1.72.92c1.01.53,2.09.92,2.9.92,1.49,0,2.37-.94,2.37-3.06v-9.63h3.38v10.14c0,3.91-1.95,5.77-5.29,5.77-1.86,0-3.75-.76-5.08-1.49Z"/><path class="cls-2" d="M182.45,89.06h-7.01l-1.47,3.61h-3.4l6.55-15.63h3.72l6.55,15.63h-3.49l-1.45-3.61ZM181.31,86.23l-2.34-5.79-2.37,5.79h4.71Z"/><path class="cls-2" d="M190.11,84.85c0-5.15,3.24-8.09,7.49-8.09,2.02,0,4.41.76,6.44,1.95v3.79l-2.18-1.29c-1.31-.78-2.92-1.36-4.18-1.36-2.34,0-4.07,1.75-4.07,4.99s1.68,4.99,4.02,4.99c1.26,0,2.92-.57,4.23-1.36l2.18-1.29v3.79c-2.02,1.2-4.41,1.95-6.44,1.95-4.25,0-7.49-2.94-7.49-8.09Z"/><path class="cls-2" d="M208.51,84.85c0-5.24,3.22-8.09,8-8.09s7.98,2.85,7.98,8.09-3.24,8.09-7.98,8.09-8-2.83-8-8.09ZM220.99,84.85c0-3.56-1.82-5.13-4.48-5.13s-4.5,1.56-4.5,5.13,1.84,5.13,4.5,5.13,4.48-1.54,4.48-5.13Z"/><path class="cls-2" d="M229.36,77.04h7.63c2.99,0,4.64,1.45,4.64,3.98,0,1.31-.67,2.37-1.61,2.92,1.33.53,2.44,1.75,2.44,3.95,0,3.33-2.37,4.78-5.45,4.78h-7.65v-15.63ZM236.55,82.92c1.2,0,1.72-.6,1.72-1.54s-.53-1.56-1.72-1.56h-3.84v3.1h3.84ZM236.71,89.89c1.49,0,2.3-.78,2.3-2.16s-.8-2.11-2.3-2.11h-4v4.28h4Z"/><path class="cls-2" d="M246.99,91.36v-3.61l2.07.94c1.2.55,3.26,1.2,4.87,1.2s2.55-.67,2.55-1.77c0-.87-.64-1.4-2.53-1.86l-2.6-.62c-2.39-.57-4.32-1.7-4.32-4.44s2.25-4.44,5.56-4.44c2.14,0,4.09.62,6.16,1.38v3.54l-1.93-.85c-.97-.41-2.55-1.03-4.21-1.03-1.38,0-2.18.41-2.18,1.38,0,.85.76,1.29,2.5,1.75l2.83.69c2.41.6,4.14,1.82,4.14,4.41,0,2.94-2.25,4.92-5.98,4.92-2.32,0-5.15-.74-6.94-1.59Z"/><path class="cls-2" d="M167.17,10.98c-13.09,0-23.74,10.65-23.74,23.74s10.65,23.74,23.74,23.74,23.74-10.65,23.74-23.74-10.65-23.74-23.74-23.74ZM148.08,29.22h13.32c.19,4.89.09,10.41-2.88,13.54-1.72,1.81-4.31,2.77-7.9,2.93-2.09-3.15-3.31-6.92-3.31-10.97,0-1.91.28-3.75.78-5.5ZM153.62,49.24c3.23-.57,5.81-1.85,7.69-3.82,4.48-4.72,4.14-12.2,3.86-18.22l-.09-1.84h-15.44c3.35-6.25,9.95-10.51,17.53-10.51s14.17,4.26,17.53,10.51h-15.44s-.09,1.84-.09,1.84c-.28,6.02-.62,13.5,3.86,18.22,1.88,1.98,4.46,3.26,7.69,3.82-3.55,3.32-8.32,5.35-13.55,5.35s-10-2.04-13.55-5.35ZM183.73,45.69c-3.59-.17-6.19-1.13-7.9-2.93-2.97-3.12-3.07-8.64-2.88-13.54h13.32c.5,1.75.78,3.59.78,5.5,0,4.05-1.22,7.83-3.31,10.97Z"/><text class="cls-1" transform="translate(.5 78.11)"><tspan x="0" y="0">X</tspan></text></g></svg>