<?xml version="1.0" encoding="UTF-8"?><svg id="Layer_2" xmlns="http://www.w3.org/2000/svg" viewBox="0 0 221.55 95.56"><defs><style>.cls-1{fill:none;font-family:cafedeparis, 'cafe de paris-sans';font-size:104.57px;letter-spacing:-.02em;stroke:#e9e2cf;stroke-miterlimit:10;}.cls-2{fill:#6ee856;stroke-width:0px;}</style></defs><g id="Layer_1-2"><text class="cls-1" transform="translate(.5 78.11)"><tspan x="0" y="0">X</tspan></text><path class="cls-2" d="M112.8,47.38c.29,0,.5,0,.7,0,2.32,0,4.63.02,6.95-.01.53,0,.78.12.94.67.92,2.99,1.89,5.96,2.84,8.94.05.16.12.32.23.61.35-1.08.67-2.04.98-3,.51-1.59,1.01-3.18,1.52-4.77.49-1.51,1.74-2.43,3.33-2.44,1.78,0,3.55,0,5.33,0,.15,0,.31.02.52.03-.3.79-.58,1.53-.86,2.27-2.23,5.88-4.47,11.76-6.69,17.65-.17.46-.4.6-.87.58-1.41-.06-2.84.06-4.22-.16-2.13-.34-3.63-1.66-4.4-3.67-2.09-5.41-4.13-10.85-6.19-16.27-.04-.11-.06-.23-.11-.43Z"/><path class="cls-2" d="M156.32,50.99c1.17-2.69,3.22-3.93,6.11-4.02v8.08c-.7.05-1.38.03-2.04.16-2.59.49-4.08,2.31-4.08,4.96,0,2.39-.01,4.77.01,7.16,0,.47-.15.58-.59.58-1.08-.01-2.15,0-3.18-.42-2.26-.9-3.78-3.08-3.78-5.51,0-4.65,0-9.3,0-13.95,0-.49.11-.67.63-.65,1.11.04,2.23.01,3.34.01,2.07,0,3.45,1.3,3.58,3.35,0,.08.01.17.02.25Z"/><path class="cls-2" d="M137.85,47.41h7.53v20.41c-4.39.7-7.49-2.18-7.55-5.85-.07-4.77-.02-9.54-.02-14.31,0-.07.02-.13.03-.25Z"/><path class="cls-2" d="M189.64,57.63c0-3.19,0-6.38,0-9.56,0-.49.11-.67.63-.66,2.11.03,4.22.02,6.32,0,.4,0,.55.1.54.53-.01,4.7,0,9.41-.01,14.11,0,2.69-2.08,5.17-4.75,5.66-.78.14-1.59.11-2.39.12-.11,0-.27-.2-.33-.33-.06-.13-.02-.31-.02-.46,0-3.14,0-6.27,0-9.41h0Z"/><path class="cls-2" d="M140.93,41.03c-.02,2.35-1.9,4.18-4.31,4.16-2.25-.02-4.12-1.94-4.11-4.21.01-2.33,1.91-4.2,4.24-4.19,2.33,0,4.19,1.9,4.18,4.25Z"/><path class="cls-2" d="M186.24,50.87c-.02-2.38-1.98-3.56-3.54-3.46-.85.06-1.71,0-2.56,0-.46,0-.93,0-1.46,0v1.65c-.08.05-.15.1-.23.16-.09-.17-.14-.39-.28-.49-.63-.46-1.23-1-1.93-1.3-3.06-1.33-7.65-.63-10.25,2.82-1.93,2.56-2.46,5.45-2.16,8.58.41,4.3,3.71,8.47,8.39,8.78,2.32.16,4.44-.26,6.11-2.03.08-.08.18-.15.36-.29,0,.76,0,1.41,0,2.07,0,1.03-.43,1.83-1.33,2.32-1.62.87-3.24.77-4.83-.1-1.26-.69-2.51-.74-3.76,0-.49.29-.99.57-1.49.86-.76.44-1.53.89-2.31,1.35.08.15.14.25.2.35,1.03,1.61,2.48,2.71,4.21,3.46,2.73,1.18,5.59,1.4,8.49,1,1.73-.24,3.39-.75,4.81-1.84,2.43-1.86,3.55-4.37,3.57-7.37.03-5.5.04-11.01,0-16.51ZM175.04,60.92c-2.2,0-3.72-1.52-3.72-3.7,0-2.19,1.53-3.7,3.73-3.69,2.08,0,3.64,1.57,3.64,3.68,0,2.14-1.54,3.71-3.65,3.71Z"/><path class="cls-2" d="M210.53,46.83c-6.33,0-11.04,4.86-11.02,10.82-.1,5.95,4.78,10.82,11.04,10.8,6.19-.02,10.99-4.61,11-10.79.01-6.07-4.7-10.83-11.01-10.83ZM212.05,60.99c-1.36.61-2.7.46-3.85-.52-1.26-1.06-1.54-3.28-.67-4.8.81-1.42,2.52-2.05,4.16-1.52,1.44.46,2.36,1.83,2.36,3.92-.05,1.07-.58,2.3-1.99,2.93Z"/></g></svg>