<?xml version="1.0" encoding="UTF-8"?><svg id="Layer_2" xmlns="http://www.w3.org/2000/svg" viewBox="0 0 235.13 95.56"><defs><style>.cls-1{fill:none;font-family:cafedeparis, 'cafe de paris-sans';font-size:104.57px;letter-spacing:-.02em;stroke:#e9e2cf;stroke-miterlimit:10;}.cls-2{fill:#6ee856;stroke-width:0px;}</style></defs><g id="Layer_1-2"><text class="cls-1" transform="translate(.5 78.11)"><tspan x="0" y="0">X</tspan></text><polygon class="cls-2" points="170.8 40.32 173.13 47.07 180.09 28.16 175.18 28.16 170.8 40.32"/><polygon class="cls-2" points="154.74 13.74 152.22 13.74 168.59 59.37 171.21 52.27 157.97 13.74 154.74 13.74"/><polygon class="cls-2" points="182.92 13.74 180.41 13.74 176.41 24.85 181.28 24.85 185.38 13.74 182.92 13.74"/><polygon class="cls-2" points="149.16 13.74 167.25 62.86 168.59 59.37 168.59 59.37 152.21 13.74 149.16 13.74"/><polygon class="cls-2" points="174.57 28.16 171.58 28.16 169.04 35.16 170.81 40.32 175.18 28.16 174.57 28.16"/><polygon class="cls-2" points="178.87 13.74 176.9 13.74 172.8 24.85 176.42 24.85 180.41 13.74 178.87 13.74"/><polygon class="cls-2" points="144.93 11.18 144.93 11.18 145.98 13.74 147.32 13.74 149.94 13.74 153.89 13.74 156.14 13.74 158.76 13.74 160.43 13.74 159.72 11.18 144.93 11.18"/><polygon class="cls-2" points="174.62 11.18 174.62 11.18 173.9 13.74 175.61 13.74 178.2 13.74 180.48 13.74 184.41 13.74 187.02 13.74 188.39 13.74 189.42 11.18 174.62 11.18"/><path class="cls-2" d="M138.19,75.31h-.24v.24c0,.09,0,7.75,0,10.56l-5.52-10.51-.46-.87v18.66h2.02v-10.78c1.26,2.37,4.64,8.65,5.44,10.13l.45.84v-18.27h-1.7Z"/><path class="cls-2" d="M234.89,75.31h-1.7v.24c0,.09,0,7.75,0,10.56l-5.52-10.51-.46-.87v18.66h2.02v-10.78c1.25,2.37,4.64,8.65,5.44,10.13l.45.84v-18.27h-.24Z"/><path class="cls-2" d="M202.39,83.54l-.08-.05c-1.4-.94-2.73-1.83-2.73-3.65,0-1.21.69-2.51,2.21-2.51,1.04,0,1.73.62,2.32,1.29l.42.48v-2.78l-.1-.07c-.92-.64-1.84-.94-2.81-.94-1.25,0-2.31.52-3.08,1.49-.69.87-1.06,2.03-1.06,3.26,0,2.66,1.74,3.86,3.01,4.74.09.06.18.13.28.19,1.36.94,2.53,1.76,2.5,3.49.02.84-.26,1.61-.77,2.12-.41.42-.95.64-1.57.64-1.1,0-2-.71-2.56-1.3l-.42-.44v2.79l.09.07c.76.58,1.77.9,2.84.9,1.31,0,2.48-.56,3.31-1.57.76-.94,1.18-2.18,1.18-3.49,0-2.53-1.58-3.66-2.98-4.65Z"/><path class="cls-2" d="M188.33,75.31h-.24v12.08c0,3.07-.24,4.03-1.73,4.03s-1.76-.96-1.76-4.03v-12.08h-2.06v12.17c0,1.55.04,3.04.53,4.14.56,1.25,1.63,1.85,3.28,1.85,3.51,0,3.79-2.71,3.79-5.99v-12.17h-1.82Z"/><polygon class="cls-2" points="168.59 75.32 168.35 75.32 168.35 75.56 168.35 93.18 168.35 93.42 168.59 93.42 173.99 93.42 174.23 93.42 174.23 93.18 174.23 91.7 174.23 91.45 173.99 91.45 170.43 91.45 170.43 85.01 173.88 85.01 174.13 85.01 174.13 84.77 174.13 83.27 174.13 83.03 173.88 83.03 170.43 83.03 170.43 77.3 173.99 77.3 174.23 77.3 174.23 77.06 174.23 75.56 174.23 75.32 173.99 75.32 168.59 75.32"/><polygon class="cls-2" points="213.78 75.32 213.54 75.32 213.54 75.56 213.54 93.18 213.54 93.42 213.78 93.42 219.18 93.42 219.42 93.42 219.42 93.18 219.42 91.7 219.42 91.45 219.18 91.45 215.62 91.45 215.62 85.01 219.07 85.01 219.31 85.01 219.31 84.77 219.31 83.27 219.31 83.03 219.07 83.03 215.62 83.03 215.62 77.3 219.18 77.3 219.42 77.3 219.42 77.06 219.42 75.56 219.42 75.32 219.18 75.32 213.78 75.32"/><polygon class="cls-2" points="157.06 69.46 156.82 69.46 156.82 69.7 156.82 78.84 151.46 78.84 151.46 69.7 151.46 69.46 151.22 69.46 149.42 69.46 149.18 69.46 149.18 69.7 149.18 93.2 149.18 93.45 149.42 93.45 151.22 93.45 151.46 93.45 151.46 93.2 151.46 81.31 156.82 81.31 156.82 93.2 156.82 93.45 157.06 93.45 158.83 93.45 159.07 93.45 159.07 93.2 159.07 69.7 159.07 69.46 158.83 69.46 157.06 69.46"/><path class="cls-2" d="M120.31,75.61l-.24-.97-.23.98-4.16,17.51-.07.3h.3s1.84.02,1.84.02h.2s.04-.2.04-.2l.63-3.5h2.99l.63,3.5.04.2h.2s1.87-.01,1.87-.01h.31s-.07-.3-.07-.3l-4.27-17.51ZM121.27,87.97h-2.3l1.07-5.32,1.23,5.32Z"/><path class="cls-2" d="M108.58,69.46h-.2s-.04.19-.04.19c-.11.56-2.39,11.93-3.12,15.86l-3.27-15.85-.04-.19h-.2s-2.19-.01-2.19-.01h-.31s.07.3.07.3l5.64,23.72.24.99.23-.99,5.59-23.71.07-.3h-.3s-2.17-.01-2.17-.01Z"/></g></svg>