<?xml version="1.0" encoding="UTF-8"?><svg id="Layer_2" xmlns="http://www.w3.org/2000/svg" viewBox="0 0 260.08 95.56"><defs><style>.cls-1{fill:none;font-family:cafedeparis, 'cafe de paris-sans';font-size:104.57px;letter-spacing:-.02em;stroke:#e9e2cf;stroke-miterlimit:10;}.cls-2{fill:#6ee856;stroke-width:0px;}</style></defs><g id="Layer_1-2"><text class="cls-1" transform="translate(.5 78.11)"><tspan x="0" y="0">X</tspan></text><path class="cls-2" d="M183.23,92.94c-.46-.18-.96-.31-1.39-.56-1.2-.71-1.69-2.13-1.22-3.39.48-1.29,1.91-2.13,3.26-1.91,1.5.24,2.52,1.31,2.61,2.71.08,1.38-.81,2.6-2.18,2.97-.2.06-.4.12-.6.18h-.48ZM183.49,88.08c-1.13,0-1.92.77-1.91,1.9,0,1.1.82,1.89,1.94,1.88,1.06-.01,1.89-.83,1.91-1.87.02-1.06-.84-1.91-1.94-1.91Z"/><path class="cls-2" d="M149.6,92.94c-.53-.23-1.11-.38-1.58-.71-1.13-.78-1.49-2.23-.95-3.42.56-1.22,1.99-1.97,3.31-1.72,1.47.28,2.49,1.39,2.55,2.78.05,1.24-.89,2.49-2.17,2.86-.23.07-.45.13-.68.2h-.48ZM149.86,91.86c1.09,0,1.96-.84,1.96-1.9,0-1.07-.8-1.86-1.88-1.88-1.14-.02-1.96.75-1.98,1.84-.01,1.1.8,1.93,1.9,1.94Z"/><path class="cls-2" d="M173.54,45c1.86-1.56,2.16-3.7,1.01-5.7-.84-1.45-1.79-2.87-2.01-4.59-.1-.79-.09-1.59-.08-2.39,0-.25.1-.55.26-.74.15-.17.43-.23.65-.33.08.21.23.42.21.62-.04.42-.15.84-.26,1.25-.3,1.21-.21,2.38.37,3.5.46.9.95,1.79,1.42,2.69,1.29,2.46.83,4.76-1.29,6.53-.47.39-.96.77-1.37,1.21-.64.69-1.46.86-2.33.88-.91.02-1.83-.05-2.73.02-.68.05-1.36.21-2.01.38-.45.12-.91.24-1.06-.31-.14-.49.19-.79.7-.87,1.24-.19,2.48-.38,3.78-.58-.58-.2-1.15-.32-1.64-.6-.62-.36-1.19-.81-1.74-1.28-.51-.44-.6-.99-.41-1.67.36-1.26,1.04-2.26,1.97-2.9-1.01-.6-2.03-1.21-3.18-1.89-.3,1.01-.8,2.16-.98,3.37-.29,1.95-.37,3.93-.57,5.89-.02.21-.25.39-.38.59-.16-.19-.42-.36-.45-.57-.07-.55-.06-1.12-.04-1.68.18-3.64.85-7.2,1.79-10.72.43-1.61.65-3.29.99-5.07-.43.09-.69.15-1.01.21v-.97c.3.12.53.22.85.35v-2.69c.37-.18.82-.4,1.28-.62-.02-.08-.04-.16-.06-.24-1.13.55-2.18.12-3.25-.16-1.29-.34-2.6-.62-3.88-.98-.32-.09-.58-.39-.87-.6.28-.19.55-.5.86-.55,1.98-.32,3.96-.68,5.95-.85,1.32-.11,2.66.09,3.98.15q.03.7-.89,1.16c-.23,1.27-.49,2.42-.65,3.6-.09.65-.11,1.34,0,1.98.21,1.21.51,2.4.83,3.59.39,1.44,1.1,2.7,2.12,3.81.86.95,1.66,1.96,2.42,2.99.99,1.36,1.99,2.74,1.71,4.75Z"/><path class="cls-2" d="M98.62,58.56c.85,0,1.62-.04,2.39.02.27.02.57.24.76.45,1.63,1.88,3.24,3.78,4.85,5.68.14.16.29.31.5.53.22-.23.42-.43.6-.65,1.6-1.87,3.19-3.76,4.8-5.62.17-.2.46-.38.71-.39.77-.05,1.55-.02,2.39-.02v15.31h-2.74v-10.9l-.19-.05c-1.84,2.1-3.68,4.21-5.58,6.38-1.9-2.17-3.74-4.28-5.73-6.56v11.13h-2.78v-15.32Z"/><path class="cls-2" d="M150.65,58.59h2.79v15.34c-.82,0-1.65.04-2.46-.03-.26-.02-.53-.32-.72-.55-2.74-3.32-5.47-6.66-8.2-9.99-.07-.08-.1-.19-.14-.29-.08.03-.16.06-.24.09,0,.27,0,.55,0,.82,0,3.05-.02,6.1.01,9.16,0,.65-.19.85-.82.81-.64-.05-1.28-.01-1.98-.01v-15.37c.84,0,1.69-.04,2.53.02.23.02.49.28.66.49,2.75,3.29,5.49,6.58,8.22,9.87.07.08.11.19.16.28.06-.03.13-.05.19-.08v-10.57Z"/><path class="cls-2" d="M85.54,58.42c-.8-.5-1.46-.95-2.15-1.35-1.36-.78-2.81-1.01-4.33-.59-.9.25-1.6.76-1.8,1.74-.2.94.14,1.73.85,2.28.65.5,1.39.89,2.12,1.27,1.25.66,2.58,1.19,3.77,1.94,2.29,1.45,3.2,3.9,2.53,6.39-.62,2.31-2.76,3.99-5.34,4.17-2.39.17-4.54-.58-6.55-1.8-.17-.1-.32-.37-.33-.56-.03-.96-.02-1.92-.02-3.03.52.35.95.64,1.38.93,1.33.89,2.73,1.55,4.37,1.68,1.47.12,2.85-.58,3.37-1.81.56-1.34.24-2.56-1.1-3.51-.93-.66-2-1.13-2.99-1.7-1.09-.63-2.26-1.15-3.23-1.93-2.89-2.32-2.3-6.77,1.09-8.27,2.71-1.2,5.39-.85,7.93.61.2.12.38.45.4.68.05.9.02,1.81.02,2.84Z"/><path class="cls-2" d="M127.24,74.14c-4.56,0-8.33-3.59-8.33-7.91,0-4.36,3.82-7.98,8.39-7.97,4.5.01,8.3,3.68,8.28,7.99-.01,4.34-3.77,7.9-8.34,7.89ZM127.22,60.92c-3.08.01-5.34,2.25-5.34,5.29,0,3.04,2.38,5.4,5.41,5.36,3-.04,5.38-2.4,5.38-5.35,0-3.03-2.35-5.32-5.44-5.31Z"/><path class="cls-2" d="M251.3,69.32v4.61c-.87,0-1.69.04-2.5-.03-.14-.01-.34-.47-.34-.72-.02-3.32-.02-6.63-.02-9.95,0-1.52,0-3.04,0-4.52,2.45,0,4.84-.19,7.18.05,2.26.24,3.79,1.98,4.16,4.09.42,2.41-.52,4.56-2.53,5.78-.09.05-.18.11-.33.21,1.03,1.66,2.04,3.3,3.15,5.09-1.11,0-2.06.03-3.01-.02-.2-.01-.43-.28-.56-.48-.73-1.18-1.46-2.36-2.14-3.57-.23-.41-.5-.56-.95-.54-.67.03-1.34,0-2.12,0ZM251.33,66.61c1.03,0,2.02.03,3.01,0,1.48-.05,2.52-1.08,2.6-2.53.08-1.48-.85-2.74-2.3-2.89-1.08-.11-2.18-.02-3.31-.02v5.45Z"/><path class="cls-2" d="M206.57,69.32v4.61c-.87,0-1.69.04-2.5-.03-.14-.01-.34-.47-.34-.72-.02-3.16-.02-6.31-.02-9.47,0-1.68,0-3.36,0-5.14,1.78,0,3.49-.03,5.19.01.85.02,1.73.03,2.54.26,2.08.59,3.32,2.05,3.62,4.17.32,2.28-.33,4.23-2.39,5.54-.13.08-.27.16-.47.29,1.03,1.67,2.05,3.31,3.15,5.1-1.1,0-2.06.03-3-.02-.2-.01-.43-.28-.56-.48-.73-1.18-1.46-2.37-2.14-3.58-.23-.41-.5-.56-.96-.54-.67.04-1.34,0-2.12,0ZM206.59,66.6c1.05,0,2.04.03,3.02,0,1.48-.05,2.52-1.09,2.59-2.54.08-1.49-.86-2.73-2.32-2.88-1.08-.11-2.18-.02-3.3-.02v5.45Z"/><path class="cls-2" d="M182.05,57.53c-2.17-1.14-4.36-1.8-6.76-1.08-1.54.46-2.81,1.3-3.8,2.56-2.1,2.69-2.2,6.62-.24,9.36,1.22,1.71,2.88,2.74,4.97,3.09,2.07.35,3.96-.2,5.88-1.14,0,.94.03,1.79-.02,2.64-.01.2-.23.48-.42.56-5.58,2.21-13.11-.19-14.64-7.27-.87-4.02.1-7.64,3.36-10.34,3.23-2.67,6.94-3.1,10.89-1.85.63.2.91.5.84,1.2-.07.66-.02,1.34-.02,2.01,0,.05-.02.1-.05.28Z"/><path class="cls-2" d="M200.84,73.93c-1,0-1.9.02-2.8-.02-.16,0-.37-.27-.46-.46-.36-.77-.65-1.58-1.04-2.34-.12-.24-.49-.49-.74-.5-1.98-.04-3.96-.04-5.95,0-.24,0-.57.25-.68.47-.39.76-.66,1.58-1.06,2.33-.13.24-.48.48-.75.5-.8.07-1.6.02-2.5.02.08-.25.12-.45.2-.63,2.1-4.7,4.21-9.4,6.28-14.11.22-.5.5-.58,1.01-.66,1.29-.19,1.89.32,2.4,1.52,1.86,4.4,3.86,8.74,5.81,13.1.09.21.16.43.28.78ZM195.24,68.07c-.8-1.84-1.56-3.59-2.39-5.5-.84,1.95-1.6,3.69-2.38,5.5h4.77Z"/><path class="cls-2" d="M234.12,73.94v-15.33h10.64v2.49h-7.78v3.43h5.87v2.57h-5.88v4.2c.29,0,.57,0,.86,0,2.09,0,4.18.01,6.27,0,.5,0,.7.12.71.67.04,1.97.06,1.97-1.89,1.97-2.63,0-5.26,0-7.88,0h-.93Z"/><path class="cls-2" d="M222.68,61.11h-5.29v-2.49h13.36v2.49h-5.25c0,.38,0,.69,0,.99,0,3.66-.02,7.33.01,10.99,0,.66-.17.91-.85.86-.63-.05-1.27-.01-1.99-.01v-12.82Z"/><path class="cls-2" d="M90.79,58.6h2.81v15.29h-2.81v-15.29Z"/><path class="cls-2" d="M196.57,87.18h1.07v5.5c-.66.21-1.12.05-1.54-.5-.82-1.08-1.72-2.12-2.72-3.34v3.88h-1.08v-5.47c.68-.24,1.15-.03,1.59.53.81,1.05,1.69,2.05,2.68,3.25v-3.84Z"/><path class="cls-2" d="M159.31,92.74h-.99v-5.5c.64-.2,1.08-.03,1.5.52.8,1.05,1.69,2.04,2.68,3.23v-3.76h1.05v5.48c-.63.18-1.06.04-1.47-.49-.83-1.09-1.74-2.13-2.77-3.38v3.91Z"/><path class="cls-2" d="M169.68,87.17c.86,0,1.66-.02,2.46,0,1.58.06,2.75,1.24,2.77,2.74.02,1.53-1.09,2.74-2.67,2.84-.82.05-1.65,0-2.55,0v-5.6ZM170.72,91.76c1.11.02,2.18.21,2.83-.85.39-.64.39-1.36-.04-1.96-.69-.96-1.73-.86-2.78-.79v3.6Z"/><path class="cls-2" d="M139.12,91.78h2.72c.01.32.03.6.04.93h-3.75v-5.51h.99v4.58Z"/></g></svg>