<?xml version="1.0" encoding="UTF-8"?><svg id="Layer_2" xmlns="http://www.w3.org/2000/svg" viewBox="0 0 244.19 95.56"><defs><style>.cls-1{fill:none;font-family:cafedeparis, 'cafe de paris-sans';font-size:104.57px;letter-spacing:-.02em;stroke:#e9e2cf;stroke-miterlimit:10;}.cls-2{fill-rule:evenodd;}.cls-2,.cls-3{fill:#6ee856;stroke-width:0px;}</style></defs><g id="Layer_1-2"><text class="cls-1" transform="translate(.5 78.11)"><tspan x="0" y="0">X</tspan></text><polygon class="cls-2" points="186.26 56.48 186.26 55.4 182.21 55.4 182.21 52.82 185.94 52.82 185.94 51.73 182.21 51.73 182.21 49.16 186.21 49.16 186.21 48.08 180.94 48.08 180.94 56.48 186.26 56.48"/><rect class="cls-3" x="187.32" y="48.08" width="1.24" height="8.4"/><path class="cls-2" d="M190.9,52.78c.01-.28.08-.53.2-.76.14-.28.34-.49.59-.66.25-.17.55-.25.9-.25.31,0,.59.07.83.22.23.15.42.35.54.59.14.25.2.54.2.87h-3.26ZM193.9,56.4c.36-.14.66-.35.9-.6.23-.25.4-.55.5-.89l-1.17-.21c-.07.2-.17.36-.31.49-.15.14-.31.24-.5.31-.2.06-.4.09-.64.09-.36,0-.68-.07-.95-.23-.27-.15-.47-.38-.62-.67-.14-.28-.21-.61-.21-.99h4.46v-.43c0-.58-.07-1.06-.22-1.47-.16-.39-.37-.73-.64-.97-.27-.25-.57-.44-.9-.55-.32-.12-.67-.18-1.03-.18-.59,0-1.1.14-1.54.42-.43.28-.77.66-1.02,1.16-.24.5-.36,1.06-.36,1.71,0,.65.12,1.23.36,1.71.24.49.59.86,1.04,1.12.45.27.98.4,1.6.4.46,0,.88-.07,1.24-.21h0Z"/><polygon class="cls-2" points="200.38 50.18 198.78 55.03 198.72 55.03 197.12 50.18 195.8 50.18 198.1 56.48 199.4 56.48 201.69 50.18 200.38 50.18"/><path class="cls-2" d="M203.65,55.41c-.22-.16-.34-.38-.34-.69,0-.22.06-.39.17-.52.12-.14.28-.24.46-.31.2-.07.42-.12.66-.15.09-.01.22-.03.37-.05.15-.02.31-.05.47-.07.15-.03.29-.06.42-.1.13-.03.21-.07.25-.12v.81c0,.25-.06.49-.18.71-.13.22-.31.39-.55.52-.24.14-.53.21-.88.21s-.64-.08-.86-.23h0ZM205.14,56.47c.24-.1.45-.23.6-.38.16-.15.28-.31.36-.47h.06v.87h1.19v-4.18c0-.46-.08-.83-.23-1.12-.16-.29-.37-.52-.61-.67-.24-.16-.51-.27-.8-.32-.28-.06-.55-.09-.8-.09-.38,0-.75.06-1.09.16-.35.12-.66.29-.91.52-.27.24-.47.55-.6.94l1.14.25c.09-.22.25-.42.5-.6.23-.18.55-.28.97-.28.39,0,.69.1.9.3.2.2.3.47.3.83v.03c0,.14-.06.25-.16.31-.1.07-.28.12-.51.14-.24.03-.54.07-.92.12-.3.03-.59.08-.88.15-.29.07-.54.17-.77.31-.24.13-.43.31-.55.54-.14.23-.21.52-.21.88,0,.42.09.76.28,1.04.19.29.44.51.76.66.32.15.69.22,1.09.22.35,0,.65-.05.9-.15Z"/><path class="cls-2" d="M208.92,54.89c0,.38.08.69.25.95.17.25.4.44.68.55.28.13.58.18.9.17.2,0,.36-.02.5-.05.13-.02.23-.06.3-.08l-.22-1.02s-.1.02-.17.03c-.08.01-.16.02-.27.02-.13,0-.25-.02-.37-.07-.1-.05-.2-.13-.28-.24-.07-.12-.1-.3-.1-.53v-3.47h1.29v-.98h-1.29v-1.51h-1.23v1.51h-.92v.98h.92v3.72Z"/><path class="cls-2" d="M213.95,55.28c-.25-.21-.45-.47-.57-.81-.13-.34-.19-.72-.19-1.12,0-.39.06-.76.19-1.11.12-.34.31-.6.57-.81.24-.21.57-.31.95-.31s.71.1.96.31c.25.21.44.47.55.81.13.35.18.72.18,1.11s-.06.79-.18,1.12c-.12.34-.3.6-.55.81-.25.2-.57.3-.96.3s-.71-.1-.95-.3M216.44,56.2c.44-.28.79-.65,1.03-1.14.24-.49.36-1.05.36-1.7s-.12-1.23-.36-1.72c-.24-.49-.59-.87-1.03-1.13-.44-.28-.96-.42-1.55-.42s-1.11.14-1.55.42c-.44.27-.77.65-1.03,1.13-.24.5-.36,1.06-.36,1.72,0,.65.12,1.21.36,1.7.25.5.59.87,1.03,1.14.44.27.96.4,1.55.4s1.11-.14,1.55-.4Z"/><path class="cls-2" d="M220.18,56.48v-3.85c0-.28.06-.52.2-.73.13-.22.3-.39.53-.51.22-.13.49-.18.77-.18.13,0,.25.01.38.02.12.02.21.03.25.05v-1.17c-.06-.01-.14-.01-.24-.02-.1,0-.2-.01-.28-.01-.37,0-.69.1-.99.3-.29.2-.49.46-.6.8h-.07v-.99h-1.19v6.3h1.24Z"/><path class="cls-2" d="M227.09,50.54c-.39-.3-.92-.45-1.61-.45-.47,0-.9.08-1.26.24-.37.15-.66.37-.87.65-.21.29-.31.61-.31.98,0,.45.14.82.43,1.11.28.3.71.51,1.29.65l1.08.23c.3.07.52.17.67.3.14.14.22.3.22.5,0,.24-.13.45-.36.62-.24.16-.57.24-.97.24-.37,0-.67-.07-.9-.23s-.38-.39-.45-.71l-1.19.18c.1.55.38.99.82,1.29.45.3,1.03.45,1.73.45.51,0,.96-.08,1.34-.25.39-.16.69-.39.91-.68.21-.3.32-.64.32-1.02,0-.44-.15-.81-.43-1.09-.29-.28-.72-.49-1.29-.61l-1.01-.23c-.35-.08-.6-.2-.75-.32-.16-.13-.24-.29-.24-.51,0-.24.12-.44.36-.59.23-.16.52-.23.87-.23.25,0,.46.03.64.12.17.08.3.19.4.32.1.13.17.25.22.4l1.11-.2c-.13-.5-.38-.89-.77-1.18h0Z"/><path class="cls-2" d="M183.09,64.35l-.12-.14c-.16-.21-.3-.42-.4-.6-.1-.2-.16-.39-.16-.58,0-.17.05-.32.13-.47.08-.15.2-.28.35-.37.15-.09.32-.14.52-.14.29,0,.52.08.68.27.17.18.25.37.25.57,0,.25-.06.46-.18.62-.14.17-.31.34-.54.49l-.52.36ZM182.88,65.82l1.87,2.2c-.17.16-.36.28-.55.37-.29.14-.6.2-.91.2s-.57-.06-.79-.18c-.23-.12-.4-.28-.53-.49-.13-.21-.18-.43-.18-.67,0-.13.07-.31.2-.54.13-.24.35-.47.68-.72l.22-.16ZM184.48,69.43c.38-.13.71-.32.97-.59l.58.67h1.39l-1.2-1.44.07-.09c.17-.23.32-.53.45-.9.12-.38.18-.83.18-1.38h-1.11c0,.44-.07.83-.22,1.19-.03.1-.08.2-.14.28l-1.68-2,.58-.43c.35-.25.61-.53.81-.83.21-.31.3-.66.3-1.06,0-.32-.08-.62-.25-.9-.16-.28-.4-.51-.72-.67-.31-.17-.68-.25-1.11-.25s-.8.08-1.12.25c-.31.17-.57.4-.74.71-.17.3-.27.64-.27,1.03,0,.34.07.65.22.95.14.29.34.58.57.86l.14.18c-.3.21-.57.43-.8.64-.25.22-.46.47-.6.74-.14.27-.21.57-.21.91,0,.45.1.84.32,1.2.22.36.53.64.94.84.4.2.89.3,1.46.3.39,0,.79-.07,1.19-.2h0Z"/><polygon class="cls-2" points="196.11 69.51 196.11 68.43 192.06 68.43 192.06 65.85 195.78 65.85 195.78 64.76 192.06 64.76 192.06 62.2 196.06 62.2 196.06 61.11 190.79 61.11 190.79 69.51 196.11 69.51"/><path class="cls-2" d="M201.12,63.57c-.39-.3-.92-.45-1.61-.45-.47,0-.9.08-1.26.24-.37.15-.66.37-.87.65-.21.29-.31.61-.31.98,0,.45.14.82.43,1.11.28.3.71.51,1.29.65l1.08.23c.3.07.52.17.67.3.14.14.22.3.22.5,0,.24-.13.45-.36.62-.24.16-.57.24-.97.24-.37,0-.67-.07-.9-.23-.23-.16-.38-.39-.45-.71l-1.19.18c.1.55.38.99.82,1.29.45.3,1.03.45,1.73.45.51,0,.96-.08,1.34-.25.39-.16.69-.39.91-.68.21-.3.32-.64.32-1.02,0-.44-.15-.81-.43-1.09-.29-.28-.72-.49-1.29-.61l-1.01-.23c-.35-.08-.6-.2-.75-.32-.16-.13-.24-.29-.24-.51,0-.24.12-.44.36-.59.23-.16.52-.23.87-.23.25,0,.46.03.64.12.17.08.3.18.4.32.1.13.17.25.22.4l1.11-.2c-.13-.5-.38-.89-.77-1.18h0Z"/><path class="cls-2" d="M207.07,69.36c.37-.18.67-.43.89-.75.22-.32.35-.68.39-1.1h-1.19c-.06.23-.14.43-.28.59-.13.16-.29.29-.47.37-.2.08-.4.13-.64.13-.35,0-.65-.09-.9-.28-.27-.17-.46-.44-.6-.77-.14-.34-.21-.73-.21-1.19,0-.45.07-.83.22-1.17.14-.32.34-.58.59-.76.25-.17.55-.27.9-.27.39,0,.71.1.94.32.23.21.38.46.45.76h1.19c-.05-.43-.17-.8-.4-1.12-.23-.31-.54-.55-.91-.74-.38-.17-.8-.27-1.28-.27-.59,0-1.11.14-1.55.42-.44.28-.77.66-1.02,1.16-.24.49-.36,1.05-.36,1.7,0,.62.12,1.19.35,1.68.24.5.58.88,1.02,1.16.44.28.96.42,1.57.42.5,0,.94-.09,1.31-.28"/><path class="cls-2" d="M210.67,68.44c-.22-.16-.34-.38-.34-.69,0-.22.06-.39.17-.52.12-.14.28-.24.46-.31.2-.07.42-.12.66-.15.09-.01.22-.03.37-.05.15-.02.31-.05.47-.07.15-.03.29-.06.42-.1.13-.03.21-.07.25-.12v.81c0,.25-.06.49-.18.71-.13.22-.31.39-.55.52-.24.14-.53.21-.88.21s-.64-.08-.86-.23ZM212.16,69.5c.24-.1.45-.23.6-.38.16-.15.28-.31.36-.47h.06v.87h1.19v-4.18c0-.46-.08-.83-.23-1.12-.16-.29-.37-.52-.61-.67-.24-.16-.51-.27-.8-.32-.28-.06-.55-.09-.8-.09-.38,0-.75.06-1.09.16-.35.12-.66.29-.91.52-.27.24-.47.55-.6.94l1.14.25c.09-.22.25-.42.5-.6.23-.18.55-.28.97-.28.39,0,.69.1.9.3.2.2.3.47.3.83v.03c0,.14-.06.25-.16.31-.1.07-.28.12-.51.14-.24.03-.54.07-.92.12-.3.03-.59.08-.88.15-.29.07-.54.17-.77.31-.24.13-.43.31-.55.54-.14.23-.21.52-.21.88,0,.42.09.76.28,1.04.18.29.44.51.76.66.32.15.69.22,1.09.22.35,0,.65-.05.9-.15h0Z"/><rect class="cls-3" x="215.74" y="61.11" width="1.24" height="8.4"/><path class="cls-2" d="M219.62,68.44c-.22-.16-.34-.38-.34-.69,0-.22.06-.39.17-.52.12-.14.28-.24.46-.31.2-.07.42-.12.66-.15.09-.01.22-.03.37-.05.15-.02.31-.05.47-.07.15-.03.29-.06.42-.1.13-.03.21-.07.25-.12v.81c0,.25-.06.49-.18.71-.13.22-.31.39-.55.52-.24.14-.53.21-.88.21s-.64-.08-.86-.23h0ZM221.11,69.5c.24-.1.45-.23.6-.38.16-.15.28-.31.36-.47h.06v.87h1.19v-4.18c0-.46-.08-.83-.23-1.12-.16-.29-.37-.52-.61-.67-.24-.16-.51-.27-.8-.32-.28-.06-.55-.09-.8-.09-.38,0-.75.06-1.09.16-.35.12-.66.29-.91.52-.27.24-.47.55-.6.94l1.14.25c.09-.22.25-.42.5-.6.23-.18.55-.28.97-.28.39,0,.69.1.9.3.2.2.3.47.3.83v.03c0,.14-.06.25-.16.31-.1.07-.28.12-.51.14-.24.03-.54.07-.92.12-.3.03-.59.08-.88.15-.29.07-.54.17-.77.31-.24.13-.43.31-.55.54-.14.23-.21.52-.21.88,0,.42.09.76.28,1.04.19.29.44.51.76.66.32.15.69.22,1.09.22.35,0,.65-.05.9-.15h0Z"/><path class="cls-2" d="M225.12,67.92c0,.38.08.69.25.95.17.25.4.44.68.55.28.13.58.18.9.17.2,0,.36-.02.5-.05.13-.02.23-.06.3-.08l-.22-1.02s-.1.02-.17.03c-.08.01-.16.02-.27.02-.13,0-.25-.02-.37-.07-.1-.05-.2-.13-.28-.24-.07-.12-.1-.3-.1-.53v-3.47h1.29v-.98h-1.29v-1.51h-1.23v1.51h-.92v.98h.92v3.72Z"/><path class="cls-2" d="M230.15,68.31c-.25-.21-.45-.47-.57-.81-.13-.34-.18-.72-.18-1.12,0-.39.06-.76.18-1.11.12-.34.31-.6.57-.81.24-.21.57-.31.95-.31s.71.1.96.31c.25.21.44.47.55.81.13.35.19.72.19,1.11s-.06.79-.19,1.12c-.12.34-.3.6-.55.81-.25.2-.57.3-.96.3s-.71-.1-.95-.3M232.64,69.23c.44-.28.79-.65,1.03-1.14.24-.49.36-1.05.36-1.7s-.12-1.23-.36-1.72c-.24-.49-.59-.87-1.03-1.13-.44-.28-.96-.42-1.55-.42-.59,0-1.11.14-1.55.42-.44.27-.77.65-1.03,1.13-.24.5-.36,1.06-.36,1.72s.12,1.21.36,1.7c.25.5.59.87,1.03,1.14.44.27.96.4,1.55.4s1.11-.14,1.55-.4Z"/><path class="cls-2" d="M236.38,69.51v-3.85c0-.28.06-.52.2-.73.13-.22.3-.39.53-.51.22-.13.49-.18.77-.18.13,0,.25.01.38.02.12.02.21.03.25.05v-1.17c-.06-.01-.14-.01-.24-.02-.1,0-.2-.01-.28-.01-.37,0-.69.1-.99.3-.29.2-.49.46-.6.8h-.07v-.99h-1.19v6.3h1.24Z"/><path class="cls-2" d="M243.28,63.57c-.39-.3-.92-.45-1.61-.45-.47,0-.9.08-1.26.24-.37.15-.66.37-.87.65-.21.29-.31.61-.31.98,0,.45.14.82.43,1.11.28.3.71.51,1.29.65l1.08.23c.3.07.52.17.67.3.14.14.22.3.22.5,0,.24-.13.45-.36.62-.24.16-.57.24-.97.24-.37,0-.67-.07-.9-.23-.23-.16-.38-.39-.45-.71l-1.19.18c.1.55.38.99.82,1.29.45.3,1.03.45,1.73.45.51,0,.96-.08,1.34-.25.39-.16.69-.39.91-.68.21-.3.32-.64.32-1.02,0-.44-.15-.81-.43-1.09-.29-.28-.72-.49-1.29-.61l-1.01-.23c-.35-.08-.6-.2-.75-.32-.16-.13-.24-.29-.24-.51,0-.24.12-.44.36-.59.23-.16.52-.23.87-.23.25,0,.46.03.64.12.17.08.3.18.4.32.1.13.17.25.22.4l1.11-.2c-.13-.5-.38-.89-.77-1.18h0Z"/><path class="cls-2" d="M90.16,42.25v32.35h18.87v-32.35h-18.87ZM101.98,65.35l-4.75-6.56v6.56h-3.69v-13.84h3.69v6.04l4.57-6.04h4.35l-5.05,6.52,5.39,7.33h-4.52Z"/><path class="cls-2" d="M133.29,42.25v32.35h18.87v-32.35h-18.87ZM148.89,65.35h-3.08l-5.82-8.1v8.1h-3.41v-13.85h3.23l5.66,7.52v-7.52h3.43v13.85Z"/><path class="cls-2" d="M121.16,54.46c-1.97,0-3.49,1.62-3.49,3.96s1.52,3.96,3.49,3.96,3.49-1.61,3.49-3.96c0-2.34-1.52-3.96-3.49-3.96Z"/><path class="cls-2" d="M111.73,42.25v32.35h18.87v-32.35h-18.87ZM121.16,65.65c-3.98,0-7.18-2.94-7.18-7.23s3.2-7.22,7.18-7.22,7.18,2.94,7.18,7.22-3.2,7.23-7.18,7.23Z"/><path class="cls-2" d="M154.9,42.25v32.35h18.87v-32.35h-18.87ZM169.57,54.56h-6.83v2.34h5.71v2.96h-5.71v2.35h6.83v3.14h-10.47v-13.85h10.47v3.05Z"/></g></svg>