<?xml version="1.0" encoding="UTF-8"?><svg id="Layer_2" xmlns="http://www.w3.org/2000/svg" viewBox="0 0 191.62 50.56"><defs><style>.cls-1{fill:#75f64c;fill-rule:evenodd;stroke-width:0px;}</style></defs><g id="Layer_1-2"><path class="cls-1" d="M114.56,14.11c-2.77,2.78-3.68,6.19-3.19,10.01,1.04,8.12,9,11.64,15.35,9.1,2.51-1,4.33-2.73,5.32-5.27.33-.84-.01-1.33-.92-1.36-.45-.02-.9,0-1.35,0-.71-.03-1.19.28-1.49.93-.5,1.07-1.3,1.86-2.36,2.35-3.48,1.61-8.5.65-10.23-4.06-.62-1.67-.17-2.32,1.62-2.32,2.27,0,4.54,0,6.81,0l7.13.06c1.02,0,1.59-.49,1.59-1.43-.01-2.93-.9-5.56-2.85-7.78-4.28-4.89-11.47-4.18-15.42-.22M127.2,20.2c-1.64.01-3.28,0-4.91,0h0c-1.57-.01-3.13-.01-4.7-.01-.21,0-.43,0-.64-.04-1.04-.19-1.38-.82-.9-1.75,1.37-2.64,3.52-4.08,6.54-4.05,2.65.02,4.9,1.66,5.82,4.15.35.96-.16,1.7-1.2,1.7M167.13,23.47c.18-.01.36,0,.54,0,2.23,0,4.47,0,6.7,0l7.13.06c1.08,0,1.6-.53,1.57-1.6-.02-.59-.04-1.19-.14-1.77-.52-3.1-1.96-5.66-4.55-7.49-2.07-1.46-4.4-1.97-6.91-1.68-3.42.39-6.13,1.97-8.06,4.82-1.82,2.69-2.24,5.7-1.71,8.84.46,2.74,1.7,5.09,3.89,6.84,3.19,2.54,6.81,3.15,10.68,1.97,2.84-.87,4.92-2.71,6.03-5.52.32-.81,0-1.31-.88-1.35-.46-.02-.94,0-1.4-.01-.71-.03-1.19.28-1.49.93-.47,1.04-1.25,1.81-2.27,2.3-3.57,1.72-8.84.68-10.45-4.38-.39-1.23.03-1.87,1.31-1.95M166.24,18.49c1.12-2.55,3.7-4.2,6.53-4.16,2.67.03,4.93,1.62,5.88,4.14.36.96-.13,1.7-1.18,1.71-1.66.02-3.31,0-4.97,0h0c-1.58,0-3.17,0-4.75-.01-.23,0-.47-.01-.69-.07-.87-.2-1.16-.8-.8-1.62M18.15,17.48c-.45-2.58-1.68-4.68-4.14-5.75-3.18-1.38-6.41-1.3-9.51.31-1.95,1.01-3.15,2.68-3.57,4.86-.14.7.17,1.08.9,1.11.48.02.97,0,1.45,0,.7,0,.97-.2,1.17-.85.4-1.31,1.29-2.15,2.52-2.66,1.26-.53,2.57-.54,3.88-.33.93.15,1.79.5,2.5,1.16.93.86,1.26,1.96,1.37,3.18,0,.07.01.13.01.2l.07,2.1h-7.53s-8.16-.12-7.2,6.69c0,.09,0,.19.03.3.43,2.18,1.64,3.75,3.57,4.87,3.02,1.74,7.15,1.67,10.33.29,2.46-1.07,3.69-3.18,4.14-5.75.07-.41.12-.82.15-1.23,0,0,.39-2.59,0-7.26-.03-.41-.08-.83-.15-1.23M14.74,25.98c0,.07,0,.13-.01.2-.11,1.21-.44,2.32-1.37,3.18-.71.66-1.57,1.01-2.5,1.16-1.32.21-2.72.28-4.02-.14-3.09-1.01-3.44-3.23-3.44-3.23-.42-1.17.31-3.17,4.7-3.17h6.59s.13.68.04,2.01M43.88.01c-.5-.02-1.01,0-1.51,0-.98,0-1.28.31-1.28,1.29,0,3.23,0,6.45,0,9.67,0,1.58-.46,1.87-1.84,1.15-2.88-1.51-5.89-1.81-9-.92-5.51,1.58-8.85,7.02-7.91,12.84.86,5.34,4.27,8.79,9.44,9.63,2.98.48,5.8.01,8.3-1.83,1.32-.97,1.63-.86,2.21.69.1.28.32.61.57.73,1.15.57,2.1-.05,2.1-1.32,0-5.08,0-10.16,0-15.24V1.58c0-.18,0-.36-.01-.54-.06-.7-.38-1-1.07-1.03M40.97,24.28c.17,1.78-.64,3.09-1.92,4.18-4.02,3.47-10.71,2.27-12.44-3.96-.82-2.96-.24-5.7,1.89-7.97,2.59-2.74,6.68-3.17,9.79-1.01.83.59,1.57,1.39,2.16,2.22.36.49.43,1.24.49,1.89.08.88.02,1.76.02,2.65,0,.66-.05,1.34.01,2M106.97,17.05c-.53-2.68-1.92-4.61-4.44-5.37-1.96-.59-3.94-.37-5.88.15-1.73.47-3.3,1.32-4.78,2.38-.78.55-1.23.48-1.83-.3-1.34-1.75-3.11-2.48-5.14-2.56-2.75-.11-5.3.66-7.67,2.18-.27.17-.54.36-.83.48l-.51.44-.11-2.15c0-.63-1.62-.7-2.74-.52-.65.1-.86.43-.86,1.39,0,2.55,0,5.09,0,7.64h-4.56c-.03-.65-.07-1.34-.13-2.1-.03-.41-.08-.83-.15-1.23-.45-2.58-1.68-4.68-4.15-5.75-3.18-1.38-6.41-1.3-9.51.31-1.95,1.01-3.15,2.68-3.57,4.86-.14.7.17,1.08.9,1.11.48.02.97,0,1.45,0,.7,0,.97-.2,1.17-.85.4-1.31,1.29-2.15,2.52-2.66,1.26-.53,2.57-.54,3.88-.33.93.15,1.79.5,2.5,1.16.93.86,1.26,1.96,1.37,3.18,0,.07,0,.13.01.2l.07,2.1h-5.31s-2.22,0-2.22,0c0,0-8.16-.12-7.2,6.69,0,.09,0,.19.03.3.42,2.18,1.64,3.75,3.57,4.87,3.02,1.74,7.15,1.67,10.33.29,2.47-1.07,3.69-3.18,4.15-5.75.07-.41.12-.82.15-1.23,0,0,.11-.77.15-2.2h4.54s0,5.99,0,5.99c0,1.03,0,2.05,0,3.08.01.84.33,1.17,1.11,1.19.34,0,.67,0,1,0,1.45,0,1.6-.16,1.6-1.73,0-4.29,0-8.57,0-12.86,0-1,.34-1.73,1.18-2.19.45-.24.87-.53,1.32-.77,1.71-.92,3.48-1.65,5.44-1.57,1.86.07,3.24,1.09,3.74,2.91.22.78.3,1.63.31,2.44.03,4.14.01,8.28.01,12.43,0,1.04.29,1.34,1.26,1.35.47,0,.93.01,1.4,0,.72-.02,1.04-.36,1.04-1.13,0-4.59,0-9.19-.02-13.78,0-.69.22-1.2.73-1.55,1.87-1.28,3.83-2.32,6.07-2.64,2.96-.42,4.97,1.28,5.14,4.5.08,1.64.05,3.28.06,4.92,0,2.81,0,5.62,0,8.43,0,.95.29,1.25,1.18,1.25.4,0,.8,0,1.2,0,1.06,0,1.33-.29,1.33-1.44,0-4.16.02-8.32-.01-12.48,0-1.02-.09-2.06-.28-3.06M63.91,25.98c0,.07,0,.13-.01.2-.12,1.21-.45,2.32-1.37,3.18-.71.66-1.57,1.01-2.5,1.16-1.32.21-2.72.28-4.02-.14-3.09-1.01-3.44-3.23-3.44-3.23-.42-1.17.31-3.17,4.7-3.17h6.59s.13.68.05,2.01M157.09,11.77c1.19,0,1.47.42,1.02,1.51-1.49,3.53-2.98,7.05-4.47,10.58-1.23,2.91-2.46,5.82-3.69,8.74-.53,1.26-.8,1.44-2.14,1.44-.5,0-1.01-.03-1.51,0-.92.05-1.47-.37-1.82-1.21-1.43-3.44-2.89-6.86-4.33-10.28-1.3-3.1-2.62-6.19-3.92-9.29-.44-1.05-.16-1.48.99-1.49.32,0,.65,0,.97,0q2.1,0,2.83,2c1.85,5.04,3.71,10.08,5.57,15.12.07.19.13.38.24.54.26.39.65.4.91,0,.13-.19.21-.42.29-.64,1.99-5.3,3.98-10.59,5.97-15.89.35-.95.63-1.14,1.64-1.14.49,0,.97,0,1.46,0M186.74,3.74c-2.85-.04-5.12,2.17-5.13,4.93-.01,2.83,2.18,5.06,4.98,5.07,2.69.04,4.93-2.13,5.02-4.82.1-2.81-2.12-5.14-4.88-5.18ZM186.61,13.24c-2.43,0-4.47-2.02-4.47-4.46,0-2.49,1.99-4.51,4.47-4.52,2.47,0,4.48,2,4.49,4.5,0,2.44-2.02,4.47-4.49,4.48ZM188.71,7.2c.32,0,.63,0,.97,0,0,1.07,0,2.15,0,3.24-.18,0-.36,0-.57,0,0-.77,0-1.55,0-2.33-.2.78-.48,1.54-.68,2.34h-.57c-.2-.79-.51-1.56-.71-2.34,0,.77,0,1.54,0,2.34h-.59c0-1.08,0-2.15,0-3.26h.95c.18.63.41,1.5.64,2.14.19-.7.38-1.41.57-2.13ZM183.26,7.2c.84,0,1.69,0,2.55,0,0,.18,0,.34,0,.53-.31,0-.62,0-.95,0,0,.92,0,1.8,0,2.71-.23,0-.43,0-.65,0,0-.9,0-1.79,0-2.7-.33,0-.63,0-.95,0v-.54ZM38.09,44.95l-2.48,5.57h-.4l-2.48-5.57h.45l2.25,5.04,2.25-5.04h.42ZM40.75,44.95h.4v5.57h-.4v-5.57ZM48.72,50.52l-1.33-1.86c-.18.02-.35.04-.54.04h-1.59v1.82h-.4v-5.57h2c1.4,0,2.24.7,2.24,1.88,0,.88-.48,1.5-1.3,1.74l1.39,1.95h-.46ZM46.85,48.34c1.19,0,1.83-.56,1.83-1.51s-.64-1.51-1.83-1.51h-1.59v3.02h1.59ZM53.33,45.32h-2v-.37h4.41v.37h-2v5.2h-.4v-5.2ZM58.34,48.16v-3.21h.41v3.19c0,1.39.67,2.04,1.83,2.04s1.82-.65,1.82-2.04v-3.19h.4v3.21c0,1.59-.85,2.4-2.23,2.4s-2.23-.81-2.23-2.4ZM69.78,48.95h-3.23l-.71,1.57h-.44l2.56-5.57h.41l2.56,5.57h-.44l-.72-1.57ZM69.63,48.61l-1.46-3.21-1.45,3.21h2.92ZM73.71,44.95h.4v5.2h3.21v.37h-3.61v-5.57ZM84.32,45.32v2.38h2.97v.37h-2.97v2.46h-.4v-5.57h3.72v.37h-3.32ZM93.87,48.95h-3.23l-.71,1.57h-.44l2.56-5.57h.41l2.56,5.57h-.44l-.72-1.57ZM93.72,48.61l-1.46-3.21-1.45,3.21h2.92ZM97.23,49.81l.18-.3c.38.4,1.09.7,1.84.7,1.11,0,1.61-.49,1.61-1.09,0-1.67-3.48-.67-3.48-2.72,0-.79.6-1.48,1.97-1.48.61,0,1.25.19,1.68.5l-.15.33c-.46-.32-1.03-.47-1.53-.47-1.08,0-1.57.5-1.57,1.11,0,1.67,3.48.68,3.48,2.7,0,.79-.63,1.47-2,1.47-.83,0-1.62-.31-2.03-.76ZM108.93,44.95v5.57h-.4v-2.65h-3.72v2.65h-.4v-5.57h.4v2.56h3.72v-2.56h.4ZM112.64,44.95h.4v5.57h-.4v-5.57ZM116.2,47.74c0-1.61,1.23-2.82,2.89-2.82s2.9,1.2,2.9,2.82-1.24,2.82-2.9,2.82-2.89-1.21-2.89-2.82ZM121.58,47.74c0-1.41-1.07-2.45-2.48-2.45s-2.49,1.04-2.49,2.45,1.07,2.45,2.49,2.45,2.48-1.04,2.48-2.45ZM129.7,44.95v5.57h-.33l-3.79-4.84v4.84h-.4v-5.57h.34l3.79,4.84v-4.84h.4ZM137.2,44.95h.4v5.2h3.21v.37h-3.61v-5.57ZM147.07,48.95h-3.23l-.71,1.57h-.44l2.56-5.57h.41l2.56,5.57h-.44l-.72-1.57ZM146.91,48.61l-1.46-3.21-1.46,3.21h2.92ZM155.52,49.05c0,.94-.68,1.47-2.05,1.47h-2.48v-5.57h2.32c1.19,0,1.92.5,1.92,1.42,0,.66-.38,1.09-.93,1.27.79.15,1.22.63,1.22,1.4ZM151.4,45.3v2.22h1.9c.96,0,1.52-.37,1.52-1.11s-.56-1.11-1.52-1.11h-1.9ZM155.12,49.02c0-.79-.58-1.14-1.65-1.14h-2.08v2.3h2.08c1.06,0,1.65-.35,1.65-1.15Z"/></g></svg>