<?xml version="1.0" encoding="UTF-8"?><svg id="Layer_2" xmlns="http://www.w3.org/2000/svg" xmlns:xlink="http://www.w3.org/1999/xlink" viewBox="0 0 161.23 84.65"><defs><style>.cls-1{clip-path:url(#clippath);}.cls-2,.cls-3{fill:#6ee856;}.cls-4{clip-path:url(#clippath-1);}.cls-5{fill:none;stroke:#6ee856;stroke-miterlimit:10;stroke-width:.3px;}.cls-3{stroke-width:0px;}</style><clipPath id="clippath"><polygon class="cls-3" points="104.11 29.83 104.11 30.03 104.66 30.03 104.66 31.51 104.88 31.51 104.88 30.03 105.44 30.03 105.44 29.83 104.11 29.83"/></clipPath><clipPath id="clippath-1"><path class="cls-3" d="M106.96,29.83l-.4,1.17c-.04.12-.07.21-.09.27-.02-.05-.04-.14-.08-.25l-.4-1.19h-.34v1.68h.21v-1.43l.48,1.43h.2l.49-1.4v1.4h.21v-1.68h-.3Z"/></clipPath></defs><g id="Layer_1-2"><path class="cls-3" d="M80.69,46.31h.84v-10.07l6.38,7.64c1.31,1.58,2.24,2.29,4.33,2.72v-7.6l-.84-.98v5.84c-.73-.25-1.18-.71-1.88-1.56l-8.83-10.76v14.77Z"/><path class="cls-3" d="M102.12,31.54v12.32c-.73-.25-1.18-.71-1.88-1.56l-8.83-10.76v3.57l7.22,8.77c1.32,1.58,2.24,2.29,4.34,2.72v-15.06h-.84Z"/><path class="cls-3" d="M70.53,31.54l-7.12,7.22v-7.22h-2.1v14.77h2.1v-6.54l.02-.02,6.31,6.19c.13.13.26.25.38.36h2.94c-.55-.53-1.08-1.09-1.58-1.59l-6.48-6.56,6.57-6.62h-1.04Z"/><path class="cls-3" d="M56.18,31.51h-4.76c-2.06,0-3.74,1.69-3.74,3.74,0,1.32.7,2.47,1.74,3.14h-.01c.58.38,1.27.6,2.01.6.89.02,1.27.04,2.15.04,1.73,0,3.15,1.42,3.15,3.15s-1.42,3.15-3.15,3.15h-5.56v.88h7.33c2.22,0,4.04-1.82,4.04-4.03s-1.81-4-4.04-4.03l-2.45-.04c-1.58-.02-2.89-1.3-2.89-2.88s1.34-2.9,2.89-2.9h3.9,0s.07-.01.11-.01c.1,0,.19,0,.28-.03v-.77h-1Z"/><polygon class="cls-2" points="104.11 29.83 104.11 30.03 104.66 30.03 104.66 31.51 104.88 31.51 104.88 30.03 105.44 30.03 105.44 29.83 104.11 29.83"/><g class="cls-1"><rect class="cls-3" x="104.11" y="29.83" width="1.33" height="1.68"/></g><path class="cls-2" d="M106.96,29.83l-.4,1.17c-.04.12-.07.21-.09.27-.02-.05-.04-.14-.08-.25l-.4-1.19h-.34v1.68h.21v-1.43l.48,1.43h.2l.49-1.4v1.4h.21v-1.68h-.3Z"/><g class="cls-4"><rect class="cls-3" x="105.65" y="29.83" width="1.6" height="1.68"/></g><path class="cls-3" d="M71.51,49.74c-.26,0-.49.07-.65.21v1.13c.17.14.39.21.65.21.44,0,.8-.34.8-.77s-.36-.78-.8-.78M71.52,51.7c-.24,0-.47-.05-.66-.15v.14h-.42v-3.14h.42v.92c.2-.09.42-.14.66-.14.67,0,1.21.53,1.21,1.19s-.54,1.19-1.21,1.19"/><path class="cls-3" d="M72.95,52.39h-.17l.03-.4h.18c.36,0,.62-.11.76-.32l-1.07-2.3h.47l.83,1.79.72-1.79h.46l-.95,2.35c-.17.44-.61.68-1.24.68"/><path class="cls-3" d="M79.34,55.67h-1.07v-5.82h-2.06v-.53h5.18v.53h-2.05v5.82ZM83.93,55.67h-1.07v-6.35h1.07v6.35ZM88.52,55.67h-1.07v-5.82h-2.06v-.53h5.18v.53h-2.05v5.82M94.45,53.21h0l-1.09-2.46-1.16,2.46h2.25M96.66,55.69h-1.06l-.95-2.08h-2.63l-.99,2.08h-.57l3-6.38h.26l2.93,6.38M97.72,55.7v-6.38h.58l4.05,4.53v-4.53h.51v6.35h-.24l-4.39-5.03v5.06h-.51"/><path class="cls-3" d="M74.66,31.54v12.09c0,1.77,1.04,2.68,2.09,2.68v-14.77h-2.09Z"/><rect class="cls-5" x=".15" y=".15" width="160.93" height="84.35" rx="15.78" ry="15.78"/></g></svg>