<?xml version="1.0" encoding="UTF-8"?><svg id="Layer_2" xmlns="http://www.w3.org/2000/svg" viewBox="0 0 746.38 765.13"><defs><style>.cls-1{letter-spacing:-.02em;}.cls-2{letter-spacing:-.02em;}.cls-3{letter-spacing:-.02em;}.cls-4{letter-spacing:-.02em;}.cls-5{letter-spacing:-.02em;}.cls-6{letter-spacing:-.02em;}.cls-7{letter-spacing:-.02em;}.cls-8{letter-spacing:-.03em;}.cls-9{letter-spacing:-.03em;}.cls-10{letter-spacing:-.06em;}.cls-11{letter-spacing:-.06em;}.cls-12{fill:#646464;font-size:80.33px;}.cls-12,.cls-13{font-family:cafedeparis, 'cafe de paris-sans';}.cls-14{letter-spacing:-.04em;}.cls-15{letter-spacing:-.04em;}.cls-13{fill:#6ee956;font-size:149.24px;}.cls-16{letter-spacing:-.06em;}.cls-17{letter-spacing:-.06em;}.cls-18{letter-spacing:-.03em;}.cls-19{letter-spacing:-.03em;}</style></defs><g id="Layer_1-2"><text class="cls-13" transform="translate(0 110.76)"><tspan class="cls-2" x="0" y="0">CRE</tspan><tspan class="cls-17" x="177.01" y="0">A</tspan><tspan class="cls-2" x="235.67" y="0">TING</tspan><tspan class="cls-4" x="0" y="94.18">HYPER-REALI</tspan><tspan class="cls-9" x="535.27" y="94.18">S</tspan><tspan class="cls-7" x="597.43" y="94.18">TIC</tspan><tspan class="cls-4" x="0" y="188.37">3D </tspan><tspan class="cls-11" x="138.24" y="188.37">F</tspan><tspan class="cls-2" x="182.92" y="188.37">ASHION</tspan><tspan class="cls-2" x="0" y="282.55">B</tspan><tspan class="cls-15" x="56.48" y="282.55">E</tspan><tspan class="cls-2" x="105.09" y="282.55">SPOKE</tspan><tspan class="cls-2" x="0" y="376.74">CRE</tspan><tspan class="cls-17" x="177.01" y="376.74">A</tspan><tspan class="cls-2" x="235.67" y="376.74">TIONS ~</tspan><tspan class="cls-2"><tspan x="0" y="470.92"> </tspan></tspan></text><text class="cls-12" transform="translate(3.39 549.33)"><tspan class="cls-6"><tspan x="0" y="0">BRANDS</tspan></tspan><tspan class="cls-6" x="0" y="50.69">D</tspan><tspan class="cls-14" x="32.99" y="50.69">E</tspan><tspan class="cls-1" x="59.15" y="50.69">SIGNE</tspan><tspan class="cls-18" x="201.88" y="50.69">R</tspan><tspan class="cls-3" x="231.81" y="50.69">S</tspan><tspan class="cls-6"><tspan x="0" y="101.39">ORG</tspan></tspan><tspan class="cls-8" x="0" y="152.08">G</tspan><tspan class="cls-5" x="35.1" y="152.08">AMING</tspan><tspan class="cls-6" x="0" y="202.77">ME</tspan><tspan class="cls-16" x="67.7" y="202.77">T</tspan><tspan class="cls-10" x="97.55" y="202.77">A</tspan><tspan class="cls-3" x="128.73" y="202.77">VE</tspan><tspan class="cls-19" x="191.41" y="202.77">R</tspan><tspan class="cls-6" x="221.34" y="202.77" xml:space="preserve">SE   </tspan></text></g></svg>